<svg width="18" height="18" viewBox="0 0 18 18" fill="none" xmlns="http://www.w3.org/2000/svg">
<path d="M8.40205 2.18249C8.59412 1.79338 8.69015 1.59882 8.82053 1.53666C8.93396 1.48257 9.06574 1.48257 9.17917 1.53666C9.30955 1.59882 9.40558 1.79338 9.59766 2.18249L11.4199 5.87413C11.4766 5.98901 11.5049 6.04644 11.5464 6.09104C11.5831 6.13053 11.6271 6.16252 11.6759 6.18525C11.7311 6.21091 11.7945 6.22018 11.9213 6.23871L15.9973 6.83448C16.4266 6.89722 16.6412 6.92859 16.7405 7.03342C16.8269 7.12464 16.8675 7.24997 16.8511 7.37454C16.8322 7.51771 16.6768 7.66904 16.3661 7.97171L13.4177 10.8434C13.3258 10.9329 13.2798 10.9777 13.2502 11.0309C13.2239 11.0781 13.2071 11.1299 13.2006 11.1835C13.1933 11.244 13.2041 11.3072 13.2258 11.4337L13.9215 15.4898C13.9948 15.9176 14.0315 16.1315 13.9626 16.2585C13.9026 16.3689 13.796 16.4464 13.6724 16.4693C13.5304 16.4956 13.3383 16.3946 12.9541 16.1926L9.31015 14.2763C9.19661 14.2165 9.13985 14.1867 9.08004 14.175C9.02708 14.1646 8.97262 14.1646 8.91966 14.175C8.85986 14.1867 8.80309 14.2165 8.68955 14.2763L5.04561 16.1926C4.66143 16.3946 4.46935 16.4956 4.32731 16.4693C4.20374 16.4464 4.09711 16.3689 4.03712 16.2585C3.96817 16.1315 4.00486 15.9176 4.07823 15.4898L4.77391 11.4337C4.7956 11.3072 4.80644 11.244 4.7991 11.1835C4.79261 11.1299 4.77576 11.0781 4.74951 11.0309C4.71986 10.9777 4.6739 10.9329 4.58199 10.8434L1.63364 7.97171C1.32289 7.66904 1.16752 7.51771 1.14861 7.37454C1.13216 7.24997 1.1728 7.12464 1.25921 7.03342C1.35853 6.92859 1.57315 6.89722 2.00237 6.83448L6.07843 6.23871C6.20519 6.22018 6.26857 6.21091 6.32377 6.18525C6.37264 6.16252 6.41664 6.13053 6.45332 6.09104C6.49476 6.04644 6.52311 5.98901 6.57981 5.87413L8.40205 2.18249Z" fill="#F7E332" stroke="#F7E332" stroke-width="1.67647" stroke-linecap="round" stroke-linejoin="round"/>
</svg>
