<svg width="30" height="31" viewBox="0 0 30 31" fill="none" xmlns="http://www.w3.org/2000/svg">
<path fill-rule="evenodd" clip-rule="evenodd" d="M30 15.3047C30 23.5884 23.2837 30.3047 15 30.3047C6.71625 30.3047 0 23.5884 0 15.3047C0 7.02094 6.71625 0.304688 15 0.304688C23.2837 0.304688 30 7.02094 30 15.3047ZM15.5375 11.3784C14.0788 11.9847 11.1625 13.2409 6.79 15.1459C6.08 15.4284 5.7075 15.7047 5.67375 15.9747C5.61625 16.4322 6.18875 16.6122 6.96625 16.8559C7.0725 16.8897 7.1825 16.9234 7.295 16.9609C8.06125 17.2097 9.09125 17.5009 9.62625 17.5122C10.1125 17.5222 10.655 17.3222 11.2538 16.9122C15.3388 14.1534 17.4475 12.7597 17.58 12.7297C17.6738 12.7084 17.8037 12.6809 17.8912 12.7597C17.9787 12.8372 17.97 12.9847 17.9613 13.0247C17.9038 13.2659 15.6612 15.3522 14.4987 16.4322C14.1362 16.7684 13.88 17.0072 13.8275 17.0622C13.71 17.1834 13.59 17.2997 13.475 17.4109C12.7625 18.0959 12.23 18.6109 13.505 19.4509C14.1175 19.8547 14.6075 20.1884 15.0962 20.5209C15.63 20.8847 16.1625 21.2472 16.8525 21.6997C17.0275 21.8147 17.195 21.9334 17.3588 22.0497C17.98 22.4934 18.5388 22.8909 19.2288 22.8284C19.6288 22.7909 20.0437 22.4147 20.2537 21.2909C20.75 18.6334 21.7275 12.8784 21.9537 10.5059C21.9675 10.309 21.9591 10.111 21.9287 9.91594C21.9106 9.75835 21.8338 9.61335 21.7138 9.50969C21.535 9.36344 21.2575 9.33219 21.1325 9.33469C20.5688 9.34469 19.7038 9.64594 15.5375 11.3784V11.3784Z" fill="white"/>
</svg>
