<svg width="30" height="30" viewBox="0 0 30 30" fill="none" xmlns="http://www.w3.org/2000/svg">
<path d="M15.0001 0.904297C7.0471 0.904297 0.600098 7.3513 0.600098 15.3043C0.600098 23.2573 7.0471 29.7043 15.0001 29.7043C22.9531 29.7043 29.4001 23.2573 29.4001 15.3043C29.4001 7.3513 22.9531 0.904297 15.0001 0.904297ZM20.5381 17.1508C20.5381 17.1508 21.8116 18.4078 22.1251 18.9913C22.1341 19.0033 22.1386 19.0153 22.1416 19.0213C22.2691 19.2358 22.2991 19.4023 22.2361 19.5268C22.1311 19.7338 21.7711 19.8358 21.6481 19.8448H19.3981C19.2421 19.8448 18.9151 19.8043 18.5191 19.5313C18.2146 19.3183 17.9146 18.9688 17.6221 18.6283C17.1856 18.1213 16.8076 17.6833 16.4266 17.6833C16.3782 17.6832 16.3301 17.6908 16.2841 17.7058C15.9961 17.7988 15.6271 18.2098 15.6271 19.3048C15.6271 19.6468 15.3571 19.8433 15.1666 19.8433H14.1361C13.7851 19.8433 11.9566 19.7203 10.3366 18.0118C8.3536 15.9193 6.5686 11.7223 6.5536 11.6833C6.4411 11.4118 6.6736 11.2663 6.9271 11.2663H9.1996C9.5026 11.2663 9.6016 11.4508 9.6706 11.6143C9.7516 11.8048 10.0486 12.5623 10.5361 13.4143C11.3266 14.8033 11.8111 15.3673 12.1996 15.3673C12.2724 15.3664 12.344 15.3479 12.4081 15.3133C12.9151 15.0313 12.8206 13.2238 12.7981 12.8488C12.7981 12.7783 12.7966 12.0403 12.5371 11.6863C12.3511 11.4298 12.0346 11.3323 11.8426 11.2963C11.9203 11.1891 12.0227 11.1021 12.1411 11.0428C12.4891 10.8688 13.1161 10.8433 13.7386 10.8433H14.0851C14.7601 10.8523 14.9341 10.8958 15.1786 10.9573C15.6736 11.0758 15.6841 11.3953 15.6406 12.4888C15.6271 12.7993 15.6136 13.1503 15.6136 13.5643C15.6136 13.6543 15.6091 13.7503 15.6091 13.8523C15.5941 14.4088 15.5761 15.0403 15.9691 15.2998C16.0204 15.3319 16.0796 15.3491 16.1401 15.3493C16.2766 15.3493 16.6876 15.3493 17.8006 13.4398C18.1439 12.8252 18.4421 12.1865 18.6931 11.5288C18.7156 11.4898 18.7816 11.3698 18.8596 11.3233C18.9172 11.294 18.981 11.279 19.0456 11.2798H21.7171C22.0081 11.2798 22.2076 11.3233 22.2451 11.4358C22.3111 11.6143 22.2331 12.1588 21.0136 13.8103L20.4691 14.5288C19.3636 15.9778 19.3636 16.0513 20.5381 17.1508V17.1508Z" fill="white"/>
</svg>
