<svg width="622" height="520" viewBox="0 0 622 520" fill="none" xmlns="http://www.w3.org/2000/svg">
<path d="M82.5889 317.829C82.5889 317.829 -37.5671 197.652 37.051 125.797C111.669 53.9427 170.645 147.224 211.432 140.351C263.058 131.652 285.385 0.766107 362.562 0.641889C450.375 0.500582 514.827 52.3751 480.495 175.917C455.173 267.037 629.228 192.418 603.665 319.601L82.5889 317.829Z" fill="#EBF2F9"/>
<path d="M344.658 302.212C328.324 299.585 315.992 305.303 304.134 303.66C294.678 302.349 289.75 292.788 277.042 290.081C280.065 288.299 283.587 286.071 285.269 284.451C288.54 281.303 293.237 275.008 285.269 274.761C279.537 274.583 275.072 284.125 273.019 289.492C270.976 289.33 268.924 289.327 266.881 289.486C269.504 281.038 274.619 264.687 275.87 261.546C277.572 257.271 270.421 243.02 261.993 259.014C256.081 270.232 260.096 283.195 263.02 289.937C260.796 290.299 258.601 290.821 256.451 291.497C249.485 275.618 227.328 230.345 203.31 235.971C177.125 242.103 233.224 272.539 247.372 295.105C235.814 300.458 225.658 306.962 208.103 302.212C161.45 289.591 157.749 317.99 157.749 317.99L366.237 318.061C366.237 318.061 360.992 304.84 344.658 302.212Z" fill="#ACD29A"/>
<path d="M287.943 200.023C288.157 202.029 290.996 201.956 294.205 201.476C297.413 200.995 296.584 201.838 301.096 201.751C305.607 201.664 307.112 200.123 307.309 199.472C307.485 198.894 305.297 198.485 302.954 197.997C302.66 197.936 302.364 197.872 302.068 197.808C299.426 197.23 297.626 195.328 295.328 193.691C293.15 192.141 291.683 185.036 291.683 185.036L285.269 184.999C285.269 184.999 287.285 191.423 288.334 193.658C288.952 194.972 288.294 196.659 288.087 197.925C287.945 198.615 287.897 199.321 287.943 200.023Z" fill="#FFB07B"/>
<path d="M294.205 201.476C297.413 200.995 296.584 201.838 301.096 201.751C305.607 201.664 307.112 200.123 307.309 199.472C307.485 198.894 305.297 198.485 302.954 197.997L302.928 198.04C300.902 199.093 298.629 199.579 296.35 199.445C293.313 199.242 290.182 198.082 288.087 197.925C287.945 198.615 287.897 199.321 287.943 200.024C288.157 202.029 290.996 201.956 294.205 201.476Z" fill="#365DA4"/>
<path d="M237.8 199.706C237.939 201.717 240.779 201.752 244.003 201.393C247.227 201.033 246.367 201.844 250.879 201.927C255.39 202.01 256.952 200.527 257.174 199.883C257.371 199.313 255.2 198.822 252.877 198.246C252.585 198.174 252.292 198.099 251.999 198.024C249.381 197.346 247.654 195.378 245.418 193.656C243.301 192.025 245.043 185.259 245.043 185.259L240.176 182.962C240.176 182.962 239.507 189.935 239.146 193.462C238.998 194.907 238.278 196.357 238.023 197.614C237.856 198.298 237.781 199.002 237.8 199.706Z" fill="#FFB07B"/>
<path d="M244.003 201.392C247.227 201.033 246.367 201.844 250.879 201.927C255.39 202.01 256.952 200.527 257.174 199.883C257.371 199.312 255.2 198.821 252.877 198.245L252.85 198.288C250.786 199.264 248.496 199.663 246.223 199.443C243.196 199.127 240.111 197.85 238.023 197.614C237.856 198.298 237.781 199.001 237.8 199.705C237.939 201.717 240.779 201.752 244.003 201.392Z" fill="#365DA4"/>
<path d="M248.732 99.2895C248.732 99.2895 247.385 105.812 246.034 138.891C244.291 143.328 242.848 147.876 241.714 152.505C239.897 159.994 238.616 191.243 238.616 191.243C238.616 191.243 239.34 192.286 241.539 192.418C242.644 192.473 243.744 192.239 244.731 191.739C244.731 191.739 257.358 150.81 263.504 134.921C269.651 119.031 273.252 96.3417 273.252 96.3417L248.732 99.2895Z" fill="#2B478B"/>
<path d="M263.918 102.082C263.918 102.082 264.914 108.668 275.108 140.168C275.01 144.933 275.232 149.699 275.772 154.434C276.663 162.089 286.981 192.225 286.981 192.225C286.981 192.225 288.352 192.701 290.408 192.159C291.633 191.812 292.787 191.253 293.817 190.506C293.817 190.506 289.862 147.432 290.122 130.398C290.382 113.365 285.9 90.8329 285.9 90.8329L263.918 102.082Z" fill="#2B478B"/>
<path d="M281.972 10.8517C280.374 9.83539 278.409 9.63504 277.026 9.64764C277.342 9.40998 277.713 9.2562 278.104 9.20069C277.256 9.03097 275.306 9.78296 275.306 9.78296C263.645 4.6107 260.9 22.0121 260.947 26.0892C260.992 30.1656 260.788 34.8455 254.67 38.1943C242.633 44.7833 251.86 57.7969 251.86 57.7969C249.693 64.0098 257.715 71.6218 257.715 71.6218C257.579 68.3222 272.735 47.3014 280.907 42.5057C282.974 39.7684 283.909 34.7967 283.98 34.4053C283.449 38.3577 282.659 40.5501 281.989 41.7733C288.997 35.9461 286.207 13.5445 281.972 10.8517Z" fill="#C65447"/>
<path d="M279.432 40.2538C279.473 40.2724 275.609 42.2771 272.701 41.4829C269.967 40.7382 268.18 37.1946 268.217 37.1865C269.375 36.9566 269.71 35.3664 269.685 28.5341L270.209 28.6367L278.695 30.3171L279.011 30.3786C279.011 30.3786 278.81 33.1464 278.804 35.7543C278.802 36.3063 278.81 36.8499 278.83 37.3588C278.888 38.8729 279.056 40.0775 279.432 40.2538Z" fill="#FFB07B"/>
<path d="M278.804 35.7546C278.802 36.3066 278.81 36.8502 278.831 37.3591C273.894 37.1601 271.049 31.5196 269.975 29.0452L278.695 30.3174L279.011 30.3789C279.011 30.3789 278.81 33.1467 278.804 35.7546Z" fill="#EA8E50"/>
<path d="M269.299 27.6796C269.299 27.6796 266.718 23.604 266.099 20.1191C265.656 17.631 266.925 8.40857 276.199 9.73678C278.066 9.99577 279.852 10.6704 281.424 11.7109C283.438 13.0699 286.344 16.0038 283.094 24.0516L282.25 26.7702L269.299 27.6796Z" fill="#C65447"/>
<path d="M279.53 34.4763C279.53 34.4763 267.975 32.9499 269.037 25.7739C270.099 18.5978 269.323 13.5679 276.745 14.2389C284.168 14.9101 285.192 17.8596 285.421 20.341C285.649 22.8224 282.563 34.6883 279.53 34.4763Z" fill="#FFB07B"/>
<path d="M282.021 14.8451C282.021 14.8451 277.61 22.7927 272.581 23.3162C267.552 23.8396 265.645 22.2299 265.645 22.2299C268.347 20.4881 270.36 17.8619 271.338 14.8007C271.338 14.8007 280.238 10.4843 282.021 14.8451Z" fill="#C65447"/>
<path d="M281.137 15.412C281.137 15.412 283.214 17.6423 283.516 19.5549C283.818 21.4674 283.515 25.2671 284.631 25.3026C284.631 25.3026 287.863 19.9353 285.673 16.301C283.351 12.4471 281.137 15.412 281.137 15.412Z" fill="#C65447"/>
<path d="M357.87 112.909C355.446 107.778 348.707 103.532 343.029 103.53C339.117 103.498 335.315 104.827 332.276 107.288C331.9 107.593 331.452 107.795 330.975 107.877C330.498 107.959 330.008 107.917 329.551 107.756C329.095 107.595 328.688 107.319 328.369 106.956C328.049 106.592 327.828 106.153 327.727 105.68L322.758 82.6062C322.41 80.9905 321.434 79.5791 320.044 78.6825C318.655 77.7859 316.966 77.4775 315.349 77.8251L234.933 95.1206C234.151 95.2888 233.409 95.6094 232.751 96.0639C232.093 96.5185 231.531 97.0982 231.097 97.7698C230.663 98.4415 230.365 99.1921 230.221 99.9786C230.078 100.765 230.09 101.572 230.259 102.354L247.547 182.627C247.781 183.715 248.3 184.723 249.049 185.547C249.799 186.372 250.753 186.983 251.816 187.32L250.76 187.619H253.882L253.907 187.615C254.296 187.604 254.682 187.558 255.062 187.476L256.813 187.1L277.452 182.661C278.114 182.519 278.728 182.207 279.232 181.756C279.737 181.305 280.115 180.731 280.33 180.089C280.545 179.447 280.588 178.761 280.456 178.097C280.324 177.433 280.022 176.815 279.578 176.304C277.619 174.053 276.299 171.318 275.754 168.385C275.21 165.451 275.461 162.426 276.483 159.622C277.504 156.818 279.257 154.339 281.561 152.441C283.865 150.543 286.635 149.297 289.584 148.83C292.533 148.364 295.553 148.695 298.331 149.789C301.109 150.883 303.543 152.7 305.38 155.051C307.218 157.403 308.392 160.203 308.781 163.161C309.169 166.12 308.759 169.128 307.591 171.874C307.36 172.409 307.311 173.006 307.453 173.572C307.595 174.138 307.919 174.642 308.375 175.006L307.171 175.593L309.961 175.591V175.591C310.177 175.597 310.393 175.576 310.605 175.531L335.248 170.231C336.866 169.883 338.279 168.907 339.176 167.518C340.074 166.129 340.383 164.441 340.035 162.824L335.096 139.893C334.991 139.406 335.012 138.901 335.158 138.425C335.303 137.949 335.568 137.518 335.927 137.173C336.286 136.828 336.728 136.581 337.209 136.455C337.691 136.328 338.197 136.327 338.679 136.451C341.189 137.095 343.814 137.144 346.345 136.596C356.657 134.378 362.685 123.1 357.87 112.909Z" fill="#D86713"/>
<path d="M115.525 425.749C112.015 425.296 107.52 427.403 105.61 430.381C104.279 432.422 103.699 434.863 103.97 437.285C104.003 437.584 103.959 437.887 103.842 438.165C103.724 438.443 103.538 438.686 103.3 438.871C103.062 439.056 102.78 439.177 102.482 439.222C102.183 439.268 101.879 439.236 101.596 439.13L87.8059 433.981C86.8402 433.62 85.7708 433.658 84.8328 434.085C83.8949 434.512 83.1652 435.295 82.8044 436.26L64.8584 484.254C64.6839 484.721 64.6031 485.218 64.6206 485.716C64.6381 486.214 64.7536 486.704 64.9605 487.157C65.1674 487.611 65.4617 488.019 65.8265 488.359C66.1913 488.698 66.6195 488.963 67.0867 489.137L115.062 507.051C115.713 507.295 116.416 507.361 117.101 507.245C117.786 507.129 118.428 506.834 118.962 506.39L118.765 507.044L119.814 505.407L119.82 505.392C119.945 505.185 120.051 504.966 120.136 504.74L120.527 503.694L125.132 491.377C125.28 490.982 125.323 490.555 125.256 490.139C125.188 489.723 125.014 489.331 124.749 489.003C124.484 488.674 124.138 488.421 123.745 488.267C123.352 488.113 122.926 488.064 122.508 488.125C120.667 488.396 118.787 488.169 117.063 487.469C115.339 486.768 113.834 485.619 112.705 484.141C111.575 482.663 110.862 480.91 110.64 479.064C110.418 477.217 110.694 475.345 111.44 473.642C112.187 471.938 113.376 470.465 114.884 469.376C116.392 468.286 118.165 467.621 120.018 467.447C121.87 467.274 123.736 467.599 125.42 468.389C127.105 469.18 128.547 470.406 129.597 471.942C129.801 472.243 130.098 472.469 130.443 472.585C130.788 472.701 131.161 472.701 131.506 472.583L131.409 473.412L132.346 471.948L132.346 471.948C132.422 471.837 132.484 471.717 132.531 471.59L138.03 456.882C138.391 455.917 138.354 454.848 137.926 453.91C137.498 452.973 136.715 452.243 135.749 451.882L122.044 446.765C121.753 446.656 121.495 446.475 121.293 446.239C121.092 446.003 120.955 445.719 120.895 445.415C120.834 445.11 120.853 444.796 120.948 444.501C121.044 444.205 121.213 443.94 121.44 443.728C122.622 442.628 123.53 441.268 124.093 439.756C126.395 433.602 122.497 426.649 115.525 425.749Z" fill="#D86713"/>
<path d="M543.053 349.023C541.272 350.72 540.446 354.069 541.22 356.402C541.741 358.014 542.807 359.394 544.235 360.307C544.411 360.42 544.556 360.577 544.655 360.761C544.753 360.946 544.803 361.153 544.799 361.363C544.795 361.572 544.737 361.777 544.631 361.958C544.525 362.139 544.375 362.29 544.194 362.396L535.379 367.588C534.761 367.951 534.314 368.545 534.135 369.238C533.955 369.932 534.059 370.668 534.423 371.285L552.519 401.965C552.695 402.263 552.928 402.524 553.205 402.732C553.482 402.941 553.797 403.093 554.133 403.179C554.468 403.266 554.818 403.286 555.161 403.237C555.504 403.189 555.835 403.074 556.133 402.898L586.801 384.834C587.217 384.589 587.561 384.239 587.798 383.818C588.035 383.398 588.156 382.922 588.149 382.44L588.417 382.833L587.99 381.55L587.985 381.54C587.928 381.382 587.856 381.229 587.77 381.084L587.376 380.416L582.732 372.542C582.583 372.29 582.371 372.08 582.117 371.934C581.862 371.789 581.574 371.712 581.281 371.711C580.988 371.71 580.699 371.786 580.444 371.931C580.189 372.076 579.976 372.285 579.826 372.537C579.168 373.649 578.223 374.565 577.09 375.189C575.957 375.813 574.678 376.123 573.385 376.086C572.092 376.05 570.833 375.668 569.737 374.98C568.642 374.292 567.751 373.324 567.156 372.176C566.562 371.029 566.285 369.742 566.356 368.452C566.427 367.161 566.842 365.913 567.559 364.837C568.276 363.761 569.268 362.896 570.432 362.332C571.596 361.769 572.89 361.527 574.179 361.632C574.431 361.653 574.683 361.592 574.897 361.456C575.11 361.321 575.273 361.119 575.36 360.882L575.766 361.296L575.385 360.15L575.385 360.15C575.357 360.061 575.32 359.975 575.272 359.894L569.727 350.492C569.363 349.875 568.768 349.428 568.074 349.248C567.38 349.069 566.643 349.173 566.026 349.537L557.265 354.697C557.079 354.806 556.868 354.867 556.652 354.872C556.437 354.877 556.223 354.827 556.032 354.727C555.841 354.626 555.679 354.479 555.562 354.298C555.444 354.117 555.374 353.909 555.359 353.694C555.282 352.575 554.944 351.49 554.372 350.525C552.052 346.591 546.589 345.654 543.053 349.023Z" fill="#D86713"/>
<path d="M331.974 498.004C333.191 496.743 333.678 494.334 333.056 492.697C332.637 491.565 331.836 490.614 330.792 490.007C330.663 489.932 330.556 489.825 330.48 489.696C330.404 489.568 330.362 489.422 330.359 489.273C330.355 489.123 330.39 488.976 330.46 488.844C330.53 488.712 330.633 488.6 330.758 488.519L336.877 484.557C337.306 484.28 337.606 483.844 337.713 483.345C337.82 482.846 337.724 482.325 337.446 481.897L323.638 460.601C323.504 460.394 323.33 460.215 323.126 460.075C322.923 459.935 322.694 459.836 322.452 459.785C322.211 459.733 321.961 459.73 321.719 459.774C321.476 459.819 321.244 459.911 321.037 460.046L299.749 473.829C299.46 474.016 299.226 474.276 299.07 474.582C298.914 474.889 298.842 475.231 298.862 475.574L298.66 475.303L299.002 476.203L299.006 476.21C299.051 476.321 299.107 476.427 299.172 476.528L299.473 476.992L303.017 482.457C303.13 482.633 303.288 482.775 303.473 482.871C303.659 482.968 303.866 483.014 304.075 483.005C304.284 482.997 304.487 482.934 304.664 482.823C304.841 482.713 304.987 482.558 305.086 482.374C305.521 481.562 306.166 480.881 306.954 480.403C307.741 479.924 308.643 479.665 309.564 479.653C310.486 479.64 311.394 479.874 312.194 480.33C312.995 480.787 313.659 481.449 314.117 482.248C314.574 483.048 314.81 483.955 314.798 484.876C314.787 485.797 314.529 486.698 314.051 487.485C313.573 488.273 312.893 488.919 312.082 489.355C311.27 489.791 310.356 490.003 309.435 489.967C309.255 489.959 309.078 490.01 308.93 490.113C308.782 490.216 308.672 490.365 308.617 490.536L308.315 490.253L308.621 491.058L308.622 491.058C308.644 491.121 308.673 491.181 308.709 491.237L312.941 497.763C313.219 498.191 313.655 498.492 314.155 498.598C314.654 498.705 315.176 498.609 315.604 498.331L321.686 494.394C321.815 494.31 321.963 494.261 322.116 494.251C322.27 494.241 322.423 494.27 322.562 494.336C322.701 494.401 322.821 494.502 322.91 494.627C322.999 494.752 323.055 494.897 323.072 495.05C323.161 495.844 323.435 496.607 323.871 497.277C325.641 500.008 329.559 500.51 331.974 498.004Z" fill="#D86713"/>
<path d="M340.189 103.53C336.277 103.498 332.476 104.827 329.436 107.289C329.06 107.593 328.612 107.795 328.135 107.877C327.658 107.959 327.168 107.917 326.712 107.756C326.255 107.595 325.848 107.319 325.529 106.956C325.21 106.592 324.989 106.153 324.888 105.68L319.918 82.6063C319.57 80.9906 318.594 79.5792 317.205 78.6826C315.815 77.786 314.127 77.4776 312.51 77.8253L232.093 95.1207C231.311 95.2889 230.57 95.6095 229.912 96.064C229.253 96.5186 228.691 97.0982 228.257 97.7699C227.823 98.4416 227.526 99.1922 227.382 99.9787C227.238 100.765 227.251 101.572 227.419 102.354L244.707 182.627C245.06 184.266 246.051 185.697 247.46 186.607C248.869 187.516 250.583 187.829 252.223 187.477L274.612 182.661C275.274 182.519 275.888 182.208 276.393 181.757C276.897 181.305 277.276 180.731 277.49 180.089C277.705 179.447 277.749 178.761 277.617 178.097C277.485 177.433 277.182 176.815 276.738 176.304C274.779 174.053 273.459 171.318 272.915 168.385C272.371 165.451 272.622 162.426 273.643 159.622C274.664 156.818 276.418 154.339 278.722 152.442C281.026 150.544 283.796 149.297 286.745 148.831C289.694 148.364 292.714 148.695 295.491 149.789C298.269 150.883 300.703 152.7 302.541 155.052C304.378 157.403 305.552 160.203 305.941 163.162C306.33 166.12 305.919 169.128 304.752 171.874C304.559 172.323 304.494 172.817 304.563 173.301C304.632 173.785 304.834 174.241 305.145 174.619C305.456 174.996 305.865 175.281 306.327 175.442C306.789 175.603 307.287 175.634 307.765 175.531L332.409 170.231C334.026 169.883 335.439 168.907 336.337 167.518C337.234 166.129 337.543 164.441 337.195 162.824L332.256 139.893C332.151 139.406 332.172 138.901 332.318 138.425C332.464 137.949 332.729 137.518 333.088 137.173C333.447 136.829 333.888 136.581 334.37 136.455C334.851 136.328 335.357 136.327 335.84 136.451C338.349 137.095 340.974 137.144 343.506 136.596C353.817 134.378 359.845 123.1 355.031 112.909C352.606 107.778 345.868 103.532 340.189 103.53Z" fill="#F1A34F"/>
<path d="M104.656 431.87C103.324 433.912 102.744 436.352 103.016 438.774C103.049 439.074 103.005 439.377 102.887 439.655C102.77 439.932 102.583 440.175 102.345 440.36C102.107 440.545 101.826 440.666 101.527 440.712C101.229 440.757 100.924 440.725 100.642 440.619L86.8516 435.47C85.8859 435.11 84.8165 435.147 83.8785 435.575C82.9405 436.002 82.2109 436.784 81.85 437.749L63.9041 485.744C63.7295 486.211 63.6487 486.707 63.6662 487.205C63.6837 487.703 63.7992 488.193 64.0061 488.647C64.213 489.1 64.5073 489.508 64.8721 489.848C65.237 490.188 65.6652 490.453 66.1324 490.627L114.108 508.541C115.087 508.907 116.172 508.869 117.124 508.435C118.075 508.001 118.815 507.208 119.181 506.229L124.178 492.866C124.326 492.472 124.368 492.045 124.301 491.628C124.234 491.212 124.059 490.82 123.794 490.492C123.529 490.164 123.183 489.91 122.79 489.756C122.397 489.602 121.971 489.554 121.554 489.615C119.712 489.885 117.832 489.659 116.109 488.958C114.385 488.258 112.88 487.109 111.751 485.631C110.621 484.153 109.908 482.399 109.686 480.553C109.464 478.707 109.74 476.835 110.486 475.131C111.232 473.427 112.421 471.955 113.93 470.865C115.438 469.776 117.211 469.11 119.063 468.937C120.916 468.763 122.782 469.089 124.466 469.879C126.151 470.669 127.593 471.896 128.643 473.431C128.814 473.683 129.051 473.884 129.329 474.01C129.607 474.136 129.914 474.184 130.217 474.148C130.519 474.112 130.806 473.993 131.046 473.804C131.286 473.616 131.47 473.365 131.576 473.08L137.076 458.372C137.437 457.407 137.399 456.337 136.971 455.4C136.544 454.462 135.761 453.733 134.795 453.372L121.089 448.254C120.798 448.146 120.54 447.965 120.339 447.729C120.138 447.492 120.001 447.208 119.94 446.904C119.88 446.6 119.898 446.285 119.994 445.99C120.089 445.695 120.259 445.429 120.486 445.218C121.668 444.118 122.576 442.758 123.139 441.245C125.44 435.091 121.542 428.138 114.571 427.238C111.061 426.785 106.566 428.893 104.656 431.87Z" fill="#F1A34F"/>
<path d="M541.608 357.569C542.129 359.18 543.194 360.561 544.622 361.474C544.799 361.587 544.943 361.743 545.042 361.928C545.141 362.113 545.191 362.32 545.186 362.529C545.182 362.739 545.125 362.944 545.019 363.125C544.913 363.305 544.762 363.456 544.581 363.562L535.766 368.755C535.149 369.118 534.701 369.712 534.522 370.405C534.343 371.098 534.447 371.834 534.81 372.451L552.906 403.131C553.082 403.43 553.315 403.691 553.592 403.899C553.869 404.108 554.184 404.259 554.52 404.346C554.856 404.433 555.205 404.452 555.548 404.404C555.892 404.356 556.222 404.24 556.521 404.064L587.189 386.001C587.815 385.632 588.269 385.03 588.45 384.327C588.632 383.623 588.527 382.877 588.158 382.251L583.12 373.709C582.971 373.456 582.759 373.247 582.504 373.101C582.25 372.955 581.962 372.878 581.668 372.878C581.375 372.877 581.087 372.953 580.832 373.098C580.577 373.243 580.364 373.451 580.214 373.703C579.555 374.816 578.61 375.731 577.477 376.356C576.345 376.98 575.066 377.29 573.773 377.253C572.48 377.216 571.22 376.834 570.125 376.147C569.029 375.459 568.138 374.491 567.544 373.343C566.949 372.195 566.673 370.909 566.744 369.618C566.815 368.328 567.23 367.079 567.947 366.003C568.663 364.927 569.655 364.063 570.819 363.499C571.983 362.935 573.277 362.693 574.566 362.798C574.777 362.816 574.99 362.775 575.179 362.681C575.369 362.586 575.529 362.441 575.642 362.262C575.755 362.083 575.816 361.876 575.819 361.664C575.822 361.452 575.767 361.243 575.659 361.061L570.114 351.659C569.75 351.042 569.156 350.594 568.462 350.415C567.768 350.236 567.031 350.34 566.413 350.703L557.652 355.864C557.466 355.973 557.256 356.033 557.04 356.038C556.824 356.044 556.611 355.994 556.42 355.893C556.229 355.793 556.067 355.645 555.949 355.464C555.831 355.284 555.762 355.076 555.747 354.861C555.669 353.742 555.331 352.657 554.76 351.691C552.439 347.757 546.976 346.821 543.44 350.19C541.66 351.887 540.833 355.235 541.608 357.569Z" fill="#F1A34F"/>
<path d="M332.745 491.878C332.326 490.746 331.525 489.795 330.481 489.188C330.352 489.113 330.244 489.006 330.169 488.877C330.093 488.749 330.051 488.603 330.048 488.454C330.044 488.304 330.079 488.157 330.149 488.025C330.219 487.893 330.322 487.781 330.447 487.7L336.566 483.738C336.995 483.461 337.295 483.025 337.402 482.526C337.509 482.027 337.412 481.506 337.135 481.078L323.327 459.782C323.192 459.575 323.019 459.396 322.815 459.256C322.612 459.116 322.383 459.017 322.141 458.966C321.9 458.914 321.65 458.911 321.407 458.955C321.164 459 320.933 459.092 320.725 459.227L299.438 473.01C299.003 473.291 298.698 473.734 298.59 474.24C298.482 474.746 298.579 475.275 298.861 475.709L302.706 481.638C302.819 481.814 302.976 481.956 303.162 482.052C303.348 482.149 303.555 482.195 303.764 482.186C303.973 482.178 304.176 482.115 304.353 482.004C304.53 481.894 304.675 481.739 304.774 481.555C305.21 480.743 305.855 480.062 306.642 479.584C307.43 479.105 308.331 478.846 309.253 478.834C310.174 478.821 311.083 479.055 311.883 479.511C312.684 479.968 313.347 480.63 313.805 481.429C314.263 482.229 314.498 483.136 314.487 484.057C314.475 484.978 314.217 485.879 313.74 486.667C313.262 487.454 312.582 488.1 311.77 488.536C310.959 488.972 310.045 489.184 309.124 489.148C308.973 489.142 308.823 489.177 308.691 489.25C308.559 489.323 308.449 489.431 308.374 489.562C308.299 489.693 308.262 489.842 308.266 489.993C308.27 490.144 308.316 490.291 308.398 490.418L312.63 496.944C312.907 497.372 313.344 497.673 313.844 497.779C314.343 497.886 314.864 497.79 315.293 497.512L321.374 493.575C321.503 493.491 321.652 493.442 321.805 493.432C321.958 493.422 322.112 493.451 322.251 493.517C322.39 493.582 322.51 493.683 322.599 493.808C322.688 493.933 322.744 494.078 322.761 494.231C322.85 495.025 323.124 495.788 323.559 496.458C325.33 499.189 329.248 499.691 331.663 497.185C332.879 495.924 333.367 493.515 332.745 491.878Z" fill="#F1A34F"/>
<path d="M310.767 73.0131C310.767 73.0131 315.783 73.8346 317.097 77.0943C318.412 80.3539 316.576 82.561 315.87 82.5535C315.163 82.5459 313.81 82.0245 313.176 80.3339C312.542 78.6437 310.767 73.0131 310.767 73.0131Z" fill="#FFB07B"/>
<path d="M241.714 87.5587C241.714 87.5587 247.344 87.5514 249.37 90.8771C251.395 94.203 249.788 96.9464 249.014 97.0657C248.241 97.1847 246.668 96.8587 245.67 95.1256C244.671 93.3923 241.714 87.5587 241.714 87.5587Z" fill="#FFB07B"/>
<path d="M310.906 76.7963C310.407 76.6898 308.224 76.4333 305.448 75.9967C300.336 75.195 293.209 73.7842 290.818 71.5799C290.171 70.9813 288.662 67.6884 287.094 63.9135C285.508 72.271 285.42 78.681 285.84 83.561L251.287 90.9926C254.25 85.0072 258.836 77.5858 257.976 71.5799C257.657 69.3532 256.436 66.2979 255.98 62.8654C255.941 62.5703 255.909 62.2752 255.882 61.9755C251.037 65.9617 245.439 70.36 245.305 71.2397C245.082 72.714 248.854 89.0375 248.854 89.0375C247.917 91.1925 243.849 90.7392 243.849 90.7392C240.035 88.0184 234.427 72.5989 234.878 69.1832C235.326 65.767 249.23 46.3 252.595 41.6475C255.919 37.0503 268.054 37.1652 268.346 37.1672H268.352C278.003 42.9576 278.873 38.1452 278.873 38.1452C278.873 38.1452 287.581 39.8 289.078 42.3693C290.574 44.9404 297.136 64.4321 297.6 65.119C298.572 66.5544 314.435 72.2977 314.719 73.9605C315.007 75.6233 312.328 77.0978 310.906 76.7963Z" fill="#80BDCC"/>
<path d="M263.335 88.4132L251.287 90.9928C254.287 85.0241 258.231 77.5904 257.368 71.6218C257.046 69.3934 256.323 66.7563 255.974 63.3085C255.94 62.9762 255.883 61.9757 255.883 61.9757C255.883 61.9757 264.415 68.6855 264.565 75.9469C264.643 79.7139 263.984 84.6418 263.335 88.4132Z" fill="#5F9AA8"/>
<path d="M305.768 76.0418C300.594 75.2387 293.379 73.8276 290.959 71.6224C290.303 71.0234 288.775 67.7269 287.188 63.947C287.188 63.947 286.632 57.8711 288.221 58.0981C289.81 58.3249 292.149 69.1017 293.817 69.7823C295.311 70.3926 303.568 73.5598 305.768 76.0418Z" fill="#5F9AA8"/>
<path d="M560.671 307.513C559.942 309.969 556.574 311.606 556.119 314.607C555.967 315.853 555.46 317.029 554.657 317.993H544.173C544.278 317.416 544.738 316.795 546.101 316.497C549.012 315.861 550.111 312.334 549.93 309.06C549.867 307.629 549.876 306.197 549.957 304.767C550.049 302.892 550.203 301.419 550.203 301.419L556.392 299.964L557.042 300.799L557.667 301.601C557.667 301.601 561.398 305.056 560.671 307.513Z" fill="#2C3A64"/>
<path d="M511.851 317.993H490.642C491.122 317.431 491.937 316.887 493.315 316.663C496.58 316.134 502.232 314.24 503.493 310.071C503.534 309.938 503.571 309.8 503.601 309.661C504.602 305.204 511.884 311.025 511.884 311.025C511.884 311.025 511.907 311.204 511.94 311.507C512.067 312.761 512.35 316.165 511.851 317.993Z" fill="#2C3A64"/>
<path d="M494.182 199.913C494.182 199.913 495.288 213.701 496.588 230.275C498.354 252.789 500.479 280.444 500.689 285.683C501.052 294.78 502.51 309.332 502.51 309.332C502.51 309.332 505.967 312.789 512.886 311.332C512.886 311.332 519.052 290.559 520.813 268.58C520.84 268.219 520.868 267.857 520.895 267.494C522.533 245.119 525.081 198.003 525.081 198.003L494.182 199.913Z" fill="#35488B"/>
<path d="M494.182 199.913C494.182 199.913 495.288 213.701 496.588 230.275L520.813 268.58C520.84 268.219 520.868 267.857 520.895 267.494C522.533 245.119 525.081 198.003 525.081 198.003L494.182 199.913Z" fill="#2C3A64"/>
<path d="M499.232 201.55C499.232 201.55 519.165 251.485 532.272 274.951C545.378 298.417 549.474 304.966 549.474 304.966C549.474 304.966 556.983 301.965 557.666 299.918C557.666 299.918 552.654 254.615 543.877 243.572C538.917 237.331 533.091 218.604 532.818 212.055C532.545 205.506 531.043 192.545 531.043 192.545L499.232 201.55Z" fill="#35488B"/>
<path d="M509.455 124.471C508.569 119.242 508.542 116.143 508.542 116.143L518.655 107.998C518.279 119.197 525.461 124.583 525.461 124.583C525.461 124.583 511.984 131.212 504.194 128.757C505.671 127.019 507.454 125.566 509.455 124.471Z" fill="#935C2F"/>
<path d="M506.159 115.958C506.159 115.958 519.025 118.094 520.233 110.066C521.441 102.039 523.915 96.9084 515.751 95.2053C507.588 93.5021 505.527 96.325 504.472 98.9062C503.417 101.488 502.844 115.195 506.159 115.958Z" fill="#A16D3C"/>
<path d="M460.971 132.506L458.233 130.811C458.233 130.811 454.818 125.773 448.984 128.903C448.984 128.903 446.673 130.375 448.223 131.608C449.774 132.841 449.357 132.144 451.506 133.93C453.654 135.716 456.434 136.353 458.226 135.369L460.526 135.152L460.971 132.506Z" fill="#A16D3C"/>
<path d="M457.719 133.033C458.424 130.828 458.76 130.633 458.76 130.633C458.76 130.633 480.912 133.249 483 133.403C485.089 133.557 514.091 127.586 514.091 127.586L527.785 144.204C527.785 144.204 487.41 145.725 482.126 145.23C473.393 144.412 457.559 136.288 457.559 136.288C457.333 135.208 457.388 134.087 457.719 133.033Z" fill="#D3782F"/>
<path d="M532.563 195.097C532.602 195.955 530.833 196.896 530.066 197.241C524.283 199.832 518.897 201.631 512.813 202.217C505.596 202.956 497.066 201.334 494.142 201.373C493.84 201.371 493.549 201.26 493.322 201.062C493.127 200.905 492.97 192.096 493.127 180.988C493.127 180.559 493.127 180.089 493.165 179.661V179.506C493.177 178.349 493.195 177.174 493.22 175.987C493.293 172.741 493.415 169.408 493.556 166.096C493.767 161.213 494.058 156.414 494.459 152.163C494.88 147.723 495.413 143.877 496.092 141.15C497.651 134.875 501.241 130.741 504.517 127.701L507.208 125.326C510.037 125.948 512.995 125.591 515.594 124.311C518.675 122.791 522.031 121.153 522.576 121.544C526.735 124.649 529.534 131.701 530.969 140.663C531.767 145.894 532.145 151.182 532.097 156.474C532.089 158.627 532.022 160.812 531.898 163.017C531.203 174.853 531.916 185.115 532.324 191.079C532.442 192.794 532.536 194.158 532.563 195.097Z" fill="#E69D43"/>
<path d="M464.166 85.6785L382.799 72.7653C381.976 72.6347 381.136 72.6673 380.326 72.8612C379.516 73.0552 378.752 73.4067 378.078 73.8956C377.403 74.3846 376.832 75.0015 376.397 75.711C375.961 76.4206 375.67 77.2089 375.539 78.031L371.938 100.694C371.771 101.743 372.037 104.694 372.037 104.694L374.97 105.13C375.137 105.166 375.307 105.192 375.478 105.205C376.034 105.249 376.592 105.173 377.115 104.982C379.931 103.967 382.968 103.724 385.91 104.277C388.852 104.831 391.592 106.161 393.845 108.131C396.099 110.1 397.784 112.636 398.725 115.476C399.667 118.316 399.83 121.356 399.199 124.28C398.567 127.204 397.164 129.906 395.135 132.106C393.105 134.305 390.524 135.921 387.658 136.786C384.792 137.652 381.747 137.735 378.838 137.027C375.93 136.319 373.264 134.846 371.117 132.761C370.689 132.338 370.129 132.074 369.53 132.012L366.462 131.552L362.64 159.197C362.38 160.834 362.781 162.508 363.756 163.849C364.73 165.191 366.198 166.091 367.837 166.351L391.081 170.04C391.574 170.118 392.039 170.321 392.432 170.629C392.824 170.937 393.131 171.341 393.324 171.801C393.517 172.262 393.588 172.764 393.532 173.259C393.476 173.755 393.294 174.228 393.003 174.634C391.493 176.746 390.496 179.18 390.092 181.744C388.433 192.183 396.803 201.898 408.082 201.09C413.76 200.683 420.173 195.924 422.23 190.619C423.677 186.975 423.81 182.942 422.608 179.211C422.46 178.749 422.432 178.257 422.528 177.782C422.624 177.307 422.841 176.864 423.157 176.496C423.473 176.128 423.878 175.847 424.334 175.681C424.79 175.514 425.281 175.467 425.76 175.543L449.148 179.255C449.959 179.384 450.787 179.352 451.586 179.161C452.384 178.969 453.137 178.623 453.802 178.141C454.466 177.659 455.029 177.051 455.459 176.351C455.888 175.652 456.175 174.875 456.304 174.064L469.24 92.665C469.494 91.0661 469.103 89.4318 468.151 88.1216C467.199 86.8113 465.766 85.9326 464.166 85.6785Z" fill="#4A75CB"/>
<path d="M522.873 140.422C522.873 140.422 516.637 169.507 493.22 175.987C493.293 172.741 493.416 169.408 493.556 166.095C493.767 161.213 494.058 156.414 494.46 152.163C494.836 151.965 495.227 151.798 495.629 151.661C503.575 149.043 522.873 140.422 522.873 140.422Z" fill="#D3782F"/>
<path d="M419.222 190.166C420.669 186.522 420.802 182.489 419.6 178.757C419.451 178.296 419.424 177.804 419.52 177.328C419.616 176.853 419.833 176.41 420.149 176.043C420.465 175.675 420.87 175.394 421.326 175.227C421.782 175.06 422.272 175.013 422.752 175.09L446.14 178.802C447.778 179.062 449.452 178.661 450.794 177.687C452.136 176.714 453.036 175.248 453.296 173.611L466.232 92.2115C466.358 91.4198 466.326 90.6111 466.14 89.8315C465.953 89.0519 465.614 88.3168 465.143 87.6681C464.671 87.0193 464.077 86.4697 463.393 86.0505C462.709 85.6314 461.95 85.351 461.157 85.2252L379.79 72.3117C378.129 72.0481 376.431 72.4548 375.07 73.4423C373.708 74.4298 372.795 75.9173 372.531 77.5775L368.93 100.24C368.823 100.91 368.892 101.597 369.131 102.232C369.371 102.866 369.771 103.428 370.294 103.861C370.817 104.294 371.443 104.583 372.112 104.7C372.781 104.817 373.469 104.758 374.107 104.529C376.923 103.514 379.96 103.27 382.902 103.824C385.844 104.377 388.584 105.708 390.837 107.677C393.091 109.646 394.776 112.183 395.717 115.022C396.658 117.862 396.822 120.902 396.19 123.826C395.559 126.751 394.156 129.453 392.126 131.652C390.097 133.851 387.515 135.467 384.65 136.333C381.784 137.198 378.739 137.281 375.83 136.573C372.922 135.866 370.256 134.392 368.109 132.307C367.759 131.964 367.32 131.724 366.842 131.614C366.364 131.503 365.865 131.526 365.399 131.68C364.933 131.834 364.518 132.113 364.2 132.487C363.882 132.861 363.673 133.314 363.596 133.799L359.632 158.743C359.372 160.381 359.773 162.054 360.748 163.396C361.722 164.737 363.19 165.637 364.828 165.897L388.073 169.586C388.566 169.664 389.031 169.867 389.423 170.176C389.816 170.484 390.123 170.887 390.316 171.348C390.508 171.808 390.58 172.31 390.524 172.806C390.468 173.302 390.286 173.775 389.995 174.181C388.484 176.292 387.487 178.727 387.084 181.291C385.425 191.729 393.795 201.444 405.073 200.636C410.752 200.229 417.165 195.47 419.222 190.166Z" fill="#699DEE"/>
<path d="M461.065 151.259L457.72 150.706C457.72 150.706 453.906 145.19 447.259 148.284C447.259 148.284 444.622 149.758 446.366 151.137C448.11 152.517 447.645 151.756 450.06 153.75C452.474 155.744 455.618 156.54 457.661 155.566L460.269 155.43L461.065 151.259Z" fill="#A16D3C"/>
<path d="M458.508 152.958C458.616 150.498 459.928 150.235 459.928 150.235C459.928 150.235 485.27 148.56 487.456 148.137C489.642 147.713 509.826 131.001 509.826 131.001C509.826 131.001 517.631 123.991 523.1 126.356C527.852 128.412 529.34 132.468 529.579 136.197C529.711 138.371 529.183 140.534 528.067 142.405C526.95 144.275 525.295 145.765 523.318 146.682C514.253 150.912 496.125 159.218 491.996 159.934C482.808 161.529 459.19 156.417 459.19 156.417C458.7 155.332 458.467 154.148 458.508 152.958Z" fill="#E69D43"/>
<path d="M504.472 98.9065C504.472 98.9065 499.25 95.0368 502.656 89.0243C502.656 89.0243 506.763 90.3856 512.599 89.0243C518.435 87.6632 523.656 89.5917 524.338 91.6333C524.338 91.6333 526.608 92.5412 526.835 95.9441C527.062 99.3474 520.233 110.067 520.233 110.067C520.233 110.067 518.775 108.252 519.173 107.005C519.57 105.757 520.819 102.977 519.286 102.977C517.753 102.977 517.243 105.246 516.618 104.339C515.994 103.431 517.129 99.6309 515.313 99.007C513.497 98.383 506.515 100.054 504.472 98.9065Z" fill="#2C3A64"/>
<path d="M326.984 315.095L303.983 210.737H310.315C311.038 210.734 311.731 210.446 312.242 209.936C312.753 209.425 313.041 208.733 313.043 208.01V204.485C313.041 203.763 312.753 203.07 312.242 202.559C311.731 202.049 311.038 201.761 310.315 201.759H230C229.277 201.761 228.585 202.048 228.073 202.559C227.562 203.07 227.274 203.762 227.272 204.485V208.01C227.274 208.733 227.562 209.425 228.073 209.936C228.585 210.447 229.277 210.734 230 210.737H238.151L215.15 315.095C215.075 315.43 215.067 315.775 215.126 316.113C215.185 316.451 215.31 316.773 215.494 317.062C215.678 317.352 215.917 317.602 216.198 317.798C216.478 317.995 216.795 318.134 217.13 318.208C217.465 318.283 217.811 318.29 218.148 318.23C218.486 318.17 218.809 318.045 219.097 317.86C219.386 317.676 219.636 317.436 219.832 317.155C220.028 316.874 220.167 316.557 220.24 316.222L243.49 210.737H298.645L321.894 316.222C322.044 316.897 322.455 317.485 323.037 317.857C323.62 318.23 324.326 318.356 325.002 318.209C325.676 318.057 326.264 317.644 326.635 317.061C327.006 316.477 327.132 315.771 326.984 315.095Z" fill="#C3E0F4"/>
<path d="M479.51 251.187C470.997 243.02 440.349 294.551 440.349 294.551C440.349 294.551 488.024 259.354 479.51 251.187Z" fill="#ACD29A"/>
<path d="M478.489 275.008C470.952 271.995 446.866 297.37 441.442 303.23C436.9 302.636 432.328 302.303 427.749 302.232C389.609 301.551 372.309 318.814 372.309 318.814L478.703 319.176C478.703 319.176 469.278 307.217 442.541 303.38C449.074 300.297 468.396 291.317 475.424 289.591C483.937 287.499 487.002 278.411 478.489 275.008Z" fill="#ACD29A"/>
<path d="M448.48 223.289H425.517C424.838 223.288 424.17 223.464 423.58 223.8C422.99 224.136 422.498 224.619 422.152 225.203C421.806 225.787 421.619 226.451 421.608 227.129C421.597 227.807 421.763 228.477 422.09 229.071C423.478 231.581 418.596 253.327 408.31 253.894C405.165 254.064 402.037 253.346 399.282 251.822C396.527 250.297 394.257 248.029 392.732 245.276C391.208 242.522 390.489 239.396 390.66 236.254C390.83 233.112 391.882 230.081 393.696 227.509C393.98 227.109 394.148 226.638 394.182 226.149C394.217 225.66 394.116 225.171 393.89 224.735C393.665 224.299 393.324 223.934 392.905 223.679C392.486 223.424 392.005 223.289 391.514 223.289H366.239C365.418 223.289 364.604 223.45 363.845 223.764C363.087 224.078 362.397 224.539 361.816 225.119C361.235 225.7 360.775 226.389 360.46 227.147C360.146 227.906 359.984 228.719 359.984 229.539C359.984 229.539 357.693 256.649 355.745 255.677C353.685 254.648 351.434 254.058 349.135 253.942L349.136 253.941H349.113C348.83 253.927 348.547 253.918 348.261 253.918C347.974 253.918 343.814 253.847 343.814 253.847L343.183 287.348L346.796 287.387C350.231 287.284 353.214 286.963 355.865 285.612C356.298 285.393 356.78 285.289 357.265 285.31C357.75 285.33 358.221 285.474 358.634 285.728C359.048 285.983 359.389 286.339 359.625 286.762C359.861 287.186 359.985 287.663 359.984 288.148V311.813C359.984 313.47 360.643 315.059 361.815 316.231C362.988 317.402 364.578 318.061 366.237 318.061H448.714C449.516 318.061 450.31 317.903 451.051 317.596C451.792 317.289 452.466 316.84 453.033 316.273C453.6 315.706 454.05 315.033 454.357 314.292C454.664 313.552 454.822 312.758 454.822 311.956V229.627C454.822 227.946 454.154 226.334 452.964 225.145C451.775 223.956 450.162 223.289 448.48 223.289Z" fill="#D86713"/>
<path d="M340.084 286.958C343.912 287.814 347.919 287.313 351.418 285.541C351.851 285.322 352.333 285.218 352.818 285.239C353.302 285.259 353.774 285.403 354.187 285.658C354.6 285.912 354.941 286.268 355.178 286.691C355.414 287.115 355.538 287.592 355.537 288.077V311.742C355.537 313.399 356.196 314.988 357.368 316.16C358.541 317.332 360.131 317.99 361.79 317.99H444.266C445.886 317.99 447.44 317.347 448.586 316.202C449.731 315.057 450.375 313.504 450.375 311.885V229.556C450.375 227.875 449.707 226.263 448.517 225.074C447.328 223.886 445.715 223.218 444.032 223.218H421.069C420.391 223.217 419.723 223.393 419.133 223.729C418.543 224.065 418.051 224.548 417.705 225.132C417.359 225.716 417.172 226.38 417.161 227.058C417.15 227.736 417.316 228.406 417.643 229C419.088 231.62 419.805 234.579 419.72 237.569C419.634 240.56 418.749 243.473 417.156 246.006C415.563 248.539 413.321 250.599 410.662 251.974C408.003 253.348 405.024 253.987 402.035 253.822C399.046 253.658 396.155 252.696 393.664 251.039C391.172 249.381 389.169 247.086 387.865 244.394C386.56 241.701 386 238.709 386.243 235.727C386.487 232.746 387.525 229.883 389.249 227.438C389.533 227.038 389.701 226.567 389.735 226.078C389.769 225.589 389.668 225.1 389.443 224.664C389.218 224.228 388.877 223.863 388.458 223.608C388.039 223.353 387.558 223.218 387.067 223.218H361.792C360.971 223.218 360.157 223.379 359.398 223.694C358.639 224.008 357.95 224.468 357.369 225.049C356.788 225.629 356.327 226.318 356.013 227.076C355.699 227.835 355.537 228.648 355.537 229.469V252.988C355.537 253.487 355.409 253.977 355.166 254.413C354.923 254.849 354.573 255.216 354.148 255.478C353.723 255.74 353.238 255.89 352.739 255.912C352.24 255.934 351.744 255.829 351.298 255.606C348.974 254.446 346.411 253.844 343.814 253.847C333.238 253.847 324.949 263.632 327.516 274.636C328.809 280.177 334.518 285.759 340.084 286.958Z" fill="#F1A34F"/>
<path d="M101.281 318.451L116.104 318.56C116.104 318.56 115.589 314.976 105.61 314.052C101.742 303.313 90.377 274.426 80.5082 275.792C70.7644 277.141 93.8411 303.643 103.229 313.946C101.987 313.946 100.747 314.044 99.5198 314.24C97.2582 309.74 92.7742 303.38 85.5775 303.67C77.9186 303.978 88.3531 310.967 95.5367 315.259C91.8981 316.564 89.9331 318.368 89.9331 318.368L101.113 318.45C101.244 318.522 101.315 318.56 101.315 318.56C101.315 318.56 101.304 318.522 101.281 318.451Z" fill="#ACD29A"/>
<path d="M154.242 198.751L156.436 200.531C156.436 200.531 162.436 198.381 163.79 205.506C163.79 205.506 164.15 208.542 162.225 208.548C160.301 208.554 161.095 208.216 158.369 208.296C155.644 208.376 153.385 206.94 152.985 204.73L151.682 202.857L154.242 198.751Z" fill="#EA8E50"/>
<path d="M153.994 202.571C155.744 200.745 155.603 199.396 155.603 199.396C155.603 199.396 135.341 182.819 133.286 181.468C131.886 180.548 116.963 167.328 109.988 159.268C106.528 155.271 102.242 156.822 97.339 158.228L93.3009 159.386C88.425 160.784 87.1569 167.598 91.1576 170.91C102.425 180.236 121.169 190.726 124.676 192.931C133.382 198.404 150.424 204.907 150.424 204.907C151.758 204.374 152.971 203.579 153.994 202.571Z" fill="#1E3D70"/>
<path d="M177.708 304.25C177.708 304.25 182.625 307.932 190.159 305.987C190.159 305.987 196.235 304.603 197.567 307.631C197.567 307.631 188.25 312.361 185.892 313.654C184.115 314.629 182.261 316.168 180.95 317.358C180.704 317.58 180.415 317.751 180.101 317.858C179.786 317.965 179.454 318.007 179.122 317.982C178.791 317.956 178.469 317.864 178.175 317.709C177.881 317.555 177.621 317.343 177.412 317.085C177.002 316.581 176.533 315.982 176.019 315.286C174.583 313.34 171.235 307.056 171.235 307.056L177.708 304.25Z" fill="#163560"/>
<path d="M180.004 302.551C180.004 302.551 177.009 309.45 170.098 308.182C170.098 308.182 155.994 296.543 146.32 284.451C143.178 280.524 140.503 276.55 138.931 272.912C132.515 258.069 115.2 235.931 104.191 224.711L131.735 214.754C131.735 214.754 140.557 232.489 152.296 254.274C160.756 269.969 170.727 287.768 180.004 302.551Z" fill="#2B478B"/>
<path d="M152.296 254.274L146.32 284.451C143.178 280.524 140.503 276.55 138.931 272.912C132.515 258.069 115.2 235.931 104.191 224.711L131.735 214.754C131.735 214.754 140.557 232.489 152.296 254.274Z" fill="#163560"/>
<path d="M129.71 308.165C129.71 308.165 129.409 313.67 136.088 314.404C136.088 314.404 139.904 314.425 139.915 317.929L120.505 317.99C120.505 317.99 119.941 316.576 119.804 313.549C119.699 311.225 122.059 305.147 122.059 305.147L129.71 308.165Z" fill="#163560"/>
<path d="M122.701 214.754C122.701 214.754 134.971 228.228 142.76 252.502C146.998 265.709 134.993 298.914 132.652 310.452C132.652 310.452 124.599 311.135 119.092 309.007C119.092 309.007 118.673 285.178 121.894 266.812C123.696 256.533 105.738 244.829 97.8905 226.256C92.5522 213.621 99.0466 213.836 107.028 213.532L122.701 214.754Z" fill="#2B478B"/>
<path d="M108.536 154.642C101.709 158.494 87.7324 154.941 87.7324 154.941C87.7324 154.941 93.4082 148.457 90.8292 138.014L96.1894 140.734L101.947 143.656C102.251 145.363 102.462 147.084 102.578 148.813C102.644 149.666 102.703 150.619 102.744 151.661C104.841 152.292 106.804 153.303 108.536 154.642Z" fill="#FFB07B"/>
<path d="M133.569 214.058C133.569 215.257 132.187 215.831 131.893 215.889C129.14 216.392 121.451 219.381 114.525 220.066C108.694 220.676 103.279 220.097 97.3304 218.903C96.5427 218.745 94.6935 218.247 94.5622 217.493C94.398 216.669 71.6175 171.085 89.3267 151.504C89.7426 151.045 93.2383 151.872 96.4351 152.63C99.1302 153.268 101.958 153.037 104.514 151.971L107.512 153.547C111.193 155.597 118.16 162.881 118.975 168.596C119.389 171.502 121.052 173.655 121.533 176.211C121.712 177.157 121.894 178.081 122.08 178.981C122.443 180.747 122.817 182.428 123.202 184.026C124.243 188.348 125.343 192.069 126.423 195.284C127.571 198.697 128.698 201.536 129.705 203.911C131.01 206.991 132.114 209.292 132.803 211.055C133.29 212.296 133.569 213.269 133.569 214.058Z" fill="#2A4E96"/>
<path d="M132.803 211.055C100.646 195.915 89.509 166.843 89.509 166.843C89.509 166.843 115.636 176.474 122.081 178.981C122.443 180.747 122.817 182.429 123.202 184.026C124.244 188.348 125.343 192.069 126.423 195.284C127.572 198.697 128.698 201.537 129.705 203.911C131.011 206.991 132.114 209.293 132.803 211.055Z" fill="#1E3D70"/>
<path d="M223.636 178.856L216.749 157.029C216.444 156.062 215.774 155.252 214.882 154.77C213.99 154.287 212.944 154.171 211.968 154.445L211.962 154.447C211.86 154.476 211.76 154.51 211.66 154.548L209.244 155.354C209.244 155.354 205.463 159.245 202.749 160.03C194.406 162.442 186.488 157.999 183.444 149.871C180.058 140.83 183.986 130.902 193.08 128.036C196.192 127.055 202.315 128.883 202.315 128.883L204.774 128.066C205.112 127.965 205.427 127.797 205.7 127.572C205.973 127.348 206.199 127.072 206.364 126.759C206.529 126.447 206.631 126.105 206.662 125.753C206.694 125.401 206.656 125.047 206.549 124.71L198.967 100.686C198.721 99.9051 198.323 99.1805 197.796 98.5533C197.27 97.9262 196.625 97.4089 195.898 97.0309C195.171 96.6529 194.377 96.4216 193.561 96.3503C192.745 96.279 191.923 96.3691 191.141 96.6154L168.755 103.67C168.28 103.82 167.775 103.846 167.287 103.745C166.799 103.645 166.345 103.422 165.968 103.097C165.591 102.772 165.304 102.356 165.133 101.888C164.962 101.421 164.913 100.918 164.992 100.426C165.399 97.8695 165.203 95.2531 164.42 92.7852C161.248 82.7328 149.448 77.7888 139.744 83.5305C134.858 86.4213 131.257 93.5224 131.786 99.1718C132.119 103.067 133.798 106.726 136.534 109.52C136.872 109.866 137.116 110.293 137.242 110.76C137.368 111.227 137.372 111.718 137.254 112.187C137.136 112.656 136.899 113.087 136.567 113.439C136.235 113.79 135.818 114.051 135.356 114.196L112.831 121.295C111.254 121.792 109.939 122.895 109.175 124.361C108.412 125.827 108.262 127.536 108.76 129.112L133.5 207.507C133.986 209.047 135.064 210.33 136.497 211.076C137.931 211.821 139.602 211.967 141.143 211.482L219.506 186.786C220.298 186.536 221.034 186.133 221.67 185.599C222.306 185.066 222.831 184.412 223.215 183.676C223.598 182.939 223.833 182.135 223.905 181.308C223.978 180.481 223.886 179.647 223.636 178.856Z" fill="#4A75CB"/>
<path d="M459.475 383.824L443.31 380.244C442.594 380.085 441.844 380.211 441.219 380.595C440.595 380.979 440.144 381.591 439.963 382.301L439.961 382.305C439.943 382.379 439.928 382.455 439.915 382.531L439.547 384.333C439.547 384.333 440.619 388.106 440.129 390.088C438.625 396.179 432.978 399.528 426.785 398.494C419.897 397.344 415.097 391.298 416.589 384.572C417.099 382.271 420.458 379.1 420.458 379.1L420.835 377.266C420.893 377.018 420.902 376.76 420.86 376.508C420.818 376.256 420.727 376.015 420.591 375.799C420.455 375.583 420.277 375.396 420.068 375.249C419.859 375.102 419.623 374.998 419.373 374.943L401.581 371.002C401.003 370.874 400.405 370.861 399.821 370.964C399.238 371.066 398.681 371.283 398.181 371.601C397.682 371.919 397.25 372.332 396.91 372.817C396.57 373.302 396.33 373.849 396.202 374.427L392.529 390.983C392.452 391.335 392.285 391.66 392.046 391.929C391.807 392.198 391.503 392.401 391.163 392.52C390.823 392.638 390.458 392.668 390.104 392.606C389.749 392.544 389.416 392.392 389.137 392.166C387.682 390.987 385.972 390.163 384.143 389.761C376.698 388.112 369.335 393.708 369.424 401.855C369.469 405.957 372.617 410.777 376.347 412.488C378.909 413.688 381.807 413.96 384.547 413.258C384.886 413.171 385.242 413.173 385.58 413.263C385.918 413.353 386.228 413.528 386.479 413.771C386.73 414.015 386.914 414.319 387.015 414.654C387.115 414.989 387.127 415.344 387.051 415.685L383.356 432.344C383.098 433.511 383.313 434.732 383.956 435.74C384.598 436.748 385.615 437.459 386.782 437.717L444.843 450.577C445.983 450.829 447.178 450.619 448.163 449.991C449.148 449.364 449.844 448.371 450.096 447.232L462.95 389.275C463.08 388.689 463.093 388.083 462.989 387.492C462.885 386.901 462.665 386.336 462.342 385.83C462.02 385.324 461.6 384.886 461.108 384.542C460.616 384.198 460.061 383.954 459.475 383.824Z" fill="#4A75CB"/>
<path d="M221.04 355.866L212.556 361.267C212.181 361.506 211.913 361.882 211.809 362.315C211.706 362.748 211.775 363.205 212.003 363.588L212.004 363.59C212.028 363.63 212.054 363.668 212.081 363.707L212.698 364.639C212.698 364.639 214.78 365.799 215.422 366.861C217.394 370.124 216.408 373.986 213.303 376.201C209.85 378.664 205.189 378.127 202.938 374.597C202.168 373.39 202.248 370.586 202.248 370.586L201.622 369.636C201.54 369.504 201.433 369.39 201.307 369.3C201.18 369.209 201.037 369.145 200.886 369.111C200.735 369.076 200.578 369.072 200.425 369.098C200.272 369.125 200.126 369.182 199.995 369.265L190.657 375.211C190.354 375.404 190.092 375.655 189.885 375.949C189.679 376.244 189.532 376.576 189.455 376.927C189.377 377.278 189.369 377.641 189.431 377.995C189.494 378.35 189.626 378.688 189.819 378.991L195.359 387.68C195.476 387.864 195.545 388.076 195.558 388.294C195.571 388.512 195.527 388.73 195.432 388.927C195.337 389.123 195.193 389.293 195.014 389.418C194.835 389.544 194.627 389.622 194.409 389.644C193.278 389.762 192.189 390.143 191.23 390.755C187.323 393.243 186.566 398.807 190.107 402.269C191.889 404.012 195.313 404.731 197.652 403.865C199.268 403.281 200.63 402.153 201.505 400.675C201.614 400.493 201.767 400.341 201.951 400.234C202.135 400.128 202.343 400.07 202.556 400.067C202.768 400.064 202.978 400.115 203.165 400.216C203.352 400.317 203.51 400.464 203.624 400.643L209.199 409.386C209.589 409.998 210.207 410.43 210.916 410.587C211.625 410.744 212.368 410.613 212.98 410.223L243.45 390.823C244.049 390.442 244.471 389.839 244.625 389.146C244.778 388.454 244.65 387.729 244.269 387.131L224.876 356.715C224.68 356.408 224.425 356.142 224.126 355.933C223.827 355.724 223.49 355.575 223.134 355.496C222.778 355.418 222.41 355.41 222.05 355.473C221.691 355.536 221.348 355.67 221.04 355.866Z" fill="#4A75CB"/>
<path d="M129.402 99.9657C129.735 103.861 131.414 107.52 134.15 110.314C134.488 110.66 134.732 111.087 134.858 111.554C134.984 112.021 134.988 112.512 134.87 112.981C134.752 113.45 134.515 113.881 134.183 114.232C133.851 114.584 133.434 114.845 132.972 114.989L110.447 122.088C108.87 122.585 107.555 123.688 106.791 125.154C106.028 126.62 105.878 128.329 106.376 129.906L131.116 208.3C131.602 209.84 132.68 211.124 134.113 211.87C135.547 212.615 137.218 212.761 138.759 212.276L217.122 187.579C217.914 187.33 218.65 186.927 219.286 186.393C219.923 185.859 220.447 185.206 220.831 184.469C221.215 183.733 221.449 182.928 221.522 182.101C221.594 181.274 221.503 180.441 221.253 179.649L214.364 157.823C214.161 157.178 213.793 156.596 213.297 156.136C212.8 155.676 212.193 155.353 211.533 155.2C210.874 155.046 210.186 155.067 209.537 155.26C208.888 155.453 208.3 155.812 207.833 156.301C205.772 158.461 203.171 160.03 200.299 160.845C197.427 161.661 194.389 161.693 191.5 160.939C188.612 160.185 185.978 158.672 183.872 156.556C181.766 154.441 180.265 151.802 179.525 148.911C178.785 146.021 178.833 142.985 179.663 140.119C180.494 137.253 182.077 134.662 184.248 132.614C186.42 130.566 189.1 129.136 192.011 128.473C194.922 127.81 197.958 127.938 200.803 128.843C201.269 128.993 201.767 129.012 202.243 128.898C202.719 128.784 203.154 128.541 203.501 128.196C203.848 127.851 204.094 127.418 204.211 126.943C204.328 126.468 204.312 125.97 204.165 125.503L196.583 101.479C196.086 99.9025 194.982 98.5879 193.514 97.8246C192.046 97.0612 190.335 96.9117 188.757 97.409L166.371 104.464C165.896 104.614 165.391 104.64 164.903 104.539C164.415 104.439 163.961 104.216 163.584 103.891C163.207 103.566 162.92 103.15 162.749 102.682C162.578 102.215 162.529 101.711 162.608 101.22C163.015 98.6632 162.819 96.0468 162.036 93.5789C158.863 83.5262 147.065 78.5825 137.36 84.3241C132.474 87.2151 128.873 94.3162 129.402 99.9657Z" fill="#699DEE"/>
<path d="M375.983 414.266C378.544 415.466 381.443 415.738 384.183 415.036C384.522 414.95 384.878 414.951 385.216 415.041C385.554 415.131 385.863 415.306 386.114 415.55C386.365 415.793 386.55 416.097 386.65 416.432C386.75 416.767 386.763 417.122 386.687 417.463L382.992 434.122C382.733 435.289 382.949 436.511 383.591 437.518C384.234 438.526 385.251 439.237 386.418 439.496L444.479 452.355C445.619 452.608 446.813 452.397 447.799 451.77C448.784 451.142 449.479 450.15 449.732 449.01L462.586 391.053C462.716 390.467 462.729 389.861 462.625 389.27C462.52 388.679 462.301 388.115 461.978 387.608C461.655 387.102 461.236 386.665 460.744 386.32C460.252 385.976 459.697 385.732 459.11 385.602L442.945 382.022C442.468 381.916 441.97 381.936 441.503 382.08C441.035 382.225 440.613 382.488 440.278 382.845C439.944 383.202 439.708 383.64 439.594 384.116C439.481 384.592 439.493 385.089 439.631 385.559C440.239 387.628 440.282 389.823 439.755 391.915C439.227 394.006 438.149 395.919 436.633 397.454C435.116 398.989 433.216 400.09 431.129 400.643C429.043 401.196 426.846 401.18 424.768 400.599C422.689 400.017 420.805 398.89 419.309 397.334C417.814 395.778 416.763 393.851 416.264 391.752C415.766 389.653 415.839 387.46 416.476 385.399C417.113 383.338 418.29 381.484 419.886 380.032C420.148 379.794 420.34 379.489 420.441 379.15C420.541 378.811 420.546 378.451 420.456 378.109C420.365 377.768 420.183 377.457 419.927 377.212C419.672 376.967 419.354 376.797 419.009 376.721L401.216 372.78C400.048 372.522 398.826 372.737 397.817 373.379C396.808 374.022 396.096 375.038 395.837 376.205L392.165 392.762C392.087 393.113 391.921 393.439 391.682 393.708C391.443 393.976 391.139 394.18 390.799 394.298C390.459 394.417 390.094 394.446 389.739 394.384C389.385 394.322 389.052 394.171 388.772 393.944C387.317 392.765 385.607 391.942 383.778 391.539C376.333 389.891 368.97 395.486 369.06 403.633C369.105 407.735 372.252 412.555 375.983 414.266Z" fill="#699DEE"/>
<path d="M198.26 404.785C199.876 404.201 201.238 403.073 202.113 401.595C202.222 401.413 202.375 401.261 202.559 401.154C202.743 401.048 202.951 400.99 203.164 400.987C203.376 400.984 203.586 401.035 203.773 401.136C203.96 401.237 204.118 401.384 204.232 401.563L209.806 410.306C210.197 410.918 210.815 411.35 211.524 411.507C212.233 411.665 212.976 411.534 213.588 411.144L244.058 391.743C244.657 391.362 245.079 390.759 245.233 390.066C245.386 389.374 245.258 388.649 244.877 388.051L225.484 357.635C225.288 357.328 225.033 357.062 224.734 356.853C224.435 356.644 224.098 356.496 223.742 356.417C223.386 356.338 223.017 356.33 222.658 356.393C222.299 356.456 221.956 356.59 221.648 356.786L213.165 362.187C212.914 362.347 212.709 362.569 212.57 362.832C212.431 363.094 212.363 363.389 212.373 363.686C212.382 363.983 212.469 364.272 212.625 364.525C212.781 364.779 213 364.987 213.261 365.129C214.412 365.757 215.374 366.682 216.046 367.807C216.719 368.932 217.078 370.216 217.086 371.526C217.095 372.837 216.752 374.126 216.093 375.259C215.435 376.392 214.484 377.328 213.341 377.971C212.198 378.613 210.904 378.938 209.593 378.912C208.282 378.885 207.002 378.509 205.886 377.821C204.769 377.133 203.858 376.159 203.245 375.001C202.633 373.842 202.342 372.54 202.403 371.231C202.413 371.017 202.365 370.803 202.262 370.615C202.16 370.426 202.007 370.269 201.821 370.161C201.635 370.053 201.424 369.998 201.209 370.002C200.994 370.007 200.784 370.07 200.603 370.185L191.265 376.131C190.652 376.521 190.22 377.139 190.063 377.848C189.905 378.557 190.036 379.299 190.427 379.911L195.967 388.6C196.084 388.784 196.153 388.996 196.166 389.214C196.179 389.432 196.135 389.65 196.04 389.847C195.945 390.044 195.801 390.213 195.622 390.339C195.443 390.464 195.235 390.542 195.017 390.565C193.886 390.683 192.797 391.063 191.838 391.676C187.931 394.163 187.174 399.728 190.714 403.189C192.497 404.932 195.921 405.651 198.26 404.785Z" fill="#699DEE"/>
<path d="M151.618 202.281L154.396 203.299C154.396 203.299 159.961 199.367 163.426 205.762C163.426 205.762 164.679 208.555 162.695 209.162C160.711 209.769 161.433 209.198 158.645 210.126C155.856 211.053 153.11 210.385 152.056 208.395L150.168 207.01L151.618 202.281Z" fill="#FFB07B"/>
<path d="M153.905 206.207C154.932 203.529 155.401 202.316 155.401 202.316C155.401 202.316 134.404 185.212 132.264 183.745C130.806 182.746 116.292 171.904 109.216 163.455C107.494 161.398 105.244 159.848 102.708 158.97C100.172 158.092 97.4452 157.919 94.8186 158.469L90.4109 159.393C85.0885 160.509 83.3591 167.241 87.488 170.778C99.1161 180.739 118.728 192.293 122.385 194.696C131.463 200.662 151.541 209.022 151.541 209.022C151.541 209.022 153.098 208.312 153.905 206.207Z" fill="#2A4E96"/>
<path d="M102.578 148.813C95.8652 149.19 91.4993 143.651 91.4993 143.651C91.4993 143.651 94.5345 141.971 96.1895 140.734L101.947 143.656C102.251 145.363 102.462 147.084 102.578 148.813Z" fill="#EA8E50"/>
<path d="M105.439 141.925C105.439 141.925 95.2663 149.22 90.8179 142.82C86.3696 136.42 82.0606 133.051 88.3672 128.123C94.674 123.195 97.6467 124.751 99.6514 126.527C101.656 128.302 107.97 139.863 105.439 141.925Z" fill="#FFB07B"/>
<path d="M100.726 120.747C100.52 119.303 100.121 117.894 99.5408 116.555C99.5408 116.555 98.9025 119.198 94.0699 118.833C89.2374 118.469 81.5782 119.308 79.0252 124.811C78.8626 125.161 78.7173 125.521 78.5892 125.891C78.1271 124.671 78.0158 122.843 78.0158 122.843C77.0974 125.211 78.0158 128.175 78.0158 128.175H78.016C78.0023 128.261 77.9908 128.348 77.9783 128.435C76.912 129.335 76.0161 132.136 76.0161 132.136C76.3381 131.356 77.1229 130.846 77.8228 130.532C77.8011 134.814 79.5387 139 82.5888 140.246C87.0491 142.068 87.0134 140.678 91.4992 143.651C91.4992 143.651 92.7022 142.159 91.8818 141.157C91.0609 140.155 87.961 138.697 89.6934 137.239C91.4258 135.781 92.0639 137.421 92.7022 136.419C93.3406 135.417 90.1494 132.501 94.2523 129.768C98.3554 127.034 101.091 123.207 100.726 120.747Z" fill="#163560"/>
<path d="M362.586 318.028C362.586 318.028 357.442 310.43 349.392 311.042C346.945 311.228 342.969 311.824 338.351 312.459C334.868 300.314 325.268 271.442 312.32 269.817C299.096 268.157 324.974 300.265 335.556 312.836C333.626 313.089 331.622 313.338 329.599 313.557C323.996 307.579 314.233 298.723 306.08 299.404C297.907 300.086 313.209 308.53 324.253 314.054C317.476 314.56 311.051 314.505 307.125 312.988C297.508 309.272 288.671 318.028 288.671 318.028H362.586Z" fill="#82B378"/>
<path d="M0.704859 317.99H621.295C621.482 317.99 621.661 318.064 621.794 318.196C621.926 318.328 622 318.507 622 318.694V318.934C622 319.121 621.926 319.3 621.794 319.432C621.661 319.564 621.482 319.639 621.295 319.639H0.704616C0.51774 319.639 0.338518 319.564 0.206377 319.432C0.074236 319.3 0 319.121 0 318.935V318.694C0 318.508 0.0742645 318.328 0.206451 318.196C0.338637 318.064 0.51792 317.99 0.704859 317.99Z" fill="#2E3552"/>
</svg>
