<svg width="366" height="309" viewBox="0 0 366 309" fill="none" xmlns="http://www.w3.org/2000/svg">
<path d="M326.19 260.623C315.725 263.975 302.978 264.883 292.853 264.184C292.853 264.184 106.712 282.116 39.4277 263.732C-10.37 250.125 -4.35833 201.688 10.8813 170.685C26.2946 139.328 -14.1654 78.7169 50.8739 43.5702C88.2834 23.3544 121.837 55.705 186.509 31.8223C244.897 10.2604 320.214 29.5466 338.632 74.7683C351.302 105.877 335.33 139.412 351.302 155.666C377.207 182.027 365.295 248.1 326.19 260.623Z" fill="#DAE6FF"/>
<path d="M40.6057 270.651C40.6373 270.652 40.6685 270.645 40.6972 270.632C40.726 270.619 40.7514 270.6 40.7718 270.576C40.7922 270.552 40.8069 270.523 40.815 270.493C40.8231 270.462 40.8244 270.431 40.8186 270.4C35.2142 240.219 29.4663 218.716 24.634 209.852C24.5267 209.656 24.4492 209.514 24.4215 209.443C24.4114 209.417 24.3961 209.393 24.3768 209.373C24.3574 209.353 24.3342 209.336 24.3086 209.325C24.2829 209.314 24.2553 209.308 24.2273 209.307C24.1994 209.307 24.1715 209.312 24.1455 209.322C24.1194 209.332 24.0957 209.348 24.0755 209.367C24.0554 209.386 24.0393 209.41 24.0281 209.435C24.017 209.461 24.011 209.489 24.0105 209.517C24.0101 209.545 24.0151 209.572 24.0254 209.598C24.096 209.755 24.1744 209.908 24.2605 210.056C29.0718 218.881 34.8038 240.339 40.4004 270.477C40.4094 270.525 40.4347 270.569 40.4721 270.601C40.5095 270.632 40.5567 270.65 40.6057 270.651Z" fill="#BBCFF8"/>
<path d="M20.8022 207.914C21.3802 208.913 24.6112 210.982 24.8962 210.817C25.1813 210.652 24.9965 206.82 24.4186 205.821C24.141 205.342 23.6843 204.992 23.149 204.849C22.6136 204.706 22.0435 204.782 21.5639 205.06C21.0844 205.337 20.7347 205.794 20.5919 206.329C20.449 206.865 20.5247 207.435 20.8022 207.914Z" fill="#BBCFF8"/>
<path d="M27.0915 211.444C26.6315 212.531 26.9305 216.445 27.2409 216.576C27.5511 216.708 30.5683 214.197 31.0283 213.11C31.1378 212.851 31.1954 212.574 31.1976 212.293C31.1999 212.012 31.1468 211.734 31.0414 211.473C30.9359 211.213 30.7803 210.976 30.5833 210.776C30.3863 210.576 30.1517 210.417 29.8931 210.307C29.6345 210.198 29.3569 210.141 29.0761 210.138C28.7954 210.136 28.5169 210.19 28.2567 210.295C27.9966 210.401 27.7597 210.557 27.5598 210.754C27.3598 210.951 27.2007 211.186 27.0915 211.444Z" fill="#BBCFF8"/>
<path d="M22.2887 217.709C23.4514 217.912 27.1975 216.739 27.2555 216.408C27.3136 216.076 24.1878 213.701 23.0251 213.498C22.7486 213.45 22.4653 213.456 22.1913 213.517C21.9174 213.579 21.6582 213.693 21.4285 213.854C21.1988 214.016 21.0031 214.221 20.8526 214.458C20.7022 214.695 20.5998 214.959 20.5515 215.235C20.5031 215.512 20.5097 215.795 20.5709 216.069C20.632 216.343 20.7465 216.602 20.9078 216.832C21.0691 217.062 21.2741 217.257 21.511 217.408C21.748 217.558 22.0122 217.66 22.2887 217.709Z" fill="#BBCFF8"/>
<path d="M35.0175 231.906C34.0532 233.637 33.8442 240.222 34.3382 240.497C34.8323 240.773 40.3215 237.128 41.2857 235.398C41.7485 234.566 41.8622 233.585 41.6018 232.67C41.3414 231.755 40.7282 230.981 39.8971 230.518C39.066 230.055 38.085 229.941 37.17 230.202C36.2549 230.462 35.4806 231.075 35.0175 231.906Z" fill="#BBCFF8"/>
<path d="M25.8695 241.492C27.773 242.041 34.2363 240.762 34.3932 240.219C34.5501 239.675 29.7634 235.148 27.8599 234.598C26.9458 234.334 25.9642 234.444 25.1312 234.904C24.2981 235.364 23.6819 236.135 23.4179 237.05C23.154 237.964 23.264 238.945 23.7237 239.778C24.1835 240.611 24.9553 241.228 25.8695 241.492Z" fill="#BBCFF8"/>
<path d="M39.3426 239.771C37.7254 241.578 35.7021 249.383 36.2177 249.844C36.7333 250.306 44.2674 247.434 45.8847 245.628C46.6613 244.76 47.0615 243.62 46.9972 242.457C46.9329 241.295 46.4094 240.205 45.5419 239.429C44.6743 238.652 43.5338 238.252 42.3712 238.316C41.2086 238.38 40.1192 238.904 39.3426 239.771Z" fill="#BBCFF8"/>
<path d="M26.3982 252.212C28.7845 252.641 36.4909 250.27 36.6134 249.589C36.7359 248.908 30.3394 243.999 27.9531 243.57C27.3855 243.468 26.8033 243.478 26.2397 243.601C25.6762 243.723 25.1423 243.956 24.6686 244.285C24.195 244.614 23.7907 245.033 23.4791 245.518C23.1674 246.003 22.9545 246.545 22.8523 247.113C22.7502 247.681 22.7609 248.263 22.8839 248.826C23.0068 249.39 23.2396 249.924 23.5689 250.397C23.8981 250.871 24.3175 251.275 24.803 251.586C25.2884 251.897 25.8305 252.11 26.3982 252.212Z" fill="#BBCFF8"/>
<path d="M41.4743 249.646C39.857 251.453 37.8337 259.258 38.3492 259.719C38.865 260.181 46.3992 257.309 48.0163 255.503C48.7925 254.635 49.1924 253.495 49.128 252.333C49.0635 251.17 48.5401 250.081 47.6727 249.305C46.8053 248.528 45.6651 248.128 44.5027 248.192C43.3403 248.256 42.251 248.779 41.4743 249.646Z" fill="#BBCFF8"/>
<path d="M28.5298 262.086C30.9162 262.516 38.6226 260.145 38.7451 259.464C38.8676 258.783 32.4711 253.874 30.0847 253.445C28.9388 253.238 27.7578 253.496 26.8017 254.16C25.8456 254.825 25.1926 255.842 24.9864 256.988C24.7802 258.134 25.0377 259.315 25.7022 260.271C26.3667 261.227 27.3838 261.88 28.5298 262.086Z" fill="#BBCFF8"/>
<path d="M47.119 262.378C44.9355 263.433 40.0919 269.879 40.3928 270.502C40.6937 271.125 48.7538 271.34 50.9371 270.285C51.4566 270.035 51.9217 269.684 52.3057 269.254C52.6898 268.824 52.9853 268.322 53.1753 267.777C53.3654 267.233 53.4463 266.656 53.4134 266.08C53.3806 265.505 53.2345 264.941 52.9837 264.422C52.733 263.902 52.3823 263.437 51.9518 263.054C51.5213 262.67 51.0194 262.375 50.4747 262.185C49.9301 261.995 49.3534 261.915 48.7776 261.948C48.2018 261.981 47.6382 262.127 47.119 262.378Z" fill="#BBCFF8"/>
<path d="M30.3068 271.817C32.6208 272.542 40.5631 271.153 40.7699 270.492C40.9766 269.832 35.2439 264.162 32.93 263.438C32.3794 263.265 31.8001 263.201 31.2252 263.252C30.6502 263.303 30.0909 263.466 29.5792 263.734C29.0676 264.001 28.6136 264.366 28.2433 264.809C27.873 265.252 27.5936 265.763 27.4212 266.314C27.2488 266.865 27.1866 267.444 27.2384 268.019C27.2901 268.594 27.4547 269.153 27.7227 269.664C27.9907 270.175 28.3569 270.629 28.8003 270.998C29.2438 271.368 29.7557 271.646 30.3068 271.817Z" fill="#BBCFF8"/>
<path d="M29.5301 217.812C29.0627 218.916 29.3666 222.893 29.6818 223.026C29.9971 223.16 33.0627 220.609 33.53 219.504C33.6412 219.241 33.6997 218.959 33.7019 218.674C33.7042 218.389 33.6502 218.106 33.5431 217.842C33.436 217.577 33.2778 217.336 33.0777 217.133C32.8775 216.93 32.6393 216.768 32.3766 216.657C32.1138 216.546 31.8318 216.488 31.5465 216.485C31.2613 216.483 30.9784 216.537 30.714 216.645C30.4497 216.752 30.2091 216.91 30.0059 217.11C29.8028 217.311 29.6411 217.549 29.5301 217.812Z" fill="#BBCFF8"/>
<path d="M24.7966 224.266C25.9779 224.473 29.784 223.281 29.843 222.944C29.9019 222.607 26.7261 220.195 25.5447 219.988C24.9773 219.889 24.3938 220.019 23.9225 220.35C23.4512 220.681 23.1307 221.186 23.0315 221.753C22.9323 222.32 23.0625 222.904 23.3935 223.375C23.7246 223.847 24.2293 224.167 24.7966 224.266Z" fill="#BBCFF8"/>
<path d="M32.4531 223.797C31.6627 225.307 31.6296 230.973 32.0604 231.198C32.4912 231.424 37.1291 228.169 37.9195 226.66C38.2991 225.935 38.3751 225.089 38.1309 224.308C37.8868 223.527 37.3423 222.875 36.6174 222.495C35.8926 222.116 35.0466 222.04 34.2656 222.284C33.4847 222.528 32.8327 223.072 32.4531 223.797Z" fill="#BBCFF8"/>
<path d="M24.961 232.891C26.6394 233.184 32.0466 231.491 32.1304 231.012C32.2143 230.533 27.7022 227.106 26.0238 226.813C25.6247 226.743 25.2158 226.752 24.8204 226.841C24.4249 226.929 24.0508 227.094 23.7192 227.327C23.0496 227.797 22.5943 228.514 22.4533 229.32C22.3124 230.126 22.4974 230.955 22.9677 231.625C23.438 232.295 24.155 232.75 24.961 232.891Z" fill="#BBCFF8"/>
<path d="M82.9399 292.398C82.9614 292.4 82.9831 292.4 83.0046 292.398C83.0467 292.394 83.0875 292.381 83.1248 292.361C83.162 292.341 83.195 292.314 83.2218 292.282C83.2485 292.249 83.2686 292.211 83.2808 292.171C83.293 292.13 83.2971 292.088 83.2929 292.046C78.6791 245.829 72.7459 212.678 66.5868 198.7C66.4499 198.389 66.3511 198.165 66.3184 198.055C66.3063 198.015 66.2864 197.977 66.2597 197.944C66.233 197.911 66.2001 197.884 66.1629 197.864C66.1257 197.844 66.085 197.831 66.0429 197.827C66.0008 197.823 65.9583 197.827 65.9178 197.839C65.8773 197.851 65.8396 197.871 65.8068 197.898C65.774 197.924 65.7468 197.957 65.7267 197.994C65.7066 198.032 65.694 198.072 65.6897 198.114C65.6854 198.156 65.6894 198.199 65.7014 198.239C65.7879 198.484 65.8868 198.725 65.9977 198.959C72.1301 212.877 78.045 245.959 82.6524 292.11C82.6598 292.183 82.6925 292.252 82.7448 292.305C82.7972 292.358 82.8661 292.39 82.9399 292.398Z" fill="#BBCFF8"/>
<path d="M61.056 195.291C61.8004 196.87 66.4089 200.401 66.8595 200.188C67.3104 199.976 67.5189 194.174 66.7744 192.595C66.5974 192.219 66.3482 191.882 66.0409 191.603C65.7337 191.324 65.3745 191.108 64.9838 190.968C64.5931 190.827 64.1786 190.766 63.764 190.785C63.3494 190.805 62.9427 190.907 62.5672 191.084C62.1917 191.261 61.8548 191.51 61.5756 191.817C61.2965 192.124 61.0806 192.484 60.9403 192.874C60.7999 193.265 60.7379 193.679 60.7578 194.094C60.7776 194.509 60.879 194.915 61.056 195.291Z" fill="#BBCFF8"/>
<path d="M70.0899 201.412C69.2582 202.992 69.2116 208.931 69.6629 209.169C70.114 209.406 74.9822 206.004 75.8139 204.423C76.0116 204.047 76.1334 203.636 76.1723 203.213C76.2111 202.791 76.1663 202.364 76.0404 201.959C75.9145 201.553 75.7099 201.176 75.4383 200.85C75.1668 200.523 74.8335 200.253 74.4577 200.056C74.0818 199.858 73.6707 199.736 73.2478 199.697C72.8249 199.658 72.3985 199.703 71.9929 199.829C71.5873 199.955 71.2105 200.16 70.884 200.431C70.5575 200.703 70.2876 201.036 70.0899 201.412Z" fill="#BBCFF8"/>
<path d="M62.0522 210.247C63.7794 210.701 69.5765 209.409 69.7062 208.916C69.8359 208.423 65.4248 204.446 63.6976 203.992C63.2868 203.883 62.8587 203.857 62.4377 203.914C62.0167 203.971 61.6111 204.111 61.2441 204.325C60.8771 204.539 60.5559 204.823 60.2987 205.161C60.0416 205.5 59.8536 205.885 59.7456 206.296C59.6375 206.707 59.6114 207.135 59.6689 207.556C59.7263 207.977 59.8661 208.382 60.0803 208.749C60.2945 209.116 60.5789 209.437 60.9173 209.694C61.2556 209.951 61.6413 210.139 62.0522 210.247Z" fill="#BBCFF8"/>
<path d="M79.4394 233.271C77.7654 235.758 76.6133 245.66 77.3233 246.138C78.0331 246.616 86.7726 241.819 88.4464 239.332C88.8444 238.741 89.122 238.077 89.2634 237.378C89.4048 236.679 89.4071 235.96 89.2704 235.26C89.1336 234.56 88.8604 233.895 88.4663 233.3C88.0722 232.706 87.565 232.196 86.9736 231.798C86.3822 231.4 85.7182 231.122 85.0195 230.981C84.3208 230.839 83.6011 230.837 82.9015 230.974C82.2018 231.111 81.536 231.384 80.942 231.778C80.348 232.172 79.8374 232.679 79.4394 233.271Z" fill="#BBCFF8"/>
<path d="M64.4279 246.56C67.2281 247.631 77.1356 246.524 77.4411 245.725C77.7469 244.925 71.1053 237.49 68.3051 236.42C67.6393 236.165 66.9298 236.044 66.2172 236.064C65.5047 236.083 64.8029 236.243 64.1521 236.534C63.5012 236.825 62.9141 237.241 62.424 237.759C61.934 238.276 61.5508 238.886 61.2962 239.551C61.0416 240.217 60.9207 240.927 60.9403 241.639C60.9599 242.352 61.1196 243.054 61.4104 243.704C61.7013 244.355 62.1174 244.942 62.6351 245.432C63.1529 245.922 63.762 246.306 64.4279 246.56Z" fill="#BBCFF8"/>
<path d="M84.9606 245.68C82.2927 248.198 78.2501 259.708 78.9687 260.47C79.6876 261.231 91.412 257.859 94.08 255.341C95.3603 254.132 96.1079 252.463 96.1584 250.703C96.2088 248.942 95.558 247.233 94.3491 245.953C93.1401 244.672 91.4719 243.923 89.7113 243.872C87.9508 243.821 86.2419 244.471 84.9606 245.68Z" fill="#BBCFF8"/>
<path d="M63.8626 262.791C67.4059 263.741 79.3264 261.146 79.5977 260.135C79.8691 259.123 70.8487 250.91 67.3053 249.959C66.4628 249.733 65.584 249.675 64.7191 249.788C63.8541 249.902 63.0201 250.185 62.2645 250.621C61.5088 251.057 60.8465 251.637 60.3152 252.329C59.7839 253.021 59.3941 253.811 59.1681 254.653C58.942 255.496 58.8841 256.375 58.9977 257.24C59.1113 258.105 59.3941 258.939 59.83 259.694C60.266 260.45 60.8464 261.112 61.5383 261.643C62.2302 262.175 63.02 262.565 63.8626 262.791Z" fill="#BBCFF8"/>
<path d="M86.9195 260.839C84.2514 263.358 80.2089 274.868 80.9275 275.629C81.6464 276.391 93.3709 273.019 96.0387 270.501C97.32 269.291 98.0683 267.623 98.1192 265.862C98.17 264.101 97.5192 262.391 96.3099 261.11C95.1006 259.829 93.4319 259.081 91.6709 259.03C89.9099 258.979 88.2007 259.63 86.9195 260.839Z" fill="#BBCFF8"/>
<path d="M65.8214 277.95C69.3648 278.901 81.2853 276.305 81.5566 275.294C81.828 274.283 72.8077 266.069 69.2642 265.118C67.5628 264.662 65.7499 264.901 64.2243 265.781C62.6987 266.662 61.5852 268.112 61.1288 269.813C60.6723 271.515 60.9103 273.327 61.7902 274.853C62.6702 276.379 64.1202 277.493 65.8214 277.95Z" fill="#BBCFF8"/>
<path d="M93.8116 280.753C90.3855 282.065 82.2632 291.168 82.6378 292.146C83.0122 293.124 95.1374 294.472 98.5633 293.16C99.3783 292.848 100.124 292.379 100.758 291.779C101.391 291.179 101.9 290.46 102.256 289.663C102.612 288.866 102.807 288.007 102.831 287.135C102.854 286.263 102.706 285.394 102.394 284.579C102.082 283.765 101.612 283.019 101.012 282.386C100.411 281.752 99.6923 281.244 98.8954 280.888C98.0984 280.533 97.2392 280.338 96.3669 280.315C95.4946 280.292 94.6263 280.44 93.8116 280.753Z" fill="#BBCFF8"/>
<path d="M67.2638 292.848C70.6606 294.234 82.812 293.15 83.2076 292.18C83.6033 291.211 75.6806 281.934 72.2839 280.547C71.4761 280.217 70.6112 280.05 69.7387 280.054C68.8661 280.058 68.0029 280.234 67.1984 280.572C66.394 280.91 65.6639 281.403 65.0501 282.023C64.4363 282.644 63.9506 283.379 63.6209 284.186C63.2912 284.994 63.1239 285.859 63.1285 286.732C63.1332 287.604 63.3097 288.468 63.648 289.272C63.9862 290.076 64.4797 290.806 65.1001 291.42C65.7205 292.033 66.4557 292.519 67.2638 292.848Z" fill="#BBCFF8"/>
<path d="M72.957 211.323C72.112 212.929 72.0647 218.963 72.523 219.204C72.9815 219.445 77.9279 215.989 78.7727 214.383C78.9736 214.001 79.0974 213.583 79.1368 213.153C79.1763 212.724 79.1308 212.29 79.0028 211.878C78.8749 211.466 78.667 211.083 78.3911 210.752C78.1152 210.42 77.7767 210.146 77.3948 209.945C77.0129 209.744 76.5952 209.62 76.1656 209.581C75.7359 209.541 75.3026 209.587 74.8905 209.715C74.4784 209.843 74.0956 210.05 73.7638 210.326C73.4321 210.602 73.1579 210.941 72.957 211.323Z" fill="#BBCFF8"/>
<path d="M64.9997 220.453C66.7545 220.914 72.6445 219.602 72.7763 219.101C72.908 218.6 68.4264 214.559 66.6714 214.097C65.8288 213.876 64.9329 213.999 64.1806 214.438C63.4283 214.877 62.8812 215.597 62.6596 216.44C62.438 217.282 62.56 218.178 62.9988 218.931C63.4376 219.683 64.1573 220.231 64.9997 220.453Z" fill="#BBCFF8"/>
<path d="M76.6033 220.719C75.2197 222.894 74.4496 231.433 75.0704 231.828C75.6914 232.223 83.0977 227.905 84.4813 225.729C85.1457 224.685 85.3679 223.419 85.099 222.21C84.8302 221.002 84.0922 219.95 83.0475 219.285C82.0028 218.621 80.737 218.398 79.5285 218.667C78.3199 218.936 77.2677 219.674 76.6033 220.719Z" fill="#BBCFF8"/>
<path d="M64.1516 233.477C66.6449 234.133 75.0127 232.268 75.1999 231.557C75.3873 230.845 69.0199 225.104 66.5266 224.448C65.9336 224.292 65.3157 224.254 64.7081 224.337C64.1006 224.419 63.5152 224.621 62.9855 224.93C62.4558 225.239 61.9922 225.649 61.6211 226.137C61.25 226.625 60.9787 227.182 60.8228 227.775C60.6668 228.368 60.6291 228.986 60.712 229.593C60.7949 230.201 60.9967 230.786 61.3058 231.316C61.615 231.845 62.0254 232.309 62.5137 232.68C63.002 233.051 63.5586 233.322 64.1516 233.477Z" fill="#BBCFF8"/>
<path d="M332.542 58.6249C332.529 58.6144 332.515 58.6052 332.5 58.5974C332.472 58.5822 332.44 58.5728 332.408 58.5697C332.376 58.5666 332.343 58.5699 332.312 58.5794C332.281 58.5889 332.253 58.6044 332.228 58.625C332.203 58.6456 332.182 58.671 332.167 58.6996C315.479 90.1268 305.182 113.783 303.172 125.312C303.127 125.568 303.095 125.753 303.069 125.837C303.06 125.868 303.056 125.9 303.059 125.933C303.062 125.965 303.072 125.996 303.087 126.025C303.102 126.054 303.123 126.079 303.148 126.1C303.173 126.12 303.202 126.136 303.233 126.145C303.264 126.155 303.296 126.158 303.329 126.155C303.361 126.152 303.392 126.142 303.421 126.127C303.449 126.112 303.475 126.091 303.495 126.066C303.516 126.041 303.531 126.012 303.541 125.981C303.59 125.788 303.629 125.593 303.658 125.396C305.659 113.918 315.938 90.3134 332.602 58.9309C332.629 58.8807 332.638 58.8228 332.626 58.7671C332.615 58.7113 332.585 58.6611 332.542 58.6249Z" fill="#BBCFF8"/>
<path d="M305.251 129.835C305.447 128.512 304.008 124.303 303.63 124.247C303.253 124.191 300.655 127.802 300.459 129.125C300.412 129.44 300.427 129.761 300.504 130.07C300.581 130.379 300.719 130.67 300.908 130.926C301.098 131.181 301.336 131.397 301.609 131.561C301.882 131.725 302.184 131.833 302.499 131.88C302.814 131.927 303.135 131.911 303.444 131.833C303.753 131.756 304.044 131.618 304.299 131.428C304.555 131.238 304.77 130.999 304.933 130.726C305.097 130.453 305.204 130.15 305.251 129.835Z" fill="#BBCFF8"/>
<path d="M302.09 122.095C303.292 121.44 305.844 117.673 305.657 117.33C305.471 116.987 300.922 117.089 299.72 117.744C299.434 117.899 299.181 118.109 298.977 118.363C298.772 118.616 298.619 118.907 298.527 119.219C298.435 119.531 298.405 119.858 298.44 120.182C298.474 120.506 298.572 120.819 298.728 121.105C298.884 121.391 299.094 121.644 299.347 121.848C299.601 122.052 299.892 122.205 300.204 122.297C300.516 122.389 300.844 122.418 301.167 122.384C301.491 122.349 301.805 122.251 302.09 122.095Z" fill="#BBCFF8"/>
<path d="M310.968 119.876C310.059 118.852 305.814 117.214 305.522 117.473C305.23 117.733 306.353 122.142 307.262 123.165C307.478 123.409 307.74 123.607 308.032 123.749C308.325 123.892 308.643 123.975 308.968 123.994C309.292 124.014 309.618 123.969 309.925 123.862C310.233 123.756 310.517 123.59 310.76 123.374C311.003 123.158 311.202 122.896 311.344 122.603C311.486 122.311 311.569 121.993 311.588 121.668C311.608 121.343 311.563 121.018 311.456 120.71C311.35 120.403 311.184 120.119 310.968 119.876Z" fill="#BBCFF8"/>
<path d="M309.661 97.8111C311.785 96.9361 316.725 91.1118 316.475 90.5056C316.226 89.8994 308.616 89.2459 306.492 90.1208C305.473 90.5414 304.663 91.3495 304.239 92.3674C303.816 93.3853 303.814 94.5298 304.234 95.5492C304.654 96.5686 305.461 97.3795 306.479 97.8037C307.497 98.2278 308.641 98.2305 309.661 97.8111Z" fill="#BBCFF8"/>
<path d="M324.876 95.7132C323.546 93.8411 316.758 90.3392 316.224 90.719C315.69 91.0987 316.767 98.66 318.097 100.532C318.414 100.977 318.815 101.356 319.277 101.646C319.74 101.936 320.255 102.132 320.794 102.223C321.332 102.314 321.883 102.298 322.416 102.176C322.948 102.054 323.451 101.829 323.896 101.512C324.341 101.196 324.72 100.795 325.01 100.332C325.3 99.8694 325.496 99.3541 325.587 98.8157C325.678 98.2772 325.662 97.726 325.54 97.1937C325.418 96.6614 325.193 96.1583 324.876 95.7132Z" fill="#BBCFF8"/>
<path d="M311.411 87.5543C314.181 87.0818 321.648 81.4599 321.513 80.669C321.378 79.8782 312.47 77.0484 309.7 77.5209C309.041 77.6332 308.411 77.8742 307.845 78.2301C307.279 78.586 306.789 79.0498 306.403 79.5951C306.017 80.1404 305.741 80.7565 305.593 81.4081C305.445 82.0597 305.426 82.7342 305.538 83.393C305.651 84.0518 305.892 84.6821 306.248 85.2477C306.604 85.8134 307.067 86.3034 307.613 86.6898C308.158 87.0762 308.774 87.3514 309.426 87.4998C310.077 87.6481 310.752 87.6666 311.411 87.5543Z" fill="#BBCFF8"/>
<path d="M332.13 85.6052C330.275 83.4941 321.572 80.0857 320.97 80.6155C320.367 81.145 322.63 90.2133 324.485 92.3244C324.926 92.8264 325.462 93.2366 326.062 93.5315C326.661 93.8264 327.313 94.0004 327.98 94.0434C328.647 94.0864 329.316 93.9976 329.949 93.7821C330.581 93.5666 331.165 93.2286 331.667 92.7874C332.169 92.3462 332.579 91.8105 332.874 91.2108C333.169 90.6111 333.343 89.9591 333.386 89.2922C333.429 88.6253 333.34 87.9564 333.125 87.3238C332.909 86.6912 332.571 86.1072 332.13 85.6052Z" fill="#BBCFF8"/>
<path d="M316.6 77.0564C319.371 76.5839 326.838 70.962 326.703 70.1712C326.568 69.3804 317.66 66.5506 314.89 67.0231C314.231 67.1354 313.601 67.3764 313.035 67.7323C312.469 68.0882 311.979 68.552 311.593 69.0973C310.813 70.1985 310.502 71.5646 310.728 72.8951C310.955 74.2256 311.701 75.4115 312.803 76.1919C313.904 76.9723 315.27 77.2833 316.6 77.0564Z" fill="#BBCFF8"/>
<path d="M337.32 75.1075C335.465 72.9963 326.762 69.588 326.159 70.1176C325.557 70.6472 327.819 79.7154 329.675 81.8267C330.566 82.84 331.823 83.458 333.17 83.5446C334.517 83.6312 335.842 83.1794 336.856 82.2885C337.87 81.3977 338.488 80.1407 338.575 78.7941C338.662 77.4474 338.211 76.1213 337.32 75.1075Z" fill="#BBCFF8"/>
<path d="M320.664 61.4325C323.406 62.051 332.451 59.6967 332.627 58.9142C332.804 58.1316 325.646 52.1222 322.904 51.5037C322.252 51.3563 321.577 51.3388 320.918 51.4522C320.259 51.5656 319.629 51.8077 319.064 52.1646C318.499 52.5216 318.01 52.9864 317.624 53.5326C317.238 54.0787 316.964 54.6955 316.817 55.3476C316.67 55.9998 316.653 56.6745 316.767 57.3333C316.88 57.9921 317.123 58.622 317.48 59.187C317.837 59.7521 318.302 60.2413 318.849 60.6265C319.395 61.0118 320.012 61.2857 320.664 61.4325Z" fill="#BBCFF8"/>
<path d="M342.728 64.9963C341.151 62.6697 332.943 58.2002 332.279 58.6502C331.615 59.1004 332.726 68.3803 334.303 70.7069C334.678 71.2603 335.158 71.7345 335.716 72.1024C336.274 72.4702 336.899 72.7244 337.556 72.8506C338.212 72.9768 338.887 72.9724 339.542 72.8377C340.197 72.703 340.818 72.4406 341.372 72.0656C341.925 71.6905 342.399 71.2102 342.767 70.6519C343.134 70.0936 343.388 69.4684 343.514 68.8119C343.64 68.1554 343.636 67.4806 343.501 66.8259C343.366 66.1712 343.103 65.5495 342.728 64.9963Z" fill="#BBCFF8"/>
<path d="M304.472 114.558C305.693 113.893 308.286 110.066 308.096 109.717C307.906 109.369 303.284 109.472 302.064 110.137C301.773 110.295 301.517 110.509 301.309 110.766C301.101 111.023 300.946 111.319 300.852 111.636C300.759 111.953 300.729 112.286 300.764 112.615C300.799 112.943 300.898 113.262 301.056 113.553C301.214 113.843 301.428 114.099 301.686 114.307C301.943 114.515 302.239 114.67 302.556 114.763C302.873 114.856 303.205 114.886 303.534 114.851C303.863 114.816 304.182 114.717 304.472 114.558Z" fill="#BBCFF8"/>
<path d="M313.423 112.116C312.5 111.077 308.187 109.412 307.89 109.675C307.594 109.939 308.735 114.419 309.658 115.458C310.101 115.957 310.724 116.26 311.391 116.299C312.057 116.339 312.712 116.112 313.211 115.669C313.71 115.226 314.013 114.603 314.053 113.937C314.092 113.27 313.866 112.616 313.423 112.116Z" fill="#BBCFF8"/>
<path d="M306.138 107.018C307.944 106.219 312.062 101.102 311.833 100.587C311.605 100.071 305.049 99.6784 303.243 100.478C302.376 100.862 301.697 101.575 301.356 102.459C301.014 103.344 301.038 104.328 301.422 105.195C301.806 106.062 302.518 106.741 303.402 107.083C304.287 107.425 305.271 107.402 306.138 107.018Z" fill="#BBCFF8"/>
<path d="M319.496 104.172C318.184 102.695 312.057 100.33 311.636 100.705C311.214 101.079 312.835 107.444 314.146 108.921C314.458 109.272 314.836 109.559 315.259 109.764C315.681 109.969 316.14 110.089 316.609 110.117C317.078 110.145 317.547 110.081 317.991 109.927C318.435 109.773 318.845 109.534 319.196 109.222C319.547 108.91 319.834 108.532 320.039 108.11C320.244 107.687 320.364 107.228 320.392 106.759C320.42 106.29 320.355 105.821 320.201 105.377C320.047 104.933 319.808 104.524 319.496 104.172Z" fill="#BBCFF8"/>
<path d="M325.974 13.5059C325.965 13.4889 325.954 13.4729 325.942 13.4581C325.918 13.429 325.888 13.4051 325.855 13.3875C325.821 13.3699 325.785 13.3591 325.747 13.3557C325.71 13.3522 325.672 13.3562 325.636 13.3674C325.6 13.3787 325.566 13.3968 325.537 13.421C293.669 39.9361 272.122 60.8952 264.864 72.4371C264.703 72.6935 264.587 72.8785 264.522 72.9578C264.498 72.9869 264.48 73.0206 264.469 73.0567C264.458 73.0929 264.454 73.1308 264.458 73.1684C264.462 73.206 264.473 73.2425 264.491 73.2758C264.508 73.3091 264.533 73.3386 264.562 73.3625C264.591 73.3864 264.625 73.4044 264.661 73.4153C264.697 73.4262 264.735 73.4299 264.773 73.4261C264.81 73.4223 264.847 73.4112 264.88 73.3933C264.913 73.3754 264.943 73.3512 264.967 73.3219C265.104 73.1356 265.233 72.9423 265.351 72.743C272.577 61.2511 294.082 40.3402 325.905 13.8626C325.956 13.8203 325.99 13.7616 326.003 13.6967C326.016 13.6317 326.006 13.5643 325.974 13.5059Z" fill="#BBCFF8"/>
<path d="M265.108 78.2311C265.904 76.8912 266.211 71.7185 265.828 71.4915C265.446 71.2643 261.052 74.0104 260.256 75.3503C260.067 75.6689 259.942 76.0217 259.889 76.3884C259.836 76.7552 259.856 77.1288 259.948 77.4879C260.039 77.847 260.201 78.1846 260.423 78.4813C260.645 78.778 260.923 79.0281 261.241 79.2173C261.56 79.4065 261.913 79.531 262.28 79.5839C262.646 79.6367 263.02 79.6167 263.379 79.5251C263.738 79.4336 264.076 79.2722 264.372 79.0501C264.669 78.8281 264.919 78.5498 265.108 78.2311Z" fill="#BBCFF8"/>
<path d="M265.119 68.4911C266.703 68.316 271.118 65.3816 271.068 64.9292C271.018 64.4769 266.069 62.5779 264.484 62.7531C264.107 62.7947 263.742 62.9102 263.41 63.0929C263.078 63.2755 262.785 63.5218 262.548 63.8177C262.311 64.1136 262.135 64.4532 262.029 64.8173C261.924 65.1813 261.891 65.5626 261.932 65.9393C261.974 66.3161 262.089 66.681 262.272 67.0131C262.455 67.3453 262.701 67.6382 262.997 67.8751C263.293 68.1121 263.632 68.2884 263.996 68.3941C264.361 68.4998 264.742 68.5328 265.119 68.4911Z" fill="#BBCFF8"/>
<path d="M275.67 70.0184C275.142 68.5141 271.289 64.8732 270.86 65.0238C270.43 65.1744 269.694 70.4242 270.222 71.9286C270.347 72.2865 270.542 72.6162 270.794 72.8988C271.047 73.1815 271.353 73.4115 271.695 73.5759C272.037 73.7403 272.407 73.8357 272.786 73.8568C273.165 73.8778 273.544 73.8241 273.901 73.6986C274.259 73.5732 274.589 73.3784 274.871 73.1256C275.154 72.8727 275.384 72.5666 275.548 72.2249C275.712 71.8831 275.807 71.5123 275.828 71.1337C275.849 70.7551 275.795 70.3761 275.67 70.0184Z" fill="#BBCFF8"/>
<path d="M284.003 45.6519C286.679 45.6463 294.577 41.5481 294.576 40.7843C294.574 40.0205 286.658 35.956 283.982 35.9617C282.697 35.9644 281.466 36.4775 280.559 37.388C279.653 38.2986 279.145 39.532 279.147 40.817C279.15 42.1021 279.663 43.3334 280.574 44.2401C281.484 45.1468 282.718 45.6547 284.003 45.6519Z" fill="#BBCFF8"/>
<path d="M301.334 50.1087C300.726 47.5028 294.954 40.7303 294.211 40.9039C293.467 41.0774 291.289 49.7051 291.897 52.3109C292.042 52.9308 292.307 53.5162 292.677 54.0336C293.048 54.551 293.517 54.9903 294.057 55.3264C294.598 55.6626 295.199 55.8889 295.827 55.9925C296.455 56.0962 297.097 56.0751 297.717 55.9304C298.337 55.7858 298.922 55.5204 299.44 55.1496C299.957 54.7787 300.396 54.3095 300.732 53.7689C301.068 53.2282 301.294 52.6267 301.397 51.9987C301.5 51.3707 301.479 50.7285 301.334 50.1087Z" fill="#BBCFF8"/>
<path d="M290.418 35.3662C293.614 36.0801 304.146 33.3154 304.35 32.4033C304.554 31.4911 296.2 24.5071 293.004 23.7931C291.47 23.4508 289.862 23.732 288.535 24.5748C287.208 25.4176 286.269 26.753 285.927 28.2873C285.584 29.8217 285.864 31.4294 286.707 32.7568C287.549 34.0843 288.884 35.0229 290.418 35.3662Z" fill="#BBCFF8"/>
<path d="M313.618 42.4133C312.55 39.318 304.672 31.8006 303.788 32.1057C302.905 32.4106 301.34 43.1867 302.409 46.2821C302.663 47.0181 303.059 47.6969 303.576 48.2796C304.092 48.8624 304.718 49.3378 305.418 49.6786C306.118 50.0194 306.878 50.219 307.656 50.266C308.433 50.313 309.212 50.2064 309.948 49.9524C310.684 49.6984 311.363 49.3019 311.945 48.7855C312.528 48.2692 313.003 47.6431 313.344 46.943C313.685 46.243 313.885 45.4826 313.932 44.7054C313.979 43.9282 313.872 43.1494 313.618 42.4133Z" fill="#BBCFF8"/>
<path d="M300.649 26.3391C303.845 27.0531 314.377 24.2884 314.581 23.3764C314.784 22.4641 306.43 15.48 303.234 14.7662C302.474 14.5964 301.689 14.578 300.922 14.7119C300.155 14.8459 299.421 15.1296 298.764 15.5469C298.107 15.9641 297.538 16.5068 297.09 17.1439C296.643 17.781 296.325 18.5 296.155 19.2598C295.985 20.0197 295.967 20.8056 296.101 21.5726C296.235 22.3396 296.518 23.0728 296.936 23.7301C297.353 24.3875 297.896 24.9562 298.533 25.4039C299.17 25.8515 299.889 26.1693 300.649 26.3391Z" fill="#BBCFF8"/>
<path d="M323.849 33.3868C322.78 30.2913 314.902 22.7741 314.019 23.0791C313.135 23.3839 311.571 34.16 312.639 37.2555C312.892 37.9925 313.288 38.6722 313.805 39.256C314.321 39.8397 314.947 40.3159 315.648 40.6575C316.348 40.999 317.109 41.1991 317.887 41.2464C318.664 41.2936 319.444 41.1871 320.181 40.9329C320.917 40.6786 321.596 40.2817 322.18 39.7648C322.763 39.2478 323.238 38.621 323.579 37.9202C323.919 37.2193 324.119 36.4582 324.165 35.6803C324.211 34.9025 324.104 34.1231 323.849 33.3868Z" fill="#BBCFF8"/>
<path d="M311.928 11.2886C314.612 13.1661 325.403 14.6216 325.939 13.8558C326.475 13.0901 321.41 3.45023 318.727 1.57288C318.089 1.12603 317.37 0.809245 316.609 0.640623C315.849 0.472 315.063 0.454844 314.296 0.590135C313.529 0.725427 312.796 1.01051 312.139 1.42911C311.482 1.84771 310.914 2.39161 310.468 3.02975C310.021 3.66788 309.705 4.38775 309.537 5.14822C309.368 5.90869 309.351 6.69486 309.487 7.46182C309.623 8.22878 309.908 8.9615 310.327 9.61812C310.746 10.2747 311.29 10.8424 311.928 11.2886Z" fill="#BBCFF8"/>
<path d="M334.143 24.8728C333.47 21.6681 326.594 13.225 325.679 13.417C324.765 13.6091 321.865 24.105 322.538 27.3098C322.698 28.0718 323.007 28.7948 323.446 29.4376C323.886 30.0803 324.447 30.6303 325.099 31.0559C325.751 31.4816 326.481 31.7747 327.246 31.9185C328.011 32.0623 328.797 32.0539 329.559 31.8939C330.321 31.7339 331.044 31.4253 331.687 30.9859C332.33 30.5465 332.88 29.9847 333.305 29.3328C333.731 28.6808 334.024 27.9514 334.168 27.1861C334.312 26.4209 334.303 25.6348 334.143 24.8728Z" fill="#BBCFF8"/>
<path d="M271.014 61.417C272.624 61.2391 277.109 58.2576 277.059 57.7981C277.008 57.3386 271.979 55.4089 270.369 55.587C269.986 55.6293 269.616 55.7466 269.278 55.9322C268.941 56.1178 268.643 56.3681 268.402 56.6687C268.162 56.9693 267.983 57.3144 267.875 57.6843C267.768 58.0541 267.734 58.4415 267.777 58.8243C267.819 59.2071 267.936 59.5778 268.122 59.9153C268.307 60.2528 268.558 60.5504 268.858 60.7911C269.159 61.0319 269.504 61.2111 269.874 61.3185C270.244 61.4259 270.631 61.4593 271.014 61.417Z" fill="#BBCFF8"/>
<path d="M281.743 62.7366C281.207 61.2083 277.292 57.5092 276.856 57.6621C276.42 57.8151 275.672 63.1491 276.208 64.6775C276.465 65.4115 277.004 66.0133 277.705 66.3503C278.052 66.5172 278.428 66.6141 278.813 66.6354C279.197 66.6567 279.582 66.6021 279.946 66.4747C280.309 66.3473 280.644 66.1495 280.931 65.8927C281.218 65.6358 281.452 65.325 281.619 64.9779C281.785 64.6308 281.882 64.2542 281.904 63.8696C281.925 63.4851 281.87 63.1001 281.743 62.7366Z" fill="#BBCFF8"/>
<path d="M276.139 54.0238C278.439 53.9594 285.138 50.2606 285.12 49.6041C285.101 48.9475 278.206 45.6294 275.906 45.6938C274.801 45.7247 273.754 46.1932 272.995 46.9962C272.236 47.7991 271.826 48.8708 271.857 49.9754C271.888 51.08 272.357 52.1271 273.16 52.8864C273.963 53.6456 275.034 54.0547 276.139 54.0238Z" fill="#BBCFF8"/>
<path d="M291.798 56.8532C291.036 54.6818 285.474 49.4265 284.855 49.6437C284.235 49.861 283.173 57.4391 283.934 59.6106C284.115 60.1272 284.396 60.6031 284.761 61.0112C285.125 61.4192 285.567 61.7514 286.06 61.9887C286.554 62.226 287.089 62.3638 287.635 62.3942C288.182 62.4246 288.729 62.347 289.245 62.1659C289.762 61.9848 290.238 61.7037 290.646 61.3386C291.053 60.9736 291.385 60.5317 291.622 60.0384C291.859 59.545 291.997 59.0097 292.027 58.4632C292.057 57.9167 291.979 57.3696 291.798 56.8532Z" fill="#BBCFF8"/>
<path d="M202.896 115.367H115.066V118.16H160.127C164.668 118.16 168.349 122.224 168.349 127.238C168.349 132.252 164.668 136.315 160.127 136.315H115.066V138.933H202.896C208.791 138.933 213.568 133.659 213.568 127.15C213.568 120.643 208.791 115.367 202.896 115.367Z" fill="#F1A34F"/>
<path d="M172.355 127.15C172.355 120.643 167.577 115.367 161.683 115.367H115.066V118.16H160.127C164.668 118.16 168.349 122.224 168.349 127.238C168.349 132.252 164.668 136.315 160.127 136.315H115.066V138.933H161.683C167.577 138.933 172.355 133.659 172.355 127.15Z" fill="#D86713"/>
<path d="M160.127 118.169H115.066V118.221C119.16 118.742 122.339 122.589 122.339 127.247C122.339 131.906 119.16 135.744 115.066 136.263V136.325H160.127C164.668 136.325 168.349 132.261 168.349 127.247C168.349 122.233 164.668 118.169 160.127 118.169Z" fill="white"/>
<path d="M168.349 127.237C168.349 122.225 164.668 118.16 160.127 118.16H115.066V118.222C117.183 118.491 119.052 119.648 120.367 121.345C129.38 120.557 156.261 119.648 159.094 136.325H160.127C164.668 136.325 168.349 132.251 168.349 127.237Z" fill="#ACC7F9"/>
<path d="M136.606 138.712H233.578V141.817H183.826C178.812 141.817 174.749 146.337 174.749 151.912C174.749 157.487 178.812 162.008 183.826 162.008H233.578V164.92H136.606C130.098 164.92 124.823 159.052 124.823 151.815C124.823 144.577 130.098 138.712 136.606 138.712Z" fill="#060633"/>
<path d="M170.327 151.815C170.327 144.577 175.602 138.712 182.11 138.712H233.578V141.817H183.826C178.812 141.817 174.749 146.337 174.749 151.912C174.749 157.487 178.812 162.008 183.826 162.008H233.578V164.92H182.11C175.602 164.92 170.327 159.052 170.327 151.815Z" fill="#0B0755"/>
<path d="M183.826 141.827H233.578V141.896C229.058 142.475 225.548 146.742 225.548 151.922C225.548 157.104 229.058 161.371 233.578 161.949V162.018H183.826C178.812 162.018 174.749 157.498 174.749 151.922C174.749 146.348 178.812 141.827 183.826 141.827Z" fill="white"/>
<path d="M174.749 151.815C174.749 146.24 178.812 141.721 183.826 141.721H233.578V141.917C232.281 142.087 231.043 142.557 229.96 143.289C229.141 143.829 228.412 144.495 227.801 145.263C217.85 144.385 188.095 143.363 184.968 161.91H183.826C178.812 161.91 174.749 157.391 174.749 151.815Z" fill="#ACC7F9"/>
<path d="M129.983 165.079H239.36V168.527H183.245C177.589 168.527 173.006 173.544 173.006 179.731C173.006 185.919 177.589 190.935 183.245 190.935H239.36V194.169H129.983C122.643 194.169 116.693 187.657 116.693 179.624C116.693 171.591 122.643 165.079 129.983 165.079Z" fill="#2F3DBC"/>
<path d="M168.018 179.624C168.018 171.591 173.968 165.079 181.309 165.079H239.361V168.527H183.245C177.59 168.527 173.006 173.544 173.006 179.731C173.006 185.919 177.59 190.935 183.245 190.935H239.361V194.169H181.309C173.968 194.169 168.018 187.657 168.018 179.624Z" fill="#474FEA"/>
<path d="M183.245 168.539H239.36V168.616C234.263 169.257 230.303 173.993 230.303 179.743C230.303 185.495 234.263 190.23 239.36 190.871V190.948H183.245C177.589 190.948 173.006 185.932 173.006 179.743C173.006 173.555 177.589 168.539 183.245 168.539Z" fill="white"/>
<path d="M173.006 179.731C173.006 173.544 177.589 168.42 183.245 168.42H239.36V168.496C236.725 168.829 234.396 170.256 232.759 172.351C221.534 171.377 188.059 170.244 184.532 190.828L183.059 191.014C177.404 191.014 173.006 185.919 173.006 179.731Z" fill="#ACC7F9"/>
<path d="M348.668 265.432C327.081 246.1 285.569 208.448 276.657 196.923C266.419 183.677 248.546 162.062 236.419 158.3C224.979 154.75 206.212 157.172 183.229 158.22C155.915 159.467 138.374 162.774 134.167 164.863C128.361 167.747 130.511 175.199 138.292 179.361C145.608 183.276 180.571 177.111 185.181 186.754C186.685 189.898 146.151 194.24 139.739 193.224C133.325 192.209 99.8342 160.407 87.5067 153.271C75.1769 146.137 67.0578 152.043 67.1576 153.617C67.3946 157.388 116.059 216.524 131.424 229.402C146.791 242.277 221.529 226.834 231.909 227.396C239.549 227.808 294.313 290.843 309.409 308.5C328.595 308.484 322.592 275.251 340.822 268.534L340.825 268.533C343.459 267.562 346.073 266.529 348.668 265.432Z" fill="#F9A58F"/>
<path d="M159.158 103.515C159.158 103.515 150.786 113.701 153.362 115.238C155.938 116.775 164.088 115.374 173.367 122.925C182.647 130.476 193.171 140.915 209.3 133.083C225.427 125.25 211.439 110.131 211.439 110.131L159.158 103.515Z" fill="#050521"/>
<path d="M180.567 117.13L128.307 87.048L128.798 84.1381L200.375 81.8809L252.13 109.357L251.69 111.961L180.567 117.13Z" fill="#060633"/>
<path d="M239.485 160.089C239.286 159.673 238.968 159.327 238.571 159.092C238.175 158.857 237.717 158.746 237.257 158.771C236.797 158.796 236.355 158.958 235.987 159.234C235.618 159.511 235.34 159.89 235.187 160.325C235.034 160.76 235.014 161.23 235.129 161.676C235.243 162.123 235.487 162.525 235.83 162.832C236.174 163.14 236.6 163.339 237.056 163.404C237.512 163.469 237.978 163.397 238.393 163.198C238.95 162.93 239.378 162.452 239.583 161.869C239.788 161.286 239.753 160.646 239.485 160.089Z" fill="#F1A34F"/>
<path d="M237.619 161.063C239.964 160.473 244.202 181.999 244.202 181.999C244.202 181.999 242.778 182.992 241.986 182.95C241.196 182.909 240.31 180.055 240.31 180.055L240.757 183.129C240.757 183.129 238.167 183.664 237.155 183.183C237.155 183.183 233.91 161.996 237.619 161.063Z" fill="#F1A34F"/>
<path d="M236.961 163.173L238.831 162.841L230.203 114.35L229.886 114.124L198.046 91.5217L196.95 93.0696L228.472 115.446L236.961 163.173Z" fill="#F1A34F"/>
</svg>
