<svg width="81" height="54" viewBox="0 0 81 54" fill="none" xmlns="http://www.w3.org/2000/svg">
<path fill-rule="evenodd" clip-rule="evenodd" d="M80.9998 44.8402L66.8196 44.8403C67.4564 45.5887 67.8649 46.5028 67.9968 47.4747C68.1287 48.4466 67.9786 49.4357 67.5641 50.3255C67.1496 51.2153 66.4881 51.9685 65.6575 52.4963C64.8269 53.0242 63.862 53.3047 62.8765 53.3047C61.891 53.3047 60.926 53.0242 60.0954 52.4963C59.2649 51.9685 58.6033 51.2152 58.1889 50.3255C57.7744 49.4357 57.6243 48.4465 57.7562 47.4746C57.8881 46.5027 58.2966 45.5887 58.9334 44.8402L44.753 44.84L44.753 30.7286C45.5051 31.3624 46.4236 31.7689 47.4003 31.9002C48.3769 32.0315 49.3709 31.882 50.265 31.4696C51.1591 31.0571 51.916 30.3988 52.4465 29.5722C52.9769 28.7457 53.2587 27.7854 53.2587 26.8047C53.2587 25.824 52.9769 24.8637 52.4464 24.0372C51.916 23.2106 51.1591 22.5523 50.265 22.1398C49.3709 21.7274 48.3769 21.578 47.4002 21.7092C46.4236 21.8405 45.5051 22.247 44.753 22.8808L44.753 8.76936L58.9334 8.76915C58.2966 8.02071 57.8881 7.10664 57.7562 6.13475C57.6242 5.16285 57.7744 4.1737 58.1888 3.28393C58.6033 2.39417 59.2649 1.64091 60.0955 1.11304C60.926 0.585169 61.891 0.304688 62.8765 0.304688C63.862 0.304687 64.8269 0.58517 65.6575 1.11304C66.4881 1.64091 67.1496 2.39415 67.5641 3.28391C67.9786 4.17367 68.1287 5.16285 67.9968 6.13475C67.8649 7.10664 67.4564 8.02071 66.8196 8.76915L80.9998 8.76913L81 22.8808C80.2479 22.2469 79.3294 21.8404 78.3528 21.7091C77.3761 21.5777 76.3821 21.7271 75.488 22.1395C74.5938 22.552 73.8369 23.2103 73.3064 24.0369C72.7759 24.8634 72.494 25.8237 72.494 26.8044C72.494 27.7851 72.7758 28.7454 73.3063 29.572C73.8367 30.3985 74.5936 31.0569 75.4877 31.4694C76.3818 31.8819 77.3759 32.0313 78.3525 31.9C79.3292 31.7687 80.2477 31.3622 80.9998 30.7284L80.9998 44.8402Z" fill="#F0822C"/>
<path fill-rule="evenodd" clip-rule="evenodd" d="M8.50605 44.84L8.50582 30.7284C7.75373 31.3622 6.83519 31.7687 5.85855 31.9C4.8819 32.0313 3.8879 31.8818 2.99379 31.4694C2.09967 31.0569 1.34275 30.3986 0.812295 29.572C0.281844 28.7455 0 27.7852 0 26.8045C0 25.8237 0.281844 24.8635 0.812295 24.0369C1.34275 23.2104 2.09967 22.552 2.99379 22.1396C3.8879 21.7271 4.8819 21.5777 5.85855 21.709C6.83519 21.8403 7.75373 22.2468 8.50582 22.8805L8.50602 8.76892L22.6863 8.76891C22.0494 9.51735 21.6409 10.4314 21.509 11.4033C21.377 12.3752 21.5272 13.3644 21.9416 14.2542C22.3561 15.144 23.0177 15.8972 23.8483 16.4251C24.6788 16.953 25.6438 17.2335 26.6293 17.2335C27.6148 17.2335 28.5798 16.953 29.4104 16.4251C30.241 15.8973 30.9025 15.144 31.317 14.2542C31.7315 13.3644 31.8816 12.3753 31.7497 11.4034C31.6177 10.4315 31.2093 9.51738 30.5724 8.76894L44.753 8.76936L44.753 22.8808C45.5051 22.247 46.4236 21.8405 47.4002 21.7092C48.3769 21.578 49.3709 21.7274 50.265 22.1398C51.1591 22.5523 51.916 23.2106 52.4464 24.0372C52.9769 24.8637 53.2587 25.824 53.2587 26.8047C53.2587 27.7854 52.9769 28.7457 52.4465 29.5722C51.916 30.3988 51.1591 31.0571 50.265 31.4696C49.3709 31.882 48.3769 32.0315 47.4003 31.9002C46.4236 31.7689 45.5051 31.3624 44.753 30.7286L44.753 44.84L30.5724 44.84C31.2093 44.0916 31.6179 43.1775 31.7498 42.2056C31.8818 41.2337 31.7317 40.2445 31.3173 39.3547C30.9028 38.465 30.2413 37.7117 29.4107 37.1838C28.5802 36.6559 27.6152 36.3754 26.6297 36.3753C25.6442 36.3753 24.6792 36.6558 23.8486 37.1836C23.018 37.7115 22.3565 38.4647 21.942 39.3545C21.5274 40.2443 21.3773 41.2334 21.5092 42.2054C21.6411 43.1773 22.0496 44.0913 22.6865 44.8398L8.50605 44.84Z" fill="white"/>
</svg>
