<svg width="200" height="54" viewBox="0 0 200 54" fill="none" xmlns="http://www.w3.org/2000/svg">
<rect width="199.12" height="53" transform="translate(0 0.304688)" fill="#243A75"/>
<path fill-rule="evenodd" clip-rule="evenodd" d="M80.9998 44.8402L66.8196 44.8403C67.4564 45.5887 67.8649 46.5028 67.9968 47.4747C68.1287 48.4466 67.9786 49.4357 67.5641 50.3255C67.1496 51.2153 66.4881 51.9685 65.6575 52.4963C64.8269 53.0242 63.862 53.3047 62.8765 53.3047C61.891 53.3047 60.926 53.0242 60.0954 52.4963C59.2649 51.9685 58.6033 51.2152 58.1889 50.3255C57.7744 49.4357 57.6242 48.4465 57.7562 47.4746C57.8881 46.5027 58.2966 45.5887 58.9334 44.8402L44.753 44.84L44.753 30.7286C45.5051 31.3624 46.4236 31.7689 47.4003 31.9002C48.3769 32.0315 49.3709 31.882 50.265 31.4696C51.1591 31.0571 51.916 30.3988 52.4465 29.5722C52.9769 28.7457 53.2587 27.7854 53.2587 26.8047C53.2587 25.824 52.9769 24.8637 52.4464 24.0372C51.916 23.2106 51.1591 22.5523 50.265 22.1398C49.3709 21.7274 48.3769 21.578 47.4002 21.7092C46.4236 21.8405 45.5051 22.247 44.753 22.8808L44.753 8.76936L58.9334 8.76915C58.2966 8.02071 57.8881 7.10664 57.7562 6.13475C57.6242 5.16285 57.7744 4.1737 58.1888 3.28393C58.6033 2.39417 59.2649 1.64091 60.0955 1.11304C60.926 0.585169 61.891 0.304688 62.8765 0.304688C63.862 0.304687 64.8269 0.58517 65.6575 1.11304C66.4881 1.64091 67.1496 2.39415 67.5641 3.28391C67.9786 4.17368 68.1287 5.16285 67.9968 6.13475C67.8649 7.10664 67.4564 8.02071 66.8196 8.76915L80.9998 8.76913L81 22.8808C80.2479 22.2469 79.3294 21.8404 78.3528 21.7091C77.3761 21.5777 76.3821 21.7271 75.488 22.1395C74.5938 22.552 73.8369 23.2103 73.3064 24.0369C72.7759 24.8634 72.494 25.8237 72.494 26.8044C72.494 27.7851 72.7758 28.7454 73.3063 29.572C73.8367 30.3985 74.5936 31.0569 75.4877 31.4694C76.3819 31.8819 77.3759 32.0313 78.3525 31.9C79.3292 31.7687 80.2477 31.3622 80.9998 30.7284L80.9998 44.8402Z" fill="#F0822C"/>
<path fill-rule="evenodd" clip-rule="evenodd" d="M8.50605 44.84L8.50582 30.7284C7.75373 31.3622 6.83519 31.7687 5.85855 31.9C4.8819 32.0313 3.8879 31.8818 2.99379 31.4694C2.09967 31.0569 1.34275 30.3986 0.812295 29.572C0.281844 28.7455 0 27.7852 0 26.8045C0 25.8237 0.281844 24.8635 0.812295 24.0369C1.34275 23.2104 2.09967 22.552 2.99379 22.1396C3.8879 21.7271 4.8819 21.5777 5.85855 21.709C6.83519 21.8403 7.75373 22.2468 8.50582 22.8805L8.50603 8.76892L22.6863 8.76891C22.0494 9.51735 21.6409 10.4314 21.509 11.4033C21.377 12.3752 21.5272 13.3644 21.9416 14.2542C22.3561 15.144 23.0177 15.8972 23.8483 16.4251C24.6788 16.953 25.6438 17.2335 26.6293 17.2335C27.6148 17.2335 28.5798 16.953 29.4104 16.4251C30.241 15.8973 30.9025 15.144 31.317 14.2542C31.7315 13.3644 31.8816 12.3753 31.7497 11.4034C31.6177 10.4315 31.2093 9.51738 30.5724 8.76894L44.753 8.76936L44.753 22.8808C45.5051 22.247 46.4236 21.8405 47.4002 21.7092C48.3769 21.578 49.3709 21.7274 50.265 22.1398C51.1591 22.5523 51.916 23.2106 52.4464 24.0372C52.9769 24.8637 53.2587 25.824 53.2587 26.8047C53.2587 27.7854 52.9769 28.7457 52.4465 29.5722C51.916 30.3988 51.1591 31.0571 50.265 31.4696C49.3709 31.882 48.3769 32.0315 47.4003 31.9002C46.4236 31.7689 45.5051 31.3624 44.753 30.7286L44.753 44.84L30.5724 44.84C31.2093 44.0916 31.6179 43.1775 31.7498 42.2056C31.8818 41.2337 31.7317 40.2445 31.3173 39.3547C30.9028 38.465 30.2413 37.7117 29.4107 37.1838C28.5802 36.6559 27.6152 36.3754 26.6297 36.3753C25.6442 36.3753 24.6792 36.6558 23.8486 37.1836C23.018 37.7115 22.3565 38.4647 21.942 39.3545C21.5274 40.2443 21.3773 41.2334 21.5092 42.2054C21.6411 43.1773 22.0496 44.0913 22.6865 44.8398L8.50605 44.84Z" fill="white"/>
<path d="M101.413 37.3493C99.3335 37.9893 97.1135 37.7793 94.7535 36.7193C92.4135 35.6593 90.6935 34.2193 89.5935 32.3993C88.7935 31.0593 88.2935 29.6493 88.0935 28.1693C87.9135 26.6893 87.9935 25.4093 88.3335 24.3293C88.6935 23.2293 89.2435 22.1093 89.9835 20.9693C90.7235 19.8293 91.5935 18.8593 92.5935 18.0593C93.6935 17.2193 94.8735 16.6193 96.1335 16.2593C97.4135 15.8993 98.7135 15.8093 100.033 15.9893C101.373 16.1693 102.713 16.7193 104.053 17.6393C105.413 18.5393 106.643 19.7893 107.743 21.3893C107.983 21.7293 108.063 22.1093 107.983 22.5293C107.903 22.9293 107.683 23.2493 107.323 23.4893C106.983 23.7293 106.613 23.8093 106.213 23.7293C105.813 23.6493 105.493 23.4393 105.253 23.0993C104.393 21.8593 103.463 20.8993 102.463 20.2193C101.483 19.5193 100.523 19.1193 99.5835 19.0193C98.6435 18.8993 97.7435 18.9593 96.8835 19.1993C96.0635 19.4593 95.2635 19.8893 94.4835 20.4893C93.4235 21.3093 92.5935 22.2993 91.9935 23.4593C91.3935 24.4593 91.0935 25.6193 91.0935 26.9393C91.0935 28.2593 91.4635 29.5493 92.2035 30.8093C92.9835 32.1093 94.2235 33.1393 95.9235 33.8993C97.6435 34.6593 99.1835 34.8393 100.543 34.4393C101.783 34.0593 102.783 33.3393 103.543 32.2793C104.323 31.1993 104.703 30.0193 104.683 28.7393C102.923 28.7593 101.023 28.8193 98.9835 28.9193C98.5835 28.9393 98.2235 28.8093 97.9035 28.5293C97.6035 28.2493 97.4435 27.8993 97.4235 27.4793C97.4035 27.0593 97.5335 26.6893 97.8135 26.3693C98.0935 26.0493 98.4435 25.8793 98.8635 25.8593C101.403 25.7393 103.823 25.6793 106.123 25.6793C106.543 25.6793 106.903 25.8293 107.203 26.1293C107.503 26.4293 107.653 26.7893 107.653 27.2093V27.4193C107.993 29.5793 107.563 31.6193 106.363 33.5393C105.183 35.4393 103.533 36.7093 101.413 37.3493Z" fill="white"/>
<path d="M119.113 37.6793C117.633 37.5793 116.343 37.2793 115.243 36.7793C114.143 36.2793 113.303 35.6493 112.723 34.8893C112.143 34.1293 111.723 33.4293 111.463 32.7893C111.203 32.1493 111.043 31.5193 110.983 30.8993C110.923 30.2593 110.953 29.4393 111.073 28.4393C111.213 27.5993 111.503 26.7693 111.943 25.9493C112.403 25.1293 113.003 24.3993 113.743 23.7593C114.503 23.0993 115.413 22.5993 116.473 22.2593C117.533 21.8993 118.663 21.7893 119.863 21.9293C121.023 22.0693 122.013 22.3893 122.833 22.8893C123.653 23.3693 124.353 23.9893 124.933 24.7493C125.433 25.3893 125.733 25.8693 125.833 26.1893C125.953 26.5093 126.053 26.8093 126.133 27.0893C126.233 27.3693 126.313 27.6093 126.373 27.8093C126.433 28.0093 126.483 28.2193 126.523 28.4393C126.583 28.6393 126.623 28.8793 126.643 29.1593C126.663 29.5393 126.593 29.8893 126.433 30.2093C126.273 30.5293 126.033 30.7793 125.713 30.9593C125.453 31.0593 125.173 31.1093 124.873 31.1093L119.743 31.1993C116.143 31.2193 114.343 31.2593 114.343 31.3193H114.253C114.513 32.3393 115.053 33.1393 115.873 33.7193C116.713 34.2993 117.853 34.6393 119.293 34.7393C120.073 34.7793 120.723 34.7393 121.243 34.6193C121.823 34.4593 122.243 34.3193 122.503 34.1993C122.763 34.0593 123.083 33.8793 123.463 33.6593C123.843 33.5193 124.223 33.5393 124.603 33.7193C124.983 33.8993 125.243 34.1793 125.383 34.5593C125.523 34.9393 125.503 35.3093 125.323 35.6693C125.163 36.0293 124.903 36.3093 124.543 36.5093C124.223 36.6893 123.893 36.8493 123.553 36.9893C123.213 37.1093 122.713 37.2593 122.053 37.4393C121.393 37.6193 120.413 37.6993 119.113 37.6793ZM114.313 28.3793C115.473 28.3193 118.483 28.2593 123.343 28.1993C123.163 27.5993 122.873 27.0293 122.473 26.4893C121.673 25.5693 120.683 25.0393 119.503 24.8993C118.263 24.7393 117.173 25.0093 116.233 25.7093C115.293 26.3893 114.653 27.2793 114.313 28.3793Z" fill="white"/>
<path d="M135.067 37.4393C134.947 37.3993 134.697 37.3393 134.317 37.2593C133.957 37.1793 133.637 37.0893 133.357 36.9893C133.097 36.8893 132.787 36.7493 132.427 36.5693C132.087 36.3693 131.777 36.1093 131.497 35.7893C131.217 35.4493 130.977 35.0493 130.777 34.5893C130.557 34.0493 130.417 32.9893 130.357 31.4093C130.297 30.1893 130.287 28.6193 130.327 26.6993C130.327 26.3393 130.337 25.7393 130.357 24.8993L130.117 24.9293C129.697 24.9693 129.327 24.8593 129.007 24.5993C128.687 24.3393 128.497 24.0093 128.437 23.6093C128.397 23.1893 128.507 22.8193 128.767 22.4993C129.027 22.1793 129.357 21.9893 129.757 21.9293L130.447 21.8693C130.467 20.8093 130.497 19.7393 130.537 18.6593C130.557 18.2393 130.717 17.8893 131.017 17.6093C131.317 17.3293 131.677 17.1993 132.097 17.2193C132.517 17.2393 132.867 17.3993 133.147 17.6993C133.427 17.9993 133.557 18.3593 133.537 18.7793L133.447 21.6293L134.437 21.5693C134.857 21.5493 135.217 21.6693 135.517 21.9293C135.837 22.1893 136.007 22.5293 136.027 22.9493C136.067 23.3693 135.957 23.7393 135.697 24.0593C135.437 24.3593 135.097 24.5293 134.677 24.5693L133.357 24.6293C133.337 25.5893 133.327 26.2893 133.327 26.7293C133.287 28.6093 133.297 30.1393 133.357 31.3193C133.397 32.5193 133.457 33.2093 133.537 33.3893C133.617 33.5693 133.677 33.6993 133.717 33.7793C133.757 33.8393 133.827 33.9093 133.927 33.9893C134.047 34.0493 134.167 34.0893 134.287 34.1093C134.407 34.1293 134.627 34.1893 134.947 34.2893C135.287 34.3693 135.647 34.4793 136.027 34.6193C136.407 34.7393 136.687 34.9893 136.867 35.3693C137.067 35.7293 137.097 36.1093 136.957 36.5093C136.837 36.8893 136.587 37.1793 136.207 37.3793C135.847 37.5593 135.467 37.5793 135.067 37.4393Z" fill="white"/>
<path d="M147.926 37.5893C145.326 37.6293 143.476 37.6193 142.376 37.5593C141.996 37.5393 141.666 37.3993 141.386 37.1393C141.106 36.8593 140.956 36.5193 140.936 36.1193C140.916 36.0193 140.906 35.9293 140.906 35.8493C140.886 34.7093 140.836 32.0193 140.756 27.7793C140.676 23.5393 140.636 20.0793 140.636 17.3993C140.636 16.9793 140.776 16.6293 141.056 16.3493C141.356 16.0493 141.716 15.8993 142.136 15.8993C142.556 15.8993 142.906 16.0493 143.186 16.3493C143.486 16.6293 143.636 16.9793 143.636 17.3993C143.636 19.4193 143.646 21.3593 143.666 23.2193C143.706 25.0793 143.746 27.1293 143.786 29.3693C143.846 31.5893 143.876 33.3293 143.876 34.5893C144.916 34.6093 146.506 34.5993 148.646 34.5593C150.806 34.5193 152.446 34.5093 153.566 34.5293C153.986 34.5293 154.336 34.6793 154.616 34.9793C154.896 35.2793 155.036 35.6393 155.036 36.0593C155.036 36.4793 154.886 36.8293 154.586 37.1093C154.286 37.3893 153.926 37.5293 153.506 37.5293C152.426 37.5093 150.566 37.5293 147.926 37.5893Z" fill="white"/>
<path d="M178.832 36.1193C178.812 36.5393 178.652 36.8893 178.352 37.1693C178.052 37.4493 177.692 37.5793 177.272 37.5593C176.852 37.5393 176.502 37.3793 176.222 37.0793C175.942 36.7793 175.812 36.4193 175.832 35.9993C175.912 35.3993 175.942 33.0093 175.922 28.8293C175.902 24.6493 175.892 22.2593 175.892 21.6593C174.352 23.6593 172.572 26.2193 170.552 29.3393C170.332 29.6993 170.012 29.9193 169.592 29.9993C169.192 30.0793 168.822 30.0093 168.482 29.7893C168.462 29.7693 168.442 29.7593 168.422 29.7593C168.242 29.6393 168.092 29.4993 167.972 29.3393C167.132 28.1593 165.712 26.3693 163.712 23.9693L161.762 21.6293C161.822 23.1293 161.852 24.8493 161.852 26.7893C161.852 27.7493 161.832 29.2593 161.792 31.3193C161.772 33.3793 161.762 34.9393 161.762 35.9993C161.762 36.4193 161.612 36.7793 161.312 37.0793C161.032 37.3593 160.682 37.4993 160.262 37.4993C159.842 37.4993 159.482 37.3593 159.182 37.0793C158.902 36.7793 158.762 36.4193 158.762 35.9993C158.762 34.9393 158.772 33.3793 158.792 31.3193C158.832 29.2593 158.852 27.7393 158.852 26.7593C158.852 23.0193 158.732 20.0093 158.492 17.7293C158.452 17.3093 158.562 16.9393 158.822 16.6193C159.082 16.2993 159.422 16.1193 159.842 16.0793C160.042 16.0593 160.232 16.0793 160.412 16.1393C160.872 16.1593 161.252 16.3493 161.552 16.7093L166.022 22.0193C167.282 23.5193 168.342 24.8293 169.202 25.9493C171.882 21.8693 174.212 18.7593 176.192 16.6193C176.272 16.5393 176.352 16.4693 176.432 16.4093C176.752 16.1093 177.122 15.9693 177.542 15.9893C177.962 16.0093 178.312 16.1693 178.592 16.4693C178.872 16.7693 179.002 17.1293 178.982 17.5493C178.902 19.6493 178.872 22.7693 178.892 26.9093C178.932 31.0293 178.912 34.0993 178.832 36.1193Z" fill="white"/>
<path d="M191.02 37.8293C189.6 37.8293 188.32 37.5593 187.18 37.0193C186.04 36.4593 185.14 35.6993 184.48 34.7393C183.84 33.7593 183.52 32.6493 183.52 31.4093C183.52 30.9293 183.67 30.5493 183.97 30.2693C184.29 29.9693 184.66 29.8193 185.08 29.8193C185.4 29.8193 185.69 29.9193 185.95 30.1193C186.21 30.3193 186.37 30.6193 186.43 31.0193C186.71 33.5993 188.37 34.8893 191.41 34.8893C192.87 34.8893 194.02 34.5693 194.86 33.9293C195.7 33.2893 196.12 32.4693 196.12 31.4693C196.12 30.8693 195.83 30.3693 195.25 29.9693C194.67 29.5493 193.88 29.1793 192.88 28.8593L191.95 28.5293C189.97 27.8693 188.55 27.3293 187.69 26.9093C186.45 26.2893 185.52 25.5593 184.9 24.7193C184.3 23.8793 184 22.8893 184 21.7493C184 20.7493 184.32 19.7893 184.96 18.8693C185.6 17.9493 186.49 17.2093 187.63 16.6493C188.79 16.0693 190.08 15.7793 191.5 15.7793C192.98 15.7793 194.3 16.0493 195.46 16.5893C196.62 17.1293 197.52 17.8493 198.16 18.7493C198.8 19.6493 199.12 20.6093 199.12 21.6293C199.12 22.1493 198.97 22.5593 198.67 22.8593C198.39 23.1393 198.04 23.2793 197.62 23.2793C197.22 23.2793 196.88 23.1393 196.6 22.8593C196.32 22.5593 196.18 22.1693 196.18 21.6893C196.18 21.1893 195.96 20.7093 195.52 20.2493C195.1 19.7693 194.52 19.3893 193.78 19.1093C193.06 18.8093 192.27 18.6593 191.41 18.6593C189.93 18.6593 188.83 18.9193 188.11 19.4393C187.39 19.9393 187.01 20.6393 186.97 21.5393C186.95 22.0193 187.1 22.4393 187.42 22.7993C187.74 23.1593 188.24 23.5293 188.92 23.9093C189.56 24.2493 190.24 24.5693 190.96 24.8693C191.68 25.1493 192.64 25.4893 193.84 25.8893C195.44 26.4293 196.71 27.1393 197.65 28.0193C198.61 28.8793 199.09 29.9993 199.09 31.3793C199.09 32.6593 198.71 33.7893 197.95 34.7693C197.19 35.7493 196.19 36.5093 194.95 37.0493C193.73 37.5693 192.42 37.8293 191.02 37.8293Z" fill="white"/>
</svg>
