<svg width="200" height="53" viewBox="0 0 200 53" fill="none" xmlns="http://www.w3.org/2000/svg">
<path fill-rule="evenodd" clip-rule="evenodd" d="M80.9998 44.5355L66.8196 44.5356C67.4564 45.284 67.8649 46.1981 67.9968 47.17C68.1287 48.1419 67.9786 49.131 67.5641 50.0208C67.1496 50.9106 66.4881 51.6638 65.6575 52.1917C64.8269 52.7195 63.862 53 62.8765 53C61.891 53 60.926 52.7195 60.0954 52.1916C59.2649 51.6638 58.6033 50.9105 58.1889 50.0208C57.7744 49.131 57.6242 48.1418 57.7562 47.1699C57.8881 46.1981 58.2966 45.284 58.9334 44.5355L44.753 44.5353L44.753 30.4239C45.5051 31.0577 46.4236 31.4642 47.4003 31.5955C48.3769 31.7268 49.3709 31.5774 50.265 31.1649C51.1591 30.7524 51.916 30.0941 52.4465 29.2675C52.9769 28.441 53.2587 27.4807 53.2587 26.5C53.2587 25.5193 52.9769 24.559 52.4464 23.7325C51.916 22.9059 51.1591 22.2476 50.265 21.8351C49.3709 21.4227 48.3769 21.2733 47.4002 21.4046C46.4236 21.5358 45.5051 21.9423 44.753 22.5761L44.753 8.46467L58.9334 8.46446C58.2966 7.71603 57.8881 6.80195 57.7562 5.83006C57.6242 4.85816 57.7744 3.86901 58.1888 2.97924C58.6033 2.08948 59.2649 1.33622 60.0955 0.808352C60.926 0.280481 61.891 8.21647e-07 62.8765 0C63.862 -8.21644e-07 64.8269 0.280482 65.6575 0.808352C66.4881 1.33622 67.1496 2.08946 67.5641 2.97922C67.9786 3.86899 68.1287 4.85816 67.9968 5.83006C67.8649 6.80195 67.4564 7.71602 66.8196 8.46446L80.9998 8.46444L81 22.5761C80.2479 21.9423 79.3294 21.5357 78.3528 21.4044C77.3761 21.273 76.3821 21.4224 75.488 21.8348C74.5938 22.2473 73.8369 22.9056 73.3064 23.7322C72.7759 24.5587 72.494 25.519 72.494 26.4997C72.494 27.4805 72.7758 28.4407 73.3063 29.2673C73.8367 30.0938 74.5936 30.7522 75.4877 31.1647C76.3819 31.5772 77.3759 31.7266 78.3525 31.5953C79.3292 31.464 80.2477 31.0575 80.9998 30.4237L80.9998 44.5355Z" fill="#F0822C"/>
<path fill-rule="evenodd" clip-rule="evenodd" d="M8.50605 44.5353L8.50582 30.4237C7.75373 31.0575 6.83519 31.464 5.85855 31.5953C4.8819 31.7266 3.8879 31.5772 2.99379 31.1647C2.09967 30.7522 1.34275 30.0939 0.812295 29.2673C0.281844 28.4408 0 27.4805 0 26.4998C0 25.519 0.281844 24.5588 0.812295 23.7322C1.34275 22.9057 2.09967 22.2473 2.99379 21.8349C3.8879 21.4224 4.8819 21.273 5.85855 21.4043C6.83519 21.5356 7.75373 21.9421 8.50582 22.5759L8.50603 8.46424L22.6863 8.46423C22.0494 9.21266 21.6409 10.1267 21.509 11.0987C21.377 12.0706 21.5272 13.0597 21.9416 13.9495C22.3561 14.8393 23.0177 15.5925 23.8483 16.1204C24.6788 16.6483 25.6438 16.9288 26.6293 16.9288C27.6148 16.9288 28.5798 16.6483 29.4104 16.1204C30.241 15.5926 30.9025 14.8393 31.317 13.9495C31.7315 13.0598 31.8816 12.0706 31.7497 11.0987C31.6177 10.1268 31.2093 9.2127 30.5724 8.46426L44.753 8.46467L44.753 22.5761C45.5051 21.9423 46.4236 21.5358 47.4002 21.4046C48.3769 21.2733 49.3709 21.4227 50.265 21.8351C51.1591 22.2476 51.916 22.9059 52.4464 23.7325C52.9769 24.559 53.2587 25.5193 53.2587 26.5C53.2587 27.4807 52.9769 28.441 52.4465 29.2675C51.916 30.0941 51.1591 30.7524 50.265 31.1649C49.3709 31.5774 48.3769 31.7268 47.4003 31.5955C46.4236 31.4642 45.5051 31.0577 44.753 30.4239L44.753 44.5353L30.5724 44.5353C31.2093 43.7869 31.6179 42.8728 31.7498 41.9009C31.8818 40.929 31.7317 39.9399 31.3173 39.0501C30.9028 38.1603 30.2413 37.407 29.4107 36.8791C28.5802 36.3512 27.6152 36.0707 26.6297 36.0706C25.6442 36.0706 24.6792 36.3511 23.8486 36.8789C23.018 37.4068 22.3565 38.16 21.942 39.0498C21.5274 39.9396 21.3773 40.9288 21.5092 41.9007C21.6411 42.8726 22.0496 43.7867 22.6865 44.5351L8.50605 44.5353Z" fill="#163560"/>
<path d="M101.413 37.045C99.3335 37.685 97.1135 37.475 94.7535 36.415C92.4135 35.355 90.6935 33.915 89.5935 32.095C88.7935 30.755 88.2935 29.345 88.0935 27.865C87.9135 26.385 87.9935 25.105 88.3335 24.025C88.6935 22.925 89.2435 21.805 89.9835 20.665C90.7235 19.525 91.5935 18.555 92.5935 17.755C93.6935 16.915 94.8735 16.315 96.1335 15.955C97.4135 15.595 98.7135 15.505 100.033 15.685C101.373 15.865 102.713 16.415 104.053 17.335C105.413 18.235 106.643 19.485 107.743 21.085C107.983 21.425 108.063 21.805 107.983 22.225C107.903 22.625 107.683 22.945 107.323 23.185C106.983 23.425 106.613 23.505 106.213 23.425C105.813 23.345 105.493 23.135 105.253 22.795C104.393 21.555 103.463 20.595 102.463 19.915C101.483 19.215 100.523 18.815 99.5835 18.715C98.6435 18.595 97.7435 18.655 96.8835 18.895C96.0635 19.155 95.2635 19.585 94.4835 20.185C93.4235 21.005 92.5935 21.995 91.9935 23.155C91.3935 24.155 91.0935 25.315 91.0935 26.635C91.0935 27.955 91.4635 29.245 92.2035 30.505C92.9835 31.805 94.2235 32.835 95.9235 33.595C97.6435 34.355 99.1835 34.535 100.543 34.135C101.783 33.755 102.783 33.035 103.543 31.975C104.323 30.895 104.703 29.715 104.683 28.435C102.923 28.455 101.023 28.515 98.9835 28.615C98.5835 28.635 98.2235 28.505 97.9035 28.225C97.6035 27.945 97.4435 27.595 97.4235 27.175C97.4035 26.755 97.5335 26.385 97.8135 26.065C98.0935 25.745 98.4435 25.575 98.8635 25.555C101.403 25.435 103.823 25.375 106.123 25.375C106.543 25.375 106.903 25.525 107.203 25.825C107.503 26.125 107.653 26.485 107.653 26.905V27.115C107.993 29.275 107.563 31.315 106.363 33.235C105.183 35.135 103.533 36.405 101.413 37.045Z" fill="#163560"/>
<path d="M119.113 37.375C117.633 37.275 116.343 36.975 115.243 36.475C114.143 35.975 113.303 35.345 112.723 34.585C112.143 33.825 111.723 33.125 111.463 32.485C111.203 31.845 111.043 31.215 110.983 30.595C110.923 29.955 110.953 29.135 111.073 28.135C111.213 27.295 111.503 26.465 111.943 25.645C112.403 24.825 113.003 24.095 113.743 23.455C114.503 22.795 115.413 22.295 116.473 21.955C117.533 21.595 118.663 21.485 119.863 21.625C121.023 21.765 122.013 22.085 122.833 22.585C123.653 23.065 124.353 23.685 124.933 24.445C125.433 25.085 125.733 25.565 125.833 25.885C125.953 26.205 126.053 26.505 126.133 26.785C126.233 27.065 126.313 27.305 126.373 27.505C126.433 27.705 126.483 27.915 126.523 28.135C126.583 28.335 126.623 28.575 126.643 28.855C126.663 29.235 126.593 29.585 126.433 29.905C126.273 30.225 126.033 30.475 125.713 30.655C125.453 30.755 125.173 30.805 124.873 30.805L119.743 30.895C116.143 30.915 114.343 30.955 114.343 31.015H114.253C114.513 32.035 115.053 32.835 115.873 33.415C116.713 33.995 117.853 34.335 119.293 34.435C120.073 34.475 120.723 34.435 121.243 34.315C121.823 34.155 122.243 34.015 122.503 33.895C122.763 33.755 123.083 33.575 123.463 33.355C123.843 33.215 124.223 33.235 124.603 33.415C124.983 33.595 125.243 33.875 125.383 34.255C125.523 34.635 125.503 35.005 125.323 35.365C125.163 35.725 124.903 36.005 124.543 36.205C124.223 36.385 123.893 36.545 123.553 36.685C123.213 36.805 122.713 36.955 122.053 37.135C121.393 37.315 120.413 37.395 119.113 37.375ZM114.313 28.075C115.473 28.015 118.483 27.955 123.343 27.895C123.163 27.295 122.873 26.725 122.473 26.185C121.673 25.265 120.683 24.735 119.503 24.595C118.263 24.435 117.173 24.705 116.233 25.405C115.293 26.085 114.653 26.975 114.313 28.075Z" fill="#163560"/>
<path d="M135.067 37.135C134.947 37.095 134.697 37.035 134.317 36.955C133.957 36.875 133.637 36.785 133.357 36.685C133.097 36.585 132.787 36.445 132.427 36.265C132.087 36.065 131.777 35.805 131.497 35.485C131.217 35.145 130.977 34.745 130.777 34.285C130.557 33.745 130.417 32.685 130.357 31.105C130.297 29.885 130.287 28.315 130.327 26.395C130.327 26.035 130.337 25.435 130.357 24.595L130.117 24.625C129.697 24.665 129.327 24.555 129.007 24.295C128.687 24.035 128.497 23.705 128.437 23.305C128.397 22.885 128.507 22.515 128.767 22.195C129.027 21.875 129.357 21.685 129.757 21.625L130.447 21.565C130.467 20.505 130.497 19.435 130.537 18.355C130.557 17.935 130.717 17.585 131.017 17.305C131.317 17.025 131.677 16.895 132.097 16.915C132.517 16.935 132.867 17.095 133.147 17.395C133.427 17.695 133.557 18.055 133.537 18.475L133.447 21.325L134.437 21.265C134.857 21.245 135.217 21.365 135.517 21.625C135.837 21.885 136.007 22.225 136.027 22.645C136.067 23.065 135.957 23.435 135.697 23.755C135.437 24.055 135.097 24.225 134.677 24.265L133.357 24.325C133.337 25.285 133.327 25.985 133.327 26.425C133.287 28.305 133.297 29.835 133.357 31.015C133.397 32.215 133.457 32.905 133.537 33.085C133.617 33.265 133.677 33.395 133.717 33.475C133.757 33.535 133.827 33.605 133.927 33.685C134.047 33.745 134.167 33.785 134.287 33.805C134.407 33.825 134.627 33.885 134.947 33.985C135.287 34.065 135.647 34.175 136.027 34.315C136.407 34.435 136.687 34.685 136.867 35.065C137.067 35.425 137.097 35.805 136.957 36.205C136.837 36.585 136.587 36.875 136.207 37.075C135.847 37.255 135.467 37.275 135.067 37.135Z" fill="#163560"/>
<path d="M147.926 37.285C145.326 37.325 143.476 37.315 142.376 37.255C141.996 37.235 141.666 37.095 141.386 36.835C141.106 36.555 140.956 36.215 140.936 35.815C140.916 35.715 140.906 35.625 140.906 35.545C140.886 34.405 140.836 31.715 140.756 27.475C140.676 23.235 140.636 19.775 140.636 17.095C140.636 16.675 140.776 16.325 141.056 16.045C141.356 15.745 141.716 15.595 142.136 15.595C142.556 15.595 142.906 15.745 143.186 16.045C143.486 16.325 143.636 16.675 143.636 17.095C143.636 19.115 143.646 21.055 143.666 22.915C143.706 24.775 143.746 26.825 143.786 29.065C143.846 31.285 143.876 33.025 143.876 34.285C144.916 34.305 146.506 34.295 148.646 34.255C150.806 34.215 152.446 34.205 153.566 34.225C153.986 34.225 154.336 34.375 154.616 34.675C154.896 34.975 155.036 35.335 155.036 35.755C155.036 36.175 154.886 36.525 154.586 36.805C154.286 37.085 153.926 37.225 153.506 37.225C152.426 37.205 150.566 37.225 147.926 37.285Z" fill="#163560"/>
<path d="M178.832 35.815C178.812 36.235 178.652 36.585 178.352 36.865C178.052 37.145 177.692 37.275 177.272 37.255C176.852 37.235 176.502 37.075 176.222 36.775C175.942 36.475 175.812 36.115 175.832 35.695C175.912 35.095 175.942 32.705 175.922 28.525C175.902 24.345 175.892 21.955 175.892 21.355C174.352 23.355 172.572 25.915 170.552 29.035C170.332 29.395 170.012 29.615 169.592 29.695C169.192 29.775 168.822 29.705 168.482 29.485C168.462 29.465 168.442 29.455 168.422 29.455C168.242 29.335 168.092 29.195 167.972 29.035C167.132 27.855 165.712 26.065 163.712 23.665L161.762 21.325C161.822 22.825 161.852 24.545 161.852 26.485C161.852 27.445 161.832 28.955 161.792 31.015C161.772 33.075 161.762 34.635 161.762 35.695C161.762 36.115 161.612 36.475 161.312 36.775C161.032 37.055 160.682 37.195 160.262 37.195C159.842 37.195 159.482 37.055 159.182 36.775C158.902 36.475 158.762 36.115 158.762 35.695C158.762 34.635 158.772 33.075 158.792 31.015C158.832 28.955 158.852 27.435 158.852 26.455C158.852 22.715 158.732 19.705 158.492 17.425C158.452 17.005 158.562 16.635 158.822 16.315C159.082 15.995 159.422 15.815 159.842 15.775C160.042 15.755 160.232 15.775 160.412 15.835C160.872 15.855 161.252 16.045 161.552 16.405L166.022 21.715C167.282 23.215 168.342 24.525 169.202 25.645C171.882 21.565 174.212 18.455 176.192 16.315C176.272 16.235 176.352 16.165 176.432 16.105C176.752 15.805 177.122 15.665 177.542 15.685C177.962 15.705 178.312 15.865 178.592 16.165C178.872 16.465 179.002 16.825 178.982 17.245C178.902 19.345 178.872 22.465 178.892 26.605C178.932 30.725 178.912 33.795 178.832 35.815Z" fill="#163560"/>
<path d="M191.02 37.525C189.6 37.525 188.32 37.255 187.18 36.715C186.04 36.155 185.14 35.395 184.48 34.435C183.84 33.455 183.52 32.345 183.52 31.105C183.52 30.625 183.67 30.245 183.97 29.965C184.29 29.665 184.66 29.515 185.08 29.515C185.4 29.515 185.69 29.615 185.95 29.815C186.21 30.015 186.37 30.315 186.43 30.715C186.71 33.295 188.37 34.585 191.41 34.585C192.87 34.585 194.02 34.265 194.86 33.625C195.7 32.985 196.12 32.165 196.12 31.165C196.12 30.565 195.83 30.065 195.25 29.665C194.67 29.245 193.88 28.875 192.88 28.555L191.95 28.225C189.97 27.565 188.55 27.025 187.69 26.605C186.45 25.985 185.52 25.255 184.9 24.415C184.3 23.575 184 22.585 184 21.445C184 20.445 184.32 19.485 184.96 18.565C185.6 17.645 186.49 16.905 187.63 16.345C188.79 15.765 190.08 15.475 191.5 15.475C192.98 15.475 194.3 15.745 195.46 16.285C196.62 16.825 197.52 17.545 198.16 18.445C198.8 19.345 199.12 20.305 199.12 21.325C199.12 21.845 198.97 22.255 198.67 22.555C198.39 22.835 198.04 22.975 197.62 22.975C197.22 22.975 196.88 22.835 196.6 22.555C196.32 22.255 196.18 21.865 196.18 21.385C196.18 20.885 195.96 20.405 195.52 19.945C195.1 19.465 194.52 19.085 193.78 18.805C193.06 18.505 192.27 18.355 191.41 18.355C189.93 18.355 188.83 18.615 188.11 19.135C187.39 19.635 187.01 20.335 186.97 21.235C186.95 21.715 187.1 22.135 187.42 22.495C187.74 22.855 188.24 23.225 188.92 23.605C189.56 23.945 190.24 24.265 190.96 24.565C191.68 24.845 192.64 25.185 193.84 25.585C195.44 26.125 196.71 26.835 197.65 27.715C198.61 28.575 199.09 29.695 199.09 31.075C199.09 32.355 198.71 33.485 197.95 34.465C197.19 35.445 196.19 36.205 194.95 36.745C193.73 37.265 192.42 37.525 191.02 37.525Z" fill="#163560"/>
</svg>
