<svg width="615" height="404" viewBox="0 0 615 404" fill="none" xmlns="http://www.w3.org/2000/svg">
<path d="M571.841 60.2709H550.26V12.131C549.925 11.9395 549.593 11.7481 549.261 11.5566H542.826V11.5334H505.393V11.5566H505.361V18.773H505.393V23.7359H505.361V30.9497H505.393V35.9306H505.361V43.1471H505.393V43.173L501.427 43.1471V5.39847H459.422V10.1801H459.401V17.3939H459.422V23.7359H459.401V30.9497H459.422V35.9306H459.401V43.1471H459.422V47.7554H459.401V54.9717H459.422V59.5801H459.401V66.7965H459.422V71.1357H459.401V75.7182H459.422V76.2175H412.076V117.516H394.388V127.918H375.316V110.002H341.008V61.3292H335.642V56.4803H334.874V61.3292H330.425V61.3215H308.172V56.4803H307.405V61.3215H301.607V85.7989L272.789 85.6644V100.773H248.355V7.38047H175.966V107.43H153.86V53.3287H81.4709V403.34L576.125 401.454L571.841 60.2709Z" fill="#DFEBFA"/>
<path d="M81.5394 117.061V149.866V198.668V400.951H45.1829V198.668V149.866V117.061H81.5394Z" fill="#DFEBFA"/>
<path d="M248.355 7.38046H194.591V23.2109H248.355V7.38046Z" fill="#EEF6FF"/>
<path d="M248.355 31.7463H194.591V47.5767H248.355V31.7463Z" fill="#EEF6FF"/>
<path d="M248.355 56.621H194.591V72.4514H248.355V56.621Z" fill="#EEF6FF"/>
<path d="M248.355 81.8917H194.591V97.7221H248.355V81.8917Z" fill="#EEF6FF"/>
<path d="M248.355 106.275H194.591V122.105H248.355V106.275Z" fill="#EEF6FF"/>
<path d="M486.314 5.39847H459.432V15.0123H486.314V5.39847Z" fill="#EEF6FF"/>
<path d="M486.314 20.196H459.432V29.81H486.314V20.196Z" fill="#EEF6FF"/>
<path d="M486.314 35.3028H459.432V44.9166H486.314V35.3028Z" fill="#EEF6FF"/>
<path d="M486.314 50.6499H459.432V60.2639H486.314V50.6499Z" fill="#EEF6FF"/>
<path d="M486.314 65.458H459.432V75.0721H486.314V65.458Z" fill="#EEF6FF"/>
<path d="M486.314 81.7558H459.432V91.3697H486.314V81.7558Z" fill="#EEF6FF"/>
<path d="M486.314 96.5533H459.432V106.167H486.314V96.5533Z" fill="#EEF6FF"/>
<path d="M486.314 111.66H459.432V121.274H486.314V111.66Z" fill="#EEF6FF"/>
<path d="M486.314 127.007H459.432V136.621H486.314V127.007Z" fill="#EEF6FF"/>
<path d="M486.314 141.815H459.432V151.429H486.314V141.815Z" fill="#EEF6FF"/>
<path d="M532.327 11.7031H505.445V21.317H532.327V11.7031Z" fill="#EEF6FF"/>
<path d="M532.327 26.5006H505.445V36.1146H532.327V26.5006Z" fill="#EEF6FF"/>
<path d="M532.327 41.6073H505.445V51.2213H532.327V41.6073Z" fill="#EEF6FF"/>
<path d="M532.327 56.9546H505.445V66.5686H532.327V56.9546Z" fill="#EEF6FF"/>
<path d="M532.327 71.7627H505.445V81.3767H532.327V71.7627Z" fill="#EEF6FF"/>
<path d="M532.327 87.2012H505.445V96.8152H532.327V87.2012Z" fill="#EEF6FF"/>
<path d="M532.327 101.999H505.445V111.613H532.327V101.999Z" fill="#EEF6FF"/>
<path d="M532.327 117.106H505.445V126.72H532.327V117.106Z" fill="#EEF6FF"/>
<path d="M532.327 132.453H505.445V142.067H532.327V132.453Z" fill="#EEF6FF"/>
<path d="M532.327 147.261H505.445V156.875H532.327V147.261Z" fill="#EEF6FF"/>
<path d="M532.327 164.244H505.445V173.858H532.327V164.244Z" fill="#EEF6FF"/>
<path d="M532.327 179.042H505.445V188.656H532.327V179.042Z" fill="#EEF6FF"/>
<path d="M532.327 194.148H505.445V203.762H532.327V194.148Z" fill="#EEF6FF"/>
<path d="M532.327 209.495H505.445V219.11H532.327V209.495Z" fill="#EEF6FF"/>
<path d="M532.327 224.304H505.445V233.918H532.327V224.304Z" fill="#EEF6FF"/>
<path d="M422.226 56.9545H420.893V76.5696H422.226V56.9545Z" fill="#DFEBFA"/>
<path d="M445.44 40.1097H443.365V78.0966H445.44V40.1097Z" fill="#DFEBFA"/>
<path d="M181.637 0.385818H180.772V7.38047H181.637V0.385818Z" fill="#DFEBFA"/>
<path d="M199.961 0.385818H199.097V7.38047H199.961V0.385818Z" fill="#DFEBFA"/>
<path d="M241.969 0.385818H241.105V7.38047H241.969V0.385818Z" fill="#DFEBFA"/>
<path d="M464.259 -1.52588e-05H463.592V5.39848H464.259V-1.52588e-05Z" fill="#DFEBFA"/>
<path d="M495.794 -1.52588e-05H495.127V5.39848H495.794V-1.52588e-05Z" fill="#DFEBFA"/>
<path d="M225.546 0.385818H224.682V7.38047H225.546V0.385818Z" fill="#DFEBFA"/>
<path d="M197.469 239.174C197.469 239.174 224.35 193.386 237.074 198.583C249.798 203.781 197.469 239.174 197.469 239.174Z" fill="#AFCDFB"/>
<path d="M196.739 246.707C196.739 246.707 256.698 196.153 277.652 207.764C298.606 219.376 262.87 227.462 249.327 229.378C235.785 231.294 196.739 246.707 196.739 246.707Z" fill="#AFCDFB"/>
<path d="M191.685 239.997C191.685 239.997 191.511 238.172 191.224 235.511C190.665 230.318 189.676 221.94 188.709 217.707C187.245 211.303 191.031 205.371 198.439 210.191C205.848 215.011 193.328 237.653 193.328 237.653L191.685 239.997Z" fill="#AFCDFB"/>
<path d="M50.3265 305.655C51.0987 294.11 70.2638 293.831 70.2638 293.831C70.2638 293.831 86.6505 310.481 90.3922 310.206C94.1339 309.931 79.1617 293.235 79.1617 293.235C86.097 291.133 105.857 296.192 105.857 296.192C105.857 296.192 109.195 318.779 112.754 317.591C116.313 316.404 108.778 297.743 108.778 297.743C116.033 298.425 124.021 305.131 124.021 305.131C134.611 316.535 119.42 329.545 119.42 329.545C119.42 329.545 120.745 337.347 127.319 345.285L127.319 345.285C128.465 346.519 129.492 347.858 130.388 349.284L128.522 349.657C128.269 349.187 128.004 348.739 127.725 348.31C127.725 348.309 127.724 348.307 127.723 348.306C127.723 348.305 127.721 348.304 127.72 348.303C127.716 348.297 127.712 348.291 127.708 348.284C127.522 348.022 127.256 347.648 126.927 347.194L126.926 347.193C126.926 347.191 126.924 347.192 126.924 347.19C126.131 346.189 125.58 345.441 125.218 344.895C125.216 344.893 125.215 344.892 125.215 344.89C122.805 341.729 119.43 337.658 117.597 337.029C117.713 336.728 117.79 336.414 117.825 336.093C117.752 336.391 117.676 336.703 117.597 337.029C115.774 344.513 100.032 348.853 90.7691 348.81C81.5059 348.767 84.8816 345.481 88.8568 340.448C92.8318 335.415 103.085 334.478 105.731 332.287C108.377 330.096 103.722 329.367 97.8821 331.012C92.0417 332.656 90.2642 339.182 80.865 342.014C71.4658 344.846 60.5548 328.285 60.5548 328.285C67.5823 329.013 78.7145 322.986 78.7138 320.613C78.7131 318.241 61.1918 321.988 58.317 321.852C55.4422 321.716 49.5543 317.2 50.3265 305.655Z" fill="#CDE0FB"/>
<path d="M62.9988 85.472C72.2276 72.6756 94.5977 86.1896 94.5977 86.1896C94.5977 86.1896 101.53 117.281 106.057 119.664C110.583 122.048 105.32 91.9247 105.32 91.9247C114.859 94.5017 134.063 114.62 134.063 114.62C134.063 114.62 121.616 143.156 126.59 144.352C131.564 145.548 136.322 118.523 136.322 118.523C144.222 124.551 148.619 138.074 148.619 138.074C152.634 158.912 125.67 162.991 125.67 162.991C125.67 162.991 121.57 172.974 123.442 186.901L123.442 186.902C123.442 186.902 124.043 189.57 124.105 193.742L121.676 192.827C121.724 192.102 121.742 191.39 121.728 190.694C121.729 190.692 121.729 190.69 121.729 190.688C121.729 190.686 121.728 190.684 121.727 190.682C121.727 190.672 121.726 190.662 121.726 190.651C121.701 190.214 121.663 189.59 121.611 188.827L121.61 188.824C121.611 188.823 121.609 188.822 121.61 188.82C121.415 187.089 121.318 185.827 121.293 184.933C121.293 184.93 121.293 184.928 121.293 184.925C120.788 179.529 119.824 172.383 118.157 170.332C118.509 170.068 118.825 169.76 119.097 169.414C118.797 169.707 118.484 170.013 118.157 170.332C110.645 177.673 89.3038 171.327 78.62 164.589C67.9363 157.852 74.2139 156.487 82.4455 153.536C90.6772 150.585 103.214 156.904 107.856 156.28C112.499 155.656 107.641 151.452 99.6984 149.138C91.7555 146.823 84.9877 153.088 72.0709 149.577C59.1541 146.067 58.4906 119.033 58.4906 119.033C66.0937 124.949 83.3217 126.016 85.034 123.27C86.7465 120.525 63.7741 112.209 60.547 109.976C57.32 107.743 53.77 98.2685 62.9988 85.472Z" fill="#AFCDFB"/>
<path d="M555.61 215.154C551.914 201.601 529.041 205.878 529.041 205.878C529.041 205.878 513.546 229.633 509.027 230.206C504.509 230.779 518.31 207.309 518.31 207.309C509.551 206.477 487.254 217.25 487.254 217.25C487.254 217.25 488.715 244.93 484.194 244.373C479.673 243.816 484.151 219.797 484.151 219.797C475.681 222.354 467.789 232.255 467.789 232.255C457.931 248.373 479.137 260.2 479.137 260.2C479.137 260.2 479.436 269.804 473.523 280.831L473.523 280.831C472.456 282.575 471.556 284.415 470.833 286.327L473.143 286.323C473.331 285.703 473.539 285.105 473.767 284.529C473.767 284.527 473.767 284.525 473.768 284.523C473.769 284.521 473.77 284.52 473.771 284.518C473.775 284.51 473.778 284.502 473.781 284.493C473.939 284.136 474.166 283.628 474.448 283.008L474.449 283.006C474.449 283.004 474.451 283.005 474.451 283.003C475.154 281.62 475.629 280.598 475.929 279.861C475.931 279.859 475.931 279.856 475.932 279.854C478.039 275.513 481.076 269.856 483.106 268.668C482.895 268.338 482.728 267.982 482.61 267.609C482.768 267.946 482.934 268.299 483.106 268.668C487.075 277.135 506.851 278.513 517.864 276.234C528.877 273.955 524.069 270.856 518.128 265.824C512.188 260.791 499.761 262.142 496.085 260.171C492.41 258.2 497.773 256.213 505.119 256.765C512.464 257.318 516.149 264.656 528.015 265.765C539.881 266.874 548.882 244.543 548.882 244.543C540.694 247.1 525.998 242.605 525.428 239.782C524.858 236.958 546.609 237.203 549.997 236.349C553.386 235.496 559.306 228.706 555.61 215.154Z" fill="#AFCDFB"/>
<path d="M283.513 93.7203C289.492 85.4302 303.984 94.185 303.984 94.185C303.984 94.185 308.475 114.327 311.408 115.871C314.34 117.415 310.931 97.9005 310.931 97.9005C317.11 99.57 329.551 112.604 329.551 112.604C329.551 112.604 321.488 131.09 324.71 131.865C327.932 132.64 331.015 115.132 331.015 115.132C336.133 119.037 338.982 127.798 338.982 127.798C341.583 141.297 324.114 143.94 324.114 143.94C324.114 143.94 321.458 150.407 322.671 159.43L322.671 159.43C322.952 160.891 323.096 162.375 323.1 163.862L321.527 163.269C321.557 162.799 321.569 162.338 321.56 161.887C321.561 161.886 321.561 161.885 321.561 161.883C321.561 161.882 321.56 161.88 321.56 161.879L321.559 161.86C321.543 161.576 321.518 161.172 321.484 160.678L321.484 160.676C321.484 160.675 321.483 160.674 321.484 160.673C321.358 159.551 321.295 158.734 321.279 158.155C321.278 158.153 321.279 158.151 321.279 158.15C320.951 154.654 320.327 150.024 319.247 148.696C319.475 148.525 319.68 148.325 319.856 148.101C319.662 148.291 319.459 148.489 319.247 148.696C314.38 153.451 300.555 149.34 293.633 144.975C286.712 140.611 290.779 139.727 296.112 137.815C301.444 135.903 309.566 139.997 312.574 139.592C315.582 139.188 312.434 136.465 307.289 134.965C302.143 133.466 297.758 137.524 289.391 135.25C281.022 132.976 280.593 115.462 280.593 115.462C285.518 119.295 296.679 119.986 297.788 118.207C298.898 116.429 284.016 111.041 281.925 109.595C279.834 108.148 277.534 102.01 283.513 93.7203Z" fill="#CDE0FB"/>
<path d="M263.789 364.419C259.259 350.533 281.576 341.184 281.576 341.184C281.576 341.184 308.609 352.973 312.862 350.89C317.116 348.806 291.718 336.297 291.718 336.297C298.853 330.571 324.38 327.195 324.38 327.195C324.38 327.195 338.923 352.08 342.533 349.014C346.142 345.948 328.532 327.636 328.532 327.636C337.352 325.02 349.865 329.114 349.865 329.114C367.638 337.488 355.967 359.878 355.967 359.878C355.967 359.878 361.193 368.393 372.629 374.597H372.63C374.553 375.503 376.387 376.587 378.107 377.836L376.097 379.152C375.58 378.721 375.058 378.318 374.53 377.949C374.529 377.948 374.528 377.946 374.526 377.945C374.524 377.944 374.522 377.943 374.52 377.943C374.513 377.938 374.505 377.932 374.497 377.927C374.156 377.707 373.669 377.394 373.07 377.017L373.068 377.016C373.067 377.015 373.065 377.016 373.065 377.014C371.664 376.214 370.667 375.598 369.985 375.129C369.983 375.128 369.981 375.126 369.979 375.124C365.668 372.556 359.798 369.376 357.355 369.502C357.35 369.095 357.292 368.691 357.182 368.299C357.237 368.683 357.295 369.083 357.355 369.502C358.743 379.127 342.347 391.621 331.476 395.931C320.606 400.242 323.013 394.803 325.3 387.036C327.587 379.27 339.156 373.346 341.224 369.533C343.292 365.721 337.497 367.059 331.43 371.735C325.363 376.41 326.353 384.891 316.676 392.633C306.999 400.375 286.423 386.113 286.423 386.113C294.997 383.657 305.2 371.357 304.082 368.578C302.964 365.799 284.204 378.436 280.773 379.63C277.342 380.824 268.319 378.306 263.789 364.419Z" fill="#CDE0FB"/>
<path d="M387.692 214.791C404.922 201.662 428.918 228.342 428.918 228.342C428.918 228.342 425.62 271.954 430.615 276.891C435.611 281.829 440.716 240.155 440.716 240.155C452.22 247.347 469.421 281.44 469.421 281.44C469.421 281.44 441.682 313.962 447.74 317.518C453.797 321.074 470.831 287.468 470.831 287.468C478.804 298.539 479.186 318.06 479.186 318.06C476.146 347.038 439.093 341.638 439.093 341.638C439.093 341.638 429.724 353.116 426.626 372.16V372.161C426.626 372.161 426.352 375.906 424.767 381.413L421.942 379.242C422.294 378.307 422.602 377.379 422.86 376.46C422.862 376.457 422.864 376.455 422.865 376.452C422.865 376.449 422.865 376.446 422.865 376.443C422.869 376.43 422.872 376.416 422.876 376.403C423.018 375.818 423.217 374.983 423.452 373.96L423.453 373.956C423.454 373.954 423.452 373.953 423.453 373.951C423.889 371.598 424.265 369.902 424.589 368.717C424.589 368.714 424.59 368.71 424.592 368.707C426.082 361.416 427.666 351.643 426.295 348.284C426.863 348.078 427.401 347.799 427.895 347.453C427.385 347.718 426.853 347.994 426.295 348.284C413.497 354.93 387.992 338.078 376.645 324.963C365.297 311.849 374.089 312.562 386.081 311.969C398.073 311.376 412.021 324.68 418.369 325.713C424.718 326.746 420.013 319.285 410.502 313.075C400.99 306.864 389.599 312.394 374.031 302.628C358.462 292.863 368.378 257.082 368.378 257.082C376.005 267.888 398.213 276.163 401.558 273.241C404.903 270.317 378.042 250.225 374.693 246.004C371.345 241.783 370.461 227.919 387.692 214.791Z" fill="#CDE0FB"/>
<path d="M613.15 403.34H1.01016C0.742489 403.339 0.486003 403.232 0.296732 403.043C0.10746 402.854 0.000782399 402.597 0 402.33V402.329C0.000787757 402.062 0.107468 401.805 0.296739 401.616C0.48601 401.427 0.742493 401.32 1.01016 401.319H613.149C613.417 401.32 613.674 401.427 613.863 401.616C614.052 401.805 614.159 402.062 614.16 402.33C614.159 402.597 614.052 402.854 613.863 403.043C613.674 403.232 613.417 403.339 613.15 403.34Z" fill="#2E3552"/>
<path d="M176.317 121.864L169.068 127.066L161.782 121.921C162.603 120.759 163.689 119.811 164.951 119.154C166.212 118.497 167.613 118.152 169.035 118.146C170.457 118.141 171.86 118.475 173.127 119.122C174.394 119.769 175.488 120.709 176.317 121.864Z" fill="#F99746"/>
<path d="M169.068 105.47C165.609 105.47 162.201 106.302 159.132 107.898C156.062 109.493 153.422 111.803 151.435 114.635L156.036 117.865C157.501 115.784 159.443 114.084 161.7 112.908C163.956 111.732 166.462 111.114 169.006 111.104C171.551 111.095 174.061 111.696 176.326 112.855C178.591 114.015 180.546 115.701 182.026 117.771L186.608 114.484C184.612 111.695 181.98 109.422 178.929 107.855C175.879 106.287 172.498 105.47 169.068 105.47Z" fill="#F99746"/>
<path d="M169.068 81.3767C161.75 81.3742 154.538 83.134 148.043 86.5073C141.548 89.8806 135.961 94.7683 131.754 100.757L136.355 103.987C140.034 98.7626 144.91 94.4952 150.575 91.5418C156.241 88.5884 162.532 87.0348 168.921 87.0109C175.31 86.987 181.612 88.4936 187.3 91.4045C192.987 94.3155 197.895 98.5462 201.612 103.743L206.176 100.456C201.956 94.552 196.387 89.7404 189.933 86.4218C183.479 83.1033 176.326 81.3736 169.068 81.3767Z" fill="#F99746"/>
<path d="M169.068 93.9622C158.101 93.9622 148.374 99.568 142.458 108.162L147.059 111.498C151.961 104.418 159.998 99.7815 169.068 99.7815C178.064 99.7815 186.045 104.34 190.965 111.324L195.528 107.948C189.594 99.4711 179.942 93.9622 169.068 93.9622Z" fill="#F99746"/>
<path d="M373.025 342.415H265.414V396.821H373.025V342.415Z" fill="#243A75"/>
<path d="M502.309 140.114H136.13C134.397 140.114 132.993 141.518 132.993 143.25V352.979C132.993 354.711 134.397 356.116 136.13 356.116H502.309C504.041 356.116 505.446 354.711 505.446 352.979V143.25C505.446 141.518 504.041 140.114 502.309 140.114Z" fill="#2F4F9E"/>
<path d="M502.314 156.875H136.125V343.273H502.314V156.875Z" fill="#AFCDFB"/>
<path d="M237.203 388.134H401.235C402.943 388.134 404.58 388.813 405.787 390.02C406.995 391.227 407.673 392.865 407.673 394.572V402.329H230.766V394.572C230.766 392.865 231.444 391.227 232.651 390.02C233.859 388.813 235.496 388.134 237.203 388.134Z" fill="#2F4F9E"/>
<path d="M194.724 168.071H443.714C444.477 168.071 445.209 168.374 445.748 168.914C446.288 169.453 446.591 170.185 446.591 170.948V332.076H191.847V170.948C191.847 170.185 192.15 169.453 192.69 168.914C193.229 168.374 193.961 168.071 194.724 168.071Z" fill="#5F91E6"/>
<path d="M259.965 170.674C260.555 170.668 261.14 170.78 261.685 171.005C262.198 171.218 262.661 171.535 263.044 171.938C263.436 172.357 263.739 172.851 263.936 173.391C264.363 174.606 264.364 175.93 263.939 177.146C263.743 177.685 263.442 178.18 263.054 178.602C262.673 179.009 262.212 179.331 261.698 179.548C260.587 179.998 259.344 179.999 258.231 179.552C257.718 179.337 257.256 179.015 256.876 178.609C256.487 178.187 256.187 177.692 255.991 177.152C255.566 175.932 255.567 174.604 255.994 173.384C256.191 172.844 256.496 172.35 256.89 171.931C257.273 171.53 257.735 171.213 258.248 171.002C258.793 170.779 259.377 170.667 259.965 170.674ZM259.958 178.406C260.318 178.41 260.675 178.337 261.006 178.193C261.323 178.053 261.605 177.843 261.83 177.578C262.072 177.288 262.254 176.954 262.368 176.595C262.502 176.168 262.567 175.723 262.56 175.277C262.568 174.828 262.501 174.382 262.364 173.955C262.249 173.598 262.065 173.266 261.823 172.979C261.6 172.718 261.321 172.511 261.006 172.374C260.677 172.237 260.325 172.167 259.97 172.168C259.614 172.168 259.262 172.239 258.934 172.377C258.617 172.517 258.335 172.726 258.11 172.989C257.866 173.277 257.681 173.61 257.565 173.969C257.429 174.391 257.363 174.833 257.369 175.277C257.363 175.723 257.428 176.168 257.562 176.595C257.675 176.954 257.858 177.288 258.1 177.578C258.324 177.842 258.604 178.052 258.921 178.193C259.247 178.337 259.601 178.41 259.958 178.406Z" fill="#2B478B"/>
<path d="M273.165 179.744H271.597L267.616 173.776V179.744H266.014V170.823H267.589L271.549 176.797V170.823H273.165V179.744Z" fill="#2B478B"/>
<path d="M281.086 179.744H275.328V170.823H276.99V178.21H281.086V179.744Z" fill="#2B478B"/>
<path d="M284.364 179.744H282.708V170.823H284.364V179.744Z" fill="#2B478B"/>
<path d="M293.678 179.744H292.11L288.129 173.776V179.744H286.527V170.823H288.102L292.062 176.797V170.823H293.678V179.744Z" fill="#2B478B"/>
<path d="M302.66 179.744H295.841V170.823H302.464V172.357H297.503V174.371H302.147V175.892H297.503V178.21H302.66V179.744Z" fill="#2B478B"/>
<path d="M315.563 179.744H308.743V170.823H315.367V172.357H310.406V174.371H315.049V175.892H310.406V178.21H315.563V179.744Z" fill="#2B478B"/>
<path d="M324.822 175.236C324.822 178.241 323.301 179.744 320.26 179.744H317.32V170.823H320.26C323.301 170.823 324.822 172.294 324.822 175.236ZM323.119 175.236C323.124 174.829 323.08 174.423 322.987 174.026C322.91 173.691 322.752 173.38 322.528 173.121C322.287 172.859 321.983 172.663 321.645 172.553C321.196 172.41 320.725 172.344 320.253 172.357H318.989V178.21H320.253C320.723 178.223 321.192 178.154 321.639 178.007C321.978 177.892 322.282 177.69 322.521 177.423C322.747 177.153 322.906 176.833 322.984 176.49C323.079 176.079 323.124 175.658 323.119 175.236Z" fill="#2B478B"/>
<path d="M330.155 179.886C329.671 179.896 329.188 179.839 328.719 179.717C328.365 179.623 328.03 179.469 327.729 179.261C327.474 179.082 327.26 178.852 327.1 178.585C326.947 178.327 326.831 178.048 326.755 177.757C326.678 177.461 326.629 177.157 326.61 176.851C326.59 176.541 326.58 176.234 326.58 175.932V170.823H328.242V175.919C328.232 176.336 328.275 176.753 328.371 177.159C328.434 177.433 328.561 177.688 328.742 177.902C328.903 178.079 329.11 178.206 329.341 178.267C329.878 178.398 330.439 178.398 330.976 178.267C331.207 178.206 331.413 178.078 331.571 177.899C331.749 177.682 331.873 177.426 331.933 177.152C332.023 176.747 332.064 176.333 332.054 175.919V170.823H333.73V175.932C333.737 176.492 333.683 177.05 333.572 177.598C333.483 178.05 333.289 178.475 333.007 178.839C332.717 179.191 332.338 179.459 331.909 179.616C331.346 179.812 330.751 179.904 330.155 179.886Z" fill="#2B478B"/>
<path d="M341.645 173.627C341.604 173.409 341.521 173.2 341.401 173.012C341.287 172.835 341.14 172.68 340.969 172.556C340.79 172.429 340.592 172.333 340.381 172.272C340.153 172.206 339.916 172.173 339.678 172.174C339.323 172.169 338.971 172.238 338.644 172.377C338.339 172.511 338.071 172.715 337.86 172.972C337.63 173.259 337.46 173.588 337.36 173.942C337.125 174.815 337.125 175.735 337.36 176.608C337.461 176.965 337.631 177.299 337.86 177.591C338.068 177.853 338.336 178.062 338.64 178.2C338.961 178.341 339.308 178.411 339.658 178.406C340.136 178.424 340.606 178.278 340.989 177.99C341.356 177.687 341.592 177.256 341.652 176.784H343.362C343.31 177.248 343.171 177.699 342.953 178.112C342.753 178.485 342.482 178.816 342.155 179.085C341.825 179.353 341.446 179.556 341.04 179.683C340.019 179.99 338.925 179.948 337.931 179.562C337.429 179.355 336.98 179.039 336.616 178.636C336.243 178.213 335.959 177.718 335.781 177.183C335.578 176.568 335.479 175.924 335.488 175.277C335.479 174.629 335.579 173.985 335.785 173.371C335.964 172.835 336.25 172.342 336.626 171.921C336.992 171.52 337.442 171.205 337.944 170.998C338.493 170.776 339.08 170.665 339.671 170.674C340.115 170.671 340.555 170.742 340.976 170.883C341.374 171.017 341.747 171.218 342.077 171.478C342.751 172.013 343.201 172.779 343.341 173.627H341.645Z" fill="#2B478B"/>
<path d="M352.723 179.744H350.864L349.891 177.189H346.768L345.835 179.744H344.071L347.505 170.816H349.086L352.723 179.744ZM349.37 175.777L348.289 172.945L347.268 175.777H349.37Z" fill="#2B478B"/>
<path d="M360.374 172.357H357.596V179.744H355.926V172.357H353.162V170.823H360.374V172.357Z" fill="#2B478B"/>
<path d="M363.516 179.744H361.86V170.823H363.516V179.744Z" fill="#2B478B"/>
<path d="M369.566 170.674C370.155 170.668 370.74 170.78 371.286 171.005C371.799 171.218 372.261 171.535 372.644 171.938C373.036 172.357 373.34 172.851 373.536 173.391C373.963 174.606 373.964 175.93 373.54 177.145C373.344 177.685 373.043 178.18 372.654 178.602C372.274 179.009 371.812 179.331 371.299 179.548C370.187 179.997 368.944 179.999 367.832 179.551C367.319 179.336 366.857 179.015 366.477 178.609C366.088 178.187 365.787 177.691 365.591 177.152C365.167 175.932 365.168 174.604 365.595 173.384C365.792 172.844 366.096 172.35 366.49 171.931C366.873 171.53 367.336 171.213 367.849 171.002C368.393 170.779 368.977 170.667 369.566 170.674ZM369.559 178.406C369.919 178.41 370.276 178.337 370.606 178.193C370.924 178.053 371.206 177.842 371.431 177.578C371.673 177.288 371.855 176.954 371.968 176.595C372.102 176.168 372.167 175.723 372.161 175.277C372.168 174.828 372.102 174.382 371.965 173.955C371.85 173.598 371.666 173.266 371.424 172.979C371.201 172.718 370.921 172.511 370.606 172.374C370.278 172.237 369.926 172.167 369.57 172.168C369.215 172.168 368.863 172.239 368.535 172.377C368.217 172.516 367.936 172.726 367.71 172.989C367.467 173.277 367.282 173.61 367.166 173.969C367.03 174.391 366.963 174.833 366.97 175.277C366.963 175.723 367.028 176.168 367.163 176.595C367.276 176.954 367.458 177.288 367.7 177.578C367.924 177.842 368.205 178.052 368.521 178.193C368.848 178.337 369.202 178.409 369.559 178.406Z" fill="#2B478B"/>
<path d="M382.765 179.744H381.197L377.216 173.776V179.744H375.615V170.823H377.189L381.15 176.797V170.823H382.765V179.744Z" fill="#2B478B"/>
<path d="M443.603 182.939H194.836V328.471H443.603V182.939Z" fill="white"/>
<path d="M443.603 302.395H194.836V318.204H443.603V302.395Z" fill="#2B478B"/>
<path d="M443.603 307.505H194.836V313.094H443.603V307.505Z" fill="#DFEBFA"/>
<path d="M210.486 307.477H194.836V313.122H210.486V307.477Z" fill="#B5453C"/>
<path d="M209.101 306.276H218.101C218.621 306.276 219.119 306.482 219.487 306.85C219.854 307.217 220.06 307.715 220.06 308.235V312.364C220.06 312.884 219.854 313.382 219.487 313.749C219.119 314.117 218.621 314.323 218.101 314.323H209.101C208.582 314.323 208.084 314.117 207.716 313.749C207.349 313.382 207.143 312.884 207.143 312.364V308.235C207.143 307.715 207.349 307.217 207.716 306.85C208.084 306.482 208.582 306.276 209.101 306.276Z" fill="#F99746"/>
<path d="M396.212 220.408L321.443 245.584L244.875 220.294L319.644 195.118L396.212 220.408Z" fill="#2B478B"/>
<path d="M247.178 263.802C247.813 263.49 248.336 262.989 248.675 262.369C249.015 261.748 249.154 261.038 249.074 260.335C248.994 259.632 248.699 258.971 248.229 258.443C247.759 257.914 247.137 257.544 246.448 257.383V220.294H244.875V257.383C244.186 257.544 243.564 257.914 243.094 258.443C242.624 258.971 242.328 259.632 242.249 260.335C242.169 261.038 242.308 261.748 242.647 262.369C242.987 262.989 243.51 263.49 244.145 263.802C243.569 264.084 243.085 264.523 242.746 265.067C242.407 265.611 242.227 266.239 242.227 266.88V285.678H249.096V266.88C249.096 266.239 248.916 265.611 248.577 265.067C248.238 264.523 247.753 264.084 247.178 263.802Z" fill="#2B478B"/>
<path d="M321.443 250.957L273.968 235.276V259.696C273.968 263.9 275.638 267.932 278.61 270.904C281.583 273.877 285.615 275.547 289.819 275.547H351.268C355.472 275.547 359.504 273.877 362.476 270.904C365.449 267.932 367.119 263.9 367.119 259.696V235.577L321.443 250.957Z" fill="#2B478B"/>
<g opacity="0.86">
<path d="M319.219 290.645C311.135 290.645 303.302 287.842 297.053 282.714C290.805 277.586 286.527 270.45 284.95 262.522C283.373 254.593 284.594 246.364 288.405 239.234C292.215 232.105 298.38 226.518 305.848 223.425C313.316 220.331 321.626 219.923 329.362 222.27C337.097 224.616 343.78 229.572 348.271 236.293C352.762 243.015 354.783 251.085 353.991 259.13C353.199 267.175 349.641 274.696 343.925 280.412C340.688 283.666 336.838 286.247 332.597 288.003C328.356 289.76 323.809 290.658 319.219 290.645ZM319.219 224.736C313.094 224.736 307.106 226.552 302.013 229.955C296.92 233.358 292.951 238.195 290.607 243.854C288.263 249.513 287.65 255.74 288.845 261.747C290.04 267.755 292.989 273.273 297.32 277.604C301.651 281.935 307.17 284.885 313.177 286.08C319.185 287.275 325.412 286.661 331.071 284.317C336.73 281.973 341.566 278.004 344.969 272.911C348.372 267.818 350.189 261.83 350.189 255.705C350.179 247.494 346.914 239.623 341.108 233.817C335.302 228.011 327.43 224.745 319.219 224.736Z" fill="#F99746"/>
<path d="M306.588 230.904V281.093L343.413 255.999L306.588 230.904Z" fill="#F99746"/>
</g>
<path d="M465.58 77.7401C465.58 77.7401 462.222 82.7099 460.306 93.1579C458.629 102.308 457.158 105.686 454.735 107.563C452.312 109.439 438.814 114.979 438.814 114.979L439.823 117.344C439.823 117.344 459.608 114.649 461.83 111.343C464.053 108.036 472.525 88.4992 471.867 83.9997C471.21 79.5004 465.58 77.7401 465.58 77.7401Z" fill="#F4A269"/>
<path d="M417.132 186.883C417.31 188.813 414.624 189.282 411.512 189.437C408.401 189.592 409.341 190.229 405.077 191.001C400.814 191.773 399.105 190.607 398.796 190.031C398.521 189.519 400.504 188.72 402.616 187.817C402.882 187.704 403.148 187.588 403.415 187.471C405.792 186.426 407.126 184.293 408.98 182.316C410.736 180.444 412.403 174.448 412.403 174.448L418.197 173.211C418.197 173.211 416.571 178.607 416.006 180.911C415.673 182.266 416.164 183.781 416.599 184.934C416.863 185.557 417.042 186.212 417.132 186.883Z" fill="#FFB27D"/>
<path d="M411.512 189.437C408.401 189.592 409.341 190.229 405.077 191.001C400.814 191.773 399.105 190.607 398.796 190.031C398.521 189.519 400.504 188.72 402.616 187.817L402.649 187.853C404.756 188.461 406.988 188.488 409.108 187.93C411.928 187.164 414.656 185.478 416.599 184.934C416.863 185.557 417.042 186.212 417.132 186.883C417.31 188.813 414.624 189.282 411.512 189.437Z" fill="#C65447"/>
<path d="M474.83 118.174C474.83 118.174 436.328 115.277 429.08 119.851C421.831 124.426 410.206 177.711 410.206 177.711C410.206 177.711 410.923 178.286 412.526 178.46C414.016 178.621 417.298 177.745 417.298 177.745C417.298 177.745 434.005 153.903 435.182 147.897C436.359 141.89 436.072 136.531 438.751 136.387C441.431 136.244 474.836 140.448 479.888 131.547C484.941 122.645 480.764 113.834 480.764 113.834L474.83 118.174Z" fill="#EF7E29"/>
<path d="M431.865 193.067C432.043 194.997 429.356 195.466 426.245 195.621C423.134 195.776 424.074 196.413 419.81 197.185C415.546 197.958 413.838 196.791 413.529 196.215C413.254 195.704 415.236 194.904 417.349 194.001C417.615 193.888 417.881 193.772 418.147 193.655C420.525 192.61 421.859 190.477 423.713 188.5C425.469 186.628 427.136 180.632 427.136 180.632L432.93 179.395C432.93 179.395 431.303 184.791 430.738 187.095C430.406 188.45 430.896 189.965 431.331 191.118C431.595 191.741 431.775 192.396 431.865 193.067Z" fill="#FFB27D"/>
<path d="M426.245 195.621C423.134 195.776 424.074 196.413 419.81 197.185C415.546 197.958 413.838 196.791 413.529 196.215C413.254 195.704 415.236 194.904 417.349 194.001L417.382 194.037C419.488 194.645 421.72 194.672 423.84 194.114C426.661 193.348 429.388 191.662 431.331 191.118C431.595 191.741 431.775 192.396 431.865 193.067C432.043 194.997 429.356 195.466 426.245 195.621Z" fill="#C65447"/>
<path d="M482.372 120.56C482.372 120.56 448.168 122.179 441.103 127.032C434.038 131.886 424.496 185.583 424.496 185.583C424.496 185.583 425.235 186.13 426.843 186.241C428.339 186.344 431.585 185.341 431.585 185.341C431.585 185.341 447.351 160.867 448.293 154.819C449.235 148.772 448.74 143.427 451.412 143.18C454.084 142.932 487.626 145.833 492.329 136.742C497.031 127.65 482.372 120.56 482.372 120.56Z" fill="#F99746"/>
<path d="M470.662 75.0031C469.999 73.8386 469.205 71.7449 468.632 67.9561C468.706 68.3311 469.683 73.0926 471.712 75.6895C479.634 80.1665 492.149 96.9821 492.072 100.154C492.072 100.154 499.759 89.9749 499.844 89.9172C499.844 89.9172 508.495 77.267 496.833 71.1286C490.906 68.0089 490.635 63.5158 490.613 59.5987C490.592 55.6808 487.68 39.006 476.567 44.1615C476.567 44.1615 474.683 43.4702 473.871 43.6467C474.247 43.6938 474.606 43.8355 474.913 44.0588C473.585 44.0689 471.701 44.2927 470.184 45.2946C466.161 47.9494 463.84 69.5164 470.662 75.0031Z" fill="#B5453C"/>
<path d="M483.809 72.0153C481.689 71.8395 479.558 71.8395 477.439 72.0153C475.54 72.2177 473.68 72.6846 471.911 73.4026C468.896 74.6627 469.213 79.9996 475.538 79.0113C481.863 78.023 484.252 73.5981 483.809 72.0153Z" fill="#FFB27D"/>
<path d="M472.178 75.9075C472.141 75.9271 471.276 80.4987 475.417 80.3159C478.136 80.1959 484 76.906 483.482 74.5781C483.236 73.4715 481.181 70.6006 480.768 64.0474L480.273 64.1797L471.951 66.4119C471.951 66.4119 472.32 69.0532 472.492 71.5529C472.638 73.6517 472.643 75.6512 472.178 75.9075Z" fill="#FFB27D"/>
<path d="M471.951 66.4119C471.951 66.4119 472.32 69.0532 472.492 71.553C477.203 71.1053 479.41 66.6341 480.273 64.1797L471.951 66.4119Z" fill="#F4A269"/>
<path d="M481.083 63.2036C481.083 63.2036 483.295 59.1311 483.666 55.7503C483.931 53.3366 482.127 44.5754 473.326 46.4412C471.553 46.8088 469.885 47.5697 468.446 48.6677C466.603 50.0992 464.007 53.0978 467.634 60.6063L468.617 63.1588L481.083 63.2036Z" fill="#B5453C"/>
<path d="M470.533 68.8844C470.533 68.8844 481.711 68.3241 481.255 61.3687C480.799 54.4132 481.934 49.6565 474.778 49.7201C467.622 49.7837 466.411 52.5286 465.999 54.8873C465.586 57.246 467.614 68.8509 470.533 68.8844Z" fill="#FFB27D"/>
<path d="M469.682 49.8888C469.682 49.8888 473.283 57.8445 478.055 58.7381C482.827 59.6319 484.778 58.2391 484.778 58.2391C484.778 58.2391 483.466 53.2192 482.386 48.2788C482.386 48.2788 471.729 45.8515 469.682 49.8888Z" fill="#B5453C"/>
<path d="M470.484 50.5007C470.484 50.5007 468.322 52.4746 467.883 54.2828C467.445 56.091 467.438 59.7535 466.367 59.7004C466.367 59.7004 463.694 54.308 466.073 50.9981C468.596 47.4884 470.484 50.5007 470.484 50.5007Z" fill="#B5453C"/>
<path d="M459.349 118.755C460.254 119.837 463.078 120.169 466.097 120.666C468.472 121.058 470.967 121.55 472.742 122.592C476.771 124.957 489.935 132.953 493.794 132.589C495.29 132.448 495.01 129.592 494.104 125.803C492.677 119.82 489.692 111.51 489.692 107.896C489.692 105.925 489.036 101.258 488.159 95.9227C488.088 95.4925 488.016 95.0587 487.943 94.6213C486.21 84.2477 483.809 72.0162 483.809 72.0162C483.809 72.0162 481.132 77.8577 475.915 77.8577C470.7 77.8577 471.911 73.403 471.911 73.403C471.911 73.403 467.152 73.9628 466.027 75.1741C464.901 76.3855 462.05 81.6211 461.484 83.0491C461.484 83.0491 461.369 84.8661 465.868 85.7311C465.868 85.7311 464.772 90.6632 464.642 93.9508C464.546 96.3796 466.299 103.981 466.804 108.709C466.982 110.384 467.006 111.698 466.734 112.294C466.386 113.058 465.26 113.819 463.979 114.565C461.437 116.045 458.276 117.47 459.349 118.755Z" fill="#1C468A"/>
<path d="M463.979 114.565C461.092 119.488 471.81 120.968 473.584 122.01C477.614 124.376 489.935 132.953 493.794 132.589C495.29 132.448 495.01 129.592 494.104 125.803C492.677 119.82 489.692 111.51 489.692 107.896C489.692 105.925 489.036 101.258 488.159 95.9227L483.515 91.4633C483.515 91.4633 478.539 104.326 473.795 106.434C471.539 107.406 469.199 108.168 466.804 108.709C466.982 110.384 467.006 111.698 466.734 112.294C466.386 113.058 465.26 113.819 463.979 114.565Z" fill="#163560"/>
<path d="M485.236 75.8661C485.236 75.8661 489.207 73.4548 493.047 78.0293C496.886 82.6039 490.318 115.305 484.629 116.985C478.31 118.851 460.055 116.687 460.055 116.687L460.407 113.834C460.407 113.834 479.84 110.108 480.648 109.069C481.455 108.031 483.217 76.3937 485.236 75.8661Z" fill="#FFB27D"/>
<path d="M483.809 72.0153C483.809 72.0153 491.964 72.7512 494.332 75.4336C496.701 78.1158 497.393 85.3842 497.393 85.3842C497.393 85.3842 490.212 91.1816 481.559 88.9318L483.809 72.0153Z" fill="#1C468A"/>
<path d="M447.377 119.488H458.149V118.215H447.377V119.488Z" fill="#9E332E"/>
<path d="M449.665 119.313C449.559 118.892 439.763 103.509 439.763 103.509H417.965L428.898 118.9L449.665 119.313Z" fill="#9E332E"/>
<path d="M448.748 119.488C448.642 119.066 438.814 103.509 438.814 103.509H417.965L428.367 119.488H448.748Z" fill="#B5453C"/>
<path d="M430.368 111.55C430.485 111.864 430.691 112.138 430.96 112.338C431.229 112.538 431.551 112.657 431.885 112.678C432.509 112.678 432.84 112.173 432.625 111.55C432.508 111.236 432.303 110.962 432.033 110.762C431.764 110.561 431.443 110.443 431.108 110.421C430.485 110.421 430.154 110.927 430.368 111.55Z" fill="#9E332E"/>
<path d="M461.992 113.664C461.992 113.664 455.665 112.439 454.95 112.746C454.236 113.052 450.256 116.624 450.664 117.338C451.072 118.053 452.705 118.563 454.542 117.951C456.379 117.338 460.359 117.032 461.074 116.114C461.788 115.195 461.992 113.664 461.992 113.664Z" fill="#FFB27D"/>
<path d="M57.3227 325.85C57.3227 325.85 78.3128 334.995 82.1232 334.829C85.9331 334.662 109.411 327.677 109.411 327.677L108.814 331.716C108.814 331.716 90.6949 342.137 84.3604 342.728C78.1239 343.31 56.7994 337.131 54.7406 335.826C52.6821 334.522 51.3398 327.17 57.3227 325.85Z" fill="#ED985F"/>
<path d="M54.1689 292.208C54.1689 292.208 46.4255 290.737 42.569 293.553C35.583 298.655 35.2079 316.243 32.5895 318.863C29.9711 321.483 23.6598 320.366 23.098 333.923C22.5359 347.48 25.6105 348.613 21.9488 354.665C18.2871 360.717 23.4981 366.774 23.4981 366.774C23.4981 366.774 21.3639 363.433 22.2786 361.022C22.2786 361.022 23.1667 366.344 26.5476 367.591C29.9285 368.838 30.4286 369.753 30.9685 371.582C30.9685 371.582 59.811 356.803 59.8423 346.32C59.8738 335.837 65.5183 325.454 62.7463 320.911C62.7463 320.911 63.9809 322.854 64.1323 325.016C64.1323 325.016 65.7953 321.83 62.9128 318.863C60.0301 315.897 66.2943 309.758 65.3669 302.648C64.7299 297.767 61.305 292.42 54.1689 292.208Z" fill="#233862"/>
<path d="M59.8737 335.837C57.735 337.28 55.3394 338.3 52.8168 338.841C41.9395 341.354 37.771 332.161 36.2056 325.85C37.342 325.221 38.597 324.835 39.8907 324.718C40.6769 324.625 41.5038 324.563 42.1885 324.529C43.4098 323.594 45.2299 319.765 45.6325 313.82L46.1441 313.957L54.7166 316.304C54.7166 316.304 54.324 319.029 54.1317 321.604C53.9827 323.62 53.9592 325.546 54.3413 326.018C55.0101 326.163 55.4115 326.257 55.4115 326.257C55.4124 326.26 55.4139 326.263 55.4158 326.265C57.2042 329.306 58.6969 332.512 59.8737 335.837Z" fill="#FFB27D"/>
<path d="M54.7173 316.305C54.7173 316.305 54.3231 319.028 54.1324 321.606C49.2755 321.12 47.0216 316.496 46.144 313.959L54.7173 316.305Z" fill="#ED985F"/>
<path d="M56.1675 318.863C56.1675 318.863 44.6396 318.227 45.1461 311.054C45.6527 303.882 44.5062 298.969 51.8878 299.071C59.2696 299.174 60.5047 302.012 60.9181 304.448C61.3313 306.883 59.1791 318.844 56.1675 318.863Z" fill="#FFB27D"/>
<path d="M60.8612 300.435C59.2362 298.15 57.8572 298.527 57.0573 299.121C51.0119 295.21 44.0204 297.78 44.0204 297.78C42.8812 302.871 41.5276 307.808 41.5276 307.808C41.5276 307.808 43.5333 309.254 48.4608 308.357C49.9659 308.083 51.3608 307.128 52.5738 305.934C51.1473 307.926 49.4556 309.714 47.5455 311.249C53.5163 308.992 56.4138 301.121 56.7059 300.287C57.3636 300.969 58.6507 302.44 58.9767 303.814C59.4197 305.682 61.3306 308.601 62.4358 308.552C62.4358 308.552 63.2986 303.862 60.8612 300.435Z" fill="#233862"/>
<path d="M32.922 359.276C31.8809 353.954 28.4867 332.691 31.8809 325.85C33.1001 323.392 37.8834 323.17 43.1319 323.385C44.7649 324.44 50.9879 328.424 53.5441 327.927C53.5713 327.922 53.6212 327.91 53.6871 327.893C54.8907 327.592 55.3453 326.746 54.3413 326.018C56.291 325.888 58.2493 326.008 60.1685 326.375C61.9918 326.718 66.9097 329.263 66.9097 329.263C66.9097 329.263 64.433 333.736 60.7815 335.281C61.4023 340.835 60.4789 343.286 54.7164 356.116C49.8471 366.961 55.3733 376.724 55.3733 376.724C55.3733 376.724 26.7087 399.771 26.5492 388.036C26.4296 379.202 34.2525 366.077 32.922 359.276Z" fill="#B5453C"/>
<path d="M56.7945 401.785C57.5648 401.698 58.307 401.444 58.9692 401.041C59.6314 400.638 60.1977 400.095 60.6286 399.451C60.7668 399.244 60.9145 399.021 61.0715 398.783C64.3345 393.844 65.6041 378.717 72.9431 362.602C74.7311 358.679 81.1478 357.973 82.8972 353.538C82.8972 353.538 87.204 339.163 74.6545 338.739C62.1048 338.315 41.0449 378.737 40.7121 382.976C40.3902 387.083 32.4153 404.536 56.7945 401.785Z" fill="#DD6D22"/>
<path d="M106.674 401.454H88.8118C88.8118 401.454 88.1438 398.605 89.3164 396.667C90.3546 394.951 89.9569 393.974 89.1879 392.555C90.1361 392.965 91.1639 393.159 92.1965 393.122C93.0864 393.07 94.0273 392.666 94.8526 392.187C95.6213 393.064 98.9133 396.794 99.942 397.534C101.109 398.372 106.314 398.073 106.674 401.454Z" fill="#9E332E"/>
<path d="M34.8049 331.423C34.8049 331.423 32.4804 352.574 47.5572 357.006C62.6337 361.438 66.9138 337.545 54.7407 335.826C42.568 334.108 34.8049 331.423 34.8049 331.423Z" fill="#9E332E"/>
<path d="M83.3057 342.894C84.3813 350.958 88.5813 376.408 95.9903 388.825C98.3789 392.828 89.9721 395.072 89.9269 395.06C88.799 394.765 86.9207 392.967 86.055 392.187C80.0398 386.766 67.8293 371.416 67.8293 359.109C67.8293 353.108 67.724 341.648 72.0873 338.736C74.7746 336.942 82.8783 339.692 83.3057 342.894Z" fill="#ED7D2B"/>
<path d="M46.1434 401.454C46.1434 401.454 46.8054 400.533 47.9594 398.783C49.333 396.703 50.8532 392.608 52.6975 387.36C54.6351 381.85 56.9334 375.071 59.8056 368.018C60.6921 365.841 61.6332 363.638 62.6342 361.438C64.4222 357.514 69.3397 358.056 71.0895 353.621C71.0895 353.621 77.9163 338.246 65.3669 337.822C52.8174 337.398 28.9706 378.951 27.6003 382.976C26.1003 387.381 18.781 405.675 46.1434 401.454Z" fill="#F99746"/>
<path d="M93.5615 401.454H75.6996C75.6996 401.454 75.0319 398.605 76.2044 396.667C77.2426 394.951 76.8447 393.974 76.0759 392.555C77.024 392.965 78.0518 393.159 79.0842 393.122C79.9742 393.07 80.9154 392.666 81.7406 392.187C82.5094 393.064 85.8011 396.794 86.8298 397.534C87.9971 398.372 93.2021 398.073 93.5615 401.454Z" fill="#B5453C"/>
<path d="M52.6975 387.36C54.6351 381.85 56.9334 375.071 59.8056 368.018C59.0555 362.675 57.4372 358 54.7164 356.116C54.7164 356.116 48.1157 376.565 52.6975 387.36Z" fill="#ED7D2B"/>
<path d="M72.8789 342.323C73.9545 350.386 75.4693 376.408 82.8783 388.825C85.2672 392.828 76.8601 395.072 76.8149 395.06C75.6872 394.765 73.809 392.967 72.943 392.187C66.928 386.766 54.7173 371.416 54.7173 359.109C54.7173 353.108 61.7594 342.13 66.1229 339.217C68.8101 337.423 72.4515 339.12 72.8789 342.323Z" fill="#F99746"/>
<path d="M111.544 317.286L93.2517 315.343C92.9924 315.316 92.7313 315.375 92.5091 315.511C92.2869 315.648 92.116 315.854 92.0233 316.098L85.4786 333.295C85.412 333.47 85.388 333.658 85.4085 333.844C85.429 334.03 85.4935 334.209 85.5967 334.365C85.6998 334.522 85.8387 334.651 86.0017 334.743C86.1648 334.835 86.3475 334.887 86.5346 334.895L104.686 335.627C104.926 335.637 105.164 335.572 105.368 335.443C105.571 335.313 105.729 335.125 105.822 334.903L112.509 318.916C112.58 318.746 112.61 318.562 112.597 318.379C112.584 318.195 112.529 318.017 112.435 317.859C112.342 317.701 112.212 317.566 112.058 317.467C111.903 317.367 111.727 317.306 111.544 317.286Z" fill="#9E332E"/>
<path d="M113.133 317.452L94.8406 315.51C94.5813 315.482 94.3202 315.541 94.098 315.678C93.8759 315.814 93.7051 316.02 93.6124 316.264L87.0675 333.461C87.0009 333.636 86.9768 333.824 86.9974 334.011C87.0179 334.197 87.0824 334.375 87.1855 334.531C87.2887 334.688 87.4276 334.817 87.5906 334.909C87.7537 335.001 87.9363 335.053 88.1234 335.061L106.274 335.793C106.515 335.803 106.753 335.739 106.956 335.609C107.16 335.48 107.318 335.291 107.411 335.069L114.097 319.082C114.168 318.912 114.199 318.729 114.186 318.545C114.173 318.361 114.118 318.183 114.024 318.025C113.93 317.867 113.801 317.733 113.646 317.633C113.492 317.534 113.316 317.472 113.133 317.452Z" fill="#B5453C"/>
<path d="M102.994 325.482C103.217 324.868 102.901 324.371 102.287 324.371C101.955 324.394 101.636 324.51 101.368 324.707C101.1 324.904 100.892 325.172 100.771 325.482C100.547 326.096 100.864 326.594 101.478 326.594C101.81 326.571 102.128 326.454 102.397 326.258C102.665 326.061 102.872 325.792 102.994 325.482Z" fill="#9E332E"/>
<path d="M112.586 319.078C112.617 319.02 112.633 318.954 112.631 318.888C112.629 318.822 112.609 318.758 112.573 318.702C112.538 318.646 112.488 318.601 112.429 318.571C112.37 318.541 112.304 318.527 112.238 318.531C112.075 318.543 111.919 318.6 111.787 318.697C111.655 318.793 111.553 318.925 111.493 319.078C111.462 319.136 111.446 319.201 111.448 319.267C111.451 319.333 111.471 319.398 111.506 319.453C111.542 319.509 111.591 319.554 111.65 319.584C111.709 319.614 111.775 319.628 111.841 319.624C112.004 319.613 112.161 319.555 112.293 319.459C112.424 319.362 112.526 319.23 112.586 319.078Z" fill="#9E332E"/>
<path d="M36.2056 325.85C36.2056 325.85 61.5577 335.186 65.3668 334.995C67.8289 334.871 88.2942 327.677 88.2942 327.677L90.1315 331.153C90.1315 331.153 70.2121 343.956 64.7363 343.892C53.9248 343.767 35.6821 337.131 33.6235 335.826C31.5648 334.522 30.2227 327.17 36.2056 325.85Z" fill="#FFB27D"/>
<path d="M88.2944 327.677C88.2944 327.677 90.1318 324.85 91.961 324.767C93.7902 324.684 96.9502 326.014 98.0311 326.222C99.1122 326.43 102.189 327.428 101.274 328.925C100.359 330.421 96.1187 330.754 94.2892 330.421C92.46 330.089 90.1318 331.153 90.1318 331.153L88.2944 327.677Z" fill="#FFB27D"/>
<path d="M91.4629 324.854C91.4629 324.854 94.3723 323.52 95.2038 323.27C96.0353 323.021 95.869 323.274 95.6196 324.062C95.3701 324.85 93.8733 325.602 93.8733 325.85C93.8733 326.097 91.4629 324.854 91.4629 324.854Z" fill="#FFB27D"/>
<path d="M111.249 326.181C111.249 326.181 109.414 323.279 108.814 323.16C106.984 322.799 106.984 325.208 107.372 326.763C107.788 328.43 109.198 330.003 109.587 329.866C109.977 329.728 111.68 327.714 111.249 326.181Z" fill="#FFB27D"/>
<path d="M111.318 326.763C111.318 326.763 111.904 330.017 108.814 331.716L111.318 326.763Z" fill="#FFB27D"/>
<path d="M58.3256 314.738C58.3256 314.738 57.2357 314.307 54.1689 314.556C54.1689 314.556 54.332 315.752 56.5936 315.87C57.8748 315.937 58.3256 314.738 58.3256 314.738Z" fill="white"/>
<path d="M49.2672 330.454C49.2672 330.454 46.9996 337.632 39.2123 339.265C39.2123 339.265 26.353 335.304 32.7557 326.543C32.7557 326.543 39.0864 321.839 49.2672 330.454Z" fill="#B5453C"/>
<path d="M373.025 356.116H265.414V362.108H373.025V356.116Z" fill="#16254A"/>
</svg>
