<svg width="664" height="437" viewBox="0 0 664 437" fill="none" xmlns="http://www.w3.org/2000/svg">
<g clip-path="url(#clip0_100_5398)">
<path opacity="0.6" d="M663.95 374.956C664.019 393.953 663.076 412.934 661.127 431.779C660.676 436.095 624.159 431.082 623.651 435.33L395.801 436.304H-113.348V436.026L395.801 433.867L623.651 432.892C624.159 428.645 660.676 433.659 661.127 429.341C662.991 411.304 663.934 393.139 663.95 374.956V374.956Z" fill="#EBF3FA"/>
<g clip-path="url(#clip1_100_5398)">
<path d="M543.25 179.894V436.757H-81.9399V213.237H-34.016V152.234H13.9083V234.649H52.7057V216.234H120.29V247.366H149.703V177.45H228.437V57.5527H290.694V121.499H304.892V67.9321H367.148V150.446H423.573V99.8094H483.92V150.446H495.172V179.894H543.25Z" fill="#E8F0FD"/>
</g>
<path d="M583.502 118.738V432.77H534.271V60.5107C552.348 78.4434 568.821 97.9268 583.502 118.738V118.738Z" fill="#E8F0FD"/>
<path d="M76.0597 433.175H663.151C663.376 433.175 663.592 433.285 663.751 433.482C663.911 433.679 664 433.946 664 434.225V435.254C664 435.392 663.978 435.528 663.935 435.656C663.893 435.783 663.83 435.899 663.751 435.996C663.672 436.094 663.579 436.171 663.476 436.224C663.373 436.277 663.262 436.304 663.151 436.304H76.0597C75.8344 436.304 75.6184 436.193 75.4592 435.997C75.2999 435.8 75.2104 435.533 75.2104 435.254V434.225C75.2104 433.946 75.2999 433.679 75.4592 433.482C75.6184 433.285 75.8344 433.175 76.0597 433.175V433.175Z" fill="#2E3552"/>
<path d="M240.664 394.474C239.492 407.892 231.922 412.036 228.595 411.679C225.265 411.324 205.8 403.883 205.378 406.612C204.954 409.343 216.671 418.262 224.875 418.679C224.875 418.679 209.383 435.783 199.089 430.846C188.792 425.91 187.915 418.086 181.497 415.152C175.078 412.217 169.601 412.225 172.25 415.219C174.899 418.21 186.516 421.119 190.184 427.62C191.051 429.153 191.897 430.57 192.544 431.818L170.866 431.774C163.992 428.355 158.202 423.639 157.77 418.555C157.736 418.166 157.705 417.795 157.677 417.441L157.009 409.619C157.009 409.619 145.877 396.621 151.665 385.836C152.765 383.842 154.267 382.097 156.076 380.713C156.076 380.713 166.45 374.425 174.909 374.938C174.909 374.938 168.354 385.942 166.509 392.482C165.857 394.787 165.793 396.538 166.802 397.059C167.906 397.631 169.337 395.97 170.817 393.308C174.524 386.641 178.542 373.674 178.542 373.674C178.542 373.674 184.779 373.068 191.879 372.977C195.063 372.936 198.421 372.998 201.466 373.264C204.829 373.56 207.808 374.106 209.745 375.039C209.745 375.039 209.321 375.386 208.609 375.982C207.551 376.87 205.854 378.31 203.968 379.98C198.369 384.938 191.095 391.928 193.814 392.557C196.015 393.067 202.926 388.957 209.075 384.878C214.8 381.084 219.864 377.312 219.864 377.312C219.864 377.312 241.836 381.055 240.664 394.474Z" fill="#82B378"/>
<path d="M229.868 394.836C229.868 394.836 170.189 392.534 157.009 409.62C157.009 409.62 154.094 418.359 145.125 426.317L143.727 430.131C143.727 430.131 154.069 419.215 157.769 418.555C157.769 418.555 151.982 397.386 229.868 394.836Z" fill="#82B378"/>
<path d="M147.634 426.219C147.122 426.78 146.356 427.544 145.259 428.557L145.236 428.58C144.856 428.932 144.485 429.313 144.126 429.717C143.557 430.352 143.026 431.02 142.535 431.717L139.746 431.711C141.328 429.714 143.133 427.904 145.124 426.317C145.127 426.315 145.129 426.313 145.132 426.311C145.35 426.18 150.49 423.069 147.634 426.219Z" fill="#82B378"/>
<path d="M91.8603 387.389C91.8603 387.389 115.938 373.891 104.702 355.572C104.702 355.572 95.7128 344.323 86.0819 341.43C86.0819 341.43 91.2183 368.748 86.0819 369.391C80.9451 370.034 82.5506 338.538 82.5506 338.538C82.5506 338.538 57.1885 326.326 47.2364 327.289C47.2364 327.289 62.9672 353.964 57.8309 353.322C52.694 352.679 35.0374 325.682 35.0374 325.682C35.0374 325.682 9.03327 320.861 4.85957 336.288C0.686306 351.715 7.42826 359.428 11.2808 360.392C15.1328 361.356 39.8526 361.035 39.2106 364.249C38.5687 367.462 21.8747 372.605 12.5646 369.712C12.5646 369.712 22.8379 395.102 36.3212 393.817C49.8046 392.531 53.9783 384.175 62.3253 383.532C70.6723 382.889 76.7718 385.139 72.5986 387.389C68.4248 389.638 54.2991 388.126 47.5576 393.864C40.8157 399.602 35.3581 403.136 47.8788 405.708C60.3991 408.279 82.8713 406.672 87.3658 397.03L91.8603 387.389Z" fill="#A8D29F"/>
<path d="M16.7378 341.109C16.7378 341.109 84.1556 362.964 91.8602 387.389C91.8602 387.389 91.5394 398.316 98.2814 410.85V415.671C98.2814 415.671 91.2183 399.281 87.3657 397.031C87.3657 397.031 102.455 375.82 16.7378 341.109Z" fill="#82B378"/>
<path d="M104.526 431.665L100.674 431.658C100.552 426.079 99.9084 419.816 98.0066 415.046V415.043C97.7685 414.445 97.5126 413.873 97.2331 413.326L97.2255 413.308C96.426 411.741 95.8854 410.586 95.5441 409.75L95.5412 409.747C93.5698 404.909 98.2813 410.85 98.2813 410.85C102.022 417.177 104.165 424.322 104.526 431.665V431.665Z" fill="#82B378"/>
<path d="M130.166 368.773C130.166 368.773 98.4273 350.98 113.239 326.832C113.239 326.832 125.088 312.004 137.783 308.192C137.783 308.192 131.012 344.201 137.783 345.049C144.554 345.896 142.439 304.379 142.439 304.379C142.439 304.379 175.87 288.28 188.989 289.551C188.989 289.551 168.252 324.713 175.024 323.867C181.794 323.019 205.07 287.433 205.07 287.433C205.07 287.433 239.348 281.078 244.849 301.413C250.351 321.748 241.463 331.915 236.386 333.186C231.307 334.457 198.722 334.034 199.568 338.27C200.415 342.507 222.42 349.285 234.693 345.472C234.693 345.472 221.151 378.94 203.377 377.246C185.603 375.551 180.102 364.536 169.099 363.689C158.096 362.842 150.056 365.807 155.557 368.773C161.059 371.738 179.678 369.745 188.566 377.308C197.452 384.872 204.646 389.532 188.142 392.921C171.638 396.31 142.015 394.191 136.091 381.482L130.166 368.773Z" fill="#A8D29F"/>
<path d="M229.191 307.767C229.191 307.767 140.323 336.575 130.166 368.772C130.166 368.772 130.589 383.176 121.702 399.699V406.053C121.702 406.053 131.013 384.447 136.091 381.482C136.091 381.482 116.201 353.521 229.191 307.767Z" fill="#82B378"/>
<path d="M125.316 398.237C125.314 398.242 125.311 398.245 125.311 398.247C124.861 399.353 124.147 400.881 123.091 402.951C123.089 402.956 123.087 402.958 123.084 402.964C122.716 403.681 122.38 404.437 122.067 405.222C122.064 405.222 122.064 405.225 122.064 405.227C119.022 412.86 118.419 423.393 118.533 431.694L113.434 431.683C112.826 413.194 121.702 399.698 121.702 399.698L121.705 399.695C121.839 399.527 127.88 391.943 125.316 398.237Z" fill="#82B378"/>
<path d="M384.781 188.356C384.781 188.356 360.26 179.222 344.938 197.155C336.154 207.435 279.983 314.637 280.653 324.022C281.322 333.408 286.68 338.1 286.68 338.1C286.68 338.1 284.336 329.888 286.093 325.614C286.093 325.614 284.964 340.07 293.878 346.229C298.523 349.437 414.159 343.155 424.206 329.134C446.054 298.65 398.342 282.878 399.514 249.947C400.193 230.85 418.933 190.283 384.781 188.356Z" fill="#2C3A64"/>
<path d="M408.149 256.636L406.507 256.968C402.979 257.671 399.317 256.948 396.321 254.956C393.324 252.965 391.237 249.868 390.514 246.34L388.778 237.742C388.077 234.21 388.799 230.544 390.788 227.545C392.777 224.545 395.871 222.455 399.394 221.732L401.037 221.399C404.565 220.697 408.227 221.42 411.223 223.411C414.22 225.402 416.307 228.5 417.03 232.027L418.766 240.626C419.468 244.157 418.745 247.823 416.756 250.823C414.767 253.823 411.672 255.913 408.149 256.636V256.636Z" fill="#ED7D2B"/>
<path d="M513.066 431.61H436.345C423.333 410.931 411.892 383.006 409.225 361.261C407.955 350.944 408.663 342.02 412.108 335.921C422.825 316.972 405.825 294.724 405.825 294.724C405.825 294.724 429.229 301.355 434.668 320.672C440.213 340.351 455.094 405.807 455.094 405.807L512.062 417.537C514.738 424.244 513.066 431.61 513.066 431.61Z" fill="#F99746"/>
<path d="M513.066 431.61H436.345C423.333 410.931 411.892 383.006 409.225 361.261L420.606 357.772C420.606 357.772 435.004 423.57 443.377 424.576C451.744 425.582 513.066 431.61 513.066 431.61Z" fill="#ED7D2B"/>
<path d="M417.155 325.869C411.272 331.024 403.681 335.585 393.896 339.042C357.218 352.012 339.189 321.779 331.3 300.519C334.988 297.892 339.183 296.064 343.617 295.151C346.302 294.522 349.141 293.985 351.498 293.599C355.362 289.878 360.165 275.894 359.234 255.13L361.059 255.406L391.659 260.181C391.659 260.181 391.365 269.781 391.706 278.784C391.979 285.828 392.651 292.513 394.158 293.998C396.53 294.239 397.958 294.41 397.958 294.41C397.962 294.42 397.968 294.429 397.976 294.437C405.358 304.276 411.78 314.802 417.155 325.869Z" fill="#FFB27D"/>
<path d="M391.661 260.186C391.661 260.186 391.361 269.779 391.709 278.789C374.703 279.005 365.089 263.86 361.059 255.412L391.661 260.186Z" fill="#ED985F"/>
<path d="M431.74 357.772C431.655 358.43 423.479 385.047 423.393 385.716C420.556 407.999 415.418 431.776 415.418 431.776L404.183 431.756L330.039 431.61C330.039 431.61 338.983 404.591 315.389 363.167C314.615 361.809 313.807 360.437 312.963 359.049C309.603 353.523 330.805 294.451 330.805 294.451C330.805 294.451 340.088 292.808 353.111 291.757C354.341 292.883 363.387 326.011 379.759 327.022C401.129 328.339 393.028 291.425 393.028 291.425C401.732 293.175 404.871 293.814 416.045 299.173C416.045 299.173 432.192 354.137 431.74 357.772Z" fill="#F99746"/>
<path d="M397.252 268.962C397.252 268.962 357.058 270.649 356.393 245.575C355.729 220.501 350.094 203.832 375.729 201.694C401.363 199.556 406.605 208.992 408.86 217.307C411.115 225.622 407.69 267.877 397.252 268.962Z" fill="#FFB27D"/>
<path d="M388.51 255.522C388.51 255.522 388.951 258.502 395.563 258.569C395.563 258.569 401.115 258.626 401.146 255.391C401.146 255.391 395.929 252.677 388.51 255.522Z" fill="white"/>
<path d="M391.306 265.507C368.052 259.7 361.127 238.429 361.059 238.214L363.455 237.46L362.257 237.837L363.454 237.459C363.519 237.661 370.061 257.61 391.915 263.069C392.061 263.105 392.207 263.14 392.355 263.176L391.773 265.621C391.617 265.584 391.46 265.546 391.306 265.507Z" fill="#122544"/>
<path d="M393.994 267.039L391.801 266.491C391.263 266.356 390.801 266.012 390.515 265.536C390.23 265.06 390.144 264.491 390.277 263.952V263.952C390.413 263.414 390.756 262.951 391.231 262.665C391.706 262.379 392.275 262.293 392.814 262.426L395.006 262.974C395.544 263.11 396.006 263.453 396.292 263.929C396.577 264.405 396.663 264.975 396.53 265.514V265.514C396.395 266.052 396.052 266.515 395.576 266.8C395.101 267.086 394.532 267.172 393.994 267.039V267.039Z" fill="#2C3A64"/>
<path d="M374.478 186.095C374.478 186.095 400.358 182.05 411.065 203.62C419.215 220.038 412.419 230.29 409.224 233.433C409.224 233.433 404.997 209.85 397.086 207.838C397.086 207.838 391.987 206.281 388.51 210.328C385.033 214.375 380.003 232.421 374.227 235.187C374.227 235.187 356.293 239.62 355.414 233.355C354.535 227.09 355.025 207.587 359.545 204.445C364.065 201.303 374.478 186.095 374.478 186.095Z" fill="#2C3A64"/>
<path d="M366.306 256.636L364.663 256.969C361.135 257.671 357.473 256.948 354.477 254.957C351.48 252.966 349.393 249.868 348.67 246.341L346.935 237.742C346.233 234.211 346.955 230.545 348.944 227.545C350.934 224.545 354.028 222.455 357.551 221.732L359.194 221.4C362.721 220.697 366.383 221.42 369.38 223.412C372.376 225.403 374.464 228.5 375.187 232.028L376.922 240.626C377.624 244.158 376.901 247.824 374.912 250.823C372.923 253.823 369.829 255.913 366.306 256.636V256.636Z" fill="#ED7D2B"/>
<path d="M353.517 225.668C352.418 223.88 350.803 209.493 355.197 198.037C356.044 195.669 357.352 193.492 359.046 191.634C360.739 189.775 362.785 188.272 365.064 187.212C366.646 186.434 368.385 186.029 370.147 186.03L374.478 186.095C360.218 191.528 356.912 220.595 358.022 223.696C357.993 223.619 357.956 223.547 357.912 223.479L353.517 225.668Z" fill="#ED7D2B"/>
<path d="M362.442 248.217L361.623 248.382C359.865 248.733 358.041 248.372 356.548 247.38C355.055 246.388 354.015 244.845 353.655 243.087L352.79 238.803C352.44 237.043 352.8 235.217 353.792 233.722C354.783 232.227 356.324 231.186 358.08 230.826L358.898 230.66C360.656 230.31 362.48 230.671 363.973 231.663C365.466 232.655 366.506 234.198 366.866 235.956L367.731 240.24C368.081 241.999 367.721 243.826 366.73 245.32C365.739 246.815 364.197 247.856 362.442 248.217Z" fill="#F99746"/>
<path d="M330.039 431.611C330.039 431.611 338.983 404.591 315.389 363.167L324.178 352.176C324.178 352.176 339.737 396.295 359.183 409.161C378.589 421.997 401.425 419.317 404.183 431.756L330.039 431.611Z" fill="#ED7D2B"/>
<path d="M330.805 294.451C330.805 294.451 314.804 295.846 304.09 314.794C293.376 333.742 273.036 404.55 273.036 431.609H358.666C358.666 431.609 360.34 424.243 357.661 417.539L304.671 407.302C304.671 407.302 336.568 359.887 336.902 339.441C337.237 318.994 330.805 294.451 330.805 294.451Z" fill="#F99746"/>
<path d="M359.182 422.902C359.182 422.902 375.867 421.268 378.629 422.023C381.392 422.777 389.302 426.045 391.059 427.176C392.817 428.307 396.207 431.61 396.207 431.61C396.207 431.61 394.073 432.014 392.817 431.732C391.562 431.45 387.795 431.198 386.791 431.114C385.786 431.03 382.187 431.775 382.187 431.775H356.322L359.182 422.902Z" fill="#FFB27D"/>
<path d="M510.275 431.773H428.033C428.033 430.033 428.724 428.363 429.953 427.132C431.183 425.902 432.85 425.21 434.589 425.21H510.275V431.773Z" fill="#233862"/>
<path d="M637.188 342.104L606.692 431.774H478.715L510.04 342.104H637.188Z" fill="#233862"/>
<path d="M637.188 342.104L606.972 430.944L606.693 431.774H480.585L511.91 342.104H637.188Z" fill="#2B478B"/>
<path d="M570.51 386.111C569.72 389.537 566.305 392.314 562.883 392.314C559.461 392.314 557.327 389.537 558.117 386.111C558.907 382.685 562.322 379.908 565.744 379.908C569.167 379.908 571.301 382.685 570.51 386.111Z" fill="#F99746"/>
<path d="M637.188 342.104L606.972 430.944H549.031L619.679 342.104H637.188Z" fill="#233862"/>
</g>
<defs>
<clipPath id="clip0_100_5398">
<rect width="664" height="436" fill="white" transform="translate(0 0.304688)"/>
</clipPath>
<clipPath id="clip1_100_5398">
<rect width="393" height="399" fill="white" transform="translate(150 37.3047)"/>
</clipPath>
</defs>
</svg>
