<svg width="60" height="60" viewBox="0 0 60 60" fill="none" xmlns="http://www.w3.org/2000/svg">
<g clip-path="url(#clip0_150_3519)">
<path d="M9.375 30C9.375 15.6776 19.7203 4.23164 33.5156 2.55574C32.3663 2.41617 31.1932 2.34375 30 2.34375C14.4844 2.34375 2.34375 14.4844 2.34375 30C2.34375 45.5156 14.4844 57.6562 30 57.6562C30.6762 57.6562 31.3516 57.503 31.974 57.2136C18.9568 54.9027 9.375 43.7836 9.375 30Z" fill="#CEE1F2"/>
<path d="M26.5071 22.0584C26.4963 22.0524 26.4857 22.0463 26.4752 22.0401C23.0274 20.0287 22.0084 15.6225 23.8974 12.4131C25.882 9.01012 30.251 7.92239 33.5247 9.835C36.9737 11.8469 37.9887 16.2314 36.1025 19.4623C34.1504 22.8091 29.8863 23.9595 26.5071 22.0584ZM28.8213 17.9819C29.9697 18.6169 31.3784 18.2386 32.0442 17.1162C32.6795 15.9678 32.301 14.5589 31.1787 13.8932C30.0301 13.2579 28.6214 13.6361 27.9558 14.7586C27.3205 15.907 27.6988 17.3159 28.8213 17.9819ZM34.0781 18.2813H34.0793H34.0781Z" fill="#2F4F9E"/>
<path d="M12.4127 36.1025C8.96485 34.0911 7.94591 29.6849 9.83485 26.4755C11.8336 23.0484 16.2145 22 19.4622 23.8974C22.9112 25.9093 23.9262 30.2939 22.04 33.5247C20.0191 36.9892 15.6163 37.9828 12.4127 36.1025ZM14.7588 32.0443C15.9073 32.6793 17.316 32.301 17.9817 31.1786C18.617 30.0302 18.2385 28.6214 17.1162 27.9556C15.9677 27.3203 14.5588 27.6985 13.8933 28.821C13.258 29.9694 13.6363 31.3783 14.7588 32.0443ZM20.0156 32.3437H20.0168H20.0156Z" fill="#2F4F9E"/>
<path d="M40.5377 36.1025C37.0899 34.0911 36.0709 29.6849 37.9599 26.4755C39.9586 23.0484 44.3395 22 47.5872 23.8974C51.0362 25.9093 52.0512 30.2939 50.165 33.5247C48.1405 36.9955 43.7333 37.9781 40.5377 36.1025ZM42.8838 32.0443C44.0323 32.6793 45.4409 32.301 46.1067 31.1786C46.742 30.0302 46.3635 28.6214 45.2412 27.9556C44.0926 27.3203 42.6838 27.6985 42.0183 28.821C41.383 29.9694 41.7613 31.3783 42.8838 32.0443ZM48.1406 32.3437H48.1418H48.1406Z" fill="#2F4F9E"/>
<path d="M30 60C13.1775 60 0 46.8225 0 30C0 13.1775 13.1775 0 30 0C46.1884 0 59.1063 12.2542 59.9005 28.3741C59.9497 28.87 60 29.4391 60 30C60 34.3201 58.2832 38.8834 54.9101 42.1066C52.0086 44.8793 48.1562 46.4062 44.0625 46.4062H39.375C38.2386 46.4062 37.0312 47.2873 37.0312 48.75V52.9688C37.0312 57.0534 33.6986 60 30 60ZM30 4.6875C15.8061 4.6875 4.6875 15.8061 4.6875 30C4.6875 44.1939 15.8061 55.3125 30 55.3125C31.1366 55.3125 32.3438 54.4311 32.3438 52.9688V48.75C32.3438 47.5056 32.6501 46.3303 33.2544 45.2566C33.2632 45.2408 33.2722 45.2252 33.2815 45.2096C34.56 43.0564 36.8948 41.7188 39.375 41.7188H44.0625C50.6003 41.7188 55.3125 36.3083 55.3125 30C55.3125 16.0153 44.4487 4.6875 30 4.6875Z" fill="#2F4F9E"/>
<path d="M24.7399 50.4293C21.4999 49.5954 18.461 47.9677 15.9517 45.7221C14.9872 44.8589 14.9049 43.3772 15.7682 42.4126C16.6315 41.4481 18.1133 41.3659 19.0776 42.2291C21.0301 43.9763 23.392 45.2421 25.9083 45.8898C27.1619 46.2124 27.9166 47.4902 27.594 48.7438C27.2712 49.9972 25.9933 50.7519 24.7399 50.4293Z" fill="#F0822C"/>
<path d="M12.4127 36.1025C8.96485 34.0911 7.94591 29.6849 9.83485 26.4755C11.8336 23.0484 16.2145 22 19.4622 23.8974C22.9112 25.9093 23.9262 30.2939 22.04 33.5247C20.0191 36.9892 15.6163 37.9828 12.4127 36.1025ZM14.7588 32.0443C15.9073 32.6793 17.316 32.301 17.9817 31.1786C18.617 30.0302 18.2385 28.6214 17.1162 27.9556C15.9677 27.3203 14.5588 27.6985 13.8933 28.821C13.258 29.9694 13.6363 31.3783 14.7588 32.0443ZM20.0156 32.3437H20.0168H20.0156Z" fill="#2F4F9E"/>
<path d="M26.5071 22.0584C26.4963 22.0524 26.4857 22.0463 26.4752 22.0401C23.0274 20.0287 22.0084 15.6225 23.8974 12.4131C25.882 9.01012 30.251 7.92239 33.5247 9.835C36.9737 11.8469 37.9887 16.2314 36.1025 19.4623C34.1504 22.8091 29.8863 23.9595 26.5071 22.0584ZM28.8213 17.9819C29.9697 18.6169 31.3784 18.2386 32.0442 17.1162C32.6795 15.9678 32.301 14.5589 31.1787 13.8932C30.0301 13.2579 28.6214 13.6361 27.9558 14.7586C27.3205 15.907 27.6988 17.3159 28.8213 17.9819Z" fill="#2F4F9E"/>
<path d="M40.5377 36.1025C37.0899 34.0911 36.0709 29.6849 37.9599 26.4755C39.9586 23.0484 44.3395 22 47.5872 23.8974C51.0362 25.9093 52.0512 30.2939 50.165 33.5247C48.1405 36.9955 43.7333 37.9781 40.5377 36.1025ZM42.8838 32.0443C44.0323 32.6793 45.4409 32.301 46.1067 31.1786C46.742 30.0302 46.3635 28.6214 45.2412 27.9556C44.0926 27.3203 42.6838 27.6985 42.0183 28.821C41.383 29.9694 41.7613 31.3783 42.8838 32.0443Z" fill="#2F4F9E"/>
<path d="M40.5377 36.1025C37.0899 34.0911 36.0709 29.6849 37.9599 26.4755C39.9586 23.0484 44.3395 22 47.5872 23.8974C51.0362 25.9093 52.0512 30.2939 50.165 33.5247C48.1405 36.9955 43.7333 37.9781 40.5377 36.1025ZM42.8838 32.0443C44.0323 32.6793 45.4409 32.301 46.1067 31.1786C46.742 30.0302 46.3635 28.6214 45.2412 27.9556C44.0926 27.3203 42.6838 27.6985 42.0183 28.821C41.383 29.9694 41.7613 31.3783 42.8838 32.0443ZM48.1406 32.3437H48.1418H48.1406Z" fill="#2F4F9E"/>
</g>
<defs>
<clipPath id="clip0_150_3519">
<rect width="60" height="60" fill="white"/>
</clipPath>
</defs>
</svg>
