<svg width="60" height="60" viewBox="0 0 60 60" fill="none" xmlns="http://www.w3.org/2000/svg">
<g clip-path="url(#clip0_150_3547)">
<path d="M0.686528 46.0549C-0.228843 45.1395 -0.228843 43.6555 0.686528 42.7403L4.00113 39.4257C4.9165 38.5103 6.40048 38.5103 7.31573 39.4257C8.23099 40.341 8.2311 41.825 7.31573 42.7403L4.00113 46.0549C3.08588 46.9702 1.60178 46.9702 0.686528 46.0549Z" fill="#F0822C"/>
<path d="M13.9448 59.3135C13.0295 58.3982 13.0295 56.9142 13.9448 55.9989L17.2594 52.6843C18.1748 51.769 19.6588 51.769 20.574 52.6843C21.4893 53.5997 21.4894 55.0837 20.574 55.9989L17.2594 59.3135C16.3442 60.2288 14.8602 60.2288 13.9448 59.3135Z" fill="#F0822C"/>
<path d="M2.34375 57.6562C1.42838 56.741 1.42838 55.2569 2.34375 54.3416L8.97296 47.7123C9.88833 46.7969 11.3723 46.7969 12.2876 47.7123C13.2029 48.6275 13.2029 50.1116 12.2876 51.0269L5.65836 57.6562C4.7431 58.5715 3.25913 58.5715 2.34375 57.6562Z" fill="#F0822C"/>
<path d="M9.93977 20.3508C10.5695 19.721 11.3982 19.2901 12.1939 19.0912L56.9415 7.49002C57.1724 7.43986 57.4064 7.40845 57.6414 7.39193C57.7338 6.07565 57.2963 4.72914 56.2837 3.71661C55.0905 2.52339 53.4332 2.12564 51.9086 2.45706L7.16096 14.0583C6.36524 14.2572 5.53659 14.6881 4.90681 15.3178C3.0838 17.1408 3.0838 20.1242 4.90681 21.9472C5.37088 22.4112 5.93456 22.7758 6.49801 23.0078L8.57614 23.8199C8.53536 22.5673 8.98912 21.3013 9.93977 20.3508Z" fill="#CEE1F2"/>
<path d="M57.941 2.0593C56.2374 0.355708 53.796 -0.351768 51.4107 0.166681C51.3804 0.173243 51.3503 0.180392 51.3203 0.188243L6.58197 11.7871C3.43038 12.5799 1.1958 15.3315 1.1958 18.6325C1.1958 20.5144 1.92519 22.2801 3.24944 23.6044C3.91719 24.2722 4.73178 24.8153 5.60543 25.175C5.61855 25.1804 15.3063 28.9659 15.3063 28.9659L12.9898 38.5156C12.4063 40.9209 13.1021 43.4009 14.8507 45.1496C16.1921 46.4912 17.9639 47.2128 19.8023 47.2128C20.846 47.2128 21.4982 47.0072 22.6587 46.7257C23.9166 46.4205 24.689 45.1534 24.384 43.8954C24.0788 42.6375 22.8123 41.8649 21.5537 42.1702L20.3796 42.4549C19.5764 42.6497 18.7484 42.418 18.1653 41.8349C17.5821 41.2517 17.3503 40.4239 17.5452 39.6205L19.7122 30.6873L25.6413 33.004C25.9339 33.1272 26.2284 33.3249 26.4518 33.5481C26.6751 33.7715 26.8728 34.0661 26.9961 34.3587L34.8252 54.3946C35.1849 55.2681 35.7281 56.0828 36.3958 56.7506C37.7666 58.1214 39.5672 58.8067 41.3677 58.8067C43.1682 58.8067 44.9688 58.1212 46.3397 56.7506C47.2474 55.843 47.8961 54.687 48.2158 53.4074C48.2158 53.4074 59.8268 8.62018 59.8336 8.58936C60.3519 6.20408 59.6444 3.76289 57.941 2.0593ZM55.2609 7.55516L43.6475 52.3486C43.5279 52.7769 43.3187 53.1425 43.025 53.4362C42.1112 54.3502 40.6243 54.3501 39.7104 53.4363C39.4871 53.213 39.2895 52.9186 39.1663 52.6261C39.1663 52.6261 31.3425 32.6028 31.337 32.5895C30.9772 31.716 30.434 30.9014 29.7664 30.2337C29.0986 29.5659 28.284 29.0228 27.4105 28.6632C27.3974 28.6578 7.37406 20.8338 7.37406 20.8338C6.47697 20.4559 5.88328 19.6233 5.88328 18.6325C5.88328 17.5587 6.58396 16.6184 7.72914 16.3322C7.73582 16.3306 52.4446 4.73944 52.4446 4.73944C53.2515 4.57678 54.0647 4.81244 54.6262 5.37402C55.1877 5.93536 55.4235 6.74831 55.2609 7.55516Z" fill="#2F4F9E"/>
<path d="M44.6823 12.0032L33.0811 23.6044C32.1657 24.5197 32.1657 26.0038 33.0811 26.919C33.9964 27.8344 35.4804 27.8344 36.3957 26.919L47.9969 15.3178C48.9123 14.4026 48.9123 12.9185 47.9969 12.0032C47.0816 11.088 45.5977 11.088 44.6823 12.0032Z" fill="#2F4F9E"/>
</g>
<defs>
<clipPath id="clip0_150_3547">
<rect width="60" height="60" fill="white"/>
</clipPath>
</defs>
</svg>
