<svg width="60" height="60" viewBox="0 0 60 60" fill="none" xmlns="http://www.w3.org/2000/svg">
<path d="M11.25 52.9688V24.8438C11.25 22.255 13.3487 20.1562 15.9375 20.1562H8.90625C6.31746 20.1562 4.21875 22.255 4.21875 24.8438V52.9688C4.21875 55.5575 6.31746 57.6562 8.90625 57.6562H15.9375C13.3487 57.6562 11.25 55.5575 11.25 52.9688Z" fill="#CEE1F2"/>
<path d="M1.875 24.8438V52.9688C1.875 56.8458 5.02922 60 8.90625 60H32.3438C36.2208 60 39.375 56.8458 39.375 52.9688V50.625H51.0938C54.9708 50.625 58.125 47.4708 58.125 43.5938V7.03125C58.125 3.15422 54.9708 0 51.0938 0H27.6562C23.7792 0 20.625 3.15422 20.625 7.03125V10.7812C20.625 12.0757 21.6743 13.125 22.9688 13.125C24.2632 13.125 25.3125 12.0757 25.3125 10.7812V7.03125C25.3125 5.73891 26.3639 4.6875 27.6562 4.6875H51.0938C52.3861 4.6875 53.4375 5.73891 53.4375 7.03125V43.5938C53.4375 44.8861 52.3861 45.9375 51.0938 45.9375C49.8014 45.9375 48.75 44.8861 48.75 43.5938V24.8438C48.75 20.9667 45.5958 17.8125 41.7188 17.8125H8.90625C5.02922 17.8125 1.875 20.9667 1.875 24.8438ZM39.375 45.9375V24.8438C39.375 23.5514 40.4264 22.5 41.7188 22.5C43.0111 22.5 44.0625 23.5514 44.0625 24.8438V43.5938C44.0625 44.4154 44.2055 45.2039 44.4656 45.9375H39.375ZM6.5625 24.8438C6.5625 23.5514 7.61391 22.5 8.90625 22.5H35.0891C34.8291 23.2334 34.6875 24.0224 34.6875 24.8438V52.9688C34.6875 54.2611 33.6361 55.3125 32.3438 55.3125H8.90625C7.61391 55.3125 6.5625 54.2611 6.5625 52.9688V24.8438Z" fill="#2F4F9E"/>
<path d="M13.5938 31.875H27.6562C28.9507 31.875 30 30.8257 30 29.5312C30 28.2368 28.9507 27.1875 27.6562 27.1875H13.5938C12.2993 27.1875 11.25 28.2368 11.25 29.5312C11.25 30.8257 12.2993 31.875 13.5938 31.875Z" fill="#F0822C"/>
<path d="M13.5938 41.25H27.6562C28.9507 41.25 30 40.2007 30 38.9062C30 37.6118 28.9507 36.5625 27.6562 36.5625H13.5938C12.2993 36.5625 11.25 37.6118 11.25 38.9062C11.25 40.2007 12.2993 41.25 13.5938 41.25Z" fill="#F0822C"/>
<path d="M13.5938 50.625H27.6562C28.9507 50.625 30 49.5757 30 48.2812C30 46.9868 28.9507 45.9375 27.6562 45.9375H13.5938C12.2993 45.9375 11.25 46.9868 11.25 48.2812C11.25 49.5757 12.2993 50.625 13.5938 50.625Z" fill="#F0822C"/>
</svg>
