<svg width="60" height="60" viewBox="0 0 60 60" fill="none" xmlns="http://www.w3.org/2000/svg">
<path d="M9.375 46.4062V18.2812C9.375 13.1036 13.5723 8.90625 18.75 8.90625H11.7188C6.54105 8.90625 2.34375 13.1036 2.34375 18.2812V46.4062C2.34375 51.5839 6.54105 55.7812 11.7188 55.7812H18.75C13.5723 55.7812 9.375 51.5839 9.375 46.4062Z" fill="#CEE1F2"/>
<path d="M39.375 44.0625C40.6694 44.0625 41.7188 43.0132 41.7188 41.7188C41.7188 40.4243 40.6694 39.375 39.375 39.375C38.0806 39.375 37.0312 40.4243 37.0312 41.7188C37.0312 43.0132 38.0806 44.0625 39.375 44.0625Z" fill="#F0822C"/>
<path d="M39.375 25.3125C40.6694 25.3125 41.7188 24.2632 41.7188 22.9688C41.7188 21.6743 40.6694 20.625 39.375 20.625C38.0806 20.625 37.0312 21.6743 37.0312 22.9688C37.0312 24.2632 38.0806 25.3125 39.375 25.3125Z" fill="#2F4F9E"/>
<path d="M39.375 34.6875C40.6694 34.6875 41.7188 33.6382 41.7188 32.3438C41.7188 31.0493 40.6694 30 39.375 30C38.0806 30 37.0312 31.0493 37.0312 32.3438C37.0312 33.6382 38.0806 34.6875 39.375 34.6875Z" fill="#2F4F9E"/>
<path d="M48.75 25.3125C50.0444 25.3125 51.0938 24.2632 51.0938 22.9688C51.0938 21.6743 50.0444 20.625 48.75 20.625C47.4556 20.625 46.4062 21.6743 46.4062 22.9688C46.4062 24.2632 47.4556 25.3125 48.75 25.3125Z" fill="#2F4F9E"/>
<path d="M48.75 34.6875C50.0444 34.6875 51.0938 33.6382 51.0938 32.3438C51.0938 31.0493 50.0444 30 48.75 30C47.4556 30 46.4062 31.0493 46.4062 32.3438C46.4062 33.6382 47.4556 34.6875 48.75 34.6875Z" fill="#2F4F9E"/>
<path d="M30 34.6875C31.2944 34.6875 32.3438 33.6382 32.3438 32.3438C32.3438 31.0493 31.2944 30 30 30C28.7056 30 27.6562 31.0493 27.6562 32.3438C27.6562 33.6382 28.7056 34.6875 30 34.6875Z" fill="#2F4F9E"/>
<path d="M30 44.0625C31.2944 44.0625 32.3438 43.0132 32.3438 41.7188C32.3438 40.4243 31.2944 39.375 30 39.375C28.7056 39.375 27.6562 40.4243 27.6562 41.7188C27.6562 43.0132 28.7056 44.0625 30 44.0625Z" fill="#2F4F9E"/>
<path d="M16.4062 25.3125H21.0938C22.3882 25.3125 23.4375 24.2632 23.4375 22.9688C23.4375 21.6743 22.3882 20.625 21.0938 20.625H18.75V18.2812C18.75 16.9868 17.7007 15.9375 16.4062 15.9375C15.1118 15.9375 14.0625 16.9868 14.0625 18.2812V21.0281C11.3346 21.9956 9.375 24.6008 9.375 27.6562C9.375 31.5333 12.5292 34.6875 16.4062 34.6875C17.6986 34.6875 18.75 35.7389 18.75 37.0312C18.75 38.3236 17.6986 39.375 16.4062 39.375H11.7188C10.4243 39.375 9.375 40.4243 9.375 41.7188C9.375 43.0132 10.4243 44.0625 11.7188 44.0625H14.0625V46.4062C14.0625 47.7007 15.1118 48.75 16.4062 48.75C17.7007 48.75 18.75 47.7007 18.75 46.4062V43.6594C21.4779 42.6919 23.4375 40.0867 23.4375 37.0312C23.4375 33.1542 20.2833 30 16.4062 30C15.1139 30 14.0625 28.9486 14.0625 27.6562C14.0625 26.3639 15.1139 25.3125 16.4062 25.3125Z" fill="#2F4F9E"/>
<path d="M50.625 6.79816V4.21875C50.625 2.9243 49.5757 1.875 48.2812 1.875C46.9868 1.875 45.9375 2.9243 45.9375 4.21875V6.5625H32.3438V4.21875C32.3438 2.9243 31.2945 1.875 30 1.875C28.7055 1.875 27.6562 2.9243 27.6562 4.21875V6.5625H14.0625V4.21875C14.0625 2.9243 13.0132 1.875 11.7188 1.875C10.4243 1.875 9.375 2.9243 9.375 4.21875V6.79816C4.03254 7.88695 0 12.6219 0 18.2812V46.4062C0 52.868 5.25703 58.125 11.7188 58.125H48.2812C54.743 58.125 60 52.868 60 46.4062V18.2812C60 12.6219 55.9675 7.88695 50.625 6.79816ZM55.3125 46.4062C55.3125 50.2833 52.1583 53.4375 48.2812 53.4375H11.7188C7.84172 53.4375 4.6875 50.2833 4.6875 46.4062V18.2812C4.6875 14.4042 7.84172 11.25 11.7188 11.25H48.2812C52.1583 11.25 55.3125 14.4042 55.3125 18.2812V46.4062Z" fill="#2F4F9E"/>
</svg>
