<svg width="60" height="60" viewBox="0 0 60 60" fill="none" xmlns="http://www.w3.org/2000/svg">
<path d="M21.0938 6.5625H14.0625C10.1793 6.5625 7.03125 9.71051 7.03125 13.5938V44.0625H14.0625V13.5938C14.0625 9.71051 17.2105 6.5625 21.0938 6.5625Z" fill="#CEE1F2"/>
<path d="M44.0625 32.3438H41.7188V15.9375C41.7188 14.643 40.6695 13.5938 39.375 13.5938C38.0805 13.5938 37.0312 14.643 37.0312 15.9375V32.3438H32.3438V20.625C32.3438 19.3305 31.2945 18.2812 30 18.2812C28.7055 18.2812 27.6562 19.3305 27.6562 20.625V32.3438H22.9688V25.3125C22.9688 24.018 21.9195 22.9688 20.625 22.9688C19.3305 22.9688 18.2812 24.018 18.2812 25.3125V32.3438H15.9375C14.643 32.3438 13.5938 33.393 13.5938 34.6875C13.5938 35.982 14.643 37.0312 15.9375 37.0312H44.0625C45.357 37.0312 46.4062 35.982 46.4062 34.6875C46.4062 33.393 45.357 32.3438 44.0625 32.3438Z" fill="#F0822C"/>
<path d="M57.6562 41.7188H9.375V13.5938C9.375 11.0091 11.4778 8.90625 14.0625 8.90625H45.9375C48.5222 8.90625 50.625 11.0091 50.625 13.5938V34.6875C50.625 35.982 51.6743 37.0312 52.9688 37.0312C54.2632 37.0312 55.3125 35.982 55.3125 34.6875V13.5938C55.3125 8.42438 51.1069 4.21875 45.9375 4.21875H14.0625C8.89313 4.21875 4.6875 8.42438 4.6875 13.5938V41.7188H2.34375C1.0493 41.7188 0 42.768 0 44.0625V48.75C0 52.627 3.15422 55.7812 7.03125 55.7812H52.9688C56.8458 55.7812 60 52.627 60 48.75V44.0625C60 42.768 58.9507 41.7188 57.6562 41.7188ZM55.3125 48.75C55.3125 50.0423 54.2611 51.0938 52.9688 51.0938H7.03125C5.73891 51.0938 4.6875 50.0423 4.6875 48.75V46.4062H55.3125V48.75Z" fill="#2F4F9E"/>
</svg>
