<svg width="60" height="60" viewBox="0 0 60 60" fill="none" xmlns="http://www.w3.org/2000/svg">
<g clip-path="url(#clip0_150_3496)">
<path d="M27.6562 30C27.6562 26.0726 30.0832 22.7047 33.5156 21.3113C32.4292 20.8702 31.243 20.625 30 20.625C24.8296 20.625 20.625 24.8296 20.625 30C20.625 35.1704 24.8296 39.375 30 39.375C31.243 39.375 32.4292 39.1298 33.5156 38.6889C30.0832 37.2953 27.6562 33.9274 27.6562 30Z" fill="#CEE1F2"/>
<path d="M30 60C28.7055 60 27.6562 58.9507 27.6562 57.6562C27.6562 56.3618 28.7055 55.3125 30 55.3125C44.1939 55.3125 55.3125 44.194 55.3125 30C55.3125 15.806 44.1939 4.6875 30 4.6875C15.806 4.6875 4.6875 15.806 4.6875 30C4.6875 31.2945 3.6382 32.3438 2.34375 32.3438C1.0493 32.3438 0 31.2945 0 30C0 13.1776 13.1776 0 30 0C46.8225 0 60 13.1776 60 30C60 46.8224 46.8225 60 30 60Z" fill="#2F4F9E"/>
<path d="M30 51.0938C18.3689 51.0938 8.90625 41.6311 8.90625 30C8.90625 18.3689 18.3689 8.90625 30 8.90625C41.6311 8.90625 51.0938 18.3689 51.0938 30C51.0938 31.2945 50.0445 32.3438 48.75 32.3438C47.4555 32.3438 46.4062 31.2945 46.4062 30C46.4062 20.9536 39.0464 13.5938 30 13.5938C20.9536 13.5938 13.5938 20.9536 13.5938 30C13.5938 39.0464 20.9536 46.4062 30 46.4062C31.2945 46.4062 32.3438 47.4555 32.3438 48.75C32.3438 50.0445 31.2945 51.0938 30 51.0938Z" fill="#F0822C"/>
<path d="M30 41.7188C23.5383 41.7188 18.2812 36.4617 18.2812 30C18.2812 23.5383 23.5383 18.2812 30 18.2812C36.4618 18.2812 41.7188 23.5383 41.7188 30C41.7188 36.4617 36.4618 41.7188 30 41.7188ZM30 22.9688C26.123 22.9688 22.9688 26.123 22.9688 30C22.9688 33.877 26.123 37.0312 30 37.0312C33.877 37.0312 37.0312 33.877 37.0312 30C37.0312 26.123 33.877 22.9688 30 22.9688Z" fill="#2F4F9E"/>
</g>
<defs>
<clipPath id="clip0_150_3496">
<rect width="60" height="60" fill="white"/>
</clipPath>
</defs>
</svg>
