<svg width="481" height="311" viewBox="0 0 481 311" fill="none" xmlns="http://www.w3.org/2000/svg">
<path d="M436.321 257.309C445.078 307.971 331.717 305.812 281.943 286.977C266.617 281.178 252.75 279.43 238.973 279.992C225.2 280.553 211.518 283.42 196.558 286.853C195.214 287.161 193.86 287.474 192.496 287.791C189.408 288.506 186.258 289.233 183.047 289.974C167.918 293.431 151.255 296.941 131.866 298.982C129.613 299.219 127.395 299.372 125.214 299.44C95.1613 300.395 72.2237 285.715 60.0886 264.205C47.3592 241.647 46.5126 211.576 61.7987 184.153C92.7163 128.687 57.9992 106.614 64.5078 62.8082C71.0165 19.0003 131.856 7.06836 177.418 24.9451C222.982 42.8218 288.896 10.4919 288.896 10.4919C311.781 1.32505 329.899 -1.47717 344.421 0.70021C360.422 3.09952 372.059 11.5418 380.903 24.173C383.215 27.4988 385.297 30.9785 387.136 34.5878C391.099 42.2952 397.259 46.3792 404.56 48.7395C419.057 53.4263 438.053 51.3182 453.275 57.3003C461.864 60.6765 469.252 66.628 473.952 77.8302C503.886 149.175 413.461 125.072 436.321 257.309Z" fill="#DAE6FF"/>
<path d="M158.398 104.7C158.395 104.7 156.711 104.882 156.152 104.821C154.425 104.633 148.596 104.185 139.241 98.1862C138.201 97.5196 137.084 97.0391 136.083 96.4511C128.172 91.81 128.297 93.319 120.64 92.3321C120.25 92.3431 119.862 92.3962 119.483 92.4905C117.446 92.8905 112.988 93.9941 107.087 95.372C101.275 96.7285 94.0639 98.3515 86.3858 99.8267C84.9198 100.108 83.4201 100.399 81.8868 100.699C71.8774 86.7496 63.182 73.6953 56.1965 62.0309C64.5591 61.5822 72.6672 61.1462 80.1255 60.7424C88.3375 60.296 95.3397 59.9021 101.067 59.5736C110.811 59.0145 116.866 58.6423 118.909 58.5243C121.681 58.3637 128.76 56.6021 136.665 54.661C147.38 52.028 159.611 49.0665 164.683 49.3171C166.732 49.4194 169.454 50.6581 172.303 52.3571C174.653 53.7584 168.035 60.0757 174.131 63.9831C177.972 66.4442 190.348 80.0907 186.949 81.2498C193.68 84.6173 185.749 87.0844 185.738 87.0874C184.355 87.5616 179.651 95.6575 178.523 96.0553C176.417 96.7964 167.519 82.4391 166.934 82.7233C166.808 82.7853 168.334 83.6303 168.302 83.6643C168.11 83.8618 170.918 81.8453 170.73 82.0397L170.728 82.0407C169.999 82.7903 169.305 83.5039 168.654 84.1688C168.631 84.1928 168.607 84.2154 168.585 84.2384C168.26 84.5696 167.948 84.887 167.649 85.1905C167.595 85.246 167.541 85.2991 167.488 85.3538C166.23 86.6375 165.233 87.6436 164.643 88.2399C164.597 88.288 164.551 88.3336 164.512 88.3726C164.206 88.6803 164.042 88.8457 164.042 88.8457C164.042 88.8457 165.999 90.297 166.623 92.4545C166.838 93.1705 166.871 93.9289 166.719 94.6609C166.673 94.8766 166.613 95.0891 166.54 95.2969C166.465 95.505 166.054 96.3318 165.463 97.4524C165.451 97.4735 165.44 97.4935 165.429 97.5161C163.648 100.876 159.33 104.959 158.398 104.7Z" fill="#FFA089"/>
<path d="M146.404 69.1141C146.452 69.2053 147.634 71.3639 151.077 72.7411C154.229 74.0017 159.96 74.7997 169.365 71.4436L169.245 71.1078C164.124 72.9353 156.843 74.6468 151.239 72.4221C147.903 71.0974 146.73 68.9676 146.718 68.9463L146.404 69.1141Z" fill="#E87765"/>
<path d="M0 62.5404C20.8824 59.5088 98.1633 45.5631 100.225 52.8805C100.818 55.0591 101.1 57.3105 101.062 59.5679C100.932 67.7286 97.0144 73.8538 102.663 82.8691C107.411 90.4547 107.085 95.214 107.076 95.3683C107.115 100.038 104.558 103.082 99.9417 103.545C98.5152 103.699 34.4263 115.07 25.3947 116.469C22.4327 112.012 19.5632 107.442 16.8339 102.752C9.05614 89.7109 2.87975 75.7021 0 62.5404Z" fill="#F07F2A"/>
<path d="M136.665 54.6602C142.855 62.6401 167.517 69.9653 173.722 67.7266C177.897 66.2205 187.138 69.5205 190.718 71.2071C198.436 74.8425 201.985 76.9808 206.061 75.191C208.362 74.1808 208.142 72.1068 207.278 70.8476C206.485 69.6893 204.715 68.5824 202.242 67.2303C201.736 66.9556 193.574 60.1088 193.014 59.8118C186.723 56.4641 170.079 49.0593 170.079 49.0593C162.736 46.8275 136.665 54.6602 136.665 54.6602Z" fill="#FFA089"/>
<path d="M202.242 67.23C201.799 67.6833 201.497 68.2557 201.373 68.8775C200.963 70.7728 205.246 72.5186 205.878 72.6835C206.313 72.7988 206.935 71.5987 207.278 70.8473C206.485 69.689 204.715 68.582 202.242 67.23Z" fill="#E04C38"/>
<path d="M291.781 161.765C291.781 160.554 291.454 159.365 290.834 158.324C290.213 157.284 289.324 156.43 288.258 155.854C283.227 153.132 272.763 148.544 260.578 149.371C247.023 150.292 239.635 177.308 239.635 177.308C239.635 177.308 251.504 181.931 261.738 176.44C275.554 169.025 277.89 164.431 289.83 165.628C290.226 165.666 290.621 165.556 290.94 165.319C291.259 165.082 291.478 164.735 291.555 164.345C291.715 163.495 291.791 162.631 291.781 161.765Z" fill="#483CDD"/>
<path d="M205.459 70.6035C203.495 68.5834 200.912 67.2762 198.121 66.8885C195.33 66.5009 192.489 67.0549 190.048 68.4631L171.01 79.4457C169.844 80.1184 168.847 81.0483 168.095 82.1647C167.343 83.281 166.856 84.5543 166.671 85.8875C166.486 87.2206 166.608 88.5785 167.027 89.8574C167.446 91.1364 168.152 92.3027 169.091 93.2675L184.562 109.173L214.577 79.9775L205.459 70.6035ZM204.819 83.229L184.097 96.8387C183.454 97.2266 182.697 97.3832 181.953 97.2828C181.209 97.1823 180.522 96.8308 180.005 96.2863L174.477 90.4638C174.028 89.9911 173.689 89.4253 173.483 88.8067C173.277 88.188 173.21 87.5316 173.287 86.8842C173.363 86.2368 173.582 85.6141 173.926 85.0605C174.27 84.5069 174.732 84.036 175.279 83.6811L192.766 72.3359C195.191 70.874 197.336 71.3254 199.833 74.0846L205.206 79.4708C205.462 79.7268 205.657 80.0366 205.778 80.3775C205.899 80.7184 205.942 81.082 205.905 81.4418C205.868 81.8016 205.751 82.1487 205.564 82.4578C205.376 82.7669 205.121 83.0304 204.819 83.229Z" fill="#2E22AE"/>
<path d="M258.28 165.724C238.411 185.174 206.355 184.815 186.932 164.92C167.446 144.963 167.866 112.987 187.851 93.5484C196.078 85.5218 206.81 80.561 218.255 79.4948C219.036 79.4208 219.819 79.3652 220.604 79.3281L273.287 133.49C273.229 134.273 273.151 135.054 273.055 135.834C271.679 147.19 266.466 157.735 258.28 165.724Z" fill="#3529BB"/>
<path d="M170.105 149.545L201.622 181.947C201.897 182.229 202.233 182.444 202.605 182.575C202.977 182.706 203.374 182.749 203.765 182.701C204.156 182.653 204.531 182.515 204.86 182.298C205.189 182.081 205.463 181.791 205.662 181.45L207.8 177.777L174.379 143.417L170.666 145.547C170.328 145.741 170.039 146.009 169.82 146.332C169.602 146.655 169.46 147.023 169.406 147.409C169.352 147.794 169.387 148.188 169.508 148.558C169.629 148.928 169.834 149.266 170.105 149.545Z" fill="#483CDD"/>
<path d="M273.055 135.834L218.255 79.4948C219.036 79.4208 219.819 79.3652 220.604 79.3281L273.287 133.49C273.229 134.273 273.151 135.054 273.055 135.834Z" fill="#100259"/>
<path d="M218.7 77.371L275.19 135.448C275.46 135.726 275.809 135.914 276.189 135.988C276.569 136.063 276.963 136.019 277.317 135.863C277.672 135.708 277.971 135.448 278.174 135.118C278.377 134.788 278.474 134.404 278.452 134.017C277.653 119.656 271.553 105.069 260.26 93.4583C248.966 81.8477 234.553 75.3459 220.221 74.1496C219.835 74.1175 219.448 74.2041 219.112 74.3977C218.777 74.5913 218.509 74.8827 218.343 75.233C218.178 75.5832 218.123 75.9757 218.187 76.3577C218.251 76.7398 218.429 77.0933 218.7 77.371Z" fill="#483CDD"/>
<path d="M269.59 90.208C269.699 87.0125 267.197 84.334 264.001 84.2252C260.806 84.1165 258.127 86.6188 258.019 89.8142C257.91 93.0097 260.412 95.6882 263.608 95.797C266.803 95.9057 269.482 93.4034 269.59 90.208Z" fill="#483CDD"/>
<path d="M268.211 90.3744C268.518 90.0063 268.689 89.5432 268.693 89.0638C268.698 88.5844 268.537 88.1181 268.237 87.744C267.723 87.0759 266.905 86.6191 266.34 87.2451C265.775 87.871 266.635 88.0218 266.477 89.5612C266.399 90.3302 267.646 91.0003 268.211 90.3744Z" fill="#827CFF"/>
<path d="M189.854 103.584L191.333 102.758C194.247 101.17 193.486 96.2205 190.379 91.1827L182.797 78.9273C179.611 73.762 176.713 71.7658 173.411 72.6844C172.747 72.8931 172.127 73.2223 171.582 73.6555C168.977 75.7771 168.532 79.0811 171.719 84.2464L179.556 97.0784C182.664 102.116 186.939 105.172 189.854 103.584Z" fill="#EF9684"/>
<path d="M175.932 107.462L177.487 106.211C180.26 103.975 178.892 99.3023 175.154 95.0546L165.278 83.8321C161.446 79.4766 157.273 77.5082 154.052 79.2872C153.406 79.6566 152.829 80.1361 152.349 80.704C149.998 83.4635 151.147 87.7794 154.98 92.1348L164.856 103.357C168.593 107.605 173.158 109.698 175.932 107.462Z" fill="#EF9684"/>
<path d="M166.487 113.569L167.613 112.487C169.806 110.377 168.954 106.726 166.236 103.741L160.37 97.8897C158.111 95.5696 154.835 93.0012 151.721 95.4925C147.96 98.5003 150.631 103.59 152.01 104.897L158.092 111.576C160.81 114.561 164.294 115.679 166.487 113.569Z" fill="#EF9684"/>
<path d="M173.356 74.7283C175.611 73.3727 177.367 74.7803 178.512 76.7435L179.957 79.2212C180.503 80.1583 180.29 81.2587 179.483 81.6666L176.605 83.1216C175.711 83.574 174.483 83.0941 173.877 82.0551L172.232 79.2341C171.256 77.5617 172.349 75.3336 173.356 74.7283Z" fill="#E04C38"/>
<path d="M196.875 94.8329C197.142 94.6866 198.817 93.6872 198.817 93.6872C201.187 92.1999 200.162 88.3229 197.503 84.5179L191.553 76.005C188.827 72.1039 187.117 69.7012 184.244 70.4862C183.483 70.6942 182.178 71.5748 181.588 72.169C179.067 74.7045 180.921 77.7533 183.648 81.6545L188.703 90.0407C191.363 93.8455 194.415 96.1777 196.875 94.8329Z" fill="#EF9684"/>
<path d="M153.943 81.62L154.112 81.4403C155.646 79.8167 157.981 79.6695 159.302 81.1132L161.039 83.0113C161.669 83.7003 161.586 84.8981 160.855 85.673L158.328 88.3483C157.517 89.2075 156.281 89.2854 155.582 88.5213L153.614 86.3709C152.489 85.1409 152.637 83.0031 153.943 81.62Z" fill="#E04C38"/>
<path d="M152.762 96.7046L152.706 96.7508C151.262 97.9439 150.993 99.9748 152.107 101.264L154.038 103.498C154.57 104.114 155.569 104.151 156.258 103.582L158.532 101.701C159.296 101.07 159.439 99.9952 158.849 99.313L156.723 96.8532C155.774 95.7551 153.991 95.6882 152.762 96.7046Z" fill="#E04C38"/>
<path d="M184.823 73.7883L185.267 73.6328C186.796 73.0965 188.609 73.9946 189.296 75.6286L190.079 77.4914C190.407 78.2713 190.077 79.1188 189.348 79.3747L186.553 80.3545C185.744 80.6384 184.784 80.1631 184.421 79.2983L183.518 77.1499C182.933 75.7579 183.52 74.2452 184.823 73.7883Z" fill="#E04C38"/>
<path d="M162.316 80.7021L162.023 80.9663L176.419 96.9235L176.711 96.6593L162.316 80.7021Z" fill="#E87765"/>
<path d="M180.63 75.47L180.296 75.6792L191.318 93.2867L191.652 93.0774L180.63 75.47Z" fill="#E87765"/>
<path d="M157.996 95.2603L157.715 95.5371L169.045 107.035L169.326 106.758L157.996 95.2603Z" fill="#E87765"/>
<path d="M154.838 108.295L155.13 108.03C154.289 107.106 151.145 103.394 151.113 103.357L150.812 103.612C150.844 103.649 153.992 107.366 154.838 108.295Z" fill="#E87765"/>
<path d="M326.585 184.55L258.727 190.711C258.54 190.727 258.358 190.781 258.192 190.868C258.025 190.956 257.878 191.075 257.757 191.219C257.637 191.363 257.546 191.53 257.491 191.709C257.435 191.889 257.415 192.077 257.432 192.264L257.996 198.48C258.536 204.426 260.177 210.22 262.835 215.566L275.544 241.126C275.905 241.851 276.476 242.451 277.183 242.846C277.89 243.241 278.7 243.413 279.506 243.34L315.622 240.061C316.429 239.988 317.194 239.673 317.819 239.157C318.443 238.641 318.897 237.949 319.121 237.17L327.02 209.739C328.672 204.002 329.243 198.007 328.703 192.061L328.138 185.846C328.104 185.468 327.921 185.119 327.63 184.876C327.338 184.633 326.962 184.516 326.585 184.55Z" fill="#A8D29F"/>
<path d="M319.307 227.146L318.929 222.987C327.946 222.168 339.653 212.88 343.017 203.875C344.422 200.113 344.081 197.107 342.003 194.945C340.26 193.127 338.409 192.319 336.347 192.471C336.31 192.472 336.271 192.476 336.233 192.479C331.365 192.921 326.332 198.589 324.792 200.754L321.391 198.336C321.661 197.953 328.093 189.025 335.857 188.32C335.918 188.314 335.979 188.311 336.04 188.305C339.374 188.06 342.392 189.32 345.017 192.05C348.208 195.375 348.888 200.092 346.929 205.336C343.024 215.793 329.857 226.188 319.307 227.146Z" fill="#A8D29F"/>
<path d="M328.074 185.505C328.154 186.341 326.587 187.285 323.773 188.243C317.856 190.258 306.426 192.338 293.207 193.615C280.356 194.856 269.02 195.029 262.708 194.262C259.441 193.864 257.519 193.213 257.434 192.328C257.183 189.732 272.794 186.101 292.3 184.217C311.806 182.333 327.823 182.91 328.074 185.505Z" fill="#82B378"/>
<path d="M318.955 237.181C319.155 238.029 318.35 238.93 316.773 239.804C313.456 241.643 306.723 243.362 298.734 244.209C290.966 245.033 283.949 244.827 279.888 243.841C277.785 243.329 276.473 242.607 276.261 241.709C275.64 239.077 284.693 235.93 296.482 234.68C308.272 233.43 318.333 234.55 318.955 237.181Z" fill="#A8D29F"/>
<path d="M323.773 188.243C323.63 188.292 323.482 188.342 323.333 188.391C323.111 188.462 322.883 188.535 322.648 188.607C316.476 190.505 305.632 192.415 293.208 193.615C281.615 194.734 271.256 194.985 264.706 194.461C263.994 194.404 263.328 194.337 262.708 194.262C268.623 192.245 280.054 190.166 293.276 188.888C305.988 187.661 317.22 187.479 323.57 188.219C323.638 188.227 323.706 188.236 323.773 188.243Z" fill="#0B0755"/>
<path d="M323.773 188.242L323.333 188.39L322.648 188.606C322.345 188.434 321.619 188.19 320.074 188.411C317.83 188.731 314.345 188.497 313.981 188.377C313.616 188.258 310.248 188.99 309.067 188.714C308.257 188.525 307.033 187.931 305.006 188.554C302.978 189.178 299.835 189.06 299.311 188.805C298.788 188.55 282.237 190.192 280.458 191.175C278.68 192.157 271.675 191.975 270.464 192.514C269.253 193.053 267.199 193.388 266.763 193.304C266.475 193.248 265.398 193.969 264.706 194.46C263.994 194.403 263.328 194.337 262.708 194.262C268.623 192.245 280.054 190.165 293.276 188.888C305.988 187.661 317.423 187.502 323.773 188.242Z" fill="#82B378"/>
<path d="M382.972 258.336C382.525 257.799 382.221 257.473 382.08 257.386C374.741 252.861 375.91 251.639 365.782 250.107C364.5 249.913 363.192 249.545 361.821 249.393C349.486 248.024 344.111 244.316 342.481 243.266C341.953 242.926 340.619 241.583 340.616 241.582C339.626 241.151 338.747 234.573 339.563 230.405C339.57 230.377 339.574 230.352 339.579 230.326C339.853 228.938 340.078 227.931 340.16 227.698C340.242 227.466 340.339 227.24 340.451 227.021C340.834 226.278 341.395 225.643 342.085 225.173C344.143 223.739 346.862 223.855 346.862 223.855C346.862 223.855 346.836 223.596 346.786 223.114C346.78 223.053 346.772 222.981 346.766 222.907C346.673 221.975 345.212 222.207 345.022 220.209C345.015 220.124 343.709 222.278 346.374 219.926C346.73 219.612 337.068 221.845 337.019 221.329C337.016 221.293 337.821 218.042 337.818 218.005C337.72 216.97 345.947 214.413 345.841 213.249L345.841 213.247C345.814 212.947 345.787 212.642 345.758 212.335C345.737 212.233 345.701 212.135 345.652 212.043C345.344 211.385 344.404 209.796 343.098 207.672C342.398 206.534 328.973 201.395 328.968 201.384C357.274 198.939 362.313 185.944 365.337 186.38C369.005 186.908 372.238 187.746 374.088 189.097C378.665 192.444 387.2 203.612 394.648 213.427C400.145 220.668 405.051 227.173 407.343 229.26C409.034 230.799 414.027 235.377 422.092 242.712C426.831 247.022 432.632 252.285 439.445 258.445C441.391 260.203 443.387 262.006 445.433 263.854C441.812 272.947 435.013 280.788 426.397 287.161C421.057 288.746 415.536 290.321 409.833 291.885C408.714 290.55 407.617 289.244 406.541 287.966C400.914 281.289 395.797 274.812 391.705 269.549C387.553 264.206 384.459 260.115 382.972 258.336Z" fill="#FF9280"/>
<path d="M381.173 229.107C381.755 229.152 382.34 229.121 382.914 229.015L382.829 228.64C382.803 228.647 380.178 229.206 376.813 227.466C373.695 225.853 369.286 221.882 365.989 212.12L365.625 212.243C367.471 217.71 370.886 224.851 376.665 227.822C378.061 228.561 379.597 228.999 381.173 229.107Z" fill="#E87765"/>
<path d="M391.714 269.56C391.716 269.558 391.716 269.555 391.719 269.553C391.874 269.34 392.043 269.138 392.225 268.947C394.719 266.214 398.79 263.709 404.331 261.807C415.57 257.954 416.477 249.888 422.094 242.713L422.099 242.709C423.012 241.536 424.024 240.444 425.126 239.446C425.885 238.747 426.687 238.096 427.526 237.495C429.316 236.229 440.624 245.343 451.664 255.89C449.436 277.651 426.184 291.014 403.041 299.484C399.485 293.698 395.859 287.759 392.163 281.665C389.475 277.238 388.403 273.584 391.714 269.56Z" fill="#699DEE"/>
<path d="M394.649 213.428C394.649 213.428 379.742 184.971 360.833 171.843C358.249 170.049 355.42 165.523 352.474 160.518C351.246 158.431 349.998 156.262 348.739 154.173C348.567 153.886 348.394 153.601 348.222 153.319C346.04 149.75 335.492 158.026 346.534 173.183C349.135 176.757 358.638 188.462 353.303 198.722C349.906 205.259 383.669 216.003 394.649 213.428Z" fill="#FF9280"/>
<path d="M323.082 217.311L322.501 215.51C321.327 211.994 325.716 208.527 332.09 206.775L347.614 202.529C354.15 200.732 358.037 201.306 360.037 204.569C360.421 205.245 360.677 205.986 360.793 206.755C361.307 210.472 359.156 213.511 352.621 215.307L336.449 219.83C330.075 221.583 324.255 220.827 323.082 217.311Z" fill="#FFA089"/>
<path d="M328.75 231.726L328.081 229.898C326.89 226.635 330.994 223.232 337.019 221.328L352.937 216.298C359.115 214.345 364.152 214.627 366.033 217.707C366.402 218.334 366.641 219.028 366.737 219.749C367.22 223.265 363.535 226.462 357.357 228.415L341.439 233.445C335.414 235.349 329.94 234.989 328.75 231.726Z" fill="#FFA089"/>
<path d="M334.111 240.489L333.858 239.048C333.366 236.237 337.032 233.468 341.995 232.115L352.247 229.706C356.248 228.72 361.429 227.978 362.52 231.533C363.838 235.825 357.284 239.017 354.928 239.524L343.823 242.551C338.86 243.904 334.603 243.299 334.111 240.489Z" fill="#FFA089"/>
<path d="M358.526 206.282C357.715 203.458 355.208 203.272 352.779 204.005L349.712 204.931C348.552 205.281 347.889 206.342 348.238 207.29L349.483 210.669C349.87 211.72 351.238 212.262 352.524 211.874L356.016 210.82C358.086 210.196 358.888 207.543 358.526 206.282Z" fill="#FFB0A1"/>
<path d="M324.002 204.815C323.895 204.492 323.287 202.4 323.287 202.4C322.482 199.381 326.27 196.992 331.339 195.906L342.681 193.476C347.878 192.363 351.105 191.7 352.855 194.528C353.319 195.278 353.715 196.99 353.746 197.926C353.876 201.916 350.04 202.997 344.843 204.11L334.328 207.117C329.259 208.203 324.989 207.786 324.002 204.815Z" fill="#FFA089"/>
<path d="M364.598 219.951L364.554 219.722C364.152 217.652 362.11 216.467 360.016 217.091L357.262 217.91C356.262 218.207 355.601 219.259 355.793 220.247L356.455 223.659C356.667 224.755 357.748 225.382 358.857 225.052L361.976 224.124C363.761 223.593 364.94 221.715 364.598 219.951Z" fill="#FFB0A1"/>
<path d="M360.416 232.164L360.433 232.228C360.889 233.877 360.089 235.571 358.654 235.994L356.168 236.728C355.484 236.93 354.746 236.451 354.528 235.664L353.81 233.066C353.569 232.194 353.993 231.297 354.752 231.073L357.488 230.266C358.71 229.905 360.028 230.76 360.416 232.164Z" fill="#FFB0A1"/>
<path d="M352.647 196.909L352.497 196.406C351.981 194.672 349.981 193.62 348.053 194.069L345.855 194.581C344.935 194.796 344.384 195.648 344.631 196.476L345.575 199.646C345.848 200.564 346.907 201.12 347.927 200.882L350.462 200.292C352.104 199.909 353.087 198.387 352.647 196.909Z" fill="#FFB0A1"/>
<path d="M333.268 222.553C333.281 222.554 333.294 222.552 333.306 222.549L356.295 215.653C356.322 215.645 356.345 215.626 356.359 215.601C356.373 215.575 356.376 215.546 356.367 215.518C356.359 215.491 356.34 215.468 356.315 215.454C356.29 215.441 356.26 215.438 356.233 215.446L333.244 222.342C333.219 222.349 333.198 222.365 333.184 222.386C333.17 222.407 333.164 222.432 333.167 222.458C333.17 222.483 333.182 222.506 333.2 222.524C333.219 222.541 333.243 222.552 333.268 222.553Z" fill="#E87765"/>
<path d="M329.657 207.673C329.669 207.674 329.68 207.672 329.691 207.669L352.102 201.671C352.129 201.664 352.153 201.646 352.167 201.621C352.181 201.596 352.185 201.567 352.178 201.539C352.17 201.511 352.152 201.488 352.128 201.473C352.103 201.459 352.073 201.455 352.046 201.463L329.635 207.461C329.611 207.467 329.589 207.483 329.574 207.504C329.56 207.525 329.553 207.55 329.556 207.576C329.559 207.602 329.57 207.625 329.589 207.643C329.607 207.661 329.632 207.671 329.657 207.673Z" fill="#E87765"/>
<path d="M336.592 234.605C336.604 234.606 336.617 234.605 336.628 234.601L355.416 229.18C355.43 229.176 355.443 229.17 355.454 229.161C355.465 229.152 355.474 229.141 355.481 229.129C355.488 229.116 355.492 229.103 355.494 229.088C355.495 229.074 355.494 229.06 355.49 229.046C355.486 229.033 355.48 229.02 355.471 229.009C355.462 228.998 355.451 228.989 355.439 228.982C355.426 228.975 355.413 228.971 355.399 228.969C355.384 228.967 355.37 228.969 355.357 228.972L336.568 234.394C336.544 234.401 336.523 234.416 336.508 234.437C336.494 234.458 336.488 234.484 336.491 234.509C336.494 234.535 336.505 234.558 336.524 234.576C336.543 234.593 336.567 234.604 336.592 234.605Z" fill="#E87765"/>
<path d="M349.945 162.521C351.204 162.554 352.474 160.517 352.474 160.517C351.246 158.431 349.998 156.261 348.739 154.172C348.027 154.577 347.133 155.298 347.052 156.376C346.917 158.19 348.685 162.488 349.945 162.521Z" fill="#FFB0A1"/>
<path d="M289.83 165.628C289.83 165.628 290.449 168.067 291.073 177.733C291.696 187.399 287.955 192.388 287.955 192.388L302.922 190.517C302.922 190.517 296.685 181.163 295.438 172.12C294.191 163.078 291.781 161.765 291.781 161.765L289.83 165.628Z" fill="#0B0755"/>
<path opacity="0.8" d="M336.281 146.975C342.437 140.48 344.678 127.029 337.499 122.735C330.321 118.444 326.727 118.442 321.302 125.07C315.877 131.699 306.609 125.057 301.287 134.914C295.964 144.771 305.749 148.589 306.27 159.116C306.791 169.645 302.076 171.322 302.178 174.729C302.28 178.136 306.759 179.126 306.759 179.126C309.689 180.509 317.308 179.442 318.511 176.427C319.714 173.413 327.641 176.421 332.428 168.678C337.214 160.935 330.125 153.47 336.281 146.975ZM310.492 148.49C308.325 148.035 306.016 143.274 307.868 138.238C309.718 133.203 314.596 133.537 314.596 133.537C318.413 134.179 315.435 140.601 315.421 143.949C315.408 147.298 312.658 148.945 310.492 148.49Z" fill="white"/>
<path d="M77.697 294.081C77.6327 294.078 77.57 294.06 77.5134 294.03C77.4567 293.999 77.4075 293.957 77.3694 293.905C77.3312 293.853 77.305 293.793 77.2927 293.73C77.2804 293.667 77.2822 293.602 77.2981 293.539C92.9044 232.84 107.598 189.838 118.672 172.454C118.917 172.068 119.095 171.789 119.161 171.649C119.211 171.545 119.299 171.464 119.408 171.426C119.516 171.387 119.636 171.393 119.74 171.442C119.844 171.492 119.924 171.58 119.963 171.689C120.002 171.797 119.996 171.917 119.946 172.021C119.781 172.33 119.6 172.63 119.404 172.92C108.379 190.229 93.7236 233.143 78.1393 293.755C78.1145 293.852 78.0569 293.938 77.9763 293.997C77.8956 294.057 77.797 294.086 77.697 294.081Z" fill="#B8D0FC"/>
<path d="M126.745 169.038C125.43 170.992 118.561 174.758 118.003 174.383C117.445 174.007 118.354 166.226 119.67 164.272C120.301 163.334 121.28 162.685 122.391 162.469C123.501 162.252 124.652 162.485 125.59 163.117C126.528 163.749 127.177 164.728 127.394 165.838C127.611 166.949 127.377 168.099 126.745 169.038Z" fill="#B8D0FC"/>
<path d="M113.444 175.354C114.23 177.633 113.078 185.564 112.428 185.788C111.777 186.012 105.98 180.479 105.194 178.201C104.816 177.106 104.889 175.907 105.396 174.867C105.903 173.826 106.802 173.03 107.896 172.652C108.99 172.275 110.189 172.347 111.23 172.854C112.27 173.361 113.067 174.26 113.444 175.354Z" fill="#B8D0FC"/>
<path d="M122.358 188.783C119.961 189.035 112.493 186.127 112.421 185.442C112.349 184.758 119.046 180.356 121.443 180.103C122.012 180.043 122.589 180.096 123.138 180.258C123.688 180.421 124.2 180.69 124.645 181.051C125.091 181.411 125.461 181.856 125.735 182.359C126.008 182.863 126.18 183.415 126.24 183.985C126.3 184.555 126.247 185.131 126.085 185.681C125.922 186.23 125.653 186.743 125.292 187.188C124.932 187.634 124.487 188.004 123.984 188.277C123.48 188.551 122.928 188.723 122.358 188.783Z" fill="#B8D0FC"/>
<path d="M94.4589 215.935C96.1826 219.594 95.6942 233.038 94.6496 233.53C93.605 234.022 82.9296 225.837 81.2058 222.177C80.378 220.419 80.2823 218.405 80.9397 216.577C81.5971 214.749 82.9537 213.257 84.7112 212.429C86.4687 211.601 88.483 211.506 90.311 212.163C92.1391 212.82 93.6311 214.177 94.4589 215.935Z" fill="#B8D0FC"/>
<path d="M111.763 236.731C107.809 237.586 94.8209 234.083 94.5767 232.954C94.3325 231.826 104.712 223.267 108.665 222.412C109.605 222.208 110.577 222.192 111.523 222.364C112.47 222.536 113.373 222.892 114.182 223.413C114.991 223.934 115.689 224.609 116.237 225.4C116.785 226.191 117.171 227.082 117.375 228.022C117.578 228.963 117.594 229.934 117.422 230.88C117.25 231.827 116.894 232.73 116.373 233.539C115.851 234.348 115.176 235.046 114.385 235.593C113.594 236.141 112.703 236.527 111.763 236.731H111.763Z" fill="#B8D0FC"/>
<path d="M84.5566 231.356C87.6 235.261 90.638 251.44 89.5236 252.309C88.4091 253.177 73.4611 246.282 70.4175 242.378C68.956 240.503 68.2992 238.124 68.5915 235.765C68.8839 233.405 70.1015 231.259 71.9764 229.797C73.8514 228.336 76.2302 227.679 78.5894 227.971C80.9486 228.264 83.0951 229.481 84.5566 231.356Z" fill="#B8D0FC"/>
<path d="M109.197 258.493C104.277 259.037 88.9083 253.137 88.7535 251.733C88.5984 250.328 102.309 241.218 107.23 240.674C108.4 240.545 109.584 240.647 110.715 240.976C111.845 241.304 112.9 241.852 113.819 242.588C114.738 243.324 115.502 244.233 116.07 245.265C116.637 246.297 116.995 247.43 117.125 248.6C117.254 249.77 117.151 250.954 116.823 252.085C116.494 253.215 115.946 254.27 115.21 255.189C114.474 256.107 113.564 256.872 112.532 257.439C111.501 258.006 110.368 258.364 109.197 258.493Z" fill="#B8D0FC"/>
<path d="M78.8435 251.175C81.8869 255.079 84.9248 271.258 83.8106 272.127C82.696 272.996 67.7478 266.101 64.7045 262.196C63.9808 261.268 63.447 260.206 63.1337 259.071C62.8204 257.937 62.7336 256.751 62.8783 255.583C63.0231 254.415 63.3965 253.287 63.9773 252.263C64.558 251.239 65.3348 250.339 66.2632 249.616C67.1916 248.892 68.2535 248.358 69.3881 248.045C70.5228 247.732 71.7081 247.645 72.8763 247.79C74.0445 247.935 75.1727 248.308 76.1966 248.889C77.2204 249.47 78.1199 250.246 78.8435 251.175Z" fill="#B8D0FC"/>
<path d="M103.485 278.312C98.5638 278.856 83.1953 272.956 83.0404 271.552C82.8852 270.147 96.5963 261.037 101.517 260.493C103.878 260.236 106.245 260.926 108.098 262.412C109.951 263.898 111.138 266.059 111.398 268.42C111.659 270.781 110.972 273.149 109.488 275.004C108.004 276.858 105.845 278.048 103.485 278.312Z" fill="#B8D0FC"/>
<path d="M65.5786 276.326C69.8797 278.776 78.8512 292.579 78.1516 293.806C77.4521 295.034 61.0042 294.352 56.7032 291.902C55.6804 291.319 54.7825 290.54 54.0606 289.611C53.3388 288.681 52.8071 287.618 52.496 286.483C52.1849 285.347 52.1004 284.162 52.2474 282.994C52.3945 281.826 52.7701 280.699 53.3528 279.676C53.9356 278.653 54.7141 277.755 55.6439 277.033C56.5737 276.311 57.6366 275.78 58.7719 275.469C59.9071 275.158 61.0926 275.073 62.2605 275.22C63.4284 275.367 64.5559 275.743 65.5786 276.326Z" fill="#B8D0FC"/>
<path d="M98.5133 297.887C93.6991 299.041 77.7138 295.11 77.3843 293.735C77.0549 292.361 89.5192 281.608 94.3333 280.454C95.478 280.18 96.6655 280.133 97.828 280.318C98.9906 280.502 100.105 280.914 101.109 281.529C102.112 282.145 102.985 282.952 103.676 283.904C104.368 284.857 104.865 285.936 105.14 287.081C105.414 288.225 105.461 289.413 105.276 290.575C105.092 291.738 104.68 292.853 104.065 293.856C103.449 294.86 102.642 295.732 101.69 296.424C100.737 297.115 99.6579 297.613 98.5133 297.887Z" fill="#B8D0FC"/>
<path d="M107.594 187.987C108.392 190.302 107.222 198.36 106.561 198.588C105.9 198.816 100.01 193.194 99.2113 190.879C99.0211 190.328 98.9413 189.746 98.9763 189.165C99.0113 188.583 99.1605 188.014 99.4154 187.491C99.6703 186.967 100.026 186.499 100.462 186.113C100.898 185.726 101.405 185.43 101.956 185.24C102.507 185.05 103.089 184.97 103.67 185.006C104.252 185.041 104.82 185.19 105.344 185.446C105.868 185.701 106.336 186.056 106.722 186.493C107.108 186.929 107.404 187.436 107.594 187.987Z" fill="#B8D0FC"/>
<path d="M116.339 201.792C113.904 202.049 106.317 199.093 106.243 198.398C106.17 197.703 112.974 193.23 115.409 192.973C116.579 192.85 117.749 193.196 118.663 193.936C119.578 194.676 120.16 195.748 120.284 196.918C120.407 198.087 120.06 199.258 119.321 200.172C118.581 201.086 117.508 201.669 116.339 201.792Z" fill="#B8D0FC"/>
<path d="M100.808 199.773C102.209 202.958 101.49 214.503 100.581 214.903C99.672 215.303 90.6768 208.029 89.2762 204.844C88.6046 203.315 88.5677 201.582 89.1736 200.026C89.7796 198.469 90.9789 197.217 92.5077 196.545C94.0365 195.873 95.7698 195.835 97.3264 196.44C98.8829 197.046 100.135 198.244 100.808 199.773Z" fill="#B8D0FC"/>
<path d="M114.807 219.337C111.347 219.702 100.568 215.503 100.464 214.515C100.36 213.528 110.026 207.173 113.486 206.808C115.147 206.633 116.81 207.125 118.109 208.176C119.407 209.227 120.235 210.751 120.411 212.412C120.586 214.073 120.094 215.736 119.043 217.035C117.992 218.334 116.468 219.162 114.807 219.337H114.807Z" fill="#B8D0FC"/>
<path d="M139.33 300.881C139.285 300.858 139.245 300.825 139.215 300.786C139.184 300.746 139.162 300.7 139.151 300.65C139.14 300.601 139.14 300.55 139.152 300.501C139.163 300.452 139.185 300.406 139.216 300.367C169.59 261.869 193.711 235.747 207.136 226.812C207.434 226.613 207.65 226.47 207.741 226.391C207.775 226.361 207.814 226.339 207.857 226.325C207.899 226.311 207.944 226.305 207.988 226.309C208.033 226.312 208.077 226.324 208.117 226.344C208.156 226.364 208.192 226.392 208.221 226.425C208.25 226.459 208.273 226.499 208.287 226.541C208.301 226.583 208.306 226.628 208.303 226.673C208.3 226.717 208.288 226.761 208.267 226.801C208.247 226.841 208.219 226.876 208.186 226.905C207.969 227.074 207.745 227.232 207.513 227.377C194.146 236.274 170.081 262.345 139.749 300.787C139.701 300.849 139.633 300.892 139.556 300.909C139.48 300.926 139.4 300.916 139.33 300.881Z" fill="#B8D0FC"/>
<path d="M213.995 226.922C212.435 227.904 206.328 228.426 206.048 227.98C205.767 227.535 208.88 222.255 210.439 221.273C210.81 221.039 211.224 220.881 211.656 220.807C212.088 220.734 212.53 220.746 212.957 220.843C213.385 220.94 213.789 221.12 214.147 221.374C214.504 221.627 214.808 221.948 215.042 222.319C215.275 222.69 215.433 223.104 215.507 223.536C215.581 223.968 215.569 224.41 215.472 224.837C215.374 225.265 215.194 225.669 214.941 226.026C214.687 226.384 214.366 226.688 213.995 226.922Z" fill="#B8D0FC"/>
<path d="M202.478 227.233C202.32 229.112 198.986 234.423 198.449 234.377C197.913 234.332 195.515 228.538 195.674 226.659C195.75 225.757 196.182 224.922 196.874 224.338C197.565 223.754 198.461 223.469 199.363 223.545C200.265 223.621 201.1 224.053 201.684 224.744C202.268 225.436 202.554 226.331 202.478 227.233Z" fill="#B8D0FC"/>
<path d="M204.608 239.662C202.813 239.085 198.389 234.64 198.554 234.128C198.719 233.616 204.904 232.584 206.699 233.162C207.126 233.299 207.521 233.519 207.863 233.81C208.205 234.1 208.486 234.454 208.691 234.853C208.896 235.252 209.02 235.688 209.056 236.134C209.093 236.581 209.041 237.031 208.904 237.458C208.766 237.885 208.546 238.28 208.256 238.622C207.966 238.964 207.611 239.245 207.212 239.45C206.813 239.655 206.378 239.779 205.931 239.815C205.484 239.852 205.034 239.8 204.608 239.662Z" fill="#B8D0FC"/>
<path d="M176.052 250.264C176.127 253.428 171.524 262.893 170.621 262.915C169.718 262.936 164.668 253.701 164.593 250.537C164.557 249.018 165.126 247.546 166.174 246.446C167.223 245.346 168.666 244.707 170.186 244.671C171.705 244.635 173.177 245.204 174.277 246.253C175.377 247.301 176.016 248.744 176.052 250.264Z" fill="#B8D0FC"/>
<path d="M181.854 270.62C178.754 269.981 170.568 263.365 170.751 262.48C170.933 261.595 181.068 258.755 184.168 259.394C184.905 259.546 185.605 259.842 186.228 260.264C186.851 260.686 187.385 261.228 187.798 261.856C188.212 262.485 188.498 263.189 188.64 263.928C188.781 264.667 188.776 265.427 188.624 266.164C188.472 266.901 188.177 267.601 187.754 268.224C187.332 268.847 186.791 269.381 186.162 269.794C185.533 270.208 184.829 270.494 184.09 270.636C183.351 270.777 182.591 270.772 181.854 270.62Z" fill="#B8D0FC"/>
<path d="M164.087 258.166C165.029 261.923 162.083 274.462 161.011 274.731C159.939 274.999 151.424 265.336 150.482 261.578C150.029 259.774 150.312 257.864 151.267 256.269C152.223 254.673 153.774 253.522 155.578 253.07C157.382 252.617 159.292 252.9 160.888 253.856C162.483 254.811 163.634 256.362 164.087 258.166Z" fill="#B8D0FC"/>
<path d="M173.131 285.382C169.439 284.213 160.308 275.129 160.641 274.075C160.975 273.021 173.669 270.84 177.362 272.008C178.24 272.286 179.056 272.733 179.761 273.326C180.466 273.919 181.048 274.644 181.473 275.462C181.898 276.279 182.157 277.173 182.237 278.09C182.316 279.008 182.214 279.933 181.936 280.811C181.658 281.689 181.21 282.504 180.617 283.21C180.024 283.915 179.298 284.496 178.481 284.92C177.663 285.345 176.77 285.604 175.852 285.683C174.934 285.762 174.01 285.66 173.131 285.382Z" fill="#B8D0FC"/>
<path d="M153.727 270.54C154.669 274.297 151.724 286.836 150.651 287.105C149.579 287.374 141.064 277.71 140.122 273.953C139.898 273.059 139.852 272.13 139.986 271.219C140.121 270.308 140.434 269.432 140.907 268.642C141.38 267.852 142.004 267.162 142.744 266.613C143.484 266.064 144.324 265.666 145.218 265.442C146.111 265.218 147.04 265.172 147.951 265.307C148.862 265.442 149.738 265.755 150.528 266.228C151.319 266.702 152.008 267.326 152.557 268.066C153.105 268.806 153.503 269.646 153.727 270.54Z" fill="#B8D0FC"/>
<path d="M162.773 297.756C159.079 296.588 149.949 287.503 150.282 286.449C150.616 285.395 163.31 283.215 167.003 284.383C167.881 284.66 168.696 285.108 169.401 285.701C170.106 286.294 170.687 287.019 171.112 287.837C171.536 288.654 171.795 289.547 171.875 290.465C171.954 291.382 171.852 292.306 171.574 293.184C171.297 294.063 170.849 294.877 170.256 295.582C169.663 296.287 168.938 296.869 168.12 297.293C167.303 297.718 166.41 297.977 165.492 298.056C164.575 298.136 163.651 298.034 162.773 297.756Z" fill="#B8D0FC"/>
<path d="M136.277 284.339C138.579 287.454 140.631 300.17 139.742 300.827C138.853 301.484 127.299 295.792 124.997 292.677C123.893 291.181 123.428 289.308 123.704 287.469C123.98 285.63 124.975 283.977 126.471 282.872C127.966 281.766 129.839 281.3 131.678 281.575C133.516 281.851 135.171 282.845 136.277 284.339Z" fill="#B8D0FC"/>
<path d="M153.021 310.191C149.211 309.493 139.016 301.622 139.216 300.534C139.415 299.447 151.736 295.696 155.546 296.393C157.376 296.729 158.997 297.777 160.053 299.307C161.11 300.838 161.515 302.725 161.18 304.554C160.846 306.383 159.798 308.005 158.268 309.062C156.738 310.119 154.851 310.525 153.021 310.191Z" fill="#B8D0FC"/>
<path d="M194.294 234.421C194.133 236.33 190.745 241.725 190.201 241.68C189.656 241.634 187.219 235.747 187.381 233.838C187.458 232.921 187.896 232.072 188.599 231.479C189.302 230.885 190.212 230.595 191.129 230.672C192.046 230.75 192.894 231.188 193.488 231.891C194.081 232.594 194.371 233.504 194.294 234.421Z" fill="#B8D0FC"/>
<path d="M196.184 247.067C194.36 246.48 189.866 241.965 190.034 241.444C190.201 240.924 196.485 239.876 198.309 240.463C199.185 240.745 199.912 241.363 200.332 242.181C200.751 243 200.829 243.951 200.547 244.827C200.265 245.702 199.647 246.43 198.829 246.85C198.011 247.27 197.06 247.348 196.184 247.067Z" fill="#B8D0FC"/>
<path d="M185.709 240.709C185.704 243.43 181.536 251.465 180.759 251.463C179.982 251.462 175.847 243.41 175.853 240.688C175.855 239.381 176.377 238.129 177.303 237.206C178.229 236.284 179.484 235.767 180.791 235.77C182.098 235.773 183.351 236.295 184.273 237.221C185.195 238.147 185.712 239.401 185.709 240.709Z" fill="#B8D0FC"/>
<path d="M189.536 259.137C186.945 258.303 180.56 251.888 180.798 251.148C181.036 250.409 189.964 248.92 192.555 249.754C193.171 249.952 193.743 250.269 194.236 250.688C194.73 251.107 195.136 251.619 195.432 252.195C195.727 252.771 195.907 253.399 195.959 254.045C196.012 254.69 195.937 255.339 195.739 255.956C195.541 256.572 195.223 257.143 194.804 257.636C194.385 258.13 193.873 258.536 193.297 258.831C192.72 259.127 192.092 259.306 191.447 259.358C190.801 259.411 190.152 259.335 189.536 259.137Z" fill="#B8D0FC"/>
</svg>
