<svg width="582" height="401" viewBox="0 0 582 401" fill="none" xmlns="http://www.w3.org/2000/svg">
<path d="M61.1233 400.823C61.1233 400.823 -12.001 321.485 13.7178 228.999C30.5162 168.592 86.2149 205.19 83.2488 107.261C80.2826 9.33195 247.364 -0.844549 293.687 27.5665C340.011 55.9776 340.991 74.13 436.645 62.8479C532.298 51.5659 573.926 137.668 524.367 210.004C480.968 273.35 622.337 266.995 538.3 401L61.1233 400.823Z" fill="#EBF3FA"/>
<path d="M174.796 317.648C174.796 317.648 199.976 322.931 198.704 327.558C197.432 332.184 171.07 319.647 171.07 319.647C171.07 319.647 151.633 337.039 148.928 345.904C148.928 345.904 177.316 341.886 174.945 346.057C172.573 350.228 143.227 355.782 143.227 355.782C143.227 355.782 129.883 376.343 141.594 385.385C153.304 394.427 162.291 391.387 164.482 388.429C166.672 385.472 175.164 364.188 177.685 365.876C180.205 367.566 178.682 383.685 172.907 390.633C172.907 390.633 198.26 390.834 201.943 378.83C205.625 366.827 199.96 360.291 202.371 352.915C204.781 345.539 208.868 341.112 209.312 345.484C209.755 349.856 203.453 361.417 205.968 369.224C208.483 377.032 209.571 382.959 216.209 373.147C222.848 363.336 229.444 343.52 222.793 336.254C222.503 335.937 222.226 335.634 221.962 335.345C222.278 335.61 222.557 335.916 222.793 336.254C224.766 334.754 231.494 334.067 236.567 333.758C237.406 333.762 238.592 333.71 240.227 333.579H240.227C240.953 333.553 241.545 333.536 241.957 333.526C252.975 333.664 268.469 342.433 268.469 342.433L270.033 340.397C255.683 328.502 238.481 331.804 238.481 331.804C225.373 333.135 216.143 328.987 216.143 328.987C216.143 328.987 213.14 303.583 193.491 306.713C193.491 306.713 180.685 310.425 174.796 317.648Z" fill="#D2E3FC"/>
<path d="M506.795 103.593C500.087 78.8132 458.291 86.5569 458.291 86.5569C458.291 86.5569 429.91 129.922 421.654 130.954C413.398 131.987 438.682 89.1381 438.682 89.1381C422.686 87.5894 381.922 107.207 381.922 107.207C381.922 107.207 384.502 157.799 376.246 156.766C367.99 155.734 376.246 111.853 376.246 111.853C360.766 116.499 346.318 134.568 346.318 134.568C328.257 163.994 366.958 185.676 366.958 185.676C366.958 185.676 367.474 203.228 356.638 223.362L356.637 223.363C356.637 223.363 354.192 227.08 351.706 233.398H355.926C356.271 232.266 356.652 231.174 357.071 230.121C357.071 230.117 357.072 230.114 357.073 230.111C357.075 230.107 357.077 230.105 357.08 230.102C357.085 230.087 357.092 230.072 357.098 230.057C357.387 229.404 357.803 228.476 358.321 227.345L358.323 227.341C358.323 227.338 358.325 227.338 358.325 227.335C359.614 224.81 360.486 222.945 361.037 221.598C361.039 221.594 361.04 221.589 361.041 221.585C364.904 213.658 370.47 203.33 374.182 201.164C373.797 200.56 373.494 199.909 373.279 199.227C373.567 199.845 373.867 200.488 374.182 201.164C381.406 216.651 417.526 219.232 437.65 215.102C457.774 210.972 449.002 205.294 438.166 196.077C427.33 186.86 404.626 189.29 397.918 185.676C391.21 182.063 401.014 178.449 414.43 179.481C427.846 180.514 434.554 193.936 456.227 196.001C477.899 198.066 494.411 157.283 494.411 157.283C479.446 161.929 452.614 153.669 451.582 148.506C450.55 143.344 490.283 143.86 496.475 142.312C502.667 140.763 513.503 128.373 506.795 103.593Z" fill="#DFEBFD"/>
<path d="M106.074 105.415C115.314 90.6197 140.974 103.889 140.974 103.889C140.974 103.889 150.899 137.684 156.066 139.982C161.232 142.28 153.22 109.431 153.22 109.431C163.928 111.574 186.581 132.363 186.581 132.363C186.581 132.363 174.947 164.761 180.52 165.715C186.093 166.67 189.359 136.503 189.359 136.503C198.513 142.575 204.354 157.172 204.354 157.172C210.309 179.869 180.871 186.348 180.871 186.348C180.871 186.348 177.082 197.662 180.167 212.892L180.168 212.892C180.168 212.892 181.026 215.792 181.4 220.391L178.655 219.56C178.654 218.756 178.622 217.969 178.555 217.203C178.556 217.2 178.556 217.198 178.556 217.195C178.556 217.193 178.555 217.191 178.553 217.189C178.553 217.178 178.551 217.167 178.55 217.155C178.491 216.674 178.403 215.988 178.289 215.151L178.288 215.148C178.289 215.146 178.287 215.145 178.288 215.144C177.946 213.247 177.747 211.862 177.653 210.878C177.653 210.875 177.653 210.872 177.653 210.869C176.7 204.952 175.113 197.138 173.125 194.998C173.494 194.681 173.819 194.318 174.094 193.916C173.785 194.261 173.462 194.622 173.125 194.998C165.379 203.648 141.378 198.212 129.102 191.562C116.826 184.912 123.649 182.946 132.51 179.086C141.372 175.226 155.661 181.278 160.735 180.249C165.809 179.22 160.143 174.939 151.214 172.968C142.285 170.997 135.281 178.405 120.779 175.479C106.277 172.553 103.563 142.775 103.563 142.775C112.381 148.744 131.459 148.658 133.146 145.503C134.833 142.349 108.89 134.858 105.167 132.631C101.444 130.404 96.8348 120.211 106.074 105.415Z" fill="#D2E3FC"/>
<path d="M323.071 103.645C316.604 92.8689 297.951 102.1 297.951 102.1C297.951 102.1 290.37 126.316 286.619 127.905C282.868 129.494 289.059 105.935 289.059 105.935C281.318 107.342 264.736 122.027 264.736 122.027C264.736 122.027 272.703 145.512 268.676 146.129C264.65 146.745 262.682 124.974 262.682 124.974C256.011 129.23 251.617 139.671 251.617 139.671C247.037 155.944 268.159 160.987 268.159 160.987C268.159 160.987 270.745 169.185 268.328 180.116L268.328 180.116C267.832 181.877 267.503 183.68 267.344 185.502L269.332 184.938C269.343 184.359 269.376 183.793 269.434 183.241C269.434 183.24 269.434 183.238 269.434 183.236C269.434 183.235 269.435 183.233 269.436 183.231C269.436 183.223 269.437 183.216 269.438 183.208C269.487 182.862 269.559 182.369 269.652 181.767L269.652 181.765C269.652 181.764 269.653 181.763 269.653 181.762C269.923 180.4 270.085 179.405 270.164 178.697C270.165 178.695 270.165 178.693 270.165 178.691C270.927 174.441 272.17 168.833 273.629 167.316C273.367 167.084 273.137 166.818 272.945 166.525C273.163 166.777 273.391 167.041 273.629 167.316C279.099 173.646 296.456 170.037 305.384 165.404C314.312 160.77 309.422 159.267 303.088 156.374C296.754 153.48 286.384 157.657 282.742 156.851C279.1 156.045 283.236 153.033 289.693 151.727C296.15 150.422 301.101 155.848 311.584 153.925C322.068 152.003 324.403 130.588 324.403 130.588C317.974 134.775 304.234 134.469 303.059 132.175C301.884 129.881 320.667 124.817 323.377 123.26C326.087 121.704 329.537 114.42 323.071 103.645Z" fill="#DFEBFD"/>
<path d="M8.15864 388.471C7.95211 388.529 7.68748 388.587 7.35596 388.646C7.62357 388.582 7.8882 388.524 8.15864 388.471Z" fill="#95C38B"/>
<path d="M271.818 239.069L259.127 390.042C259.127 390.042 257.797 399.194 264.601 399.21C275.788 399.237 320.284 399.21 320.284 399.21C320.284 399.21 311.864 397.305 311.966 393.018C312.086 387.966 326.799 237.641 326.799 237.641L271.818 239.069Z" fill="#D86713"/>
<path d="M323.893 396.47C321.693 396.477 279.194 396.61 268.3 396.47C263.552 396.411 262.719 392.247 262.68 389.551C262.665 388.8 262.714 388.048 262.824 387.304L263.154 383.38L263.995 373.379L264.738 364.543L265.693 353.188L266.497 343.605L275.515 236.328L330.497 234.901C330.497 234.901 324.3 297.811 319.917 343.605C319.427 348.707 318.962 353.6 318.531 358.166C318.392 359.624 318.257 361.048 318.127 362.438C317.721 366.77 317.349 370.749 317.026 374.262C316.855 376.114 316.698 377.834 316.556 379.41C315.997 385.586 315.669 389.529 315.665 390.279C315.661 390.689 315.697 391.098 315.772 391.501C316.674 396.313 323.068 396.47 323.893 396.47Z" fill="#F99746"/>
<path d="M138.292 156.915L169.205 281.147L173.438 298.161L187.836 356.025H455.328L402.259 156.915H138.292Z" fill="#F99746"/>
<path d="M138.291 156.915L134.007 158.344L182.14 360.347L187.836 356.025L138.291 156.915Z" fill="#F99746"/>
<path d="M182.14 360.347H447.985L455.327 356.025H187.836L182.14 360.347Z" fill="#D86713"/>
<path d="M275.497 399.268H333.057V396.531H275.497V399.268Z" fill="#F1A34F"/>
<path d="M442.369 319.336L398.965 159.548H138.946L138.292 156.915H402.259L445.518 318.98L442.369 319.336Z" fill="#F1A34F"/>
<path d="M318.425 360.346L318.128 362.438L263.996 373.379L264.739 364.543L265.092 360.346H318.425Z" fill="#D86713"/>
<path opacity="0.4" d="M323.894 396.47C321.693 396.477 279.195 396.61 268.3 396.47C263.552 396.411 262.72 392.247 262.68 389.551L316.556 379.41C315.997 385.586 315.669 389.529 315.665 390.279C315.661 390.689 315.697 391.098 315.772 391.501C316.675 396.313 323.068 396.47 323.894 396.47Z" fill="#D86713"/>
<path d="M305.341 315.717L187.837 356.025L173.438 298.161L305.341 315.717Z" fill="#ED7D2B"/>
<path d="M138.291 156.915H402.259L445.088 316.937H178.11L138.291 156.915Z" fill="#699DEE"/>
<path d="M327.367 342.427C329.759 339.79 329.103 335.296 325.903 332.39C322.702 329.484 318.168 329.266 315.775 331.904C313.383 334.541 314.039 339.035 317.239 341.941C320.44 344.847 324.974 345.065 327.367 342.427Z" fill="#D86713"/>
<path d="M432.639 310.002H185.485L157.495 198.448L155.35 189.893L153.518 182.596L149.226 165.487H392.818L397.532 182.596L399.542 189.893L401.899 198.448L432.639 310.002Z" fill="#E4EDF9"/>
<path d="M397.532 182.596H153.518L149.226 165.487H392.818L397.532 182.596Z" fill="#AFCDFB"/>
<path d="M159.303 173.219C159.009 172.038 159.727 171.08 160.908 171.08C161.521 171.11 162.11 171.333 162.589 171.717C163.069 172.101 163.415 172.627 163.579 173.219C163.873 174.4 163.155 175.358 161.974 175.358C161.36 175.328 160.772 175.105 160.293 174.721C159.813 174.337 159.467 173.811 159.303 173.219V173.219Z" fill="#E9F3FE"/>
<path d="M166.406 173.219C166.111 172.037 166.83 171.08 168.011 171.08C168.624 171.11 169.212 171.333 169.692 171.717C170.171 172.101 170.518 172.626 170.682 173.219C170.976 174.4 170.257 175.358 169.077 175.358C168.463 175.327 167.875 175.104 167.395 174.72C166.916 174.336 166.57 173.811 166.406 173.219V173.219Z" fill="#E9F3FE"/>
<path d="M174.055 173.219C173.76 172.037 174.479 171.08 175.66 171.08C176.273 171.11 176.861 171.333 177.341 171.717C177.82 172.101 178.167 172.626 178.33 173.219C178.625 174.4 177.906 175.358 176.726 175.358C176.112 175.327 175.524 175.104 175.044 174.72C174.565 174.336 174.219 173.811 174.055 173.219V173.219Z" fill="#E9F3FE"/>
<path d="M378.194 300.106H195.12L167.259 190.721H347.751L378.194 300.106Z" fill="#CAE0FF"/>
<path d="M401.87 216.173H360.376L352.789 190.721H394.786L401.87 216.173Z" fill="#D2E3FC"/>
<path d="M289.926 201.374H266.186L265.209 197.712H288.949L289.926 201.374Z" fill="#1C468A"/>
<path d="M332.019 201.374H293.18L292.203 197.712H331.042L332.019 201.374Z" fill="#78ACEA"/>
<path d="M293.916 211.241H251.813L250.836 207.579H292.939L293.916 211.241Z" fill="#78ACEA"/>
<path d="M319.528 211.241H297.704L296.727 207.579H318.55L319.528 211.241Z" fill="#F1A34F"/>
<path d="M297.091 228.228H273.35L272.373 224.566H296.114L297.091 228.228Z" fill="#699DEE"/>
<path d="M339.183 228.228H300.345L299.367 224.566H338.207L339.183 228.228Z" fill="#78ACEA"/>
<path d="M301.08 238.095H258.977L258 234.433H300.104L301.08 238.095Z" fill="white"/>
<path d="M326.692 238.095H304.869L303.892 234.433H325.715L326.692 238.095Z" fill="white"/>
<path d="M275.588 253.368H195.266L194.289 249.706H274.611L275.588 253.368Z" fill="#1C468A"/>
<path d="M304.463 253.368H280.722L279.745 249.706H303.486L304.463 253.368Z" fill="#699DEE"/>
<path d="M346.555 253.368H307.716L306.739 249.706H345.578L346.555 253.368Z" fill="#78ACEA"/>
<path d="M221.639 263.234H197.898L196.921 259.572H220.662L221.639 263.234Z" fill="white"/>
<path d="M308.453 263.234H266.35L265.373 259.572H307.476L308.453 263.234Z" fill="#F1A34F"/>
<path d="M263.731 263.234H224.892L223.915 259.572H262.754L263.731 263.234Z" fill="#78ACEA"/>
<path d="M334.064 263.234H312.241L311.264 259.572H333.087L334.064 263.234Z" fill="#78ACEA"/>
<path d="M284.706 280.607H204.384L203.407 276.945H283.729L284.706 280.607Z" fill="#1C468A"/>
<path d="M313.581 280.607H289.841L288.864 276.945H312.604L313.581 280.607Z" fill="#699DEE"/>
<path d="M230.757 290.475H207.017L206.04 286.812H229.78L230.757 290.475Z" fill="white"/>
<path d="M317.571 290.475H275.468L274.491 286.812H316.594L317.571 290.475Z" fill="#F1A34F"/>
<path d="M272.85 290.475H234.011L233.034 286.812H271.873L272.85 290.475Z" fill="#78ACEA"/>
<path d="M343.183 290.475H321.359L320.382 286.812H342.205L343.183 290.475Z" fill="#78ACEA"/>
<path d="M381.211 224.047L362.951 224.104L362.547 222.444L380.807 222.388L381.211 224.047Z" fill="#78ACEA"/>
<path d="M390.842 224.017L383.975 224.038L383.571 222.379L390.437 222.358L390.842 224.017Z" fill="#78ACEA"/>
<path d="M404.76 223.974L392.624 224.011L392.22 222.352L404.355 222.315L404.76 223.974Z" fill="#78ACEA"/>
<path d="M373.984 228.267L363.973 228.298L363.569 226.639L373.58 226.608L373.984 228.267Z" fill="#78ACEA"/>
<path d="M388.581 228.222L375.653 228.262L375.249 226.603L388.177 226.562L388.581 228.222Z" fill="#78ACEA"/>
<path d="M405.781 228.169L390.964 228.215L390.56 226.555L405.377 226.51L405.781 228.169Z" fill="#78ACEA"/>
<path d="M383.395 233.01L365.135 233.067L364.73 231.408L382.991 231.351L383.395 233.01Z" fill="#78ACEA"/>
<path d="M393.026 232.98L386.159 233.001L385.755 231.342L392.621 231.321L393.026 232.98Z" fill="#78ACEA"/>
<path d="M406.943 232.937L394.808 232.975L394.404 231.316L406.539 231.278L406.943 232.937Z" fill="#78ACEA"/>
<path d="M376.168 237.23L366.157 237.261L365.753 235.602L375.764 235.571L376.168 237.23Z" fill="#78ACEA"/>
<path d="M390.765 237.186L377.837 237.226L377.432 235.567L390.361 235.527L390.765 237.186Z" fill="#78ACEA"/>
<path d="M407.965 237.133L393.149 237.178L392.745 235.519L407.561 235.474L407.965 237.133Z" fill="#78ACEA"/>
<path d="M369.075 194.254L358.079 194.288L357.836 193.289L368.832 193.255L369.075 194.254Z" fill="white"/>
<path d="M374.875 194.236L370.74 194.249L370.497 193.25L374.632 193.237L374.875 194.236Z" fill="white"/>
<path d="M383.256 194.211L375.948 194.234L375.705 193.234L383.013 193.212L383.256 194.211Z" fill="white"/>
<path d="M364.723 196.796L358.695 196.815L358.452 195.816L364.48 195.797L364.723 196.796Z" fill="white"/>
<path d="M373.513 196.769L365.728 196.793L365.485 195.794L373.27 195.77L373.513 196.769Z" fill="white"/>
<path d="M383.871 196.738L374.949 196.765L374.705 195.766L383.628 195.738L383.871 196.738Z" fill="white"/>
<path d="M370.391 199.65L359.394 199.684L359.151 198.685L370.147 198.651L370.391 199.65Z" fill="white"/>
<path d="M376.19 199.634L372.055 199.647L371.812 198.648L375.947 198.635L376.19 199.634Z" fill="white"/>
<path d="M384.571 199.608L377.264 199.631L377.02 198.632L384.328 198.609L384.571 199.608Z" fill="white"/>
<path d="M366.039 202.194L360.01 202.213L359.767 201.214L365.796 201.195L366.039 202.194Z" fill="white"/>
<path d="M374.829 202.166L367.044 202.191L366.801 201.192L374.586 201.167L374.829 202.166Z" fill="white"/>
<path d="M385.187 202.135L376.265 202.162L376.021 201.163L384.943 201.136L385.187 202.135Z" fill="white"/>
<path d="M387.127 248.325L368.867 248.381L368.462 246.723L386.723 246.666L387.127 248.325Z" fill="#78ACEA"/>
<path d="M396.757 248.296L389.891 248.317L389.486 246.658L396.353 246.637L396.757 248.296Z" fill="#78ACEA"/>
<path d="M410.674 248.253L398.539 248.29L398.134 246.631L410.269 246.594L410.674 248.253Z" fill="#78ACEA"/>
<path d="M379.9 252.546L369.889 252.577L369.484 250.918L379.495 250.887L379.9 252.546Z" fill="#78ACEA"/>
<path d="M394.496 252.501L381.568 252.541L381.164 250.882L394.092 250.842L394.496 252.501Z" fill="#78ACEA"/>
<path d="M411.697 252.448L396.88 252.494L396.476 250.835L411.292 250.789L411.697 252.448Z" fill="#78ACEA"/>
<path d="M390.784 263.335L372.524 263.391L372.12 261.732L390.38 261.676L390.784 263.335Z" fill="#78ACEA"/>
<path d="M400.414 263.306L393.548 263.328L393.144 261.668L400.01 261.647L400.414 263.306Z" fill="#78ACEA"/>
<path d="M414.332 263.263L402.196 263.301L401.792 261.641L413.927 261.604L414.332 263.263Z" fill="#78ACEA"/>
<path d="M383.556 267.557L373.546 267.588L373.142 265.929L383.152 265.898L383.556 267.557Z" fill="#78ACEA"/>
<path d="M398.154 267.512L385.226 267.552L384.822 265.892L397.75 265.853L398.154 267.512Z" fill="#78ACEA"/>
<path d="M415.354 267.458L400.538 267.504L400.134 265.845L414.95 265.799L415.354 267.458Z" fill="#78ACEA"/>
<path d="M394.079 276.86L375.818 276.916L375.415 275.257L393.675 275.201L394.079 276.86Z" fill="#78ACEA"/>
<path d="M403.709 276.831L396.843 276.852L396.438 275.192L403.305 275.171L403.709 276.831Z" fill="#78ACEA"/>
<path d="M417.626 276.787L405.491 276.825L405.087 275.165L417.222 275.128L417.626 276.787Z" fill="#78ACEA"/>
<path d="M386.852 281.081L376.841 281.111L376.437 279.452L386.447 279.421L386.852 281.081Z" fill="#78ACEA"/>
<path d="M401.449 281.036L388.521 281.075L388.117 279.416L401.045 279.376L401.449 281.036Z" fill="#78ACEA"/>
<path d="M418.649 280.983L403.832 281.028L403.428 279.369L418.244 279.323L418.649 280.983Z" fill="#78ACEA"/>
<path d="M402.682 296.975C399.747 296.975 396.663 294.586 395.806 291.651C394.95 288.714 396.64 286.326 399.575 286.326C402.509 286.326 405.594 288.714 406.45 291.651C407.307 294.586 405.616 296.975 402.682 296.975ZM399.859 287.298C397.46 287.298 396.078 289.251 396.778 291.651C397.479 294.05 400 296.002 402.398 296.002C404.797 296.002 406.179 294.05 405.478 291.651C404.778 289.251 402.257 287.298 399.859 287.298Z" fill="#A8D29F"/>
<path d="M401.812 294.359C401.592 294.338 401.384 294.252 401.214 294.111L398.228 291.719C397.825 291.396 397.687 290.883 397.92 290.574C398.152 290.264 398.668 290.275 399.072 290.599L401.182 292.289L402.264 289.788C402.42 289.425 402.903 289.345 403.342 289.607C403.781 289.869 404.01 290.376 403.853 290.738L402.431 294.027C402.387 294.124 402.316 294.207 402.227 294.266C402.138 294.325 402.034 294.357 401.927 294.36C401.889 294.362 401.85 294.362 401.812 294.359V294.359Z" fill="#A8D29F"/>
<path d="M417.373 296.975C414.439 296.975 411.354 294.586 410.498 291.651C409.641 288.714 411.331 286.326 414.266 286.326C417.201 286.326 420.285 288.714 421.142 291.651C421.998 294.586 420.307 296.975 417.373 296.975ZM414.55 287.298C412.151 287.298 410.769 289.251 411.47 291.651C412.17 294.05 414.691 296.002 417.09 296.002C419.488 296.002 420.87 294.05 420.17 291.651C419.469 289.251 416.948 287.298 414.55 287.298Z" fill="#F1A34F"/>
<path d="M416.074 292.522C415.855 292.509 415.645 292.43 415.471 292.296C415.298 292.162 415.169 291.978 415.101 291.769L414.441 289.507C414.406 289.422 414.393 289.329 414.404 289.238C414.414 289.147 414.448 289.059 414.501 288.984C414.554 288.909 414.625 288.849 414.708 288.808C414.791 288.768 414.882 288.749 414.974 288.754V288.754C415.193 288.767 415.403 288.846 415.577 288.98C415.75 289.115 415.879 289.298 415.947 289.507L416.606 291.769C416.641 291.854 416.654 291.947 416.644 292.038C416.633 292.13 416.6 292.217 416.547 292.292C416.494 292.367 416.422 292.428 416.34 292.468C416.257 292.508 416.165 292.527 416.074 292.522V292.522Z" fill="#F1A34F"/>
<path d="M416.673 294.297H416.51C416.315 294.286 416.128 294.216 415.973 294.096C415.818 293.976 415.703 293.812 415.643 293.626C415.612 293.55 415.601 293.467 415.61 293.386C415.619 293.304 415.649 293.226 415.696 293.159C415.744 293.092 415.807 293.038 415.881 293.003C415.955 292.967 416.037 292.95 416.118 292.954H416.281C416.476 292.966 416.664 293.036 416.818 293.156C416.973 293.276 417.088 293.44 417.148 293.626V293.626C417.179 293.702 417.191 293.784 417.182 293.866C417.172 293.947 417.143 294.025 417.095 294.092C417.048 294.159 416.984 294.213 416.91 294.249C416.837 294.285 416.755 294.302 416.673 294.297V294.297Z" fill="#F1A34F"/>
<path d="M386.312 213.721C384.703 213.721 383.012 212.412 382.542 210.802C382.073 209.192 383 207.883 384.608 207.883C386.217 207.883 387.908 209.192 388.378 210.802C388.848 212.412 387.921 213.721 386.312 213.721ZM384.764 208.416C383.449 208.416 382.691 209.486 383.075 210.802C383.459 212.118 384.841 213.188 386.156 213.188C387.471 213.188 388.229 212.118 387.845 210.802C387.461 209.486 386.079 208.416 384.764 208.416V208.416Z" fill="#A8D29F"/>
<path d="M385.834 212.286C385.714 212.274 385.6 212.227 385.507 212.15L383.87 210.839C383.768 210.774 383.694 210.674 383.663 210.558C383.631 210.441 383.645 210.317 383.701 210.21C383.786 210.128 383.901 210.084 384.02 210.087C384.138 210.089 384.251 210.139 384.333 210.224L385.489 211.151L386.083 209.78C386.168 209.581 386.433 209.537 386.674 209.68C386.785 209.736 386.873 209.828 386.924 209.941C386.975 210.054 386.986 210.181 386.954 210.301L386.174 212.104C386.15 212.157 386.111 212.203 386.062 212.235C386.014 212.267 385.957 212.285 385.898 212.286C385.877 212.288 385.856 212.288 385.834 212.286V212.286Z" fill="#A8D29F"/>
<path d="M377.963 213.721C376.354 213.721 374.663 212.412 374.193 210.802C373.723 209.192 374.65 207.883 376.259 207.883C377.868 207.883 379.559 209.192 380.029 210.802C380.499 212.412 379.572 213.721 377.963 213.721ZM376.415 208.416C375.1 208.416 374.342 209.486 374.726 210.802C375.11 212.118 376.492 213.188 377.807 213.188C379.122 213.188 379.88 212.118 379.496 210.802C379.112 209.486 377.73 208.416 376.415 208.416V208.416Z" fill="#A8D29F"/>
<path d="M377.485 212.286C377.365 212.274 377.251 212.227 377.158 212.15L375.521 210.839C375.419 210.774 375.345 210.674 375.314 210.558C375.282 210.441 375.296 210.317 375.352 210.21C375.437 210.128 375.552 210.084 375.67 210.087C375.789 210.089 375.902 210.139 375.984 210.224L377.14 211.151L377.733 209.78C377.819 209.581 378.084 209.537 378.325 209.68C378.435 209.736 378.524 209.828 378.575 209.941C378.626 210.054 378.636 210.181 378.605 210.301L377.825 212.104C377.801 212.157 377.762 212.203 377.713 212.235C377.664 212.267 377.607 212.285 377.549 212.286C377.528 212.288 377.506 212.288 377.485 212.286V212.286Z" fill="#A8D29F"/>
<path d="M369.314 213.721C367.705 213.721 366.015 212.412 365.545 210.802C365.075 209.192 366.002 207.883 367.611 207.883C369.22 207.883 370.911 209.192 371.38 210.802C371.85 212.412 370.923 213.721 369.314 213.721ZM367.766 208.416C366.451 208.416 365.694 209.486 366.078 210.802C366.462 212.118 367.844 213.188 369.159 213.188C370.474 213.188 371.231 212.118 370.848 210.802C370.464 209.486 369.081 208.416 367.766 208.416V208.416Z" fill="#A8D29F"/>
<path d="M368.837 212.286C368.717 212.275 368.603 212.227 368.51 212.15L366.873 210.839C366.771 210.774 366.697 210.674 366.665 210.558C366.634 210.441 366.648 210.317 366.704 210.21C366.789 210.128 366.904 210.084 367.022 210.087C367.141 210.089 367.253 210.139 367.335 210.224L368.492 211.151L369.085 209.78C369.171 209.581 369.436 209.537 369.676 209.68C369.787 209.736 369.876 209.828 369.927 209.941C369.978 210.054 369.988 210.181 369.956 210.301L369.177 212.104C369.153 212.157 369.114 212.203 369.065 212.235C369.016 212.267 368.959 212.285 368.901 212.286C368.88 212.288 368.858 212.288 368.837 212.286V212.286Z" fill="#A8D29F"/>
<path d="M394.367 213.721C392.758 213.721 391.067 212.412 390.597 210.802C390.127 209.192 391.054 207.883 392.663 207.883C394.272 207.883 395.963 209.192 396.433 210.802C396.902 212.412 395.975 213.721 394.367 213.721ZM392.819 208.416C391.503 208.416 390.746 209.486 391.13 210.802C391.514 212.118 392.896 213.188 394.211 213.188C395.526 213.188 396.284 212.118 395.9 210.802C395.516 209.486 394.134 208.416 392.819 208.416V208.416Z" fill="#F1A34F"/>
<path d="M393.654 211.279C393.534 211.272 393.419 211.229 393.324 211.155C393.229 211.081 393.158 210.981 393.121 210.866L392.759 209.626C392.74 209.579 392.733 209.529 392.739 209.479C392.744 209.428 392.763 209.381 392.792 209.339C392.821 209.298 392.86 209.265 392.905 209.243C392.951 209.221 393.001 209.211 393.051 209.213V209.213C393.171 209.22 393.286 209.264 393.381 209.337C393.477 209.411 393.547 209.512 393.584 209.626L393.946 210.866C393.965 210.913 393.972 210.964 393.967 211.014C393.961 211.064 393.943 211.112 393.913 211.153C393.884 211.194 393.845 211.227 393.8 211.249C393.755 211.271 393.704 211.282 393.654 211.279V211.279Z" fill="#F1A34F"/>
<path d="M393.983 212.253H393.894C393.787 212.246 393.684 212.208 393.599 212.142C393.514 212.076 393.451 211.986 393.418 211.884V211.884C393.401 211.843 393.395 211.797 393.4 211.753C393.405 211.708 393.421 211.665 393.447 211.628C393.473 211.592 393.508 211.562 393.549 211.542C393.589 211.523 393.634 211.514 393.679 211.516H393.768C393.875 211.522 393.978 211.561 394.063 211.627C394.147 211.692 394.21 211.782 394.243 211.884V211.884C394.261 211.926 394.267 211.971 394.262 212.016C394.257 212.061 394.24 212.103 394.214 212.14C394.188 212.177 394.154 212.206 394.113 212.226C394.073 212.246 394.028 212.255 393.983 212.253V212.253Z" fill="#F1A34F"/>
<path d="M113.343 294.587C113.343 294.587 117.742 295.718 120.538 294.875C123.334 294.032 128.146 295.416 128.921 296.436C129.696 297.456 129.412 297.862 128.029 298.214C126.646 298.566 121.747 300.657 118.527 299.446C115.307 298.236 111.107 298.192 111.107 298.192L113.343 294.587Z" fill="#E49963"/>
<path d="M75.3293 256.361C75.3293 256.361 80.2704 291.496 88.4523 294.643C92.4895 296.196 110.331 299.716 115.609 300.069C115.609 300.069 116.902 299.02 116.587 294.749C116.587 294.749 97.8941 287.883 95.2384 284.149C91.2861 278.592 97.692 261.446 92.7326 256.227C87.7733 251.008 79.4205 248.765 75.3293 256.361Z" fill="#4A75CB"/>
<path d="M80.5699 395.667H78.1844C77.5946 395.667 77.029 395.432 76.6119 395.015C76.1949 394.598 75.9606 394.032 75.9606 393.442V338.061C75.9606 337.471 76.1949 336.905 76.6119 336.488C77.029 336.07 77.5946 335.836 78.1844 335.836H80.5699C81.1597 335.836 81.7253 336.07 82.1424 336.488C82.5594 336.905 82.7937 337.471 82.7937 338.061V393.442C82.7937 394.032 82.5594 394.598 82.1424 395.015C81.7253 395.432 81.1597 395.667 80.5699 395.667Z" fill="#2B478B"/>
<path d="M58.2903 399.599C60.5008 395.022 69.1025 391.609 79.3771 391.609C89.6516 391.609 98.2535 395.022 100.464 399.599H58.2903Z" fill="#2B478B"/>
<path d="M94.8486 384.079H63.9058C63.8281 384.079 63.7512 384.063 63.6795 384.034C63.6077 384.004 63.5425 383.96 63.4875 383.905C63.4326 383.85 63.3891 383.785 63.3593 383.713C63.3296 383.642 63.3143 383.565 63.3143 383.487V382.26C63.3143 382.103 63.3766 381.952 63.4876 381.841C63.5986 381.73 63.749 381.668 63.9059 381.668H94.8484C95.0053 381.668 95.1558 381.73 95.2667 381.841C95.3776 381.952 95.4399 382.102 95.4399 382.259V383.487C95.4399 383.644 95.3776 383.794 95.2667 383.905C95.1558 384.016 95.0054 384.079 94.8486 384.079V384.079Z" fill="#2B478B"/>
<path d="M76.9946 330.384C78.444 332.795 80.0567 335.103 81.8214 337.293C87.132 344 92.9129 349.531 93.9199 354.758C94.1489 355.895 94.4609 357.013 94.8535 358.104C95.2742 359.302 95.7939 360.561 96.3941 361.863C98.6476 366.76 102.018 372.248 105.383 377.236C111.199 385.859 116.669 393.055 116.669 393.055L126.7 392.627C126.298 391.621 121.923 379.715 116.071 365.164C113.694 359.258 111.167 352.974 108.729 346.915C108.404 346.106 108.08 345.302 107.757 344.502C107.012 342.647 106.278 340.822 105.562 339.045C100.067 325.382 95.6897 314.503 95.6897 314.503C95.6897 314.503 73.7255 306.178 71.4445 311.572C69.5637 316.02 71.0958 320.377 76.9946 330.384Z" fill="#163560"/>
<path d="M116.982 391.23C116.982 391.23 117.496 399.511 119.097 399.63C119.31 399.646 127.219 399.646 127.219 399.646L137.316 399.587C137.316 399.587 137.25 397.153 134.298 396.639C131.347 396.124 126.407 394.049 124.62 390.147C122.739 386.041 116.982 391.23 116.982 391.23Z" fill="#163560"/>
<path d="M93.755 367.572C93.755 367.572 86.7779 372.057 87.455 373.514C87.5449 373.708 91.4007 380.617 91.4007 380.617L96.3738 389.408C96.3738 389.408 98.4656 388.164 97.476 385.335C96.4864 382.506 95.8892 377.179 98.4235 373.715C101.09 370.071 93.755 367.572 93.755 367.572Z" fill="#163560"/>
<path d="M103.579 310.798C103.579 310.798 130.764 327.732 133.842 339.278C136.919 350.824 97.168 375.456 97.168 375.456C97.168 375.456 92.8082 371.607 92.0388 368.785C92.0388 368.785 110.007 347.248 113.904 342.42C116.298 339.455 78.5111 332.156 73.895 324.972C69.2786 317.788 70.9313 311.743 70.9313 311.743L103.579 310.798Z" fill="#1C468A"/>
<path d="M51.1654 348.009H107.589C108.722 348.009 109.641 347.09 109.641 345.956V334.666C109.641 333.532 108.722 332.613 107.589 332.613H51.1654C50.0322 332.613 49.1136 333.532 49.1136 334.666V345.956C49.1136 347.09 50.0322 348.009 51.1654 348.009Z" fill="#EE9849"/>
<path d="M90.4467 250.339C92.0679 251.34 93.4916 252.631 94.6468 254.147C88.0421 255.856 77.093 249.732 77.093 249.732C77.093 249.732 81.3442 246.875 82.9192 240.595C82.9989 240.278 83.071 239.954 83.1355 239.621C83.3545 238.487 83.4742 237.337 83.4931 236.183L86.5272 238.902L91.5722 243.424C91.4251 245.138 91.1762 246.843 90.8267 248.528C90.7169 249.091 90.5903 249.694 90.4467 250.339Z" fill="#E49963"/>
<path d="M70.0993 281.537C71.0452 294.267 69.8007 313.628 70.8739 316.981C71.8002 319.874 82.3537 318.155 86.5661 317.189C88.1253 316.831 90.0138 316.321 91.9644 315.717C97.405 314.031 103.333 311.625 103.969 309.838C103.994 309.771 104.013 309.702 104.028 309.632C104.082 309.385 104.078 309.129 104.017 308.884C103.804 307.973 102.987 306.988 102.891 304.733C102.784 302.215 102.8 299.25 102.705 296.062C102.7 295.703 102.696 295.312 102.656 294.954L102.655 294.824C102.653 294.755 102.651 294.688 102.65 294.62C102.559 291.064 102.373 287.326 102.157 283.619C102.02 281.291 101.862 278.985 101.68 276.776C101.205 271.074 100.566 266.002 99.7192 262.796C98.3362 257.57 95.2865 254.162 92.5108 251.663L90.503 249.941C88.2623 250.43 85.6137 250.105 83.2179 248.97C80.6249 247.738 79.7296 246.855 79.2778 247.188C73.2892 251.81 68.9821 265.975 70.0993 281.537Z" fill="#739AF0"/>
<path d="M91.9643 315.716C97.4049 314.031 103.333 311.624 103.969 309.838C103.994 309.771 104.013 309.702 104.028 309.632C104.025 309.382 104.021 309.133 104.016 308.883C103.804 307.973 102.987 306.987 102.891 304.732C102.783 302.215 102.8 299.25 102.705 296.062C102.7 295.703 102.695 295.311 102.656 294.954L102.655 294.823C102.653 294.755 102.651 294.688 102.65 294.619L82.0991 285.294C82.0991 285.294 80.9151 301.866 91.9643 315.716Z" fill="#4A75CB"/>
<path d="M91.5722 243.423C91.4251 245.138 91.1762 246.842 90.8267 248.527C85.9003 246.935 83.6654 242.483 82.9192 240.595C82.707 240.061 82.615 239.732 82.615 239.732C82.615 239.732 82.8059 239.69 83.1355 239.621C83.828 239.473 85.1321 239.197 86.5272 238.901L91.5722 243.423Z" fill="#D68D5D"/>
<path d="M93.5667 243.374C93.5667 243.374 82.7434 244.596 82.0869 237.84C81.4304 231.085 79.5913 226.693 86.4739 225.628C93.3565 224.563 94.9517 227.009 95.7189 229.211C96.4863 231.412 96.3652 242.882 93.5667 243.374Z" fill="#E49963"/>
<path d="M82.1335 238.306C82.1335 238.306 82.8198 229.34 92.6719 228.411C99.4202 227.775 95.6578 221.964 94.9386 221.037C94.9386 221.037 89.7683 221.746 84.4687 222.622C73.3453 224.461 81.041 236.91 82.1335 238.306Z" fill="#2B478B"/>
<path d="M134.526 303.393L135.474 303.701L143.531 278.881L142.584 278.573L134.526 303.393Z" fill="#4A75CB"/>
<path d="M108.106 303.116L135.472 303.7L135.507 302.062L108.141 301.478L108.106 303.116Z" fill="#4A75CB"/>
<path d="M111.081 299.99C111.081 299.99 115.328 301.598 118.2 301.069C121.072 300.54 125.702 302.446 126.36 303.546C127.018 304.645 126.69 305.016 125.277 305.214C123.864 305.411 118.764 306.949 115.697 305.391C112.63 303.833 108.461 303.326 108.461 303.326L111.081 299.99Z" fill="#E49963"/>
<path d="M77.5105 257.803C77.5105 257.803 78.5497 293.269 86.335 297.299C90.1763 299.288 107.522 304.754 112.728 305.688C112.728 305.688 114.129 304.787 114.287 300.507C114.287 300.507 96.4641 291.621 94.2361 287.617C90.9203 281.658 99.1764 265.324 94.8224 259.589C90.4685 253.855 82.4139 250.704 77.5105 257.803Z" fill="#739AF0"/>
<path d="M373.28 398.503C373.28 398.503 373.677 395.406 374.598 393.564C375.518 391.722 381.376 392.894 381.376 392.894C381.376 392.894 382.547 393.899 382.798 398.587L373.28 398.503Z" fill="#233862"/>
<path d="M353.323 398.461C354.7 397.62 353.916 391.35 353.916 391.35C353.916 391.35 347.503 386.217 346.621 390.147C345.74 394.077 340.529 395.842 337.563 396.323C335.515 396.655 334.881 397.79 334.685 398.461H353.323Z" fill="#233862"/>
<path d="M366.607 352.858C366.382 354.003 366.225 355.16 366.137 356.324C365.54 367.959 356.347 394.56 354.703 395.181C352.159 396.141 348.152 394.1 346.056 393.432C345.631 393.306 345.268 393.028 345.035 392.651C344.802 392.274 344.717 391.825 344.795 391.388C349.347 370.45 351.02 340.299 351.629 322.448C351.937 313.457 353.479 307.246 353.479 307.246C353.479 307.246 375.9 301.261 376.034 308.832C376.152 315.532 368.607 341.806 366.607 352.858Z" fill="#213F7A"/>
<path d="M366.607 352.858L351.63 322.448C351.937 313.457 353.48 307.246 353.48 307.246C353.48 307.246 375.901 301.261 376.034 308.832C376.152 315.532 368.607 341.806 366.607 352.858Z" fill="#233862"/>
<path d="M361.619 308.858L373.471 394.804C373.471 394.804 378.676 396.059 382.725 395.055C382.725 395.055 386.195 349.345 385.906 338.294C385.617 327.244 388.396 308.725 385.271 306.682C382.146 304.64 361.619 308.858 361.619 308.858Z" fill="#213F7A"/>
<path d="M386.104 286.791L387.581 307.426C387.608 307.802 387.505 308.177 387.289 308.486C387.073 308.796 386.757 309.022 386.394 309.126C384.741 309.606 382.835 309.94 379.158 310.702C374.613 311.62 369.988 312.085 365.351 312.09C356.272 312.148 352.835 309.017 352.835 309.017C352.443 309.024 353.041 307.123 353.579 298.084C353.762 295.022 353.938 291.141 354.065 286.236C354.18 281.822 354.257 276.579 354.264 270.358C354.274 262.875 365.851 254.824 366.065 254.824L366.067 254.828C366.067 255.905 367.764 257.894 370.378 258.065C373.481 258.268 377.288 256.723 377.288 254.935C377.288 254.917 382.897 263.912 384.889 273.497C385.143 274.712 385.338 275.994 385.494 277.343C385.497 277.364 385.499 277.384 385.502 277.405C385.53 277.651 385.557 277.899 385.582 278.149C385.587 278.193 385.591 278.237 385.596 278.281C385.619 278.508 385.642 278.737 385.662 278.968C385.668 279.033 385.673 279.101 385.679 279.166C385.698 279.377 385.716 279.587 385.733 279.801C385.735 279.821 385.737 279.84 385.738 279.859C385.752 280.018 385.762 280.177 385.774 280.336C385.783 280.449 385.791 280.564 385.8 280.677C385.813 280.864 385.825 281.05 385.838 281.24C385.845 281.334 385.85 281.428 385.856 281.524C385.867 281.703 385.878 281.883 385.889 282.065C385.894 282.145 385.899 282.226 385.904 282.307C385.918 282.567 385.933 282.831 385.946 283.096C385.947 283.118 385.948 283.139 385.949 283.161C385.963 283.415 385.975 283.672 385.987 283.931C385.99 283.995 385.993 284.058 385.995 284.122C386.007 284.365 386.018 284.609 386.028 284.855C386.029 284.891 386.032 284.928 386.033 284.964C386.058 285.563 386.082 286.172 386.104 286.791C386.105 286.807 386.105 286.823 386.106 286.839L386.104 286.791Z" fill="#2B478B"/>
<path d="M366.065 254.825C366.065 254.825 355.3 254.734 352.709 258.369C350.118 262.005 344.437 281.561 347.402 288.068C350.366 294.576 355.913 285.376 358.992 281.39C362.07 277.405 366.065 254.825 366.065 254.825Z" fill="#2B478B"/>
<path d="M365.955 253.182L365.961 254.295C365.961 254.295 365.658 257.777 369.944 258.286C374.23 258.796 377.476 256.928 377.36 254.241C376.974 252.16 376.55 250.732 376.522 249.01C376.512 248.312 376.563 247.615 376.674 246.925L368.369 246.759L365.924 247.159L365.955 253.182Z" fill="#FFB27D"/>
<path d="M365.924 247.159L365.955 253.182C366.892 253.62 367.914 253.846 368.949 253.843C372.765 253.843 375.232 251.042 376.522 249.01C376.512 248.312 376.563 247.615 376.674 246.925L368.369 246.759L365.924 247.159Z" fill="#E2915A"/>
<path d="M377.31 245.588C376.347 250.776 369.656 250.605 366.764 250.279C365.95 250.188 365.438 250.085 365.438 250.085C364.521 249.839 364.009 248.393 363.771 246.499C363.299 242.751 363.896 237.249 364.528 235.842C365.481 233.725 367.275 231.434 374.013 233.087C380.752 234.74 378.546 238.94 377.31 245.588Z" fill="#FFB27D"/>
<path d="M355.056 269.4C355.056 269.4 350.893 278.6 351.014 281.357C352.379 281.337 353.74 281.512 355.056 281.877C358.311 282.848 355.056 269.4 355.056 269.4Z" fill="#233862"/>
<path d="M362.46 230.905C364.69 230.65 366.87 230.06 368.924 229.155C371.763 227.92 375.346 229.28 376.508 229.893C376.467 229.641 376.37 229.402 376.225 229.193C376.523 229.409 376.735 229.723 376.824 230.081C376.878 230.12 376.902 230.148 376.888 230.157C377.212 230.097 377.546 230.119 377.86 230.22C377.86 230.22 377.594 230.182 377.499 230.353C377.488 230.371 377.473 230.387 377.456 230.4C381.885 232.541 382.294 239.544 380.869 241.164C379.154 243.114 377.098 247.504 377.098 247.504C377.098 247.504 376.348 246.467 376.66 244.752C376.972 243.036 375.491 243.036 373.62 242.256C371.749 241.476 373.308 239.293 371.671 237.967C370.034 236.642 364.033 237.421 364.111 236.408C361.883 235.596 362.46 231.133 362.46 230.905Z" fill="#233862"/>
<path d="M378.668 286.633C376.91 293.694 357.901 297.343 353.58 298.085C353.763 295.023 353.939 291.142 354.066 286.236L378.668 286.633Z" fill="#233862"/>
<path d="M374.494 288.928C374.676 288.928 378.72 288.324 379.444 287.961C380.169 287.599 383.482 282.888 381.312 281.68C379.143 280.472 373.318 285.304 373.318 285.304L374.494 288.928Z" fill="#FFB27D"/>
<path d="M349.895 290.327C349.895 290.327 365.537 291.176 376.035 288.928C376.035 288.928 376.3 285.893 373.001 284.546C373.001 284.546 356.64 281.076 352.709 282.042C348.778 283.009 349.895 290.327 349.895 290.327Z" fill="#2B478B"/>
<path d="M385.818 278.046C382.572 281.962 378.328 285.159 373.649 285.908L373.648 285.907C372.724 284.329 372.319 282.501 372.49 280.68C372.655 278.965 373.24 277.317 374.194 275.882C374.56 275.295 374.868 274.674 375.114 274.027C377.669 267.506 377.288 254.936 377.288 254.936C377.288 254.936 388.137 256.073 391.518 260.904C393.589 263.864 390.948 271.854 385.818 278.046Z" fill="#2B478B"/>
<path d="M366.764 250.279C365.95 250.188 365.438 250.085 365.438 250.085C364.521 249.839 364.009 248.394 363.771 246.5C365.491 246.924 366.28 248.253 366.608 248.82C366.757 249.075 366.787 249.646 366.764 250.279Z" fill="#E2915A"/>
<path d="M362.393 253.214C362.393 253.214 358.646 247.028 361.559 246.759C364.473 246.49 365.644 248.463 366.065 249.187C366.486 249.912 365.955 253.181 365.955 253.181L362.393 253.214Z" fill="#FFB27D"/>
<path d="M376.674 280.472C376.562 281.214 376.347 281.937 376.035 282.62C375.467 283.864 374.656 284.981 373.65 285.908L373.648 285.907C363.917 281.512 361.948 266.422 361.619 258.131C361.486 254.798 361.619 252.563 361.619 252.563C366.008 251.109 367.242 253.636 367.242 253.636C367.242 253.636 372.425 265.968 375.114 274.027C376.143 277.11 376.806 279.57 376.674 280.472Z" fill="#2B478B"/>
<path d="M385.818 278.046C382.572 281.962 378.328 285.159 373.649 285.908L373.648 285.907C363.917 281.512 361.948 266.422 361.618 258.131C361.618 258.131 366.223 274.84 372.49 280.68C373.623 281.737 374.811 282.438 376.035 282.62C376.035 282.62 383.938 280.385 385.596 278.281C385.655 278.19 385.73 278.11 385.818 278.046Z" fill="#233862"/>
<path d="M575.834 398.302H0.653187C0.292441 398.302 0 398.643 0 399.064V399.323C0 399.744 0.292441 400.085 0.653187 400.085H575.834C576.195 400.085 576.487 399.744 576.487 399.323V399.064C576.487 398.643 576.195 398.302 575.834 398.302Z" fill="#2E3552"/>
<path d="M473.588 175.451H303.915L290.912 132.849H460.585L473.588 175.451Z" fill="#FAFDFF"/>
<path d="M454.129 147.254L455.684 152.349C456.368 154.591 455.095 156.426 452.854 156.426H312.282C310.041 156.426 307.647 154.591 306.963 152.349L305.408 147.254C304.723 145.012 305.997 143.177 308.238 143.177H448.81C451.051 143.177 453.444 145.012 454.129 147.254Z" fill="#B7D5F9"/>
<path d="M425.978 148.318H423.821L423.619 147.656H426.634L426.808 148.227L426.008 151.948H425.162L425.978 148.318Z" fill="#699DEE"/>
<path d="M427.818 149.801C427.444 148.575 427.888 147.582 429.016 147.582C430.137 147.582 431.178 148.563 431.556 149.801C431.93 151.027 431.485 152.02 430.358 152.02C429.231 152.02 428.196 151.04 427.818 149.801ZM430.777 149.801C430.519 148.955 429.873 148.262 429.211 148.262C428.549 148.262 428.333 148.937 428.596 149.801C428.855 150.647 429.494 151.34 430.163 151.34C430.83 151.34 431.039 150.659 430.777 149.801Z" fill="#699DEE"/>
<path d="M431.867 148.704C431.685 148.109 431.942 147.607 432.548 147.607C432.857 147.63 433.152 147.747 433.391 147.943C433.631 148.14 433.805 148.405 433.888 148.704C434.07 149.299 433.813 149.801 433.206 149.801C432.897 149.778 432.603 149.661 432.363 149.464C432.123 149.268 431.95 149.002 431.867 148.704V148.704ZM435.118 147.656H435.725L433.898 151.947H433.291L435.118 147.656ZM433.343 148.704C433.307 148.546 433.225 148.402 433.107 148.29C432.989 148.179 432.84 148.105 432.681 148.079C432.392 148.079 432.307 148.361 432.412 148.704C432.447 148.862 432.529 149.007 432.647 149.118C432.765 149.23 432.914 149.303 433.074 149.329C433.362 149.329 433.448 149.047 433.343 148.704ZM435.128 150.899C434.946 150.304 435.204 149.801 435.81 149.801C436.119 149.824 436.414 149.942 436.653 150.138C436.893 150.335 437.067 150.6 437.15 150.899C437.331 151.493 437.074 151.996 436.468 151.996C436.159 151.973 435.864 151.855 435.625 151.659C435.385 151.463 435.211 151.197 435.128 150.899V150.899ZM436.605 150.899C436.569 150.74 436.487 150.596 436.369 150.485C436.251 150.374 436.102 150.3 435.942 150.273C435.654 150.273 435.569 150.555 435.674 150.899C435.709 151.057 435.791 151.202 435.909 151.313C436.027 151.425 436.176 151.498 436.336 151.524C436.624 151.524 436.709 151.242 436.605 150.899Z" fill="#699DEE"/>
<path d="M403.29 143.177L407.334 156.426H312.282C310.414 156.426 308.443 155.152 307.443 153.433C307.241 153.092 307.08 152.728 306.963 152.349L305.408 147.254C304.723 145.012 305.997 143.177 308.238 143.177H403.29Z" fill="#F99746"/>
<path d="M325.062 143.177L321.055 156.426H312.282C310.414 156.426 308.443 155.152 307.443 153.433L310.543 143.177H325.062Z" fill="#ED7D2B"/>
<path d="M349.937 143.177L345.931 156.426H331.415L335.422 143.177H349.937Z" fill="#ED7D2B"/>
<path d="M374.816 143.177L370.809 156.426H356.29L360.297 143.177H374.816Z" fill="#ED7D2B"/>
<path d="M399.694 143.177L395.687 156.426H381.168L385.175 143.177H399.694Z" fill="#ED7D2B"/>
<path d="M338.062 164.273H312.675L312.14 162.521H337.528L338.062 164.273Z" fill="#AFCDFB"/>
<path d="M332.617 169.173H314.17L313.635 167.422H332.082L332.617 169.173Z" fill="#AFCDFB"/>
<path d="M344.78 169.173H333.754L333.219 167.422H344.246L344.78 169.173Z" fill="#AFCDFB"/>
<path d="M363.532 169.173H346.688L346.153 167.422H362.997L363.532 169.173Z" fill="#AFCDFB"/>
<path d="M347.658 164.273H339.971L339.437 162.521H347.123L347.658 164.273Z" fill="#AFCDFB"/>
<path d="M378.241 164.273H350.289L349.754 162.521H377.706L378.241 164.273Z" fill="#AFCDFB"/>
<path d="M244.568 239.751H125.205L106.651 178.965H226.014L244.568 239.751Z" fill="#FAFDFF"/>
<path d="M227.721 209.358H123.499L115.614 183.525H219.836L227.721 209.358Z" fill="#4A75CB"/>
<path d="M140.635 188.775H122.981L122.56 187.397H140.215L140.635 188.775Z" fill="#CAE0FF"/>
<path d="M159.52 188.775H144.837L144.416 187.397H159.099L159.52 188.775Z" fill="#CAE0FF"/>
<path d="M193.692 188.775H163.344L162.924 187.397H193.272L193.692 188.775Z" fill="#CAE0FF"/>
<path d="M142.143 193.713H124.488L124.068 192.335H141.722L142.143 193.713Z" fill="#CAE0FF"/>
<path d="M161.027 193.713H146.344L145.923 192.335H160.606L161.027 193.713Z" fill="#CAE0FF"/>
<path d="M178.367 193.713H163.685L163.264 192.335H177.947L178.367 193.713Z" fill="#CAE0FF"/>
<path d="M213.164 194.288H182.816L182.395 192.91H212.743L213.164 194.288Z" fill="#CAE0FF"/>
<path d="M144.053 199.974H126.399L125.978 198.596H143.633L144.053 199.974Z" fill="#CAE0FF"/>
<path d="M162.937 199.974H148.254L147.833 198.596H162.517L162.937 199.974Z" fill="#CAE0FF"/>
<path d="M197.111 199.974H166.763L166.342 198.596H196.69L197.111 199.974Z" fill="#CAE0FF"/>
<path d="M145.561 204.912H127.906L127.485 203.534H145.14L145.561 204.912Z" fill="#CAE0FF"/>
<path d="M164.444 204.912H149.761L149.341 203.534H164.024L164.444 204.912Z" fill="#CAE0FF"/>
<path d="M181.785 204.912H167.102L166.682 203.534H181.365L181.785 204.912Z" fill="#CAE0FF"/>
<path d="M216.581 205.486H186.233L185.812 204.108H216.16L216.581 205.486Z" fill="#CAE0FF"/>
<path d="M193.384 230.759C189.339 230.759 185.043 227.467 183.807 223.419C182.572 219.372 184.858 216.079 188.904 216.079C192.949 216.079 197.245 219.372 198.481 223.419C199.716 227.467 197.43 230.759 193.384 230.759ZM189.313 217.42C186.006 217.42 184.137 220.111 185.147 223.419C186.157 226.728 189.669 229.419 192.975 229.419C196.282 229.419 198.151 226.728 197.141 223.419C196.131 220.111 192.62 217.42 189.313 217.42Z" fill="#A8D29F"/>
<path d="M192.135 227.153C191.831 227.123 191.543 227.004 191.307 226.811L187.147 223.513C186.584 223.067 186.384 222.36 186.7 221.934C187.015 221.507 187.726 221.523 188.289 221.969L191.229 224.299L192.674 220.85C192.883 220.351 193.547 220.24 194.157 220.601C194.767 220.963 195.091 221.661 194.882 222.161L192.983 226.694C192.924 226.829 192.827 226.943 192.706 227.024C192.584 227.106 192.441 227.15 192.295 227.153C192.241 227.157 192.188 227.157 192.135 227.153V227.153Z" fill="#A8D29F"/>
<path d="M172.392 230.759C168.346 230.759 164.05 227.467 162.815 223.419C161.579 219.372 163.866 216.079 167.911 216.079C171.956 216.079 176.253 219.372 177.488 223.419C178.723 227.467 176.437 230.759 172.392 230.759ZM168.32 217.42C165.013 217.42 163.145 220.111 164.154 223.419C165.164 226.728 168.676 229.419 171.983 229.419C175.289 229.419 177.158 226.728 176.148 223.419C175.138 220.111 171.627 217.42 168.32 217.42Z" fill="#A8D29F"/>
<path d="M171.143 227.153C170.84 227.123 170.552 227.004 170.315 226.811L166.155 223.513C165.592 223.067 165.392 222.36 165.708 221.934C166.023 221.507 166.734 221.523 167.297 221.969L170.237 224.299L171.682 220.85C171.891 220.351 172.555 220.24 173.165 220.601C173.775 220.963 174.099 221.661 173.89 222.161L171.991 226.694C171.932 226.829 171.836 226.943 171.714 227.024C171.592 227.106 171.449 227.15 171.303 227.153C171.249 227.157 171.196 227.157 171.143 227.153V227.153Z" fill="#A8D29F"/>
<path d="M150.648 230.759C146.602 230.759 142.306 227.467 141.071 223.419C139.835 219.372 142.122 216.079 146.167 216.079C150.212 216.079 154.508 219.372 155.744 223.419C156.979 227.467 154.693 230.759 150.648 230.759ZM146.576 217.42C143.269 217.42 141.401 220.111 142.41 223.419C143.42 226.728 146.932 229.419 150.238 229.419C153.545 229.419 155.414 226.728 154.404 223.419C153.394 220.111 149.883 217.42 146.576 217.42Z" fill="#A8D29F"/>
<path d="M149.399 227.153C149.095 227.123 148.807 227.004 148.571 226.811L144.41 223.513C143.848 223.067 143.648 222.36 143.963 221.934C144.278 221.507 144.99 221.523 145.553 221.969L148.492 224.299L149.937 220.85C150.147 220.351 150.811 220.24 151.421 220.601C152.03 220.963 152.355 221.661 152.146 222.161L150.246 226.694C150.187 226.829 150.091 226.943 149.969 227.024C149.847 227.106 149.705 227.15 149.558 227.153C149.505 227.157 149.452 227.157 149.399 227.153Z" fill="#A8D29F"/>
<path d="M213.637 230.759C209.592 230.759 205.296 227.467 204.06 223.419C202.825 219.372 205.111 216.079 209.157 216.079C213.202 216.079 217.498 219.372 218.734 223.419C219.969 227.467 217.683 230.759 213.637 230.759ZM209.566 217.42C206.259 217.42 204.39 220.111 205.4 223.419C206.41 226.728 209.921 229.419 213.228 229.419C216.535 229.419 218.404 226.728 217.394 223.419C216.384 220.111 212.872 217.42 209.566 217.42Z" fill="#F1A34F"/>
<path d="M211.763 224.62C211.46 224.601 211.169 224.493 210.928 224.308C210.687 224.123 210.506 223.87 210.409 223.582L209.457 220.464C209.283 219.893 209.607 219.426 210.178 219.426C210.481 219.444 210.772 219.553 211.013 219.738C211.255 219.923 211.435 220.176 211.532 220.464L212.484 223.582C212.658 224.153 212.334 224.62 211.763 224.62Z" fill="#F1A34F"/>
<path d="M212.623 227.068H212.399C212.128 227.051 211.869 226.954 211.654 226.789C211.438 226.625 211.277 226.399 211.191 226.142V226.142C211.146 226.039 211.128 225.925 211.139 225.813C211.15 225.7 211.19 225.593 211.254 225.5C211.319 225.407 211.406 225.333 211.507 225.283C211.608 225.233 211.721 225.21 211.834 225.216H212.058C212.328 225.233 212.588 225.33 212.803 225.495C213.018 225.66 213.179 225.885 213.266 226.142C213.311 226.246 213.328 226.359 213.317 226.471C213.306 226.584 213.266 226.691 213.202 226.784C213.138 226.877 213.051 226.952 212.949 227.001C212.848 227.051 212.735 227.074 212.623 227.068V227.068Z" fill="#F1A34F"/>
<path d="M498.875 227.647C498.875 227.647 513.972 243.307 514.685 249.202C515.398 255.096 507.453 264.297 507.453 264.297L498.875 227.647Z" fill="#ED7D2B"/>
<path d="M492.053 389.945C492.053 389.945 491.52 398.252 489.914 398.368C489.7 398.383 481.765 398.366 481.765 398.366L471.636 398.285C471.636 398.285 471.708 395.844 474.67 395.334C477.632 394.824 482.592 392.753 484.394 388.842C486.29 384.727 492.053 389.945 492.053 389.945Z" fill="#163560"/>
<path d="M514.614 389.994C514.614 389.994 514.081 398.3 512.474 398.416C512.26 398.431 504.326 398.414 504.326 398.414L494.197 398.333C494.197 398.333 494.269 395.892 497.23 395.382C500.192 394.873 505.153 392.801 506.954 388.89C508.85 384.776 514.614 389.994 514.614 389.994Z" fill="#163560"/>
<path d="M481.029 300.635C481.029 300.635 483.642 317.591 493.459 347.703C503.276 377.815 504.594 390.848 504.594 390.848L515.196 390.574C515.196 390.574 515.358 357.689 510.837 342.547C506.315 327.406 509.972 287.995 509.972 287.995L481.029 300.635Z" fill="#163560"/>
<path d="M475.896 288.851C475.896 288.851 475.466 314.393 479.815 345.766C484.164 377.139 482.638 390.449 482.638 390.449L493.217 390.824C493.217 390.824 499.608 359.463 497.83 343.761C496.051 328.059 506.605 289.913 506.605 289.913L475.896 288.851Z" fill="#1C468A"/>
<path d="M496.508 229.118L490.863 232.804L482.719 231.267C482.833 230.609 483.377 227.883 483.872 225.414C483.902 225.269 483.932 225.123 483.96 224.981C484.384 222.88 484.751 221.075 484.751 221.075L492.367 217.733L495.206 216.487C495.199 216.531 494.981 218.819 494.951 219.153C494.406 225.084 496.508 229.118 496.508 229.118Z" fill="#FFB27D"/>
<path d="M484.814 227.227C484.972 227.161 494.631 224.332 495.679 224.681C496.727 225.029 497.343 227.06 497.343 227.06L481.547 230.597C481.547 230.597 482.796 228.072 484.814 227.227Z" fill="#ED7D2B"/>
<path d="M510.666 292.079C509.013 299.543 481.782 300.369 474.778 293.575C473.981 292.801 473.949 289.207 474.261 284.36C474.871 274.892 476.793 260.653 476.882 253.375C476.963 249.89 477.359 246.419 478.066 243.005C478.908 238.786 480.072 234.638 481.547 230.597C481.547 230.597 494.856 226.324 497.343 227.061C509.325 230.611 512.318 284.615 510.666 292.079Z" fill="#F99746"/>
<path d="M474.261 284.36C474.87 274.892 476.793 260.652 476.882 253.375C476.962 249.889 477.359 246.418 478.066 243.005L486.07 241.609C486.07 241.609 493.823 273.591 474.261 284.36Z" fill="#ED7D2B"/>
<path d="M478.622 271.171C478.771 271.55 478.792 271.968 478.683 272.361C478.574 272.754 478.34 273.1 478.017 273.349C476.87 274.222 476.124 275.639 476.385 276.676C476.644 277.714 479.153 279.41 480.024 279.14C480.896 278.869 482.671 277.507 482.482 276.96C482.292 276.413 483.684 272.164 481.565 270.522C479.445 268.881 478.622 271.171 478.622 271.171Z" fill="#FFB27D"/>
<path d="M487.66 228.694C487.66 228.694 479.855 230.138 473.618 239.291C467.381 248.444 463.275 255.25 464.414 258.556C465.552 261.862 475.966 273.343 477.766 273.347C479.566 273.35 482.473 272.047 482.643 269.101C482.643 269.101 475.317 258.064 476.768 256.417C477.389 255.713 486.328 248.485 487.595 251.761C489.691 257.182 487.66 228.694 487.66 228.694Z" fill="#F99746"/>
<path d="M494.379 219.257C492.703 222.085 486.471 224.52 483.872 225.415C483.902 225.269 483.932 225.123 483.96 224.981C484.384 222.88 484.75 221.075 484.75 221.075L492.366 217.733C494.048 217.714 495.072 218.092 494.379 219.257Z" fill="#FCA56B"/>
<path d="M481.883 220.607C481.883 220.607 494.131 224.459 496.412 216.79C498.692 209.122 501.808 204.455 494.084 201.671C486.361 198.888 483.964 201.36 482.581 203.734C481.197 206.108 478.756 219.407 481.883 220.607Z" fill="#FFB27D"/>
<path d="M483.064 202.995C483.064 202.995 483.826 211.926 485.673 211.542C487.519 211.159 489.194 210.875 488.918 213.566C488.641 216.257 486.075 219.359 491.762 219.848C497.45 220.336 505.658 205.678 504.102 202.896C499.611 194.868 476.568 193.2 483.064 202.995Z" fill="#163560"/>
<g opacity="0.5">
<path d="M228.476 136.911V134.735H230.716V136.911H228.476Z" fill="#AFCDFB"/>
<path d="M228.476 132.51V130.334H230.716V132.51H228.476Z" fill="#AFCDFB"/>
<path d="M228.476 128.11V125.934H230.716V128.11H228.476Z" fill="#AFCDFB"/>
<path d="M228.476 123.71V121.534H230.716V123.71H228.476Z" fill="#AFCDFB"/>
<path d="M228.476 119.31V117.134H230.716V119.31H228.476Z" fill="#AFCDFB"/>
<path d="M228.476 114.91V112.734H230.716V114.91H228.476Z" fill="#AFCDFB"/>
<path d="M228.476 110.509V108.333H230.716V110.509H228.476Z" fill="#AFCDFB"/>
<path d="M228.476 106.109V103.934H230.716V106.109H228.476Z" fill="#AFCDFB"/>
<path d="M228.476 101.709V99.533H230.716V101.709H228.476Z" fill="#AFCDFB"/>
<path d="M228.476 97.3089V95.1331H230.716V97.3089H228.476Z" fill="#AFCDFB"/>
<path d="M228.476 92.9085V90.7327H230.716V92.9085H228.476Z" fill="#AFCDFB"/>
<path d="M228.476 88.5084V86.3325H230.716V88.5084H228.476Z" fill="#AFCDFB"/>
<path d="M228.476 84.1077V81.9319H230.716V84.1077H228.476Z" fill="#AFCDFB"/>
<path d="M228.476 79.7081V77.5322H230.716V79.7081H228.476Z" fill="#AFCDFB"/>
<path d="M228.476 75.3077V73.1318H230.716V75.3077H228.476Z" fill="#AFCDFB"/>
<path d="M228.476 70.9078V68.7319H230.716V70.9078H228.476Z" fill="#AFCDFB"/>
<path d="M228.476 66.5074V64.3315H230.716V66.5074H228.476Z" fill="#AFCDFB"/>
<path d="M228.476 62.1075V59.9316H230.716V62.1075H228.476Z" fill="#AFCDFB"/>
</g>
<g opacity="0.5">
<path d="M221.628 110.509V108.333H223.868V110.509H221.628Z" fill="#AFCDFB"/>
<path d="M221.628 106.109V103.934H223.868V106.109H221.628Z" fill="#AFCDFB"/>
<path d="M221.628 101.709V99.533H223.868V101.709H221.628Z" fill="#AFCDFB"/>
<path d="M221.628 97.3089V95.1331H223.868V97.3089H221.628Z" fill="#AFCDFB"/>
<path d="M221.628 92.9085V90.7327H223.868V92.9085H221.628Z" fill="#AFCDFB"/>
<path d="M221.628 88.5084V86.3325H223.868V88.5084H221.628Z" fill="#AFCDFB"/>
<path d="M221.628 84.1077V81.9319H223.868V84.1077H221.628Z" fill="#AFCDFB"/>
<path d="M221.628 79.7081V77.5322H223.868V79.7081H221.628Z" fill="#AFCDFB"/>
<path d="M221.628 75.3077V73.1318H223.868V75.3077H221.628Z" fill="#AFCDFB"/>
<path d="M221.628 70.9078V68.7319H223.868V70.9078H221.628Z" fill="#AFCDFB"/>
<path d="M221.628 66.5074V64.3315H223.868V66.5074H221.628Z" fill="#AFCDFB"/>
<path d="M221.628 62.1075V59.9316H223.868V62.1075H221.628Z" fill="#AFCDFB"/>
</g>
<g opacity="0.5">
<path d="M214.651 136.911V134.735H216.891V136.911H214.651Z" fill="#AFCDFB"/>
<path d="M214.651 132.51V130.334H216.891V132.51H214.651Z" fill="#AFCDFB"/>
<path d="M214.651 128.11V125.934H216.891V128.11H214.651Z" fill="#AFCDFB"/>
<path d="M214.651 123.71V121.534H216.891V123.71H214.651Z" fill="#AFCDFB"/>
<path d="M214.651 119.31V117.134H216.891V119.31H214.651Z" fill="#AFCDFB"/>
<path d="M214.651 114.91V112.734H216.891V114.91H214.651Z" fill="#AFCDFB"/>
<path d="M214.651 110.509V108.333H216.891V110.509H214.651Z" fill="#AFCDFB"/>
<path d="M214.651 106.109V103.934H216.891V106.109H214.651Z" fill="#AFCDFB"/>
<path d="M214.651 101.709V99.533H216.891V101.709H214.651Z" fill="#AFCDFB"/>
<path d="M214.651 97.3089V95.1331H216.891V97.3089H214.651Z" fill="#AFCDFB"/>
<path d="M214.651 92.9085V90.7327H216.891V92.9085H214.651Z" fill="#AFCDFB"/>
<path d="M214.651 88.5084V86.3325H216.891V88.5084H214.651Z" fill="#AFCDFB"/>
<path d="M214.651 84.1077V81.9319H216.891V84.1077H214.651Z" fill="#AFCDFB"/>
<path d="M214.651 79.7081V77.5322H216.891V79.7081H214.651Z" fill="#AFCDFB"/>
<path d="M214.651 75.3077V73.1318H216.891V75.3077H214.651Z" fill="#AFCDFB"/>
<path d="M214.651 70.9078V68.7319H216.891V70.9078H214.651Z" fill="#AFCDFB"/>
<path d="M214.651 66.5074V64.3315H216.891V66.5074H214.651Z" fill="#AFCDFB"/>
<path d="M214.651 62.1075V59.9316H216.891V62.1075H214.651Z" fill="#AFCDFB"/>
</g>
<g opacity="0.5">
<path d="M208.777 145.711V143.535H211.017V145.711H208.777Z" fill="#AFCDFB"/>
<path d="M208.777 141.31V139.135H211.017V141.31H208.777Z" fill="#AFCDFB"/>
<path d="M208.777 136.911V134.735H211.017V136.911H208.777Z" fill="#AFCDFB"/>
<path d="M208.777 132.51V130.334H211.017V132.51H208.777Z" fill="#AFCDFB"/>
<path d="M208.777 128.11V125.934H211.017V128.11H208.777Z" fill="#AFCDFB"/>
<path d="M208.777 123.71V121.534H211.017V123.71H208.777Z" fill="#AFCDFB"/>
<path d="M208.777 119.31V117.134H211.017V119.31H208.777Z" fill="#AFCDFB"/>
<path d="M208.777 114.91V112.734H211.017V114.91H208.777Z" fill="#AFCDFB"/>
<path d="M208.777 110.509V108.333H211.017V110.509H208.777Z" fill="#AFCDFB"/>
<path d="M208.777 106.109V103.934H211.017V106.109H208.777Z" fill="#AFCDFB"/>
<path d="M208.777 101.709V99.533H211.017V101.709H208.777Z" fill="#AFCDFB"/>
<path d="M208.777 97.3089V95.1331H211.017V97.3089H208.777Z" fill="#AFCDFB"/>
<path d="M208.777 92.9085V90.7327H211.017V92.9085H208.777Z" fill="#AFCDFB"/>
<path d="M208.777 88.5084V86.3325H211.017V88.5084H208.777Z" fill="#AFCDFB"/>
<path d="M208.777 84.1077V81.9319H211.017V84.1077H208.777Z" fill="#AFCDFB"/>
<path d="M208.777 79.7081V77.5322H211.017V79.7081H208.777Z" fill="#AFCDFB"/>
<path d="M208.777 75.3077V73.1318H211.017V75.3077H208.777Z" fill="#AFCDFB"/>
<path d="M208.777 70.9078V68.7319H211.017V70.9078H208.777Z" fill="#AFCDFB"/>
<path d="M208.777 66.5074V64.3315H211.017V66.5074H208.777Z" fill="#AFCDFB"/>
<path d="M208.776 62.1075V59.9316H211.017V62.1075H208.776Z" fill="#AFCDFB"/>
</g>
<g opacity="0.5">
<path d="M201.024 106.109V103.934H203.265V106.109H201.024Z" fill="#AFCDFB"/>
<path d="M201.024 101.709V99.533H203.265V101.709H201.024Z" fill="#AFCDFB"/>
<path d="M201.024 97.3089V95.1331H203.265V97.3089H201.024Z" fill="#AFCDFB"/>
<path d="M201.024 92.9085V90.7327H203.265V92.9085H201.024Z" fill="#AFCDFB"/>
<path d="M201.024 88.5084V86.3325H203.265V88.5084H201.024Z" fill="#AFCDFB"/>
<path d="M201.024 84.1077V81.9319H203.265V84.1077H201.024Z" fill="#AFCDFB"/>
<path d="M201.024 79.7081V77.5322H203.265V79.7081H201.024Z" fill="#AFCDFB"/>
<path d="M201.024 75.3077V73.1318H203.265V75.3077H201.024Z" fill="#AFCDFB"/>
<path d="M201.024 70.9078V68.7319H203.265V70.9078H201.024Z" fill="#AFCDFB"/>
<path d="M201.024 66.5074V64.3315H203.265V66.5074H201.024Z" fill="#AFCDFB"/>
<path d="M201.024 62.1075V59.9316H203.265V62.1075H201.024Z" fill="#AFCDFB"/>
</g>
</svg>
