<svg width="112" height="23" viewBox="0 0 112 23" fill="none" xmlns="http://www.w3.org/2000/svg">
<path d="M13.4135 22.3493C11.3335 22.9893 9.11346 22.7793 6.75346 21.7193C4.41346 20.6593 2.69346 19.2193 1.59346 17.3993C0.793462 16.0593 0.293462 14.6493 0.0934615 13.1693C-0.0865385 11.6893 -0.00653842 10.4093 0.333462 9.3293C0.693462 8.2293 1.24346 7.1093 1.98346 5.9693C2.72346 4.8293 3.59346 3.8593 4.59346 3.0593C5.69346 2.2193 6.87346 1.6193 8.13346 1.2593C9.41346 0.899296 10.7135 0.809296 12.0335 0.989296C13.3735 1.1693 14.7135 1.7193 16.0535 2.6393C17.4135 3.5393 18.6435 4.7893 19.7435 6.3893C19.9835 6.7293 20.0635 7.1093 19.9835 7.5293C19.9035 7.9293 19.6835 8.2493 19.3235 8.4893C18.9835 8.7293 18.6135 8.8093 18.2135 8.7293C17.8135 8.6493 17.4935 8.4393 17.2535 8.0993C16.3935 6.8593 15.4635 5.8993 14.4635 5.2193C13.4835 4.5193 12.5235 4.1193 11.5835 4.0193C10.6435 3.8993 9.74346 3.9593 8.88346 4.1993C8.06346 4.4593 7.26346 4.8893 6.48346 5.4893C5.42346 6.3093 4.59346 7.2993 3.99346 8.4593C3.39346 9.4593 3.09346 10.6193 3.09346 11.9393C3.09346 13.2593 3.46346 14.5493 4.20346 15.8093C4.98346 17.1093 6.22346 18.1393 7.92346 18.8993C9.64346 19.6593 11.1835 19.8393 12.5435 19.4393C13.7835 19.0593 14.7835 18.3393 15.5435 17.2793C16.3235 16.1993 16.7035 15.0193 16.6835 13.7393C14.9235 13.7593 13.0235 13.8193 10.9835 13.9193C10.5835 13.9393 10.2235 13.8093 9.90346 13.5293C9.60346 13.2493 9.44346 12.8993 9.42346 12.4793C9.40346 12.0593 9.53346 11.6893 9.81346 11.3693C10.0935 11.0493 10.4435 10.8793 10.8635 10.8593C13.4035 10.7393 15.8235 10.6793 18.1235 10.6793C18.5435 10.6793 18.9035 10.8293 19.2035 11.1293C19.5035 11.4293 19.6535 11.7893 19.6535 12.2093V12.4193C19.9935 14.5793 19.5635 16.6193 18.3635 18.5393C17.1835 20.4393 15.5335 21.7093 13.4135 22.3493Z" fill="white"/>
<path d="M31.1135 22.6793C29.6335 22.5793 28.3435 22.2793 27.2435 21.7793C26.1435 21.2793 25.3035 20.6493 24.7235 19.8893C24.1435 19.1293 23.7235 18.4293 23.4635 17.7893C23.2035 17.1493 23.0435 16.5193 22.9835 15.8993C22.9235 15.2593 22.9535 14.4393 23.0735 13.4393C23.2135 12.5993 23.5035 11.7693 23.9435 10.9493C24.4035 10.1293 25.0035 9.3993 25.7435 8.7593C26.5035 8.0993 27.4135 7.5993 28.4735 7.2593C29.5335 6.8993 30.6635 6.7893 31.8635 6.9293C33.0235 7.0693 34.0135 7.3893 34.8335 7.8893C35.6535 8.3693 36.3535 8.9893 36.9335 9.7493C37.4335 10.3893 37.7335 10.8693 37.8335 11.1893C37.9535 11.5093 38.0535 11.8093 38.1335 12.0893C38.2335 12.3693 38.3135 12.6093 38.3735 12.8093C38.4335 13.0093 38.4835 13.2193 38.5235 13.4393C38.5835 13.6393 38.6235 13.8793 38.6435 14.1593C38.6635 14.5393 38.5935 14.8893 38.4335 15.2093C38.2735 15.5293 38.0335 15.7793 37.7135 15.9593C37.4535 16.0593 37.1735 16.1093 36.8735 16.1093L31.7435 16.1993C28.1435 16.2193 26.3435 16.2593 26.3435 16.3193H26.2535C26.5135 17.3393 27.0535 18.1393 27.8735 18.7193C28.7135 19.2993 29.8535 19.6393 31.2935 19.7393C32.0735 19.7793 32.7235 19.7393 33.2435 19.6193C33.8235 19.4593 34.2435 19.3193 34.5035 19.1993C34.7635 19.0593 35.0835 18.8793 35.4635 18.6593C35.8435 18.5193 36.2235 18.5393 36.6035 18.7193C36.9835 18.8993 37.2435 19.1793 37.3835 19.5593C37.5235 19.9393 37.5035 20.3093 37.3235 20.6693C37.1635 21.0293 36.9035 21.3093 36.5435 21.5093C36.2235 21.6893 35.8935 21.8493 35.5535 21.9893C35.2135 22.1093 34.7135 22.2593 34.0535 22.4393C33.3935 22.6193 32.4135 22.6993 31.1135 22.6793ZM26.3135 13.3793C27.4735 13.3193 30.4835 13.2593 35.3435 13.1993C35.1635 12.5993 34.8735 12.0293 34.4735 11.4893C33.6735 10.5693 32.6835 10.0393 31.5035 9.8993C30.2635 9.7393 29.1735 10.0093 28.2335 10.7093C27.2935 11.3893 26.6535 12.2793 26.3135 13.3793Z" fill="white"/>
<path d="M47.0667 22.4393C46.9467 22.3993 46.6967 22.3393 46.3167 22.2593C45.9567 22.1793 45.6367 22.0893 45.3567 21.9893C45.0967 21.8893 44.7867 21.7493 44.4267 21.5693C44.0867 21.3693 43.7767 21.1093 43.4967 20.7893C43.2167 20.4493 42.9767 20.0493 42.7767 19.5893C42.5567 19.0493 42.4167 17.9893 42.3567 16.4093C42.2967 15.1893 42.2867 13.6193 42.3267 11.6993C42.3267 11.3393 42.3367 10.7393 42.3567 9.8993L42.1167 9.9293C41.6967 9.9693 41.3267 9.8593 41.0067 9.5993C40.6867 9.3393 40.4967 9.0093 40.4367 8.6093C40.3967 8.1893 40.5067 7.8193 40.7667 7.4993C41.0267 7.1793 41.3567 6.9893 41.7567 6.9293L42.4467 6.8693C42.4667 5.8093 42.4967 4.7393 42.5367 3.6593C42.5567 3.2393 42.7167 2.8893 43.0167 2.6093C43.3167 2.3293 43.6767 2.1993 44.0967 2.2193C44.5167 2.2393 44.8667 2.3993 45.1467 2.6993C45.4267 2.9993 45.5567 3.3593 45.5367 3.7793L45.4467 6.6293L46.4367 6.5693C46.8567 6.5493 47.2167 6.6693 47.5167 6.9293C47.8367 7.1893 48.0067 7.5293 48.0267 7.9493C48.0667 8.3693 47.9567 8.7393 47.6967 9.0593C47.4367 9.3593 47.0967 9.5293 46.6767 9.5693L45.3567 9.6293C45.3367 10.5893 45.3267 11.2893 45.3267 11.7293C45.2867 13.6093 45.2967 15.1393 45.3567 16.3193C45.3967 17.5193 45.4567 18.2093 45.5367 18.3893C45.6167 18.5693 45.6767 18.6993 45.7167 18.7793C45.7567 18.8393 45.8267 18.9093 45.9267 18.9893C46.0467 19.0493 46.1667 19.0893 46.2867 19.1093C46.4067 19.1293 46.6267 19.1893 46.9467 19.2893C47.2867 19.3693 47.6467 19.4793 48.0267 19.6193C48.4067 19.7393 48.6867 19.9893 48.8667 20.3693C49.0667 20.7293 49.0967 21.1093 48.9567 21.5093C48.8367 21.8893 48.5867 22.1793 48.2067 22.3793C47.8467 22.5593 47.4667 22.5793 47.0667 22.4393Z" fill="white"/>
<path d="M59.9259 22.5893C57.3259 22.6293 55.4759 22.6193 54.3759 22.5593C53.9959 22.5393 53.6659 22.3993 53.3859 22.1393C53.1059 21.8593 52.9559 21.5193 52.9359 21.1193C52.9159 21.0193 52.9059 20.9293 52.9059 20.8493C52.8859 19.7093 52.8359 17.0193 52.7559 12.7793C52.6759 8.5393 52.6359 5.0793 52.6359 2.3993C52.6359 1.9793 52.7759 1.6293 53.0559 1.3493C53.3559 1.0493 53.7159 0.899297 54.1359 0.899297C54.5559 0.899297 54.9059 1.0493 55.1859 1.3493C55.4859 1.6293 55.6359 1.9793 55.6359 2.3993C55.6359 4.4193 55.6459 6.3593 55.6659 8.2193C55.7059 10.0793 55.7459 12.1293 55.7859 14.3693C55.8459 16.5893 55.8759 18.3293 55.8759 19.5893C56.9159 19.6093 58.5059 19.5993 60.6459 19.5593C62.8059 19.5193 64.4459 19.5093 65.5659 19.5293C65.9859 19.5293 66.3359 19.6793 66.6159 19.9793C66.8959 20.2793 67.0359 20.6393 67.0359 21.0593C67.0359 21.4793 66.8859 21.8293 66.5859 22.1093C66.2859 22.3893 65.9259 22.5293 65.5059 22.5293C64.4259 22.5093 62.5659 22.5293 59.9259 22.5893Z" fill="white"/>
<path d="M90.8317 21.1193C90.8117 21.5393 90.6517 21.8893 90.3517 22.1693C90.0517 22.4493 89.6917 22.5793 89.2717 22.5593C88.8517 22.5393 88.5017 22.3793 88.2217 22.0793C87.9417 21.7793 87.8117 21.4193 87.8317 20.9993C87.9117 20.3993 87.9417 18.0093 87.9217 13.8293C87.9017 9.6493 87.8917 7.2593 87.8917 6.6593C86.3517 8.6593 84.5717 11.2193 82.5517 14.3393C82.3317 14.6993 82.0117 14.9193 81.5917 14.9993C81.1917 15.0793 80.8217 15.0093 80.4817 14.7893C80.4617 14.7693 80.4417 14.7593 80.4217 14.7593C80.2417 14.6393 80.0917 14.4993 79.9717 14.3393C79.1317 13.1593 77.7117 11.3693 75.7117 8.9693L73.7617 6.6293C73.8217 8.1293 73.8517 9.8493 73.8517 11.7893C73.8517 12.7493 73.8317 14.2593 73.7917 16.3193C73.7717 18.3793 73.7617 19.9393 73.7617 20.9993C73.7617 21.4193 73.6117 21.7793 73.3117 22.0793C73.0317 22.3593 72.6817 22.4993 72.2617 22.4993C71.8417 22.4993 71.4817 22.3593 71.1817 22.0793C70.9017 21.7793 70.7617 21.4193 70.7617 20.9993C70.7617 19.9393 70.7717 18.3793 70.7917 16.3193C70.8317 14.2593 70.8517 12.7393 70.8517 11.7593C70.8517 8.0193 70.7317 5.0093 70.4917 2.7293C70.4517 2.3093 70.5617 1.9393 70.8217 1.6193C71.0817 1.2993 71.4217 1.1193 71.8417 1.0793C72.0417 1.0593 72.2317 1.0793 72.4117 1.1393C72.8717 1.1593 73.2517 1.3493 73.5517 1.7093L78.0217 7.0193C79.2817 8.5193 80.3417 9.8293 81.2017 10.9493C83.8817 6.8693 86.2117 3.7593 88.1917 1.6193C88.2717 1.5393 88.3517 1.4693 88.4317 1.4093C88.7517 1.1093 89.1217 0.969296 89.5417 0.989296C89.9617 1.0093 90.3117 1.1693 90.5917 1.4693C90.8717 1.7693 91.0017 2.1293 90.9817 2.5493C90.9017 4.6493 90.8717 7.7693 90.8917 11.9093C90.9317 16.0293 90.9117 19.0993 90.8317 21.1193Z" fill="white"/>
<path d="M103.02 22.8293C101.6 22.8293 100.32 22.5593 99.1802 22.0193C98.0402 21.4593 97.1402 20.6993 96.4802 19.7393C95.8402 18.7593 95.5202 17.6493 95.5202 16.4093C95.5202 15.9293 95.6702 15.5493 95.9702 15.2693C96.2902 14.9693 96.6602 14.8193 97.0802 14.8193C97.4002 14.8193 97.6902 14.9193 97.9502 15.1193C98.2102 15.3193 98.3702 15.6193 98.4302 16.0193C98.7102 18.5993 100.37 19.8893 103.41 19.8893C104.87 19.8893 106.02 19.5693 106.86 18.9293C107.7 18.2893 108.12 17.4693 108.12 16.4693C108.12 15.8693 107.83 15.3693 107.25 14.9693C106.67 14.5493 105.88 14.1793 104.88 13.8593L103.95 13.5293C101.97 12.8693 100.55 12.3293 99.6902 11.9093C98.4502 11.2893 97.5202 10.5593 96.9002 9.7193C96.3002 8.8793 96.0002 7.8893 96.0002 6.7493C96.0002 5.7493 96.3202 4.7893 96.9602 3.8693C97.6002 2.9493 98.4902 2.2093 99.6302 1.6493C100.79 1.0693 102.08 0.779297 103.5 0.779297C104.98 0.779297 106.3 1.0493 107.46 1.5893C108.62 2.1293 109.52 2.8493 110.16 3.7493C110.8 4.6493 111.12 5.6093 111.12 6.6293C111.12 7.1493 110.97 7.5593 110.67 7.8593C110.39 8.1393 110.04 8.2793 109.62 8.2793C109.22 8.2793 108.88 8.1393 108.6 7.8593C108.32 7.5593 108.18 7.1693 108.18 6.6893C108.18 6.1893 107.96 5.7093 107.52 5.2493C107.1 4.7693 106.52 4.3893 105.78 4.1093C105.06 3.8093 104.27 3.6593 103.41 3.6593C101.93 3.6593 100.83 3.9193 100.11 4.4393C99.3902 4.9393 99.0102 5.6393 98.9702 6.5393C98.9502 7.0193 99.1002 7.4393 99.4202 7.7993C99.7402 8.1593 100.24 8.5293 100.92 8.9093C101.56 9.2493 102.24 9.5693 102.96 9.8693C103.68 10.1493 104.64 10.4893 105.84 10.8893C107.44 11.4293 108.71 12.1393 109.65 13.0193C110.61 13.8793 111.09 14.9993 111.09 16.3793C111.09 17.6593 110.71 18.7893 109.95 19.7693C109.19 20.7493 108.19 21.5093 106.95 22.0493C105.73 22.5693 104.42 22.8293 103.02 22.8293Z" fill="white"/>
</svg>
